<svg xmlns="http://www.w3.org/2000/svg" viewBox="0 0 163.636 227.335">
  <defs>
    <style>
      .cls-1 {
        fill: #3e64ff;
      }
    </style>
  </defs>
  <g id="Layer_2" data-name="Layer 2">
    <path class="cls-1" d="M108.291,156.341l44.462-44.658a14.769,14.769,0,0,0,3.79-14.272L146.275,59.437c0-.009-2.287-8.528-9.252-1.532L126.96,68.012s-5.723,5.892-3.5,14.1l1.439,5.33.23.85,1.123,4.154a8.823,8.823,0,0,1-2.263,8.524L97.44,127.635a8.822,8.822,0,0,1-8.514,2.3l-36.362-9.657a8.818,8.818,0,0,1-6.251-6.223L36.5,77.737a8.823,8.823,0,0,1,2.263-8.524L65.306,42.55a8.816,8.816,0,0,1,8.514-2.3l9.948,2.645c9,2.392,16.263-4.738,16.267-4.747l9.166-9.206.094-.095c.772-.793,6.008-6.487-1.522-8.488L68.72,9.987a14.765,14.765,0,0,0-14.256,3.852L10.011,58.493a14.757,14.757,0,0,0-3.79,14.272L22.664,133.6A14.768,14.768,0,0,0,33.13,144.019l60.9,16.175A14.769,14.769,0,0,0,108.291,156.341Z"/>
    <path class="cls-1" d="M83.642,62.512a6.872,6.872,0,0,0,.021,9.721L94,82.53a6.871,6.871,0,0,0,9.721-.021l2.84-2.852,10.1-10.141,1.415-1.421L145.851,40.2a6.889,6.889,0,0,0-.02-9.721l-4.4-4.381-5.942-5.916a6.891,6.891,0,0,0-9.721.021L86.487,59.656Z"/>
    <g>
      <path class="cls-1" d="M154.068,177a2.126,2.126,0,0,0-.853-.191,1.521,1.521,0,0,0-1.421,1.039l-8.8,19.4L133.768,177.8a1.464,1.464,0,0,0-1.422-1,1.847,1.847,0,0,0-.852.191,1.465,1.465,0,0,0-1.039,1.421,1.86,1.86,0,0,0,.191.852l10.55,21.859v.049l-4.684,10.359a2.1,2.1,0,0,0-.187.852,1.473,1.473,0,0,0,1.088,1.421,1.912,1.912,0,0,0,.852.191,1.448,1.448,0,0,0,1.373-1.088l15.326-33.683a2.1,2.1,0,0,0,.187-.852A1.433,1.433,0,0,0,154.068,177Z"/>
      <path class="cls-1" d="M127.245,199.141h-1.181a2.443,2.443,0,0,1-2.1-1.279,6,6,0,0,1-.83-3.312V167.585a1.822,1.822,0,0,0-3.073-1.3,1.72,1.72,0,0,0-.519,1.3V194.55a9.2,9.2,0,0,0,1.82,5.892,5.731,5.731,0,0,0,4.707,2.3h.617a2.3,2.3,0,0,0,1.536-.5,1.615,1.615,0,0,0,.591-1.3,1.926,1.926,0,0,0-.427-1.3A1.421,1.421,0,0,0,127.245,199.141Z"/>
      <path class="cls-1" d="M113.9,199.141h-1.181a2.444,2.444,0,0,1-2.105-1.279,6,6,0,0,1-.83-3.312V167.585a1.821,1.821,0,0,0-3.072-1.3,1.717,1.717,0,0,0-.52,1.3V194.55a9.2,9.2,0,0,0,1.821,5.892,5.73,5.73,0,0,0,4.706,2.3h.617a2.3,2.3,0,0,0,1.536-.5,1.612,1.612,0,0,0,.591-1.3,1.93,1.93,0,0,0-.426-1.3A1.416,1.416,0,0,0,113.9,199.141Z"/>
      <path class="cls-1" d="M95.311,178.254a11.742,11.742,0,0,0-6.2-1.634A12.284,12.284,0,0,0,82.7,178.3a11.669,11.669,0,0,0-4.4,4.684,14.433,14.433,0,0,0-1.585,6.838A13.683,13.683,0,0,0,78.4,196.61a11.991,11.991,0,0,0,4.657,4.684,13.726,13.726,0,0,0,11.4.8,12.818,12.818,0,0,0,3.974-2.2,1.435,1.435,0,0,0,.52-1.088,1.71,1.71,0,0,0-.617-1.279,1.754,1.754,0,0,0-1.039-.377,2.1,2.1,0,0,0-1.279.471,8.334,8.334,0,0,1-2.766,1.491,10.487,10.487,0,0,1-3.428.591,9.3,9.3,0,0,1-9.653-8.7H99.281a1.727,1.727,0,0,0,1.23-.448,1.584,1.584,0,0,0,.47-1.208,14.117,14.117,0,0,0-1.491-6.576A11.046,11.046,0,0,0,95.311,178.254Zm-15.047,9.72a9.639,9.639,0,0,1,2.886-5.866,8.36,8.36,0,0,1,5.963-2.224,7.969,7.969,0,0,1,5.821,2.224,9.252,9.252,0,0,1,2.651,5.866Z"/>
      <path class="cls-1" d="M73.311,177a1.523,1.523,0,0,0-.76-.191,1.783,1.783,0,0,0-.945.262,1.461,1.461,0,0,0-.613.732L62.006,197.48,52.922,177.8a1.4,1.4,0,0,0-.59-.71,1.729,1.729,0,0,0-.875-.235,1.485,1.485,0,0,0-.76.191,1.635,1.635,0,0,0-1.039,1.514,1.467,1.467,0,0,0,.142.661l10.5,22.285a1.817,1.817,0,0,0,1.7,1.23,1.942,1.942,0,0,0,1.8-1.23l10.36-22.329a1.975,1.975,0,0,0,.141-.662A1.585,1.585,0,0,0,73.311,177Z"/>
      <path class="cls-1" d="M42.088,176.856a1.778,1.778,0,0,0-1.843,1.842v22.188a1.778,1.778,0,0,0,1.843,1.842,1.726,1.726,0,0,0,1.3-.519,1.828,1.828,0,0,0,.5-1.323V178.7a1.828,1.828,0,0,0-.5-1.323A1.735,1.735,0,0,0,42.088,176.856Z"/>
      <path class="cls-1" d="M42.088,166.781a2.6,2.6,0,0,0-1.847.711,2.4,2.4,0,0,0-.76,1.847,2.566,2.566,0,0,0,.733,1.847,2.429,2.429,0,0,0,1.82.759,2.592,2.592,0,0,0,2.607-2.606,2.413,2.413,0,0,0-.759-1.847A2.518,2.518,0,0,0,42.088,166.781Z"/>
      <path class="cls-1" d="M25.744,177.992a12.668,12.668,0,0,0-6.03-1.42,11.714,11.714,0,0,0-4.826.994,10.986,10.986,0,0,0-3.783,2.744V167.634a1.83,1.83,0,0,0-.5-1.324,1.719,1.719,0,0,0-1.3-.519,1.776,1.776,0,0,0-1.842,1.843v33.305a1.72,1.72,0,0,0,.519,1.3,1.836,1.836,0,0,0,1.323.5,1.707,1.707,0,0,0,1.8-1.8v-14a6.113,6.113,0,0,1,1.087-3.526,7.369,7.369,0,0,1,2.958-2.482,9.528,9.528,0,0,1,4.187-.9,8.6,8.6,0,0,1,6.127,2.2q2.345,2.2,2.344,6.412v12.3a1.738,1.738,0,0,0,.52,1.279,1.79,1.79,0,0,0,1.323.519,1.774,1.774,0,0,0,1.794-1.8v-12.3a13.192,13.192,0,0,0-1.514-6.5A10.2,10.2,0,0,0,25.744,177.992Z"/>
    </g>
  </g>
</svg>
