<svg xmlns="http://www.w3.org/2000/svg" viewBox="0 0 76.594 19.145"><defs><style>.cls-1{fill:#fff;}.cls-2{isolation:isolate;}</style></defs><g id="Capa_12" data-name="Capa 12"><g id="Trazado_936" data-name="Trazado 936"><rect class="cls-1" x="1.426" y="7.246" width="73.783" height="0.263"/></g><g id="Grupo_1800" data-name="Grupo 1800"><g id="USDT_ETH" data-name="USDT ETH" class="cls-2"><g class="cls-2"><path class="cls-1" d="M2.578,14.679a.621.621,0,0,0,.251-.048.513.513,0,0,0,.187-.132.586.586,0,0,0,.117-.2.82.82,0,0,0,.04-.26V12.662h.3v1.373a1.044,1.044,0,0,1-.062.363.852.852,0,0,1-.178.289.83.83,0,0,1-.283.192.98.98,0,0,1-.376.069.979.979,0,0,1-.375-.069.82.82,0,0,1-.283-.192.841.841,0,0,1-.18-.289,1.044,1.044,0,0,1-.062-.363V12.662h.305v1.372a.8.8,0,0,0,.04.26.58.58,0,0,0,.116.2.54.54,0,0,0,.188.133A.628.628,0,0,0,2.578,14.679Z"/><path class="cls-1" d="M5.159,13.015a.111.111,0,0,1-.03.036.065.065,0,0,1-.041.012.106.106,0,0,1-.062-.027.943.943,0,0,0-.09-.059.7.7,0,0,0-.131-.059.634.634,0,0,0-.366,0,.4.4,0,0,0-.132.075.321.321,0,0,0-.08.111.372.372,0,0,0-.026.138.254.254,0,0,0,.046.157.4.4,0,0,0,.123.107.949.949,0,0,0,.173.076l.2.067c.068.023.134.049.2.078a.717.717,0,0,1,.173.11A.5.5,0,0,1,5.237,14a.539.539,0,0,1,.047.236.76.76,0,0,1-.051.279.623.623,0,0,1-.147.226.683.683,0,0,1-.238.151.871.871,0,0,1-.321.055.985.985,0,0,1-.4-.079.943.943,0,0,1-.308-.215l.088-.145a.126.126,0,0,1,.031-.03.08.08,0,0,1,.04-.011.122.122,0,0,1,.076.035,1.132,1.132,0,0,0,.106.078.829.829,0,0,0,.155.078.6.6,0,0,0,.222.036.575.575,0,0,0,.193-.03.409.409,0,0,0,.145-.085.361.361,0,0,0,.09-.13A.43.43,0,0,0,5,14.28a.281.281,0,0,0-.047-.168A.382.382,0,0,0,4.828,14a.892.892,0,0,0-.173-.075l-.2-.063a1.766,1.766,0,0,1-.2-.075.645.645,0,0,1-.173-.11.517.517,0,0,1-.122-.169.607.607,0,0,1-.046-.252.6.6,0,0,1,.181-.43.657.657,0,0,1,.219-.139.789.789,0,0,1,.3-.052.954.954,0,0,1,.345.06.8.8,0,0,1,.273.173Z"/><path class="cls-1" d="M7.631,13.793a1.278,1.278,0,0,1-.08.461,1.029,1.029,0,0,1-.227.357,1.007,1.007,0,0,1-.352.229,1.223,1.223,0,0,1-.454.081H5.673V12.662h.845a1.223,1.223,0,0,1,.454.081,1,1,0,0,1,.352.231,1.029,1.029,0,0,1,.227.357A1.28,1.28,0,0,1,7.631,13.793Zm-.314,0a1.165,1.165,0,0,0-.056-.373.8.8,0,0,0-.161-.277.673.673,0,0,0-.252-.173.873.873,0,0,0-.33-.06H5.981v1.764h.537a.873.873,0,0,0,.33-.06.7.7,0,0,0,.252-.173.783.783,0,0,0,.161-.276A1.163,1.163,0,0,0,7.317,13.793Z"/><path class="cls-1" d="M9.431,12.662v.257H8.7v2H8.4v-2H7.663v-.257Z"/><path class="cls-1" d="M9.524,14.954a.155.155,0,0,1-.065.082.168.168,0,0,1-.089.027H9.252L10.2,12.7a.171.171,0,0,1,.058-.077.154.154,0,0,1,.09-.027h.118Z"/><path class="cls-1" d="M12.113,12.662v.249H11.028v.751h.878V13.9h-.878v.771h1.085v.249H10.721V12.662Z"/><path class="cls-1" d="M14.091,12.662v.257h-.729v2h-.306v-2h-.733v-.257Z"/><path class="cls-1" d="M16.245,14.921h-.308V13.893H14.72v1.028h-.307V12.662h.307V13.67h1.217V12.662h.308Z"/></g></g><g id="Pair" class="cls-2"><g class="cls-2"><path class="cls-1" d="M2.85,5.147c.012.028.022.056.033.084q.015-.043.033-.084c.011-.027.025-.054.039-.081L3.72,3.677a.09.09,0,0,1,.042-.044.181.181,0,0,1,.064-.008h.225V5.884H3.783V4.224c0-.022,0-.046,0-.071s0-.051.005-.077L3.015,5.488a.122.122,0,0,1-.11.071H2.861a.123.123,0,0,1-.111-.071L1.959,4.071c0,.027,0,.054.007.08s0,.051,0,.073v1.66H1.7V3.625h.226a.178.178,0,0,1,.063.008.09.09,0,0,1,.042.044l.781,1.39A.586.586,0,0,1,2.85,5.147Z"/><path class="cls-1" d="M5.73,5.884H5.605a.141.141,0,0,1-.066-.013.067.067,0,0,1-.033-.053l-.031-.149c-.042.038-.084.072-.124.1a.67.67,0,0,1-.126.076.647.647,0,0,1-.141.046.773.773,0,0,1-.166.016.576.576,0,0,1-.174-.026A.4.4,0,0,1,4.6,5.805a.382.382,0,0,1-.1-.132.479.479,0,0,1-.035-.189A.348.348,0,0,1,4.524,5.3a.456.456,0,0,1,.168-.156A1.1,1.1,0,0,1,5,5.034a2.063,2.063,0,0,1,.459-.044V4.865a.439.439,0,0,0-.08-.284.29.29,0,0,0-.235-.1.483.483,0,0,0-.173.027.593.593,0,0,0-.121.058c-.034.021-.064.041-.089.058a.121.121,0,0,1-.073.026.081.081,0,0,1-.049-.015A.1.1,0,0,1,4.6,4.6l-.051-.09a.917.917,0,0,1,.285-.19.882.882,0,0,1,.339-.063.591.591,0,0,1,.238.044.47.47,0,0,1,.175.123.521.521,0,0,1,.108.19.8.8,0,0,1,.036.246ZM5,5.712A.572.572,0,0,0,5.137,5.7a.5.5,0,0,0,.116-.043.606.606,0,0,0,.1-.066,1.014,1.014,0,0,0,.1-.09v-.33a1.813,1.813,0,0,0-.329.025.921.921,0,0,0-.221.064.3.3,0,0,0-.124.093.2.2,0,0,0-.038.121.259.259,0,0,0,.02.109.216.216,0,0,0,.055.076A.23.23,0,0,0,4.9,5.7.375.375,0,0,0,5,5.712Z"/><path class="cls-1" d="M6.156,5.884v-1.6h.16a.09.09,0,0,1,.063.017.1.1,0,0,1,.024.06l.019.249a.737.737,0,0,1,.2-.261.447.447,0,0,1,.282-.093.438.438,0,0,1,.12.015.42.42,0,0,1,.1.041l-.037.21a.046.046,0,0,1-.048.039.241.241,0,0,1-.068-.015.43.43,0,0,0-.128-.015A.359.359,0,0,0,6.6,4.62a.629.629,0,0,0-.165.247V5.884Z"/><path class="cls-1" d="M7.718,3.562V4.929H7.79a.128.128,0,0,0,.052-.009.149.149,0,0,0,.046-.036l.505-.54A.219.219,0,0,1,8.44,4.3.109.109,0,0,1,8.5,4.287h.255l-.588.626c-.015.018-.029.033-.043.047A.215.215,0,0,1,8.079,5a.269.269,0,0,1,.051.044.359.359,0,0,1,.043.056l.625.788H8.545a.122.122,0,0,1-.059-.013.161.161,0,0,1-.046-.042l-.525-.655a.13.13,0,0,0-.047-.043.188.188,0,0,0-.071-.01H7.718v.763H7.436V3.562Z"/><path class="cls-1" d="M9.616,4.262a.717.717,0,0,1,.265.048.585.585,0,0,1,.209.139.62.62,0,0,1,.138.223.869.869,0,0,1,.05.3.189.189,0,0,1-.014.088.06.06,0,0,1-.054.022H9.148a.882.882,0,0,0,.04.263.537.537,0,0,0,.1.187.416.416,0,0,0,.157.112.535.535,0,0,0,.205.037.613.613,0,0,0,.182-.024.951.951,0,0,0,.132-.053.878.878,0,0,0,.092-.053.125.125,0,0,1,.064-.024.065.065,0,0,1,.054.026l.078.1a.526.526,0,0,1-.124.11.857.857,0,0,1-.155.076,1,1,0,0,1-.171.045,1.052,1.052,0,0,1-.175.015.824.824,0,0,1-.306-.056.675.675,0,0,1-.241-.164.766.766,0,0,1-.158-.267,1.082,1.082,0,0,1-.057-.366.932.932,0,0,1,.051-.312.723.723,0,0,1,.148-.251A.669.669,0,0,1,9.3,4.322.775.775,0,0,1,9.616,4.262Zm.006.206a.43.43,0,0,0-.32.118.549.549,0,0,0-.145.325h.869A.565.565,0,0,0,10,4.732a.392.392,0,0,0-.079-.14A.341.341,0,0,0,9.793,4.5.421.421,0,0,0,9.622,4.468Z"/><path class="cls-1" d="M11.12,5.909a.387.387,0,0,1-.291-.1.423.423,0,0,1-.1-.305V4.522h-.192a.064.064,0,0,1-.043-.015.061.061,0,0,1-.017-.047V4.348l.262-.033.064-.493a.058.058,0,0,1,.021-.039.063.063,0,0,1,.044-.015h.142v.55h.457v.2h-.457V5.48a.2.2,0,0,0,.049.15.167.167,0,0,0,.126.049.216.216,0,0,0,.076-.012.293.293,0,0,0,.056-.026.427.427,0,0,0,.041-.026.05.05,0,0,1,.029-.012.048.048,0,0,1,.039.027l.082.134a.531.531,0,0,1-.175.107A.61.61,0,0,1,11.12,5.909Z"/></g></g></g><g id="Grupo_1801" data-name="Grupo 1801"><g id="Market" class="cls-2"><g class="cls-2"><path class="cls-1" d="M24.056,14.666h.978v.256H23.751V12.663h.3Z"/><path class="cls-1" d="M25.7,12.824a.18.18,0,0,1-.016.077.247.247,0,0,1-.044.063.232.232,0,0,1-.064.043.183.183,0,0,1-.077.016.18.18,0,0,1-.077-.016.213.213,0,0,1-.063-.043.22.22,0,0,1-.043-.063.18.18,0,0,1-.016-.077.191.191,0,0,1,.016-.078.2.2,0,0,1,.043-.065.213.213,0,0,1,.063-.043.2.2,0,0,1,.077-.016.2.2,0,0,1,.077.016.232.232,0,0,1,.064.043.226.226,0,0,1,.044.065A.191.191,0,0,1,25.7,12.824Zm-.063.5v1.6h-.28v-1.6Z"/><path class="cls-1" d="M26.134,14.922v-1.6H26.3a.073.073,0,0,1,.076.059l.02.164a.808.808,0,0,1,.2-.178.46.46,0,0,1,.255-.07.376.376,0,0,1,.262.09.51.51,0,0,1,.145.243.5.5,0,0,1,.087-.15.522.522,0,0,1,.122-.1.556.556,0,0,1,.145-.06.615.615,0,0,1,.155-.019.6.6,0,0,1,.224.04.457.457,0,0,1,.168.118.527.527,0,0,1,.1.19.816.816,0,0,1,.037.258v1.016h-.281V13.906a.431.431,0,0,0-.082-.285.294.294,0,0,0-.238-.1.348.348,0,0,0-.132.025.316.316,0,0,0-.109.071.336.336,0,0,0-.075.119.471.471,0,0,0-.028.167v1.016h-.28V13.906A.449.449,0,0,0,27,13.619a.276.276,0,0,0-.226-.1.358.358,0,0,0-.193.056.627.627,0,0,0-.163.152v1.19Z"/><path class="cls-1" d="M29.1,12.824a.181.181,0,0,1-.017.077.224.224,0,0,1-.044.063.206.206,0,0,1-.064.043.18.18,0,0,1-.077.016.176.176,0,0,1-.076-.016.213.213,0,0,1-.063-.043.224.224,0,0,1-.044-.063.2.2,0,0,1-.016-.077.2.2,0,0,1,.06-.143.213.213,0,0,1,.063-.043.191.191,0,0,1,.076-.016.2.2,0,0,1,.077.016.2.2,0,0,1,.108.108A.192.192,0,0,1,29.1,12.824Zm-.063.5v1.6h-.281v-1.6Z"/><path class="cls-1" d="M30.014,14.948a.388.388,0,0,1-.291-.106.42.42,0,0,1-.1-.3V13.56h-.192a.06.06,0,0,1-.042-.015.056.056,0,0,1-.018-.046v-.112l.262-.033.064-.494a.063.063,0,0,1,.021-.038.065.065,0,0,1,.044-.015H29.9v.55h.457v.2H29.9v.959a.2.2,0,0,0,.049.15.172.172,0,0,0,.126.048.218.218,0,0,0,.076-.011.329.329,0,0,0,.056-.026l.041-.026a.05.05,0,0,1,.029-.012.048.048,0,0,1,.039.027l.082.134a.529.529,0,0,1-.175.106A.585.585,0,0,1,30.014,14.948Z"/></g></g><g id="Shape"><path class="cls-1" d="M21.5,12.644h0a.269.269,0,0,0-.032-.027l-.012-.006a.126.126,0,0,0-.026-.013l-.015-.005-.025-.008a.222.222,0,0,0-.084,0l-.027.008-.014,0-.026.014-.011.006a.213.213,0,0,0-.032.026h0l-.79.794a.213.213,0,0,0,0,.3h0a.211.211,0,0,0,.3,0h0l.43-.429v1.864a.213.213,0,1,0,.426,0V13.309l.429.429a.209.209,0,0,0,.151.063.213.213,0,0,0,.151-.364h0Z"/></g><g id="Type" class="cls-2"><g class="cls-2"><path class="cls-1" d="M24,3.625v.257h-.73v2H22.96v-2h-.733V3.625Z"/><path class="cls-1" d="M24.458,6.355a.138.138,0,0,1-.036.051.1.1,0,0,1-.065.018h-.208l.292-.633-.659-1.5h.242a.085.085,0,0,1,.057.018.1.1,0,0,1,.03.04l.427,1.006a.637.637,0,0,1,.025.069c.007.024.013.047.018.071.007-.024.015-.047.022-.071s.016-.046.025-.071l.415-1a.086.086,0,0,1,.032-.041.084.084,0,0,1,.05-.017h.224Z"/><path class="cls-1" d="M25.6,6.424V4.287h.167a.072.072,0,0,1,.076.058l.024.189a.853.853,0,0,1,.234-.2.6.6,0,0,1,.3-.075.578.578,0,0,1,.249.052.521.521,0,0,1,.191.156.757.757,0,0,1,.121.257,1.282,1.282,0,0,1,.043.351,1.123,1.123,0,0,1-.047.329.809.809,0,0,1-.136.263.629.629,0,0,1-.506.239.589.589,0,0,1-.253-.049.554.554,0,0,1-.185-.139v.706Zm.711-1.939a.45.45,0,0,0-.24.064.675.675,0,0,0-.19.178V5.5a.442.442,0,0,0,.169.147.493.493,0,0,0,.206.042.4.4,0,0,0,.342-.159.741.741,0,0,0,.12-.454,1.155,1.155,0,0,0-.028-.268.524.524,0,0,0-.079-.183.314.314,0,0,0-.128-.1A.413.413,0,0,0,26.315,4.485Z"/><path class="cls-1" d="M27.977,4.262a.712.712,0,0,1,.264.048.589.589,0,0,1,.21.139.62.62,0,0,1,.138.223.869.869,0,0,1,.05.3.174.174,0,0,1-.015.088.057.057,0,0,1-.053.022H27.508a.88.88,0,0,0,.041.263.551.551,0,0,0,.1.187.419.419,0,0,0,.158.112.535.535,0,0,0,.2.037.613.613,0,0,0,.182-.024.951.951,0,0,0,.132-.053,1,1,0,0,0,.092-.053.122.122,0,0,1,.064-.024.061.061,0,0,1,.053.026l.079.1a.546.546,0,0,1-.124.11.835.835,0,0,1-.156.076.977.977,0,0,1-.171.045,1.043,1.043,0,0,1-.175.015.819.819,0,0,1-.3-.056.667.667,0,0,1-.241-.164.737.737,0,0,1-.158-.267,1.082,1.082,0,0,1-.057-.366.932.932,0,0,1,.051-.312.708.708,0,0,1,.148-.251.665.665,0,0,1,.234-.168A.783.783,0,0,1,27.977,4.262Zm.006.206a.428.428,0,0,0-.32.118.549.549,0,0,0-.145.325h.868a.6.6,0,0,0-.026-.179.408.408,0,0,0-.079-.14.341.341,0,0,0-.127-.091A.421.421,0,0,0,27.983,4.468Z"/></g></g></g><g id="Grupo_1802" data-name="Grupo 1802"><g id="Order_price" data-name="Order price" class="cls-2"><g class="cls-2"><path class="cls-1" d="M42.988,4.755a1.3,1.3,0,0,1-.08.466,1.073,1.073,0,0,1-.227.365,1.013,1.013,0,0,1-.352.237,1.178,1.178,0,0,1-.455.084,1.166,1.166,0,0,1-.454-.084,1.013,1.013,0,0,1-.352-.237,1.073,1.073,0,0,1-.227-.365,1.4,1.4,0,0,1,0-.932,1.073,1.073,0,0,1,.227-.365,1,1,0,0,1,.352-.239,1.166,1.166,0,0,1,.454-.086,1.178,1.178,0,0,1,.455.086,1,1,0,0,1,.352.239,1.073,1.073,0,0,1,.227.365A1.3,1.3,0,0,1,42.988,4.755Zm-.313,0a1.137,1.137,0,0,0-.057-.373.792.792,0,0,0-.161-.28.683.683,0,0,0-.252-.176.926.926,0,0,0-.661,0,.7.7,0,0,0-.253.176.777.777,0,0,0-.161.28,1.249,1.249,0,0,0,0,.746.781.781,0,0,0,.161.279.7.7,0,0,0,.253.175.926.926,0,0,0,.661,0,.681.681,0,0,0,.252-.175.8.8,0,0,0,.161-.279A1.137,1.137,0,0,0,42.675,4.755Z"/><path class="cls-1" d="M43.362,5.884v-1.6h.161a.093.093,0,0,1,.063.017.112.112,0,0,1,.023.06l.019.249a.737.737,0,0,1,.2-.261.48.48,0,0,1,.4-.078.413.413,0,0,1,.1.041l-.036.21a.048.048,0,0,1-.049.039.248.248,0,0,1-.068-.015.425.425,0,0,0-.128-.015.363.363,0,0,0-.245.086.639.639,0,0,0-.165.247V5.884Z"/><path class="cls-1" d="M45.757,5.884a.072.072,0,0,1-.076-.058l-.025-.194a.861.861,0,0,1-.234.2.6.6,0,0,1-.3.075.575.575,0,0,1-.249-.053A.51.51,0,0,1,44.68,5.7a.728.728,0,0,1-.121-.255,1.3,1.3,0,0,1-.043-.352,1.123,1.123,0,0,1,.047-.329A.807.807,0,0,1,44.7,4.5a.618.618,0,0,1,.506-.239.579.579,0,0,1,.251.049.6.6,0,0,1,.186.14V3.562h.281V5.884Zm-.544-.205a.452.452,0,0,0,.24-.063.7.7,0,0,0,.19-.178V4.665a.448.448,0,0,0-.169-.146.507.507,0,0,0-.2-.041.4.4,0,0,0-.343.159.741.741,0,0,0-.12.454,1.144,1.144,0,0,0,.027.267.514.514,0,0,0,.079.183.3.3,0,0,0,.127.1A.435.435,0,0,0,45.213,5.679Z"/><path class="cls-1" d="M47.027,4.262a.714.714,0,0,1,.265.048.589.589,0,0,1,.21.139.634.634,0,0,1,.138.223.869.869,0,0,1,.049.3.177.177,0,0,1-.014.088.058.058,0,0,1-.054.022H46.559a.88.88,0,0,0,.041.263.535.535,0,0,0,.1.187.419.419,0,0,0,.158.112.535.535,0,0,0,.2.037.613.613,0,0,0,.182-.024.934.934,0,0,0,.131-.053.9.9,0,0,0,.093-.053.119.119,0,0,1,.063-.024.063.063,0,0,1,.054.026l.079.1a.531.531,0,0,1-.125.11.826.826,0,0,1-.155.076.977.977,0,0,1-.171.045,1.043,1.043,0,0,1-.175.015.819.819,0,0,1-.3-.056.658.658,0,0,1-.241-.164.753.753,0,0,1-.159-.267,1.082,1.082,0,0,1-.057-.366.933.933,0,0,1,.052-.312.721.721,0,0,1,.147-.251.678.678,0,0,1,.235-.168A.775.775,0,0,1,47.027,4.262Zm.007.206a.43.43,0,0,0-.321.118.555.555,0,0,0-.145.325h.869a.565.565,0,0,0-.027-.179.392.392,0,0,0-.079-.14.337.337,0,0,0-.126-.091A.421.421,0,0,0,47.034,4.468Z"/><path class="cls-1" d="M48.047,5.884v-1.6h.161a.093.093,0,0,1,.063.017.112.112,0,0,1,.024.06l.019.249a.735.735,0,0,1,.2-.261.48.48,0,0,1,.4-.078.4.4,0,0,1,.1.041l-.036.21a.047.047,0,0,1-.049.039.248.248,0,0,1-.068-.015.423.423,0,0,0-.127-.015.363.363,0,0,0-.246.086.638.638,0,0,0-.164.247V5.884Z"/><path class="cls-1" d="M50.306,5.039v.845H50V3.625h.667a1.259,1.259,0,0,1,.373.049.715.715,0,0,1,.262.142.569.569,0,0,1,.155.22.763.763,0,0,1,.052.289.729.729,0,0,1-.056.288.613.613,0,0,1-.161.226.749.749,0,0,1-.264.147,1.143,1.143,0,0,1-.361.053Zm0-.243h.363a.684.684,0,0,0,.231-.035.493.493,0,0,0,.168-.1.408.408,0,0,0,.1-.15.506.506,0,0,0,.035-.19.438.438,0,0,0-.133-.338.581.581,0,0,0-.4-.121h-.363Z"/><path class="cls-1" d="M51.853,5.884v-1.6h.16a.094.094,0,0,1,.064.017.112.112,0,0,1,.023.06l.019.249a.737.737,0,0,1,.2-.261.45.45,0,0,1,.283-.093.435.435,0,0,1,.119.015.42.42,0,0,1,.1.041l-.036.21a.048.048,0,0,1-.049.039.241.241,0,0,1-.068-.015.43.43,0,0,0-.128-.015.361.361,0,0,0-.245.086.629.629,0,0,0-.165.247V5.884Z"/><path class="cls-1" d="M53.5,3.785a.181.181,0,0,1-.017.077.216.216,0,0,1-.044.063.2.2,0,0,1-.064.043.183.183,0,0,1-.077.016.18.18,0,0,1-.077-.016.2.2,0,0,1-.063-.043.2.2,0,0,1-.043-.063.18.18,0,0,1-.016-.077.191.191,0,0,1,.016-.078.2.2,0,0,1,.043-.064A.247.247,0,0,1,53.22,3.6a.2.2,0,0,1,.077-.015.2.2,0,0,1,.077.015.235.235,0,0,1,.064.044.221.221,0,0,1,.044.064A.192.192,0,0,1,53.5,3.785Zm-.063.5v1.6h-.281v-1.6Z"/><path class="cls-1" d="M55.02,4.571A.157.157,0,0,1,55,4.6a.058.058,0,0,1-.037.01.1.1,0,0,1-.051-.02c-.018-.013-.042-.027-.07-.043a.561.561,0,0,0-.1-.043.463.463,0,0,0-.149-.02.484.484,0,0,0-.207.042.39.39,0,0,0-.15.12.548.548,0,0,0-.092.191.969.969,0,0,0-.031.251.879.879,0,0,0,.034.257.562.562,0,0,0,.093.19.389.389,0,0,0,.145.116.452.452,0,0,0,.194.04.5.5,0,0,0,.168-.024.522.522,0,0,0,.111-.054.738.738,0,0,0,.072-.055.089.089,0,0,1,.057-.024.059.059,0,0,1,.053.026l.079.1a.611.611,0,0,1-.26.187.931.931,0,0,1-.329.059.716.716,0,0,1-.279-.055.641.641,0,0,1-.223-.16.774.774,0,0,1-.149-.258,1.042,1.042,0,0,1-.054-.348,1.029,1.029,0,0,1,.05-.33.737.737,0,0,1,.145-.261.655.655,0,0,1,.235-.171.8.8,0,0,1,.322-.061.762.762,0,0,1,.3.054.711.711,0,0,1,.229.154Z"/><path class="cls-1" d="M56.035,4.262a.714.714,0,0,1,.265.048.589.589,0,0,1,.21.139.632.632,0,0,1,.137.223.847.847,0,0,1,.05.3.177.177,0,0,1-.014.088.058.058,0,0,1-.054.022H55.567a.88.88,0,0,0,.041.263.535.535,0,0,0,.1.187.424.424,0,0,0,.157.112.54.54,0,0,0,.206.037.613.613,0,0,0,.182-.024.987.987,0,0,0,.131-.053.785.785,0,0,0,.092-.053.125.125,0,0,1,.064-.024.065.065,0,0,1,.054.026l.079.1a.531.531,0,0,1-.125.11.826.826,0,0,1-.155.076.977.977,0,0,1-.171.045,1.043,1.043,0,0,1-.175.015.815.815,0,0,1-.3-.056.658.658,0,0,1-.241-.164.753.753,0,0,1-.159-.267,1.082,1.082,0,0,1-.057-.366.908.908,0,0,1,.052-.312.721.721,0,0,1,.147-.251.669.669,0,0,1,.235-.168A.775.775,0,0,1,56.035,4.262Zm.006.206a.43.43,0,0,0-.32.118.555.555,0,0,0-.145.325h.869a.565.565,0,0,0-.027-.179.392.392,0,0,0-.079-.14.333.333,0,0,0-.127-.091A.417.417,0,0,0,56.041,4.468Z"/></g></g><g id="_681.79990012" data-name=" 681.79990012" class="cls-2"><g class="cls-2"><path class="cls-1" d="M35.548,13.538a.735.735,0,0,1,.257.045.611.611,0,0,1,.358.342.737.737,0,0,1,.053.286.754.754,0,0,1-.056.291.71.71,0,0,1-.159.233.734.734,0,0,1-.245.156.848.848,0,0,1-.315.057.822.822,0,0,1-.309-.055.667.667,0,0,1-.235-.154.685.685,0,0,1-.151-.243.916.916,0,0,1-.053-.319.847.847,0,0,1,.067-.316,1.617,1.617,0,0,1,.209-.359l.573-.771a.167.167,0,0,1,.061-.048.2.2,0,0,1,.09-.02h.249l-.784.992a.658.658,0,0,1,.179-.086A.712.712,0,0,1,35.548,13.538Zm-.583.688a.6.6,0,0,0,.031.2.437.437,0,0,0,.092.155.426.426,0,0,0,.148.1.525.525,0,0,0,.2.035.555.555,0,0,0,.2-.036.466.466,0,0,0,.157-.1.459.459,0,0,0,.1-.153.563.563,0,0,0,0-.391.426.426,0,0,0-.1-.152.431.431,0,0,0-.152-.1.549.549,0,0,0-.194-.033.52.52,0,0,0-.205.038.5.5,0,0,0-.155.1.449.449,0,0,0-.1.152A.475.475,0,0,0,34.965,14.226Z"/><path class="cls-1" d="M37.329,12.638a.832.832,0,0,1,.265.041.616.616,0,0,1,.209.117.516.516,0,0,1,.136.183.557.557,0,0,1,.049.238.625.625,0,0,1-.027.191.477.477,0,0,1-.079.148.46.46,0,0,1-.124.108.662.662,0,0,1-.162.071.615.615,0,0,1,.332.2.528.528,0,0,1,.111.344.653.653,0,0,1-.059.28.641.641,0,0,1-.162.212.725.725,0,0,1-.239.134.9.9,0,0,1-.292.047.931.931,0,0,1-.308-.045.634.634,0,0,1-.216-.124.666.666,0,0,1-.145-.187,1.364,1.364,0,0,1-.1-.234l.12-.05a.157.157,0,0,1,.066-.014.113.113,0,0,1,.056.013.085.085,0,0,1,.037.042l.006.013.007.015c.014.03.032.065.053.1a.43.43,0,0,0,.086.108.441.441,0,0,0,.133.085.5.5,0,0,0,.2.035.516.516,0,0,0,.207-.039.439.439,0,0,0,.148-.1.42.42,0,0,0,.089-.137.4.4,0,0,0,.03-.149.554.554,0,0,0-.024-.168.3.3,0,0,0-.089-.131.459.459,0,0,0-.176-.086,1.1,1.1,0,0,0-.289-.032v-.205a.877.877,0,0,0,.245-.03.477.477,0,0,0,.166-.082.306.306,0,0,0,.094-.124.439.439,0,0,0,.029-.161.423.423,0,0,0-.031-.17.309.309,0,0,0-.084-.12.351.351,0,0,0-.127-.071.508.508,0,0,0-.158-.024.472.472,0,0,0-.158.026.424.424,0,0,0-.129.07.384.384,0,0,0-.093.107.455.455,0,0,0-.057.134.13.13,0,0,1-.038.067.1.1,0,0,1-.065.02h-.016l-.02,0-.146-.025A.81.81,0,0,1,36.677,13a.646.646,0,0,1,.16-.2.666.666,0,0,1,.222-.122A.844.844,0,0,1,37.329,12.638Z"/><path class="cls-1" d="M39.915,13.794a1.852,1.852,0,0,1-.064.513,1.1,1.1,0,0,1-.174.359.709.709,0,0,1-.261.211.768.768,0,0,1-.323.069.757.757,0,0,1-.322-.069.7.7,0,0,1-.259-.211,1.064,1.064,0,0,1-.174-.359,2.124,2.124,0,0,1,0-1.027,1.06,1.06,0,0,1,.174-.36.687.687,0,0,1,.259-.212.743.743,0,0,1,.322-.07.754.754,0,0,1,.323.07.693.693,0,0,1,.261.212,1.1,1.1,0,0,1,.174.36A1.855,1.855,0,0,1,39.915,13.794Zm-.292,0a1.85,1.85,0,0,0-.043-.435.877.877,0,0,0-.117-.283.442.442,0,0,0-.169-.153.451.451,0,0,0-.4,0,.442.442,0,0,0-.169.153.878.878,0,0,0-.115.283,1.845,1.845,0,0,0-.044.435,1.821,1.821,0,0,0,.044.433.862.862,0,0,0,.115.282.438.438,0,0,0,.169.154.451.451,0,0,0,.4,0,.438.438,0,0,0,.169-.154.861.861,0,0,0,.117-.282A1.826,1.826,0,0,0,39.623,13.794Z"/><path class="cls-1" d="M40.148,14.749a.2.2,0,0,1,.015-.077.191.191,0,0,1,.041-.063.2.2,0,0,1,.062-.043.2.2,0,0,1,.077-.016.205.205,0,0,1,.078.016.213.213,0,0,1,.063.043.191.191,0,0,1,.041.063.208.208,0,0,1,0,.155.186.186,0,0,1-.041.062.193.193,0,0,1-.063.042.2.2,0,0,1-.078.015.2.2,0,0,1-.077-.015.179.179,0,0,1-.062-.042.186.186,0,0,1-.041-.062A.2.2,0,0,1,40.148,14.749Z"/><path class="cls-1" d="M41.543,14a.7.7,0,0,1-.242-.042.582.582,0,0,1-.2-.125.6.6,0,0,1-.138-.2.75.75,0,0,1,0-.554.676.676,0,0,1,.155-.225.715.715,0,0,1,.236-.152.814.814,0,0,1,.3-.055.775.775,0,0,1,.3.054.651.651,0,0,1,.373.38.825.825,0,0,1,.051.3.9.9,0,0,1-.071.356,1.364,1.364,0,0,1-.083.167c-.032.055-.068.112-.109.171l-.55.794a.149.149,0,0,1-.059.048.2.2,0,0,1-.087.018H41.16l.687-.9.065-.086c.02-.028.039-.055.057-.083a.61.61,0,0,1-.2.106A.724.724,0,0,1,41.543,14Zm.564-.66a.537.537,0,0,0-.033-.192A.428.428,0,0,0,41.98,13a.421.421,0,0,0-.143-.093.541.541,0,0,0-.372,0,.447.447,0,0,0-.147.094.421.421,0,0,0-.093.143.5.5,0,0,0-.033.183.573.573,0,0,0,.03.192.39.39,0,0,0,.089.142.369.369,0,0,0,.14.089.54.54,0,0,0,.185.03.5.5,0,0,0,.2-.038.435.435,0,0,0,.147-.1.419.419,0,0,0,.092-.142A.454.454,0,0,0,42.107,13.335Z"/><path class="cls-1" d="M43.419,14.948a1.012,1.012,0,0,1-.309-.045.7.7,0,0,1-.241-.129.581.581,0,0,1-.156-.2.628.628,0,0,1-.055-.267.557.557,0,0,1,.113-.359.621.621,0,0,1,.325-.2.514.514,0,0,1-.36-.512.558.558,0,0,1,.188-.423.646.646,0,0,1,.215-.126.872.872,0,0,1,.559,0,.641.641,0,0,1,.216.126.558.558,0,0,1,.188.423.538.538,0,0,1-.092.314.546.546,0,0,1-.268.2.621.621,0,0,1,.325.2.551.551,0,0,1,.114.359.629.629,0,0,1-.056.267.6.6,0,0,1-.157.2.69.69,0,0,1-.24.129A1.012,1.012,0,0,1,43.419,14.948Zm0-.224a.58.58,0,0,0,.2-.031.4.4,0,0,0,.148-.087.372.372,0,0,0,.093-.134.436.436,0,0,0,.032-.172.482.482,0,0,0-.038-.2.369.369,0,0,0-.1-.134.424.424,0,0,0-.151-.077.672.672,0,0,0-.356,0,.424.424,0,0,0-.151.077.369.369,0,0,0-.1.134.482.482,0,0,0-.038.2.454.454,0,0,0,.032.172.372.372,0,0,0,.093.134.4.4,0,0,0,.148.087A.58.58,0,0,0,43.419,14.724Zm0-1.085a.461.461,0,0,0,.188-.034.325.325,0,0,0,.127-.09.343.343,0,0,0,.071-.128.5.5,0,0,0,.022-.15.4.4,0,0,0-.026-.148.346.346,0,0,0-.077-.122.369.369,0,0,0-.128-.081.537.537,0,0,0-.354,0,.369.369,0,0,0-.128.081.346.346,0,0,0-.077.122.4.4,0,0,0-.026.148.5.5,0,0,0,.022.15.343.343,0,0,0,.071.128.332.332,0,0,0,.127.09A.461.461,0,0,0,43.419,13.639Z"/><path class="cls-1" d="M46.069,13.794a1.815,1.815,0,0,1-.064.513,1.064,1.064,0,0,1-.174.359.7.7,0,0,1-.261.211.788.788,0,0,1-.645,0,.711.711,0,0,1-.259-.211,1.063,1.063,0,0,1-.173-.359,2.124,2.124,0,0,1,0-1.027,1.059,1.059,0,0,1,.173-.36.7.7,0,0,1,.259-.212.778.778,0,0,1,.645,0,.685.685,0,0,1,.261.212,1.06,1.06,0,0,1,.174.36A1.818,1.818,0,0,1,46.069,13.794Zm-.291,0a1.845,1.845,0,0,0-.044-.435.877.877,0,0,0-.117-.283.435.435,0,0,0-.169-.153.449.449,0,0,0-.4,0,.429.429,0,0,0-.169.153.877.877,0,0,0-.116.283,1.85,1.85,0,0,0-.043.435,1.826,1.826,0,0,0,.043.433.862.862,0,0,0,.116.282.424.424,0,0,0,.169.154.449.449,0,0,0,.4,0,.431.431,0,0,0,.169-.154.861.861,0,0,0,.117-.282A1.821,1.821,0,0,0,45.778,13.794Z"/><path class="cls-1" d="M47.9,13.794a1.852,1.852,0,0,1-.064.513,1.1,1.1,0,0,1-.174.359.709.709,0,0,1-.261.211.768.768,0,0,1-.323.069.757.757,0,0,1-.322-.069.7.7,0,0,1-.259-.211,1.064,1.064,0,0,1-.174-.359,2.124,2.124,0,0,1,0-1.027,1.06,1.06,0,0,1,.174-.36.687.687,0,0,1,.259-.212.743.743,0,0,1,.322-.07.754.754,0,0,1,.323.07.693.693,0,0,1,.261.212,1.1,1.1,0,0,1,.174.36A1.855,1.855,0,0,1,47.9,13.794Zm-.292,0a1.85,1.85,0,0,0-.043-.435.877.877,0,0,0-.117-.283.438.438,0,0,0-.17-.153.449.449,0,0,0-.4,0,.442.442,0,0,0-.169.153.878.878,0,0,0-.115.283,1.845,1.845,0,0,0-.044.435,1.821,1.821,0,0,0,.044.433.862.862,0,0,0,.115.282.438.438,0,0,0,.169.154.449.449,0,0,0,.4,0,.433.433,0,0,0,.17-.154.861.861,0,0,0,.117-.282A1.826,1.826,0,0,0,47.606,13.794Z"/><path class="cls-1" d="M49.726,13.794a1.855,1.855,0,0,1-.063.513,1.083,1.083,0,0,1-.175.359.694.694,0,0,1-.261.211.786.786,0,0,1-.644,0,.706.706,0,0,1-.26-.211,1.082,1.082,0,0,1-.173-.359,2.124,2.124,0,0,1,0-1.027,1.078,1.078,0,0,1,.173-.36.69.69,0,0,1,.26-.212.776.776,0,0,1,.644,0,.678.678,0,0,1,.261.212,1.079,1.079,0,0,1,.175.36A1.857,1.857,0,0,1,49.726,13.794Zm-.291,0a1.845,1.845,0,0,0-.044-.435.877.877,0,0,0-.116-.283.445.445,0,0,0-.17-.153.449.449,0,0,0-.4,0,.435.435,0,0,0-.169.153.9.9,0,0,0-.116.283,1.85,1.85,0,0,0-.043.435,1.826,1.826,0,0,0,.043.433.884.884,0,0,0,.116.282.431.431,0,0,0,.169.154.449.449,0,0,0,.4,0,.44.44,0,0,0,.17-.154.862.862,0,0,0,.116-.282A1.821,1.821,0,0,0,49.435,13.794Z"/><path class="cls-1" d="M51.555,13.794a1.815,1.815,0,0,1-.064.513,1.064,1.064,0,0,1-.174.359.709.709,0,0,1-.261.211.788.788,0,0,1-.645,0,.711.711,0,0,1-.259-.211,1.063,1.063,0,0,1-.173-.359,2.124,2.124,0,0,1,0-1.027,1.059,1.059,0,0,1,.173-.36.7.7,0,0,1,.259-.212.778.778,0,0,1,.645,0,.693.693,0,0,1,.261.212,1.06,1.06,0,0,1,.174.36A1.818,1.818,0,0,1,51.555,13.794Zm-.292,0a1.85,1.85,0,0,0-.043-.435.877.877,0,0,0-.117-.283.442.442,0,0,0-.169-.153.451.451,0,0,0-.4,0,.433.433,0,0,0-.168.153.877.877,0,0,0-.116.283,1.85,1.85,0,0,0-.043.435,1.826,1.826,0,0,0,.043.433.862.862,0,0,0,.116.282.428.428,0,0,0,.168.154.451.451,0,0,0,.4,0,.438.438,0,0,0,.169-.154.861.861,0,0,0,.117-.282A1.826,1.826,0,0,0,51.263,13.794Z"/><path class="cls-1" d="M53.384,13.794a1.815,1.815,0,0,1-.064.513,1.1,1.1,0,0,1-.174.359.709.709,0,0,1-.261.211.768.768,0,0,1-.323.069.757.757,0,0,1-.322-.069.7.7,0,0,1-.259-.211,1.064,1.064,0,0,1-.174-.359,2.124,2.124,0,0,1,0-1.027,1.06,1.06,0,0,1,.174-.36.687.687,0,0,1,.259-.212.743.743,0,0,1,.322-.07.754.754,0,0,1,.323.07.693.693,0,0,1,.261.212,1.1,1.1,0,0,1,.174.36A1.818,1.818,0,0,1,53.384,13.794Zm-.292,0a1.85,1.85,0,0,0-.043-.435.877.877,0,0,0-.117-.283.442.442,0,0,0-.169-.153.451.451,0,0,0-.4,0,.442.442,0,0,0-.169.153.9.9,0,0,0-.115.283,1.845,1.845,0,0,0-.044.435,1.821,1.821,0,0,0,.044.433.884.884,0,0,0,.115.282.438.438,0,0,0,.169.154.451.451,0,0,0,.4,0,.438.438,0,0,0,.169-.154.861.861,0,0,0,.117-.282A1.826,1.826,0,0,0,53.092,13.794Z"/><path class="cls-1" d="M55.212,13.794a1.815,1.815,0,0,1-.064.513,1.064,1.064,0,0,1-.174.359.694.694,0,0,1-.261.211.786.786,0,0,1-.644,0,.706.706,0,0,1-.26-.211,1.082,1.082,0,0,1-.173-.359,2.124,2.124,0,0,1,0-1.027,1.078,1.078,0,0,1,.173-.36.69.69,0,0,1,.26-.212.776.776,0,0,1,.644,0,.678.678,0,0,1,.261.212,1.06,1.06,0,0,1,.174.36A1.818,1.818,0,0,1,55.212,13.794Zm-.291,0a1.845,1.845,0,0,0-.044-.435.877.877,0,0,0-.116-.283.445.445,0,0,0-.17-.153.449.449,0,0,0-.4,0,.435.435,0,0,0-.169.153.9.9,0,0,0-.116.283,1.85,1.85,0,0,0-.043.435,1.826,1.826,0,0,0,.043.433.884.884,0,0,0,.116.282.431.431,0,0,0,.169.154.449.449,0,0,0,.4,0,.44.44,0,0,0,.17-.154.862.862,0,0,0,.116-.282A1.821,1.821,0,0,0,54.921,13.794Z"/><path class="cls-1" d="M57.068,14.68a.619.619,0,0,0,.25-.048.513.513,0,0,0,.187-.132.591.591,0,0,0,.117-.2.8.8,0,0,0,.04-.261V12.663h.3v1.373a1.017,1.017,0,0,1-.062.363.836.836,0,0,1-.178.289.806.806,0,0,1-.283.192,1.054,1.054,0,0,1-.75,0,.811.811,0,0,1-.284-.192.824.824,0,0,1-.179-.289,1.017,1.017,0,0,1-.062-.363V12.663h.3v1.372a.8.8,0,0,0,.04.26.573.573,0,0,0,.117.2.515.515,0,0,0,.187.133A.613.613,0,0,0,57.068,14.68Z"/><path class="cls-1" d="M59.649,13.016a.143.143,0,0,1-.03.036.069.069,0,0,1-.041.012.111.111,0,0,1-.063-.027.742.742,0,0,0-.09-.059.72.72,0,0,0-.13-.059.566.566,0,0,0-.186-.027.529.529,0,0,0-.181.028.391.391,0,0,0-.132.074.313.313,0,0,0-.079.112.347.347,0,0,0-.027.138.253.253,0,0,0,.046.156.4.4,0,0,0,.123.107.93.93,0,0,0,.174.076l.2.067c.068.023.135.049.2.078a.68.68,0,0,1,.173.11.5.5,0,0,1,.124.162.556.556,0,0,1,.046.237.779.779,0,0,1-.05.278.638.638,0,0,1-.148.226.683.683,0,0,1-.238.151.871.871,0,0,1-.321.056.977.977,0,0,1-.4-.08.947.947,0,0,1-.309-.215l.089-.145a.092.092,0,0,1,.03-.029.075.075,0,0,1,.041-.012.126.126,0,0,1,.075.035,1.159,1.159,0,0,0,.107.078.737.737,0,0,0,.154.078.607.607,0,0,0,.222.036.585.585,0,0,0,.194-.03.427.427,0,0,0,.144-.084.382.382,0,0,0,.091-.13.439.439,0,0,0,.031-.169.283.283,0,0,0-.046-.168.386.386,0,0,0-.123-.11.909.909,0,0,0-.172-.075l-.2-.063a1.873,1.873,0,0,1-.2-.074.657.657,0,0,1-.173-.111.5.5,0,0,1-.122-.169.606.606,0,0,1-.047-.252.606.606,0,0,1,.182-.43.643.643,0,0,1,.218-.139.79.79,0,0,1,.3-.052.954.954,0,0,1,.345.06.8.8,0,0,1,.273.174Z"/><path class="cls-1" d="M62.12,13.794a1.266,1.266,0,0,1-.08.462,1.034,1.034,0,0,1-.227.356,1.007,1.007,0,0,1-.352.229,1.219,1.219,0,0,1-.454.081h-.845V12.663h.845a1.2,1.2,0,0,1,.454.082,1,1,0,0,1,.352.23,1.029,1.029,0,0,1,.227.357A1.259,1.259,0,0,1,62.12,13.794Zm-.313,0a1.127,1.127,0,0,0-.057-.372.777.777,0,0,0-.161-.278.688.688,0,0,0-.252-.173.873.873,0,0,0-.33-.06H60.47v1.764h.537a.873.873,0,0,0,.33-.06.676.676,0,0,0,.252-.173.768.768,0,0,0,.161-.276A1.131,1.131,0,0,0,61.807,13.794Z"/><path class="cls-1" d="M63.921,12.663v.257h-.73v2h-.306v-2h-.733v-.257Z"/></g></g></g><g id="Grupo_1803" data-name="Grupo 1803"><g id="Sustracción_39" data-name="Sustracción 39"><path class="cls-1" d="M71.545,16.488a2.747,2.747,0,1,1,1.941-.8A2.747,2.747,0,0,1,71.545,16.488Zm.078-2.393a.044.044,0,0,1,.03.012l.564.564a.225.225,0,0,0,.319,0h0l0-.005a.225.225,0,0,0,0-.319l-.564-.564a.045.045,0,0,1,0-.061l.564-.564a.226.226,0,0,0,0-.32h0l0,0a.227.227,0,0,0-.32,0l-.564.563a.041.041,0,0,1-.03.014.041.041,0,0,1-.031-.014l-.564-.563a.227.227,0,0,0-.32,0l0,0a.217.217,0,0,0-.066.159.223.223,0,0,0,.066.161l.563.564a.044.044,0,0,1,.013.032.036.036,0,0,1-.013.029l-.563.564a.223.223,0,0,0-.066.16.221.221,0,0,0,.066.159l0,.005a.226.226,0,0,0,.32,0h0l.564-.564A.043.043,0,0,1,71.623,14.1Z"/></g></g></g></svg>