<?xml version="1.0" encoding="utf-8"?>
<!-- Generator: Adobe Illustrator 24.2.0, SVG Export Plug-In . SVG Version: 6.00 Build 0)  -->
<svg version="1.1" id="Capa_1" xmlns="http://www.w3.org/2000/svg" xmlns:xlink="http://www.w3.org/1999/xlink" x="0px" y="0px"
	 viewBox="0 0 352.8 201.3" style="enable-background:new 0 0 352.8 201.3;" xml:space="preserve">
<style type="text/css">
	.st0{fill:#00006B;}
	.st1{fill:url(#SVGID_1_);}
	.st2{fill:url(#SVGID_2_);}
	.st3{fill:url(#SVGID_3_);}
	.st4{fill:url(#SVGID_4_);}
	.st5{fill:#AAE5F2;}
	.st6{fill:#3636B2;}
	.st7{fill:url(#SVGID_5_);}
	.st8{fill:url(#SVGID_6_);}
	.st9{fill:url(#SVGID_7_);}
	.st10{fill:url(#SVGID_8_);}
	.st11{fill:url(#SVGID_9_);}
	.st12{fill:url(#SVGID_10_);}
	.st13{fill:url(#SVGID_11_);}
	.st14{fill:url(#SVGID_12_);}
	.st15{fill:url(#SVGID_13_);}
	.st16{fill:url(#SVGID_14_);}
	.st17{fill:url(#SVGID_15_);}
	.st18{fill:#FFFFFF;}
	.st19{fill:url(#SVGID_16_);}
	.st20{fill:url(#SVGID_17_);}
	.st21{fill:url(#SVGID_18_);}
	.st22{fill:#8E8E8E;}
	.st23{fill:url(#SVGID_19_);}
	.st24{fill:url(#SVGID_20_);}
	.st25{fill:url(#SVGID_21_);}
	.st26{fill:url(#SVGID_22_);}
	.st27{fill:url(#SVGID_23_);}
	.st28{fill:url(#SVGID_24_);}
	.st29{fill:url(#SVGID_25_);}
	.st30{fill:url(#SVGID_26_);}
	.st31{fill:url(#SVGID_27_);}
	.st32{fill:url(#SVGID_28_);}
	.st33{fill:url(#SVGID_29_);}
	.st34{fill:url(#SVGID_30_);}
	.st35{fill:url(#SVGID_31_);}
	.st36{fill:url(#SVGID_32_);}
	.st37{fill:url(#SVGID_33_);}
	.st38{fill:url(#SVGID_34_);}
	.st39{fill:url(#SVGID_35_);}
	.st40{fill:url(#SVGID_36_);}
	.st41{fill:url(#SVGID_37_);}
	.st42{fill:url(#SVGID_38_);}
	.st43{fill:url(#SVGID_39_);}
	.st44{fill:url(#SVGID_40_);}
	.st45{fill:url(#SVGID_41_);}
	.st46{fill:url(#SVGID_42_);}
	.st47{fill:url(#SVGID_43_);}
	.st48{fill:url(#SVGID_44_);}
	.st49{fill:url(#SVGID_45_);}
	.st50{fill:url(#SVGID_46_);}
	.st51{fill:url(#SVGID_47_);}
	.st52{fill:url(#SVGID_48_);}
	.st53{fill:url(#SVGID_49_);}
	.st54{fill:url(#SVGID_50_);}
	.st55{fill:url(#SVGID_51_);}
	.st56{fill:url(#SVGID_52_);}
	.st57{fill:url(#SVGID_53_);}
	.st58{fill:url(#SVGID_54_);}
	.st59{fill:url(#SVGID_55_);}
	.st60{fill:url(#SVGID_56_);}
	.st61{fill:url(#SVGID_57_);}
	.st62{fill:url(#SVGID_58_);}
	.st63{fill:url(#SVGID_59_);}
	.st64{fill:url(#SVGID_60_);}
	.st65{fill:url(#SVGID_61_);}
	.st66{fill:url(#SVGID_62_);}
	.st67{fill:url(#SVGID_63_);}
	.st68{fill:url(#SVGID_64_);}
	.st69{fill:url(#SVGID_65_);}
	.st70{fill:url(#SVGID_66_);}
	.st71{fill:url(#SVGID_67_);}
	.st72{fill:url(#SVGID_68_);}
	.st73{fill:url(#SVGID_69_);}
	.st74{fill:url(#SVGID_70_);}
	.st75{fill:url(#SVGID_71_);}
	.st76{fill:url(#SVGID_72_);}
	.st77{fill:url(#SVGID_73_);}
	.st78{fill:url(#SVGID_74_);}
	.st79{fill:url(#SVGID_75_);}
	.st80{fill:url(#SVGID_76_);}
	.st81{fill:url(#SVGID_77_);}
	.st82{fill:url(#SVGID_78_);}
	.st83{fill:url(#SVGID_79_);}
	.st84{fill:url(#SVGID_80_);}
	.st85{fill:url(#SVGID_81_);}
	.st86{fill:url(#SVGID_82_);}
	.st87{fill:url(#SVGID_83_);}
	.st88{fill:url(#SVGID_84_);}
	.st89{fill:url(#SVGID_85_);}
	.st90{fill:url(#SVGID_86_);}
	.st91{fill:url(#SVGID_87_);}
	.st92{fill:url(#SVGID_88_);}
	.st93{fill:#00FFFF;}
	.st94{fill:url(#SVGID_89_);}
</style>
<g>
	<rect x="0.1" width="351.8" height="200.3"/>
	<g>
		<linearGradient id="SVGID_1_" gradientUnits="userSpaceOnUse" x1="0" y1="100.65" x2="352.8" y2="100.65">
			<stop  offset="0" style="stop-color:#5979B2"/>
			<stop  offset="1" style="stop-color:#AAE5F2"/>
		</linearGradient>
		<path class="st1" d="M351.8,1v199.3H1V1L351.8,1 M352.8,0H0v201.3h352.8C352.8,201.3,352.8,0,352.8,0z"/>
		<path class="st22" d="M66.6,10.7h-14V7.8h14V10.7z M53.6,9.6h11.9V8.8H53.6V9.6z"/>
		<path class="st22" d="M108.7,10.7H89.8V7.8h18.8V10.7z M90.9,9.6h16.6V8.8H90.9V9.6z"/>
		
			<linearGradient id="SVGID_2_" gradientUnits="userSpaceOnUse" x1="132.8883" y1="192.6075" x2="148.4774" y2="192.6075" gradientTransform="matrix(1 0 0 -1 0 201.8898)">
			<stop  offset="0" style="stop-color:#5979B2"/>
			<stop  offset="1" style="stop-color:#AAE5F2"/>
		</linearGradient>
		<path class="st2" d="M148.5,10.7h-15.6V7.8h15.6V10.7z M134,9.6h13.4V8.8H134V9.6z"/>
		<path class="st6" d="M279.8,11.7h-11.7V8.8h11.7V11.7z M269.2,10.6h9.5V9.8h-9.5V10.6z"/>
		
			<linearGradient id="SVGID_3_" gradientUnits="userSpaceOnUse" x1="56.1246" y1="89.4488" x2="62.2663" y2="89.4488" gradientTransform="matrix(1 0 0 -1 0 201.8898)">
			<stop  offset="0" style="stop-color:#59A5B2"/>
			<stop  offset="1" style="stop-color:#AAE5F2"/>
		</linearGradient>
		<path class="st3" d="M62.3,113.8h-6.1v-2.7h6.1V113.8z M57.2,112.7h4v-0.6h-4V112.7z"/>
		
			<linearGradient id="SVGID_4_" gradientUnits="userSpaceOnUse" x1="56.1246" y1="82.2236" x2="62.2663" y2="82.2236" gradientTransform="matrix(1 0 0 -1 0 201.8898)">
			<stop  offset="0" style="stop-color:#59A5B2"/>
			<stop  offset="1" style="stop-color:#AAE5F2"/>
		</linearGradient>
		<path class="st4" d="M62.3,121.4h-6.1v-3.5h6.1V121.4z M57.2,120.3h4V119h-4V120.3z"/>
		
			<linearGradient id="SVGID_5_" gradientUnits="userSpaceOnUse" x1="56.1246" y1="72.0884" x2="62.2663" y2="72.0884" gradientTransform="matrix(1 0 0 -1 0 201.8898)">
			<stop  offset="0" style="stop-color:#59A5B2"/>
			<stop  offset="1" style="stop-color:#AAE5F2"/>
		</linearGradient>
		<path class="st7" d="M62.3,131.6h-6.1V128h6.1V131.6z M57.2,130.5h4v-1.3h-4V130.5z"/>
		
			<linearGradient id="SVGID_6_" gradientUnits="userSpaceOnUse" x1="56.1246" y1="62.2542" x2="62.2663" y2="62.2542" gradientTransform="matrix(1 0 0 -1 0 201.8898)">
			<stop  offset="0" style="stop-color:#59A5B2"/>
			<stop  offset="1" style="stop-color:#AAE5F2"/>
		</linearGradient>
		<path class="st8" d="M62.3,141.4h-6.1v-3.5h6.1V141.4z M57.2,140.3h4V139h-4V140.3z"/>
		
			<linearGradient id="SVGID_7_" gradientUnits="userSpaceOnUse" x1="98.9402" y1="82.0229" x2="121.0716" y2="82.0229" gradientTransform="matrix(1 0 0 -1 0 201.8898)">
			<stop  offset="0" style="stop-color:#59A5B2"/>
			<stop  offset="1" style="stop-color:#AAE5F2"/>
		</linearGradient>
		<path class="st9" d="M121.1,121.6H98.9v-3.5h22.1V121.6z M100,120.5h20v-1.3h-20V120.5z"/>
		
			<linearGradient id="SVGID_8_" gradientUnits="userSpaceOnUse" x1="98.9402" y1="71.988" x2="121.0716" y2="71.988" gradientTransform="matrix(1 0 0 -1 0 201.8898)">
			<stop  offset="0" style="stop-color:#59A5B2"/>
			<stop  offset="1" style="stop-color:#AAE5F2"/>
		</linearGradient>
		<path class="st10" d="M121.1,131.7H98.9v-3.5h22.1V131.7z M100,130.7h20v-1.3h-20V130.7z"/>
		
			<linearGradient id="SVGID_9_" gradientUnits="userSpaceOnUse" x1="93.6327" y1="62.1538" x2="121.0716" y2="62.1538" gradientTransform="matrix(1 0 0 -1 0 201.8898)">
			<stop  offset="0" style="stop-color:#59A5B2"/>
			<stop  offset="1" style="stop-color:#AAE5F2"/>
		</linearGradient>
		<path class="st11" d="M121.1,141.5H93.6V138h27.4V141.5z M94.7,140.4H120v-1.3H94.7V140.4z"/>
		
			<linearGradient id="SVGID_10_" gradientUnits="userSpaceOnUse" x1="109.5793" y1="89.4488" x2="119.8288" y2="89.4488" gradientTransform="matrix(1 0 0 -1 0 201.8898)">
			<stop  offset="0" style="stop-color:#59A5B2"/>
			<stop  offset="1" style="stop-color:#AAE5F2"/>
		</linearGradient>
		<path class="st12" d="M119.9,113.8h-10.2v-2.7h10.2V113.8z M110.7,112.7h8.1v-0.6h-8.1V112.7z"/>
		
			<linearGradient id="SVGID_11_" gradientUnits="userSpaceOnUse" x1="126.3611" y1="192.6577" x2="131.936" y2="192.6577" gradientTransform="matrix(1 0 0 -1 0 201.8898)">
			<stop  offset="0" style="stop-color:#5979B2"/>
			<stop  offset="1" style="stop-color:#AAE5F2"/>
		</linearGradient>
		<path class="st13" d="M131.9,12h-5.6V6.4h5.6V12z M127.5,10.9h3.4V7.5h-3.4V10.9z"/>
		<path class="st22" d="M87.6,12H82V6.4h5.6V12z M83.1,10.9h3.4V7.5h-3.4V10.9z"/>
		<path class="st22" d="M49,12.8h-4.3V8.5H49V12.8z M45.8,11.8H48V9.6h-2.2V11.8z"/>
		<path class="st22" d="M46,8.9h-3.5V5.4H46V8.9z M43.6,7.8H45V6.4h-1.4V7.8z"/>
		
			<linearGradient id="SVGID_12_" gradientUnits="userSpaceOnUse" x1="98.5837" y1="134.2546" x2="114.975" y2="134.2546" gradientTransform="matrix(1 0 0 -1 0 201.8898)">
			<stop  offset="0" style="stop-color:#132968"/>
			<stop  offset="0.164" style="stop-color:#162D6B"/>
			<stop  offset="0.311" style="stop-color:#1F3773"/>
			<stop  offset="0.451" style="stop-color:#2D4A80"/>
			<stop  offset="0.588" style="stop-color:#426493"/>
			<stop  offset="0.721" style="stop-color:#5D85AB"/>
			<stop  offset="0.853" style="stop-color:#7DAEC9"/>
			<stop  offset="0.98" style="stop-color:#A3DDEC"/>
			<stop  offset="1" style="stop-color:#AAE5F2"/>
		</linearGradient>
		<path class="st14" d="M115,75.9H98.5V59.4H115V75.9z M99.6,74.9h14.2V60.6H99.6V74.9z"/>
		
			<linearGradient id="SVGID_13_" gradientUnits="userSpaceOnUse" x1="271.0401" y1="134.2546" x2="287.4303" y2="134.2546" gradientTransform="matrix(1 0 0 -1 0 201.8898)">
			<stop  offset="0" style="stop-color:#132968"/>
			<stop  offset="0.164" style="stop-color:#162D6B"/>
			<stop  offset="0.311" style="stop-color:#1F3773"/>
			<stop  offset="0.451" style="stop-color:#2D4A80"/>
			<stop  offset="0.588" style="stop-color:#426493"/>
			<stop  offset="0.721" style="stop-color:#5D85AB"/>
			<stop  offset="0.853" style="stop-color:#7DAEC9"/>
			<stop  offset="0.98" style="stop-color:#A3DDEC"/>
			<stop  offset="1" style="stop-color:#AAE5F2"/>
		</linearGradient>
		<path class="st15" d="M287.4,75.9H271V59.4h16.4V75.9z M272.1,74.9h14.2V60.6h-14.2V74.9z"/>
		<path class="st6" d="M207.2,113.9h-28.1v-8.3h28.1V113.9z M180.2,112.8h26v-6.1h-26V112.8z"/>
		
			<linearGradient id="SVGID_14_" gradientUnits="userSpaceOnUse" x1="52.4744" y1="65.6661" x2="131.4863" y2="65.6661" gradientTransform="matrix(1 0 0 -1 0 201.8898)">
			<stop  offset="0" style="stop-color:#132968"/>
			<stop  offset="0.164" style="stop-color:#162D6B"/>
			<stop  offset="0.311" style="stop-color:#1F3773"/>
			<stop  offset="0.451" style="stop-color:#2D4A80"/>
			<stop  offset="0.588" style="stop-color:#426493"/>
			<stop  offset="0.721" style="stop-color:#5D85AB"/>
			<stop  offset="0.853" style="stop-color:#7DAEC9"/>
			<stop  offset="0.98" style="stop-color:#A3DDEC"/>
			<stop  offset="1" style="stop-color:#AAE5F2"/>
		</linearGradient>
		<path class="st16" d="M131.5,164.2h-79v-55.9h79V164.2z M53.6,163.2h76.8v-53.8H53.6V163.2z"/>
		<path class="st6" d="M169.4,35.6h50.4v-4.1h-50.4V35.6z M220.9,36.7h-52.5v-6.2h52.5V36.7z"/>
		<path class="st6" d="M267.3,12.6h-6.7V8h6.7V12.6L267.3,12.6z M261.8,11.6h4.5V9.1h-4.5V11.6z"/>
		<path class="st6" d="M24.3,196.1H14.2v-7.3h10.1V196.1z M15.3,195.1h7.9v-5.2h-7.9V195.1z"/>
		
			<linearGradient id="SVGID_15_" gradientUnits="userSpaceOnUse" x1="32.446" y1="188.3928" x2="349.1949" y2="188.3928" gradientTransform="matrix(1 0 0 -1 0 201.8898)">
			<stop  offset="0" style="stop-color:#5979B2"/>
			<stop  offset="1" style="stop-color:#AAE5F2"/>
		</linearGradient>
		<polygon class="st17" points="349.2,20.4 34.4,20.4 34.4,8.3 32.4,7.6 32.8,6.6 35.6,7.5 35.5,19.3 346.6,19.3 344.3,16.9 
			345,16.2 		"/>
		
			<linearGradient id="SVGID_16_" gradientUnits="userSpaceOnUse" x1="4.8349" y1="163.1551" x2="12.1893" y2="163.1551" gradientTransform="matrix(1 0 0 -1 0 201.8898)">
			<stop  offset="0" style="stop-color:#5979B2"/>
			<stop  offset="1" style="stop-color:#AAE5F2"/>
		</linearGradient>
		<path class="st19" d="M8.5,42.4c-2,0-3.7-1.6-3.7-3.7S6.4,35,8.5,35s3.7,1.6,3.7,3.7S10.5,42.4,8.5,42.4z M8.5,36.1
			c-1.4,0-2.6,1.2-2.6,2.6s1.2,2.6,2.6,2.6s2.6-1.2,2.6-2.6l0,0C11.1,37.3,9.9,36.1,8.5,36.1z"/>
		
			<linearGradient id="SVGID_17_" gradientUnits="userSpaceOnUse" x1="4.948" y1="150.1097" x2="12.3024" y2="150.1097" gradientTransform="matrix(1 0 0 -1 0 201.8898)">
			<stop  offset="0" style="stop-color:#5979B2"/>
			<stop  offset="1" style="stop-color:#AAE5F2"/>
		</linearGradient>
		<path class="st20" d="M8.6,55.5c-2,0-3.7-1.6-3.7-3.7c0-2,1.6-3.7,3.7-3.7s3.7,1.6,3.7,3.7l0,0C12.3,53.9,10.6,55.5,8.6,55.5z
			 M8.6,49.3c-1.4,0-2.6,1.2-2.6,2.6c0,1.4,1.2,2.6,2.6,2.6s2.6-1.2,2.6-2.6l0,0C11.2,50.4,10,49.3,8.6,49.3L8.6,49.3L8.6,49.3z"/>
		
			<linearGradient id="SVGID_18_" gradientUnits="userSpaceOnUse" x1="4.948" y1="136.6629" x2="12.3024" y2="136.6629" gradientTransform="matrix(1 0 0 -1 0 201.8898)">
			<stop  offset="0" style="stop-color:#5979B2"/>
			<stop  offset="1" style="stop-color:#AAE5F2"/>
		</linearGradient>
		<path class="st21" d="M8.6,68.9c-2,0-3.7-1.6-3.7-3.7c0-2,1.6-3.7,3.7-3.7s3.7,1.6,3.7,3.7l0,0C12.3,67.2,10.6,68.9,8.6,68.9z
			 M8.6,62.6c-1.4,0-2.6,1.2-2.6,2.6c0,1.4,1.2,2.6,2.6,2.6s2.6-1.2,2.6-2.6C11.2,63.8,10,62.6,8.6,62.6z"/>
		
			<linearGradient id="SVGID_19_" gradientUnits="userSpaceOnUse" x1="4.948" y1="123.7179" x2="12.3024" y2="123.7179" gradientTransform="matrix(1 0 0 -1 0 201.8898)">
			<stop  offset="0" style="stop-color:#5979B2"/>
			<stop  offset="1" style="stop-color:#AAE5F2"/>
		</linearGradient>
		<path class="st23" d="M8.6,81.9c-2,0-3.7-1.6-3.7-3.7c0-2,1.6-3.7,3.7-3.7s3.7,1.6,3.7,3.7l0,0C12.3,80.2,10.6,81.9,8.6,81.9z
			 M8.6,75.6c-1.4,0-2.6,1.2-2.6,2.6c0,1.4,1.2,2.6,2.6,2.6s2.6-1.2,2.6-2.6l0,0C11.2,76.8,10,75.6,8.6,75.6L8.6,75.6z"/>
		
			<linearGradient id="SVGID_20_" gradientUnits="userSpaceOnUse" x1="4.948" y1="110.2712" x2="12.3024" y2="110.2712" gradientTransform="matrix(1 0 0 -1 0 201.8898)">
			<stop  offset="0" style="stop-color:#5979B2"/>
			<stop  offset="1" style="stop-color:#AAE5F2"/>
		</linearGradient>
		<path class="st24" d="M8.6,95.3c-2,0-3.7-1.6-3.7-3.7c0-2,1.6-3.7,3.7-3.7s3.7,1.6,3.7,3.7l0,0C12.3,93.6,10.6,95.3,8.6,95.3z
			 M8.6,89C7.2,89,6,90.2,6,91.6c0,1.4,1.2,2.6,2.6,2.6s2.6-1.2,2.6-2.6l0,0C11.2,90.2,10,89,8.6,89L8.6,89z"/>
		
			<linearGradient id="SVGID_21_" gradientUnits="userSpaceOnUse" x1="4.948" y1="97.1255" x2="12.3024" y2="97.1255" gradientTransform="matrix(1 0 0 -1 0 201.8898)">
			<stop  offset="0" style="stop-color:#5979B2"/>
			<stop  offset="1" style="stop-color:#AAE5F2"/>
		</linearGradient>
		<path class="st25" d="M8.6,108.5c-2,0-3.7-1.6-3.7-3.7c0-2,1.6-3.7,3.7-3.7s3.7,1.6,3.7,3.7l0,0C12.3,106.9,10.6,108.5,8.6,108.5z
			 M8.6,102.3c-1.4,0-2.6,1.2-2.6,2.6s1.2,2.6,2.6,2.6s2.6-1.2,2.6-2.6l0,0C11.2,103.4,10,102.3,8.6,102.3L8.6,102.3z"/>
		
			<linearGradient id="SVGID_22_" gradientUnits="userSpaceOnUse" x1="4.948" y1="83.779" x2="12.3024" y2="83.779" gradientTransform="matrix(1 0 0 -1 0 201.8898)">
			<stop  offset="0" style="stop-color:#5979B2"/>
			<stop  offset="1" style="stop-color:#AAE5F2"/>
		</linearGradient>
		<path class="st26" d="M8.6,121.8c-2,0-3.7-1.6-3.7-3.7c0-2,1.6-3.7,3.7-3.7s3.7,1.6,3.7,3.7l0,0C12.3,120.2,10.6,121.8,8.6,121.8z
			 M8.6,115.6c-1.4,0-2.6,1.2-2.6,2.6c0,1.4,1.2,2.6,2.6,2.6s2.6-1.2,2.6-2.6l0,0C11.2,116.7,10,115.6,8.6,115.6L8.6,115.6z"/>
		
			<linearGradient id="SVGID_23_" gradientUnits="userSpaceOnUse" x1="4.948" y1="70.834" x2="12.3024" y2="70.834" gradientTransform="matrix(1 0 0 -1 0 201.8898)">
			<stop  offset="0" style="stop-color:#5979B2"/>
			<stop  offset="1" style="stop-color:#AAE5F2"/>
		</linearGradient>
		<path class="st27" d="M8.6,134.8c-2,0-3.7-1.6-3.7-3.7c0-2,1.6-3.7,3.7-3.7s3.7,1.6,3.7,3.7l0,0C12.3,133.2,10.6,134.8,8.6,134.8z
			 M8.6,128.5c-1.4,0-2.6,1.2-2.6,2.6s1.2,2.6,2.6,2.6s2.6-1.2,2.6-2.6C11.2,129.7,10,128.5,8.6,128.5L8.6,128.5z"/>
		
			<linearGradient id="SVGID_24_" gradientUnits="userSpaceOnUse" x1="4.948" y1="56.7852" x2="12.3024" y2="56.7852" gradientTransform="matrix(1 0 0 -1 0 201.8898)">
			<stop  offset="0" style="stop-color:#5979B2"/>
			<stop  offset="1" style="stop-color:#AAE5F2"/>
		</linearGradient>
		<path class="st28" d="M8.6,148.8c-2,0-3.7-1.6-3.7-3.7c0-2,1.6-3.7,3.7-3.7s3.7,1.6,3.7,3.7l0,0C12.3,147.1,10.6,148.8,8.6,148.8z
			 M8.6,142.5c-1.4,0-2.6,1.2-2.6,2.6c0,1.4,1.2,2.6,2.6,2.6s2.6-1.2,2.6-2.6C11.2,143.7,10,142.5,8.6,142.5L8.6,142.5z"/>
		
			<linearGradient id="SVGID_25_" gradientUnits="userSpaceOnUse" x1="4.948" y1="43.4388" x2="12.3024" y2="43.4388" gradientTransform="matrix(1 0 0 -1 0 201.8898)">
			<stop  offset="0" style="stop-color:#5979B2"/>
			<stop  offset="1" style="stop-color:#AAE5F2"/>
		</linearGradient>
		<path class="st29" d="M8.6,162.2c-2,0-3.7-1.6-3.7-3.7c0-2,1.6-3.7,3.7-3.7s3.7,1.6,3.7,3.7l0,0C12.3,160.5,10.6,162.2,8.6,162.2z
			 M8.6,155.8c-1.4,0-2.6,1.2-2.6,2.6c0,1.4,1.2,2.6,2.6,2.6s2.6-1.2,2.6-2.6C11.2,157,10,155.8,8.6,155.8L8.6,155.8L8.6,155.8z"/>
		
			<linearGradient id="SVGID_26_" gradientUnits="userSpaceOnUse" x1="12.5468" y1="164.2589" x2="19.4125" y2="164.2589" gradientTransform="matrix(1 0 0 -1 0 201.8898)">
			<stop  offset="0" style="stop-color:#5979B2"/>
			<stop  offset="1" style="stop-color:#AAE5F2"/>
		</linearGradient>
		<path class="st30" d="M19.4,38.9h-6.9v-2.6h6.9V38.9z M13.6,37.9h4.7v-0.4h-4.7V37.9z"/>
		<path class="st18" d="M277.6,10.2h-11.7V7.3h11.7V10.2z M267,9.1h9.5V8.3H267V9.1z"/>
		
			<linearGradient id="SVGID_27_" gradientUnits="userSpaceOnUse" x1="5.4367" y1="182.8235" x2="10.2776" y2="182.8235" gradientTransform="matrix(1 0 0 -1 0 201.8898)">
			<stop  offset="0" style="stop-color:#5979B2"/>
			<stop  offset="1" style="stop-color:#AAE5F2"/>
		</linearGradient>
		<path class="st31" d="M10.3,20.4H5.5v-2.6h4.8V20.4z M6.5,19.4h2.7V19H6.5V19.4z"/>
		
			<linearGradient id="SVGID_28_" gradientUnits="userSpaceOnUse" x1="11.6766" y1="182.8235" x2="16.5174" y2="182.8235" gradientTransform="matrix(1 0 0 -1 0 201.8898)">
			<stop  offset="0" style="stop-color:#5979B2"/>
			<stop  offset="1" style="stop-color:#AAE5F2"/>
		</linearGradient>
		<path class="st32" d="M16.5,20.4h-4.8v-2.6h4.8V20.4z M12.7,19.4h2.7V19h-2.7V19.4z"/>
		
			<linearGradient id="SVGID_29_" gradientUnits="userSpaceOnUse" x1="18.336" y1="182.8235" x2="23.1769" y2="182.8235" gradientTransform="matrix(1 0 0 -1 0 201.8898)">
			<stop  offset="0" style="stop-color:#5979B2"/>
			<stop  offset="1" style="stop-color:#AAE5F2"/>
		</linearGradient>
		<path class="st33" d="M23.1,20.4h-4.8v-2.6h4.8V20.4z M19.4,19.4h2.7V19h-2.7V19.4z"/>
		
			<linearGradient id="SVGID_30_" gradientUnits="userSpaceOnUse" x1="25.4361" y1="182.5224" x2="30.2769" y2="182.5224" gradientTransform="matrix(1 0 0 -1 0 201.8898)">
			<stop  offset="0" style="stop-color:#5979B2"/>
			<stop  offset="1" style="stop-color:#AAE5F2"/>
		</linearGradient>
		<path class="st34" d="M30.2,20.7h-4.8v-2.6h4.8V20.7z M26.5,19.6h2.7v-0.4h-2.7V19.6z"/>
		<path class="st6" d="M28.1,42.4H12.6v-2.7h15.5V42.4z M13.6,41.3H27v-0.6H13.6V41.3z"/>
		
			<linearGradient id="SVGID_31_" gradientUnits="userSpaceOnUse" x1="12.5468" y1="151.0128" x2="19.4125" y2="151.0128" gradientTransform="matrix(1 0 0 -1 0 201.8898)">
			<stop  offset="0" style="stop-color:#5979B2"/>
			<stop  offset="1" style="stop-color:#AAE5F2"/>
		</linearGradient>
		<path class="st35" d="M19.4,52.2h-6.9v-2.6h6.9V52.2z M13.6,51.2h4.7v-0.4h-4.7V51.2z"/>
		<path class="st6" d="M28.1,55.7H12.6V53h15.5V55.7z M13.6,54.6H27V54H13.6V54.6z"/>
		<path class="st5" d="M73.7,81.8H50.3v-2.7h23.4V81.8z M51.4,80.8h21.2v-0.6H51.4V80.8z"/>
		
			<linearGradient id="SVGID_32_" gradientUnits="userSpaceOnUse" x1="49.396" y1="99.0823" x2="76.5835" y2="99.0823" gradientTransform="matrix(1 0 0 -1 0 201.8898)">
			<stop  offset="0" style="stop-color:#5979B2"/>
			<stop  offset="1" style="stop-color:#AAE5F2"/>
		</linearGradient>
		<path class="st36" d="M76.6,104.2H49.5v-2.7h27.1V104.2z M50.5,103.1h25v-0.6h-25V103.1z"/>
		
			<linearGradient id="SVGID_33_" gradientUnits="userSpaceOnUse" x1="12.5468" y1="137.6664" x2="19.4125" y2="137.6664" gradientTransform="matrix(1 0 0 -1 0 201.8898)">
			<stop  offset="0" style="stop-color:#5979B2"/>
			<stop  offset="1" style="stop-color:#AAE5F2"/>
		</linearGradient>
		<path class="st37" d="M19.4,65.5h-6.9v-2.6h6.9V65.5z M13.6,64.4h4.7V64h-4.7V64.4z"/>
		<path class="st6" d="M28.1,68.9H12.6v-2.7h15.5V68.9z M13.6,67.9H27v-0.6H13.6V67.9z"/>
		<path class="st6" d="M28,81.7H12.5V79H28V81.7z M13.6,80.7H27v-0.6H13.6V80.7z"/>
		
			<linearGradient id="SVGID_34_" gradientUnits="userSpaceOnUse" x1="12.5468" y1="124.8218" x2="19.4125" y2="124.8218" gradientTransform="matrix(1 0 0 -1 0 201.8898)">
			<stop  offset="0" style="stop-color:#5979B2"/>
			<stop  offset="1" style="stop-color:#AAE5F2"/>
		</linearGradient>
		<path class="st38" d="M19.4,78.4h-6.9v-2.6h6.9V78.4z M13.6,77.3h4.7v-0.4h-4.7V77.3z"/>
		
			<linearGradient id="SVGID_35_" gradientUnits="userSpaceOnUse" x1="12.5468" y1="111.375" x2="19.4125" y2="111.375" gradientTransform="matrix(1 0 0 -1 0 201.8898)">
			<stop  offset="0" style="stop-color:#5979B2"/>
			<stop  offset="1" style="stop-color:#AAE5F2"/>
		</linearGradient>
		<path class="st39" d="M19.4,91.8h-6.9v-2.6h6.9V91.8z M13.6,90.7h4.7v-0.4h-4.7V90.7z"/>
		<path class="st6" d="M28.1,95.3H12.6v-2.7h15.5V95.3z M13.6,94.2H27v-0.6H13.6V94.2z"/>
		
			<linearGradient id="SVGID_36_" gradientUnits="userSpaceOnUse" x1="12.5468" y1="97.8279" x2="19.4125" y2="97.8279" gradientTransform="matrix(1 0 0 -1 0 201.8898)">
			<stop  offset="0" style="stop-color:#5979B2"/>
			<stop  offset="1" style="stop-color:#AAE5F2"/>
		</linearGradient>
		<path class="st40" d="M19.4,105.4h-6.9v-2.6h6.9V105.4z M13.6,104.3h4.7v-0.5h-4.7V104.3z"/>
		<path class="st6" d="M28.1,108.8H12.6v-2.7h15.5V108.8z M13.6,107.8H27v-0.6H13.6V107.8z"/>
		
			<linearGradient id="SVGID_37_" gradientUnits="userSpaceOnUse" x1="12.5468" y1="84.8829" x2="19.4125" y2="84.8829" gradientTransform="matrix(1 0 0 -1 0 201.8898)">
			<stop  offset="0" style="stop-color:#5979B2"/>
			<stop  offset="1" style="stop-color:#AAE5F2"/>
		</linearGradient>
		<path class="st41" d="M19.4,118.3h-6.9v-2.6h6.9V118.3z M13.6,117.3h4.7v-0.5h-4.7V117.3z"/>
		<path class="st6" d="M28.1,121.8H12.6v-2.7h15.5V121.8z M13.6,120.7H27v-0.6H13.6V120.7z"/>
		
			<linearGradient id="SVGID_38_" gradientUnits="userSpaceOnUse" x1="12.5468" y1="71.8375" x2="19.4125" y2="71.8375" gradientTransform="matrix(1 0 0 -1 0 201.8898)">
			<stop  offset="0" style="stop-color:#5979B2"/>
			<stop  offset="1" style="stop-color:#AAE5F2"/>
		</linearGradient>
		<path class="st42" d="M19.4,131.4h-6.9v-2.6h6.9V131.4z M13.6,130.3h4.7v-0.4h-4.7V130.3z"/>
		<path class="st6" d="M28.1,134.8H12.6v-2.7h15.5V134.8z M13.6,133.8H27v-0.6H13.6V133.8z"/>
		
			<linearGradient id="SVGID_39_" gradientUnits="userSpaceOnUse" x1="12.5468" y1="58.1901" x2="19.4125" y2="58.1901" gradientTransform="matrix(1 0 0 -1 0 201.8898)">
			<stop  offset="0" style="stop-color:#5979B2"/>
			<stop  offset="1" style="stop-color:#AAE5F2"/>
		</linearGradient>
		<path class="st43" d="M19.4,145h-6.9v-2.6h6.9V145z M13.6,144h4.7v-0.4h-4.7V144z"/>
		<path class="st6" d="M28.1,148.5H12.6v-2.7h15.5V148.5z M13.6,147.4H27v-0.5H13.6V147.4z"/>
		
			<linearGradient id="SVGID_40_" gradientUnits="userSpaceOnUse" x1="12.5468" y1="44.5426" x2="19.4125" y2="44.5426" gradientTransform="matrix(1 0 0 -1 0 201.8898)">
			<stop  offset="0" style="stop-color:#5979B2"/>
			<stop  offset="1" style="stop-color:#AAE5F2"/>
		</linearGradient>
		<path class="st44" d="M19.4,158.7h-6.9V156h6.9V158.7z M13.6,157.5h4.7v-0.4h-4.7V157.5z"/>
		<path class="st6" d="M28.1,162.2H12.6v-2.7h15.5V162.2z M13.6,161.1H27v-0.6H13.6V161.1z"/>
		
			<linearGradient id="SVGID_41_" gradientUnits="userSpaceOnUse" x1="5.8182" y1="156.9334" x2="11.2359" y2="156.9334" gradientTransform="matrix(1 0 0 -1 0 201.8898)">
			<stop  offset="0" style="stop-color:#5979B2"/>
			<stop  offset="1" style="stop-color:#AAE5F2"/>
		</linearGradient>
		<path class="st45" d="M11.2,46.6H5.8v-3.2h5.4L11.2,46.6L11.2,46.6z M6.9,45.5h3.3v-1.1H6.9V45.5z"/>
		
			<linearGradient id="SVGID_42_" gradientUnits="userSpaceOnUse" x1="5.7992" y1="143.587" x2="11.2159" y2="143.587" gradientTransform="matrix(1 0 0 -1 0 201.8898)">
			<stop  offset="0" style="stop-color:#5979B2"/>
			<stop  offset="1" style="stop-color:#AAE5F2"/>
		</linearGradient>
		<path class="st46" d="M11.2,59.9H5.8v-3.2h5.4L11.2,59.9L11.2,59.9z M6.9,58.8h3.3v-1.1H6.9V58.8z"/>
		
			<linearGradient id="SVGID_43_" gradientUnits="userSpaceOnUse" x1="5.9164" y1="130.5417" x2="11.3341" y2="130.5417" gradientTransform="matrix(1 0 0 -1 0 201.8898)">
			<stop  offset="0" style="stop-color:#5979B2"/>
			<stop  offset="1" style="stop-color:#AAE5F2"/>
		</linearGradient>
		<path class="st47" d="M11.3,73H5.9v-3.2h5.4L11.3,73L11.3,73z M7,71.8h3.3v-1.1H7V71.8z"/>
		
			<linearGradient id="SVGID_44_" gradientUnits="userSpaceOnUse" x1="5.9164" y1="117.2956" x2="11.3341" y2="117.2956" gradientTransform="matrix(1 0 0 -1 0 201.8898)">
			<stop  offset="0" style="stop-color:#5979B2"/>
			<stop  offset="1" style="stop-color:#AAE5F2"/>
		</linearGradient>
		<path class="st48" d="M11.3,86.2H5.9V83h5.4L11.3,86.2L11.3,86.2z M7,85.1h3.3V84H7V85.1z"/>
		
			<linearGradient id="SVGID_45_" gradientUnits="userSpaceOnUse" x1="5.9164" y1="104.0495" x2="11.3341" y2="104.0495" gradientTransform="matrix(1 0 0 -1 0 201.8898)">
			<stop  offset="0" style="stop-color:#5979B2"/>
			<stop  offset="1" style="stop-color:#AAE5F2"/>
		</linearGradient>
		<path class="st49" d="M11.3,99.4H5.9v-3.2h5.4L11.3,99.4L11.3,99.4z M7,98.3h3.3v-1.1H7V98.3z"/>
		
			<linearGradient id="SVGID_46_" gradientUnits="userSpaceOnUse" x1="5.9164" y1="90.9038" x2="11.3341" y2="90.9038" gradientTransform="matrix(1 0 0 -1 0 201.8898)">
			<stop  offset="0" style="stop-color:#5979B2"/>
			<stop  offset="1" style="stop-color:#AAE5F2"/>
		</linearGradient>
		<path class="st50" d="M11.3,112.6H5.9v-3.2h5.4L11.3,112.6L11.3,112.6z M7,111.6h3.3v-1.1H7V111.6z"/>
		
			<linearGradient id="SVGID_47_" gradientUnits="userSpaceOnUse" x1="5.9164" y1="77.5574" x2="11.3341" y2="77.5574" gradientTransform="matrix(1 0 0 -1 0 201.8898)">
			<stop  offset="0" style="stop-color:#5979B2"/>
			<stop  offset="1" style="stop-color:#AAE5F2"/>
		</linearGradient>
		<path class="st51" d="M11.3,125.9H5.9v-3.2h5.4L11.3,125.9L11.3,125.9z M7,124.8h3.3v-1H7V124.8z"/>
		
			<linearGradient id="SVGID_48_" gradientUnits="userSpaceOnUse" x1="5.9164" y1="64.3113" x2="11.3341" y2="64.3113" gradientTransform="matrix(1 0 0 -1 0 201.8898)">
			<stop  offset="0" style="stop-color:#5979B2"/>
			<stop  offset="1" style="stop-color:#AAE5F2"/>
		</linearGradient>
		<path class="st52" d="M11.3,139.2H5.9V136h5.4L11.3,139.2L11.3,139.2z M7,138.1h3.3V137H7V138.1z"/>
		
			<linearGradient id="SVGID_49_" gradientUnits="userSpaceOnUse" x1="5.9164" y1="50.6639" x2="11.3341" y2="50.6639" gradientTransform="matrix(1 0 0 -1 0 201.8898)">
			<stop  offset="0" style="stop-color:#5979B2"/>
			<stop  offset="1" style="stop-color:#AAE5F2"/>
		</linearGradient>
		<path class="st53" d="M11.3,152.8H5.9v-3.2h5.4L11.3,152.8L11.3,152.8z M7,151.7h3.3v-1.1H7V151.7z"/>
		
			<linearGradient id="SVGID_50_" gradientUnits="userSpaceOnUse" x1="5.9164" y1="37.0164" x2="11.3341" y2="37.0164" gradientTransform="matrix(1 0 0 -1 0 201.8898)">
			<stop  offset="0" style="stop-color:#5979B2"/>
			<stop  offset="1" style="stop-color:#AAE5F2"/>
		</linearGradient>
		<path class="st54" d="M11.3,166.5H5.9v-3.2h5.4L11.3,166.5L11.3,166.5z M7,165.4h3.3v-1H7V165.4z"/>
		
			<linearGradient id="SVGID_51_" gradientUnits="userSpaceOnUse" x1="4.948" y1="176.351" x2="31.085" y2="176.351" gradientTransform="matrix(1 0 0 -1 0 201.8898)">
			<stop  offset="0" style="stop-color:#5979B2"/>
			<stop  offset="1" style="stop-color:#AAE5F2"/>
		</linearGradient>
		<path class="st55" d="M31.1,28.4H5v-5.7h26.1V28.4z M6,27.3h24v-3.6H6V27.3z"/>
		<path class="st5" d="M111.9,73.1H95.4V56.6h16.4V73.1z M96.6,72h14.2V57.7H96.6V72z"/>
		<path class="st6" d="M128.4,91h-78v-8.5h78V91z M51.5,90h75.9v-6.4H51.5L51.5,90L51.5,90z"/>
		<path class="st5" d="M160.9,91h-29v-8.5h29V91z M133,90h26.8v-6.4H133V90z"/>
		<rect x="74" y="79.9" class="st5" width="86.3" height="1.1"/>
		
			<linearGradient id="SVGID_52_" gradientUnits="userSpaceOnUse" x1="222.5925" y1="121.4601" x2="245.9846" y2="121.4601" gradientTransform="matrix(1 0 0 -1 0 201.8898)">
			<stop  offset="0" style="stop-color:#5979B2"/>
			<stop  offset="1" style="stop-color:#AAE5F2"/>
		</linearGradient>
		<path class="st56" d="M245.9,81.8h-23.4v-2.7h23.4V81.8z M223.7,80.8h21.2v-0.6h-21.2V80.8z"/>
		<path class="st5" d="M284.2,73.1h-16.4V56.6h16.4V73.1z M268.9,72h14.2V57.7h-14.2V72z"/>
		<path class="st6" d="M300.6,91h-78v-8.5h78V91L300.6,91z M223.7,90h75.9v-6.4h-75.9V90z"/>
		
			<linearGradient id="SVGID_53_" gradientUnits="userSpaceOnUse" x1="304.1731" y1="115.1381" x2="333.1792" y2="115.1381" gradientTransform="matrix(1 0 0 -1 0 201.8898)">
			<stop  offset="0" style="stop-color:#5979B2"/>
			<stop  offset="1" style="stop-color:#AAE5F2"/>
		</linearGradient>
		<path class="st57" d="M333.2,91h-29v-8.5h29V91z M305.2,90h26.8v-6.4h-26.8V90z"/>
		
			<linearGradient id="SVGID_54_" gradientUnits="userSpaceOnUse" x1="246.3491" y1="121.4601" x2="332.6714" y2="121.4601" gradientTransform="matrix(1 0 0 -1 0 201.8898)">
			<stop  offset="0" style="stop-color:#5979B2"/>
			<stop  offset="1" style="stop-color:#AAE5F2"/>
		</linearGradient>
		<rect x="246.3" y="79.9" class="st58" width="86.3" height="1.1"/>
		
			<linearGradient id="SVGID_55_" gradientUnits="userSpaceOnUse" x1="175.8492" y1="95.57" x2="203.9891" y2="95.57" gradientTransform="matrix(1 0 0 -1 0 201.8898)">
			<stop  offset="0" style="stop-color:#5979B2"/>
			<stop  offset="1" style="stop-color:#AAE5F2"/>
		</linearGradient>
		<path class="st59" d="M204,110.5h-28.1v-8.3H204V110.5z M177,109.4h26v-6.1h-26V109.4z"/>
		
			<linearGradient id="SVGID_56_" gradientUnits="userSpaceOnUse" x1="49.37" y1="68.4758" x2="128.382" y2="68.4758" gradientTransform="matrix(1 0 0 -1 0 201.8898)">
			<stop  offset="0" style="stop-color:#5979B2"/>
			<stop  offset="1" style="stop-color:#AAE5F2"/>
		</linearGradient>
		<path class="st60" d="M128.4,161.4h-79v-55.9h79V161.4z M50.5,160.3h76.8v-53.8H50.5L50.5,160.3L50.5,160.3z"/>
		<path class="st18" d="M265.2,11.2h-6.7V6.6h6.7V11.2z M259.6,10.1h4.5V7.6h-4.5V10.1z"/>
		<polygon class="st0" points="345.2,17.1 32.2,17.1 32.2,6.5 33.3,6.5 33.3,16.1 345.2,16.1 		"/>
		
			<linearGradient id="SVGID_57_" gradientUnits="userSpaceOnUse" x1="347.5598" y1="191.2326" x2="289.8778" y2="191.1233" gradientTransform="matrix(1 0 0 -1 0 201.8898)">
			<stop  offset="0" style="stop-color:#00006B"/>
			<stop  offset="0.15" style="stop-color:#03046D"/>
			<stop  offset="0.284" style="stop-color:#0B0E74"/>
			<stop  offset="0.412" style="stop-color:#18217E"/>
			<stop  offset="0.537" style="stop-color:#2B3B8E"/>
			<stop  offset="0.659" style="stop-color:#445CA1"/>
			<stop  offset="0.779" style="stop-color:#6285B9"/>
			<stop  offset="0.896" style="stop-color:#86B4D5"/>
			<stop  offset="1" style="stop-color:#AAE5F2"/>
		</linearGradient>
		<path class="st61" d="M300.1,13.4h-5.4V8h5.4V13.4z M295.8,12.3h3.3V9h-3.3V12.3z"/>
		
			<linearGradient id="SVGID_58_" gradientUnits="userSpaceOnUse" x1="347.5598" y1="191.2174" x2="289.8778" y2="191.1082" gradientTransform="matrix(1 0 0 -1 0 201.8898)">
			<stop  offset="0" style="stop-color:#00006B"/>
			<stop  offset="0.15" style="stop-color:#03046D"/>
			<stop  offset="0.284" style="stop-color:#0B0E74"/>
			<stop  offset="0.412" style="stop-color:#18217E"/>
			<stop  offset="0.537" style="stop-color:#2B3B8E"/>
			<stop  offset="0.659" style="stop-color:#445CA1"/>
			<stop  offset="0.779" style="stop-color:#6285B9"/>
			<stop  offset="0.896" style="stop-color:#86B4D5"/>
			<stop  offset="1" style="stop-color:#AAE5F2"/>
		</linearGradient>
		<path class="st62" d="M308.1,13.4h-5.4V8h5.4V13.4z M303.7,12.3h3.3V9h-3.3V12.3z"/>
		
			<linearGradient id="SVGID_59_" gradientUnits="userSpaceOnUse" x1="347.5598" y1="191.2022" x2="289.8778" y2="191.093" gradientTransform="matrix(1 0 0 -1 0 201.8898)">
			<stop  offset="0" style="stop-color:#00006B"/>
			<stop  offset="0.15" style="stop-color:#03046D"/>
			<stop  offset="0.284" style="stop-color:#0B0E74"/>
			<stop  offset="0.412" style="stop-color:#18217E"/>
			<stop  offset="0.537" style="stop-color:#2B3B8E"/>
			<stop  offset="0.659" style="stop-color:#445CA1"/>
			<stop  offset="0.779" style="stop-color:#6285B9"/>
			<stop  offset="0.896" style="stop-color:#86B4D5"/>
			<stop  offset="1" style="stop-color:#AAE5F2"/>
		</linearGradient>
		<path class="st63" d="M316.1,13.4h-5.4V8h5.4V13.4z M311.8,12.3h3.3V9h-3.3V12.3z"/>
		
			<linearGradient id="SVGID_60_" gradientUnits="userSpaceOnUse" x1="347.5598" y1="191.1869" x2="289.8778" y2="191.0776" gradientTransform="matrix(1 0 0 -1 0 201.8898)">
			<stop  offset="0" style="stop-color:#00006B"/>
			<stop  offset="0.15" style="stop-color:#03046D"/>
			<stop  offset="0.284" style="stop-color:#0B0E74"/>
			<stop  offset="0.412" style="stop-color:#18217E"/>
			<stop  offset="0.537" style="stop-color:#2B3B8E"/>
			<stop  offset="0.659" style="stop-color:#445CA1"/>
			<stop  offset="0.779" style="stop-color:#6285B9"/>
			<stop  offset="0.896" style="stop-color:#86B4D5"/>
			<stop  offset="1" style="stop-color:#AAE5F2"/>
		</linearGradient>
		<path class="st64" d="M324.3,13.4h-5.4V8h5.4V13.4z M320,12.4h3.3V9.1H320V12.4z"/>
		
			<linearGradient id="SVGID_61_" gradientUnits="userSpaceOnUse" x1="347.5598" y1="191.1717" x2="289.8779" y2="191.0625" gradientTransform="matrix(1 0 0 -1 0 201.8898)">
			<stop  offset="0" style="stop-color:#00006B"/>
			<stop  offset="0.15" style="stop-color:#03046D"/>
			<stop  offset="0.284" style="stop-color:#0B0E74"/>
			<stop  offset="0.412" style="stop-color:#18217E"/>
			<stop  offset="0.537" style="stop-color:#2B3B8E"/>
			<stop  offset="0.659" style="stop-color:#445CA1"/>
			<stop  offset="0.779" style="stop-color:#6285B9"/>
			<stop  offset="0.896" style="stop-color:#86B4D5"/>
			<stop  offset="1" style="stop-color:#AAE5F2"/>
		</linearGradient>
		<path class="st65" d="M332.3,13.4h-5.4V8h5.4V13.4z M328,12.3h3.3V9H328V12.3z"/>
		
			<linearGradient id="SVGID_62_" gradientUnits="userSpaceOnUse" x1="347.5598" y1="191.1569" x2="289.8778" y2="191.0477" gradientTransform="matrix(1 0 0 -1 0 201.8898)">
			<stop  offset="0" style="stop-color:#00006B"/>
			<stop  offset="0.15" style="stop-color:#03046D"/>
			<stop  offset="0.284" style="stop-color:#0B0E74"/>
			<stop  offset="0.412" style="stop-color:#18217E"/>
			<stop  offset="0.537" style="stop-color:#2B3B8E"/>
			<stop  offset="0.659" style="stop-color:#445CA1"/>
			<stop  offset="0.779" style="stop-color:#6285B9"/>
			<stop  offset="0.896" style="stop-color:#86B4D5"/>
			<stop  offset="1" style="stop-color:#AAE5F2"/>
		</linearGradient>
		<path class="st66" d="M340.1,13.4h-5.4V8h5.4V13.4z M335.8,12.4h3.3V9.1h-3.3V12.4z"/>
		
			<linearGradient id="SVGID_63_" gradientUnits="userSpaceOnUse" x1="347.5598" y1="191.1419" x2="289.8778" y2="191.0327" gradientTransform="matrix(1 0 0 -1 0 201.8898)">
			<stop  offset="0" style="stop-color:#00006B"/>
			<stop  offset="0.15" style="stop-color:#03046D"/>
			<stop  offset="0.284" style="stop-color:#0B0E74"/>
			<stop  offset="0.412" style="stop-color:#18217E"/>
			<stop  offset="0.537" style="stop-color:#2B3B8E"/>
			<stop  offset="0.659" style="stop-color:#445CA1"/>
			<stop  offset="0.779" style="stop-color:#6285B9"/>
			<stop  offset="0.896" style="stop-color:#86B4D5"/>
			<stop  offset="1" style="stop-color:#AAE5F2"/>
		</linearGradient>
		<path class="st67" d="M348,13.4h-5.4V8h5.4V13.4z M343.6,12.4h3.3V9.1h-3.3V12.4z"/>
		
			<linearGradient id="SVGID_64_" gradientUnits="userSpaceOnUse" x1="12.0771" y1="10.8755" x2="22.1504" y2="10.8755" gradientTransform="matrix(1 0 0 -1 0 201.8898)">
			<stop  offset="0" style="stop-color:#5979B2"/>
			<stop  offset="1" style="stop-color:#AAE5F2"/>
		</linearGradient>
		<path class="st68" d="M22.1,194.7H12v-7.3h10.1V194.7z M13.1,193.6H21v-5.2h-7.9V193.6z"/>
		<g>
			<path class="st6" d="M19.3,9.9l-0.7-0.7c-0.2-0.2-0.2-0.5,0-0.6l0.2-0.2l2.6-2.6c0.1-0.1,0.2-0.1,0.3-0.1c0.1,0,0.3,0,0.4,0.1
				l0.4,0.4l0.3,0.3c0.1,0.1,0.1,0.2,0.1,0.4c0,0.1-0.1,0.2-0.1,0.3l-2,2l-0.1,0.1l-0.5,0.5L20,10c-0.1,0.1-0.2,0.1-0.3,0.1
				C19.5,10.1,19.4,10,19.3,9.9z M19.3,15.1l-4-1.1c-0.3-0.1-0.6-0.4-0.7-0.7l-1.1-4c-0.1-0.3,0-0.7,0.3-0.9l2.9-2.9
				c0.2-0.2,0.6-0.3,0.9-0.3l2.6,0.7c0.5,0.1,0.1,0.5,0.1,0.6l0,0L19.7,7c0,0-0.5,0.5-1.1,0.3l-0.7-0.2c-0.2-0.1-0.4,0-0.6,0.1
				l-1.7,1.7c-0.1,0.1-0.2,0.4-0.1,0.6l0.6,2.4c0.1,0.2,0.2,0.4,0.4,0.4l2.4,0.6c0.2,0.1,0.4,0,0.6-0.1l1.7-1.7
				c0.1-0.1,0.2-0.4,0.1-0.6l-0.1-0.3v-0.1l-0.1-0.4c-0.1-0.5,0.2-0.9,0.2-0.9L22,8.1c0.5-0.5,0.6,0.1,0.6,0.1l0.7,2.5
				c0.1,0.3,0,0.7-0.3,0.9l-2.9,2.9c-0.2,0.2-0.4,0.3-0.7,0.3C19.5,15.2,19.4,15.2,19.3,15.1z"/>
		</g>
		
			<linearGradient id="SVGID_65_" gradientUnits="userSpaceOnUse" x1="292.5556" y1="192.5573" x2="297.9733" y2="192.5573" gradientTransform="matrix(1 0 0 -1 0 201.8898)">
			<stop  offset="0" style="stop-color:#5979B2"/>
			<stop  offset="1" style="stop-color:#AAE5F2"/>
		</linearGradient>
		<path class="st69" d="M298,12h-5.4V6.6h5.4V12z M293.6,10.9h3.3V7.6h-3.3V10.9z"/>
		
			<linearGradient id="SVGID_66_" gradientUnits="userSpaceOnUse" x1="300.5059" y1="192.5573" x2="305.9236" y2="192.5573" gradientTransform="matrix(1 0 0 -1 0 201.8898)">
			<stop  offset="0" style="stop-color:#5979B2"/>
			<stop  offset="1" style="stop-color:#AAE5F2"/>
		</linearGradient>
		<path class="st70" d="M305.9,12h-5.4V6.6h5.4V12z M301.6,10.9h3.3V7.6h-3.3V10.9z"/>
		
			<linearGradient id="SVGID_67_" gradientUnits="userSpaceOnUse" x1="308.6034" y1="192.5573" x2="314.021" y2="192.5573" gradientTransform="matrix(1 0 0 -1 0 201.8898)">
			<stop  offset="0" style="stop-color:#5979B2"/>
			<stop  offset="1" style="stop-color:#AAE5F2"/>
		</linearGradient>
		<path class="st71" d="M314,12h-5.4V6.6h5.4V12z M309.6,10.9h3.3V7.6h-3.3V10.9z"/>
		
			<linearGradient id="SVGID_68_" gradientUnits="userSpaceOnUse" x1="316.6718" y1="192.5573" x2="322.0894" y2="192.5573" gradientTransform="matrix(1 0 0 -1 0 201.8898)">
			<stop  offset="0" style="stop-color:#5979B2"/>
			<stop  offset="1" style="stop-color:#AAE5F2"/>
		</linearGradient>
		<path class="st72" d="M322.1,12h-5.4V6.6h5.4V12z M317.8,10.9h3.3V7.6h-3.3V10.9z"/>
		
			<linearGradient id="SVGID_69_" gradientUnits="userSpaceOnUse" x1="324.7202" y1="192.5573" x2="330.1379" y2="192.5573" gradientTransform="matrix(1 0 0 -1 0 201.8898)">
			<stop  offset="0" style="stop-color:#5979B2"/>
			<stop  offset="1" style="stop-color:#AAE5F2"/>
		</linearGradient>
		<path class="st73" d="M330.2,12h-5.4V6.6h5.4V12z M325.8,10.9h3.3V7.6h-3.3V10.9z"/>
		
			<linearGradient id="SVGID_70_" gradientUnits="userSpaceOnUse" x1="332.5042" y1="192.5573" x2="337.9229" y2="192.5573" gradientTransform="matrix(1 0 0 -1 0 201.8898)">
			<stop  offset="0" style="stop-color:#5979B2"/>
			<stop  offset="1" style="stop-color:#AAE5F2"/>
		</linearGradient>
		<path class="st74" d="M337.9,12h-5.4V6.6h5.4V12z M333.6,10.9h3.3V7.6h-3.3V10.9z"/>
		
			<linearGradient id="SVGID_71_" gradientUnits="userSpaceOnUse" x1="340.3574" y1="192.5573" x2="345.775" y2="192.5573" gradientTransform="matrix(1 0 0 -1 0 201.8898)">
			<stop  offset="0" style="stop-color:#5979B2"/>
			<stop  offset="1" style="stop-color:#AAE5F2"/>
		</linearGradient>
		<path class="st75" d="M345.8,12h-5.4V6.6h5.4V12z M341.4,10.9h3.3V7.6h-3.3V10.9z"/>
		<g>
			<g>
				<path class="st93" d="M195.9,83.2c0-2.6-2.1-4.8-4.8-4.8c-2.6,0-4.8,2.1-4.8,4.8c0,0.7,0.1,1.3,0.4,1.9c-0.3,0.6-0.4,1.3-0.4,2
					c0,2.6,2.1,4.8,4.8,4.8c2.6,0,4.8-2.1,4.8-4.8c0-0.7-0.1-1.3-0.4-1.9C195.8,84.6,195.9,83.9,195.9,83.2z M195,87
					c0,2.1-1.7,3.8-3.8,3.8c-2.1,0-3.8-1.7-3.8-3.8c0-0.7,0.2-1.4,0.5-1.9c-0.3-0.6-0.5-1.2-0.5-1.9c0-2.1,1.7-3.8,3.8-3.8
					c2.1,0,3.8,1.7,3.8,3.8c0,0.7-0.2,1.4-0.5,1.9C194.8,85.7,195,86.3,195,87z"/>
			</g>
			<g>
				<path class="st93" d="M193.5,82.8l-2-2c-0.2-0.2-0.4-0.2-0.6,0c-0.2,0.2-0.2,0.4,0,0.6l1.3,1.3h-3c-0.2,0-0.4,0.2-0.4,0.4
					c0,0.2,0.2,0.4,0.4,0.4h2.9l-3.2,3.3l0,0c0,0,0,0.1-0.1,0.1c0,0,0,0.1,0,0.2l0,0l0,0v0.1c0,0,0,0.1,0.1,0.1l0,0l0,0l0,0l1.9,2
					c0.1,0.1,0.2,0.1,0.3,0.1c0.1,0,0.2,0,0.3-0.1c0.2-0.2,0.2-0.4,0-0.6l-1.3-1.3h2.9c0.2,0,0.4-0.2,0.4-0.4c0-0.2-0.2-0.4-0.4-0.4
					l0,0h-2.9l3.3-3.3C193.7,83.2,193.7,83,193.5,82.8z"/>
			</g>
		</g>
		
			<linearGradient id="SVGID_72_" gradientUnits="userSpaceOnUse" x1="165.835" y1="171.5844" x2="218.3094" y2="171.5844" gradientTransform="matrix(1 0 0 -1 0 201.8898)">
			<stop  offset="0" style="stop-color:#5979B2"/>
			<stop  offset="1" style="stop-color:#AAE5F2"/>
		</linearGradient>
		<path class="st76" d="M218.3,27.2v6.2h-52.5v-6.2 M166.9,28.3v4.1h50.4v-4.1"/>
		<g>
			<path class="st93" d="M18.3,8.9l-0.7-0.7c-0.2-0.2-0.2-0.5,0-0.6l0.2-0.2l2.6-2.6c0.1-0.1,0.2-0.1,0.3-0.1c0.1,0,0.3,0,0.4,0.1
				l0.4,0.4l0.3,0.3c0.1,0.1,0.1,0.2,0.1,0.4c0,0.1-0.1,0.2-0.1,0.3l-2,2l-0.1,0.1l-0.5,0.5L19,9c-0.1,0.1-0.2,0.1-0.3,0.1
				C18.5,9.1,18.4,9,18.3,8.9z M18.3,14l-4-1.1c-0.3-0.1-0.6-0.4-0.7-0.7l-1.1-4c-0.1-0.3,0-0.7,0.3-0.9l2.9-2.9
				c0.2-0.2,0.6-0.3,0.9-0.3l2.6,0.7c0.5,0.1,0.1,0.5,0.1,0.6l0,0L18.7,6c0,0-0.5,0.5-1.1,0.3l-0.7-0.2c-0.2-0.1-0.4,0-0.6,0.1
				l-1.7,1.7c-0.1,0.1-0.2,0.4-0.1,0.6l0.6,2.4c0.1,0.2,0.2,0.4,0.4,0.4l2.4,0.6c0.2,0.1,0.4,0,0.6-0.1l1.7-1.7
				c0.1-0.1,0.2-0.4,0.1-0.6l-0.1-0.3V9.1l-0.1-0.4c-0.1-0.5,0.2-0.9,0.2-0.9L21,7.1c0.5-0.5,0.6,0.1,0.6,0.1l0.7,2.5
				c0.1,0.3,0,0.7-0.3,0.9l-2.9,2.9c-0.2,0.2-0.4,0.3-0.7,0.3C18.5,14.1,18.4,14.1,18.3,14z"/>
		</g>
	</g>
</g>
</svg>
