<svg xmlns="http://www.w3.org/2000/svg" viewBox="0 0 312.436 261.818"><defs><style>.cls-1{fill:#aae5f2;}.cls-2{opacity:0.6;}.cls-3{opacity:0.35;}.cls-4{opacity:0.2;}.cls-5{opacity:0.08;}</style></defs><g id="Capa_12" data-name="Capa 12"><path class="cls-1" d="M157.645,147.9a11.648,11.648,0,0,1-10.923-15.4,3.181,3.181,0,0,0,.049-2.162,11.678,11.678,0,1,1,22.209.141,3.7,3.7,0,0,0-.006,2.413A11.634,11.634,0,0,1,157.645,147.9Zm9.613-20.73a9.624,9.624,0,0,0-5.849-9.04,9.366,9.366,0,0,0-10.264,2.125,9.256,9.256,0,0,0-1.82,10.413,1.84,1.84,0,0,1-.026,1.762,9.365,9.365,0,0,0,13.12,12.007,9,9,0,0,0,4.568-9.927c-.539-2.095-.863-3.989.06-6A4.1,4.1,0,0,0,167.258,127.168Z"/><path class="cls-1" d="M155.8,135.44c2.131,0,3.957,0,5.782,0,.319,0,.706-.14.942,0a7.28,7.28,0,0,1,1.136.983c-.393.352-.769.987-1.18,1.009-1.951.108-3.912.049-5.87.052-.2,0-.4.019-.878.043,1.071,1.088,2.008,2.024,2.926,2.979.475.493.669,1.148.036,1.536-.349.214-.985-.035-1.491-.09-.06-.006-.109-.11-.164-.168-1.367-1.4-2.712-2.826-4.11-4.195a1.351,1.351,0,0,1,.026-2.238c2.442-2.47,4.85-4.974,7.508-7.708h-2.92c-1.358,0-2.722.07-4.071-.045a1.542,1.542,0,0,1-1.1-.913c-.177-.74.41-1.027,1.11-1.026q2.7,0,5.393,0h1.651c-1-1.022-1.767-1.791-2.519-2.572-.275-.286-.656-.565-.743-.909A1.386,1.386,0,0,1,157.48,121a1.179,1.179,0,0,1,1.149-.09c1.741,1.644,3.454,3.324,5.057,5.1.212.235-.072,1.231-.418,1.6-2.144,2.315-4.372,4.552-6.569,6.818C156.454,134.689,156.228,134.959,155.8,135.44Z"/><path class="cls-1" d="M176.153,208.947c-.338,9.276-2.018,18.134-6.775,26.213a24.979,24.979,0,0,1-5.836,6.928c-6.2,4.982-13.67,4.619-19.372-.939-4.52-4.405-7.066-9.9-8.671-15.887a59.056,59.056,0,0,1-1.56-21.511,61.233,61.233,0,0,1,2.727-14.195,29.21,29.21,0,0,1,5.537-9.6c4.222-4.836,9.562-7.048,15.944-5.873,3.774.695,6.513,3.317,8.909,6.144,4.268,5.037,6.536,11.04,7.7,17.443C175.436,201.392,175.7,205.186,176.153,208.947Zm-1.311.186a52.534,52.534,0,0,0-1.477-13.069c-1.417-5.9-3.627-11.436-7.815-15.958-2.043-2.206-4.324-4.262-7.362-4.916-5.631-1.21-10.433.682-14.375,4.64a27.023,27.023,0,0,0-6.227,10.4,56.641,56.641,0,0,0-2.492,12.665,60.256,60.256,0,0,0,1.329,21.65c1.531,5.931,3.966,11.395,8.407,15.758,5.593,5.5,12.673,5.663,18.584.511a26.541,26.541,0,0,0,6.112-8.07C173.327,225.335,174.777,217.388,174.842,209.133Z"/><path class="cls-1" d="M158.958,215.14v17.865c-2.56-.257-5.053-.466-7.533-.775-.986-.123-2.135-1.818-2.1-2.829q.191-6.411.363-12.82c.006-.232-.026-.466-.039-.677-1.629-.294-3.2-.527-4.745-.87-2.253-.5-3.287-2.123-3.611-4.265a3,3,0,0,1,1.575-3.033,57.39,57.39,0,0,1,6.219-3.251c.853-.385,1.249-.73.925-1.809a15.775,15.775,0,0,1-3.039.689,8.912,8.912,0,0,1-2.695-.581c-.138-.04-.243-.465-.233-.707.08-2.036.163-4.073.321-6.1a1.262,1.262,0,0,1,.671-.877c6.445-2.566,12.917-5.066,19.353-7.655,1.271-.511,2.244.1,3.3.468.192.067.344.5.363.775.184,2.75.32,5.5.508,8.254a.924.924,0,0,1-.843,1.151c-2.481.6-4.945,1.268-7.414,1.916-1.64.431-1.639.435-1.33,2.319a43.921,43.921,0,0,1,5.907.061,14.58,14.58,0,0,1,4.937,1.573c2.236,1.224,2.531,3.429.962,5.508a13.783,13.783,0,0,1-7.278,4.585C162.06,214.5,160.559,214.763,158.958,215.14Zm-8.161-15.2v4.391c-1.68.708-3.34,1.3-4.893,2.1a13.823,13.823,0,0,0-3.111,2.19c-1.286,1.213-1.05,2.481.526,3.248a8.668,8.668,0,0,0,2.494.781c1.524.223,3.069.3,4.7.442-.159,5.527-.316,11.015-.474,16.542l5.762.845c.03-.421.07-.732.073-1.044.05-5.236.121-10.472.117-15.707,0-.978.247-1.378,1.252-1.576a45.475,45.475,0,0,0,5.429-1.436,15.6,15.6,0,0,0,6.172-3.316c1.542-1.488,1.276-3.059-.748-3.77a13.428,13.428,0,0,0-4.083-.79c-2.606-.058-5.217.13-7.838.216v-4.709l8.624-2.557V188.01a6.357,6.357,0,0,0-.64.156q-9.251,3.615-18.493,7.25c-.255.1-.605.381-.622.6-.137,1.846-.207,3.7-.305,5.691Z"/><path class="cls-1" d="M150.654,204.875v5.52l5.455-.764v-5.752a27.727,27.727,0,0,1,9.348-.239,5.717,5.717,0,0,1,1.579.529,1.328,1.328,0,0,1,.476,2.257,4.382,4.382,0,0,1-1.256,1.09,34.683,34.683,0,0,1-20.927,3.925c-.965-.121-2.134-.324-2.369-1.488-.238-1.181.786-1.817,1.643-2.26C146.521,206.7,148.518,205.858,150.654,204.875Zm8.261,4.847c2.838-.887,5.556-1.526,7.62-3.618-2.6-.78-5.1-.257-7.62.076Zm-9.075,1.551v-3.75c-1.7.678-3.275,1.286-4.827,1.939-.214.09-.5.463-.456.606a.973.973,0,0,0,.622.576C146.687,210.885,148.205,211.06,149.84,211.273Z"/><path class="cls-1" d="M192.055,190.952a60.537,60.537,0,0,0-10.376-20.373,15.435,15.435,0,0,0-10.448-6.148c-3.872-.534-7.725-1.228-11.565-1.961a19.708,19.708,0,0,0-15.17,3.159,35.062,35.062,0,0,0-11.17,12.783c-5.643,10.311-7.709,21.486-7.865,33.006a76.886,76.886,0,0,0,2.365,19.084c2.03,7.657,5.121,14.795,10.491,20.756a26.751,26.751,0,0,0,6.392,5.314,47.642,47.642,0,0,1-4.31-3.388l-.661-.444c.166.1.328.2.488.317.058.041.115.084.173.127l3.091,2.076,4.854,2.291,6.421,1.473,5.144-.364c1.04-.435,1.809-.734,2.56-1.074,5.47-2.482,9.426-6.645,12.649-11.571a59.364,59.364,0,0,0,8.715-23.9,75.776,75.776,0,0,0-2.385-34.61c-2.116-6.736-5.175-13-10.08-18.184-1.47-1.556-3.167-2.9-4.743-4.324,6.071.1,11.324,1.9,15.087,7.263,6.185,8.809,10.256,18.391,11.351,29.135a68.4,68.4,0,0,1-9.143,42.6,49.693,49.693,0,0,1-5.861,7.983c.051-.054.1-.1.155-.159l.694.694a53.206,53.206,0,0,0,5.11-6.735,68.254,68.254,0,0,0,9.97-28.6A64.162,64.162,0,0,0,192.055,190.952Zm-23.767-22.913c5.11,4.257,8.4,9.788,10.828,15.874a67.136,67.136,0,0,1,4.63,23.985c.011.639.056,1.277.086,1.915-.1,10.264-1.834,20.193-6.164,29.567a38.5,38.5,0,0,1-9.741,13.508c-8.931,7.618-19.343,7.214-27.69-1.1a41.892,41.892,0,0,1-10.382-18.121c-5.215-17.486-4.516-34.718,2.809-51.522a36.79,36.79,0,0,1,10.161-13.919c3.836-3.179,8.146-5.133,13.246-5.04A19.258,19.258,0,0,1,168.288,168.039Z"/><path class="cls-1" d="M178.923,252.521l-.709-.71-.029.032Z"/><path class="cls-1" d="M140.226,253.057c-.16-.112-.322-.218-.488-.317l.667.448Z"/><path class="cls-1" d="M159.909,258.66l-5.144.364-6.421-1.473-4.854-2.291-3.085-2.072c2.483,1.831,4.6,5,13.585,6.239Z"/><path class="cls-1" d="M154.074,259.3s12.326.469,15.817-.758a18.415,18.415,0,0,0,9.116-6.149l.3-1.9s-4.377,5.682-9.525,7.089c-3.581.979-7.882.9-13.064.955Z"/><path class="cls-1" d="M145.155,47.771c-.429,9.272.514,18.239,4.586,26.683a25,25,0,0,0,5.244,7.387c5.771,5.477,13.242,5.732,19.384.664,4.868-4.017,7.859-9.278,9.954-15.117a59.057,59.057,0,0,0,3.331-21.309,61.219,61.219,0,0,0-1.545-14.371,29.189,29.189,0,0,0-4.726-10.022c-3.807-5.168-8.947-7.813-15.4-7.169-3.819.38-6.766,2.767-9.387,5.387-4.669,4.667-7.425,10.462-9.116,16.746C146.494,40.3,145.915,44.06,145.155,47.771Zm1.292.294a52.553,52.553,0,0,1,2.55-12.9c1.9-5.759,4.56-11.1,9.107-15.258,2.219-2.03,4.661-3.89,7.743-4.29,5.712-.742,10.341,1.541,13.943,5.811a27.024,27.024,0,0,1,5.346,10.883,56.606,56.606,0,0,1,1.437,12.828A60.249,60.249,0,0,1,183.461,66.6c-2.016,5.783-4.894,11.028-9.68,15.009-6.028,5.015-13.1,4.6-18.562-1.026a26.55,26.55,0,0,1-5.426-8.547C146.618,64.336,145.829,56.3,146.447,48.065Z"/><path class="cls-1" d="M130.794,28.524A60.55,60.55,0,0,1,142.817,9.077a15.444,15.444,0,0,1,10.921-5.263c3.9-.213,7.8-.586,11.687-1a19.711,19.711,0,0,1,14.857,4.4,35.066,35.066,0,0,1,10.076,13.662c4.772,10.742,5.908,22.049,5.112,33.543a76.945,76.945,0,0,1-3.933,18.823c-2.656,7.463-6.326,14.321-12.17,19.818a26.724,26.724,0,0,1-6.809,4.768,47.524,47.524,0,0,0,4.575-3.02l.695-.388q-.26.128-.512.276c-.061.036-.122.074-.183.112l-3.252,1.814-5.027,1.882-6.52.937-5.1-.788c-1-.519-1.743-.88-2.463-1.281-5.247-2.925-8.845-7.4-11.65-12.576a59.364,59.364,0,0,1-6.711-24.541,75.8,75.8,0,0,1,5.235-34.295c2.666-6.538,6.232-12.523,11.548-17.289,1.594-1.43,3.4-2.628,5.084-3.918-6.059-.4-11.442.961-15.635,5.992-6.892,8.268-11.74,17.481-13.719,28.1a68.4,68.4,0,0,0,5.594,43.2,49.549,49.549,0,0,0,5.181,8.44c-.047-.058-.1-.112-.142-.17l-.748.634a53.244,53.244,0,0,1-4.537-7.135A68.244,68.244,0,0,1,126.7,54.489,64.17,64.17,0,0,1,130.794,28.524ZM156.373,7.652c-5.445,3.821-9.179,9.061-12.1,14.926A67.124,67.124,0,0,0,137.675,46.1c-.064.635-.162,1.267-.244,1.9-.749,10.237.16,20.275,3.7,29.975a38.476,38.476,0,0,0,8.592,14.266c8.27,8.33,18.681,8.787,27.686,1.193a41.884,41.884,0,0,0,11.843-17.2c6.642-17,7.368-34.227,1.456-51.579a36.791,36.791,0,0,0-8.977-14.71c-3.56-3.485-7.693-5.788-12.783-6.117A19.257,19.257,0,0,0,156.373,7.652Z"/><path class="cls-1" d="M138.795,90.967l.765-.648.027.033Z"/><path class="cls-1" d="M177.316,94.7q.252-.148.512-.276l-.7.392C177.19,94.775,177.252,94.735,177.316,94.7Z"/><path class="cls-1" d="M157.238,98.655l5.1.788,6.52-.937,5.027-1.882,3.245-1.81c-2.625,1.619-5,4.605-14.054,5.1Z"/><path class="cls-1" d="M163,99.775s-12.323-.55-15.7-2.062a18.408,18.408,0,0,1-8.576-6.88l-.143-1.914s3.892,6.024,8.907,7.852c3.488,1.271,7.78,1.548,12.94,2.03Z"/><path class="cls-1" d="M155.237,32.663c.4-2.553.773-4.952,1.142-7.314,2.7-.741,5.063-.035,7.405,1.783.266-1.907.493-3.537.755-5.415,1.316,0,2.622-.008,3.927.008a1.647,1.647,0,0,1,.745.235c1.52.989,3.454,1.714,4.377,3.107,1.708,2.578,4.846,1.632,6.211,4.729a4.5,4.5,0,0,1,.247,2.562,4.059,4.059,0,0,0,1.9,4.558c3.952,2.875,4.243,6.139,1.772,11.529-.132.288-.313.552-.493.864,2.479,2.193,2.523,4.968,1.663,7.9a12.012,12.012,0,0,1-7.967,7.8,1.238,1.238,0,0,0-.977,1.332c-.048,1.2-.354,2.384-.351,3.575a1.92,1.92,0,0,1-1.5,2.09,10.979,10.979,0,0,0-2.165,1.015c-.894.539-1.742.745-2.438.142-.7.5-1.293.933-1.9,1.34a4.822,4.822,0,0,1-.826.412c-1.313.55-2.653,1.691-3.941,1.636-1.405-.061-2.788-1.078-4.132-1.775a1.348,1.348,0,0,1-.534-1.077c.09-1.223.315-2.437.519-3.862a34.767,34.767,0,0,1-3.607.823,4.83,4.83,0,0,1-2.111-.32c-.627-.221-1.134-.774-1.759-1.009-1.853-.7-2.108-2.032-1.614-3.948a11.627,11.627,0,0,0,.3-3.1c-.015-.889.162-1.237.911-1.373,1.649-.3,3.291-.645,4.912-1.062a1.343,1.343,0,0,0,.86-.858c.838-8.471,1.625-16.948,2.417-25.423a4.647,4.647,0,0,0-.034-.586Zm20.547,1.186c-.677-.235-1.224-.477-1.8-.613a1.238,1.238,0,0,1-1.082-1.611c.222-1.662.343-3.339.46-5.013.026-.359-.022-.9-.25-1.071-1.161-.889-2.393-1.687-3.744-2.614-.3,2.547-.579,4.888-.871,7.354L160.779,26.2l-.848,6.341a19.446,19.446,0,0,0,2.6.945c1.235.261,1.388.957,1.253,2.062q-1.589,12.909-3.084,25.829a.96.96,0,0,1-.944.986c-1.371.23-2.733.51-4.154.779-.294,2.27-.58,4.471-.89,6.866l9.43-2.2c-.168,2.656-.321,5.088-.488,7.734,1.405-.646,2.538-1.218,3.712-1.687a1.46,1.46,0,0,0,1-1.549c.04-1.6.16-3.194.313-4.784.035-.368.261-.929.53-1.022A22.723,22.723,0,0,1,172,65.881c-.17,2.269-.325,4.348-.493,6.59a22.949,22.949,0,0,1,2.235-1,1.707,1.707,0,0,0,1.268-1.762c.071-1.276.253-2.545.352-3.82a1.354,1.354,0,0,1,1.195-1.444,10.278,10.278,0,0,0,7.775-7.536c.794-2.848.644-5.484-2.083-7.39a7.824,7.824,0,0,0,.57-.82c1.417-2.744,2.822-5.624,1-8.587a18.739,18.739,0,0,0-4.066-3.955c-.538-.457-.871-.723-.694-1.513a29.046,29.046,0,0,0,.547-3.914,1.619,1.619,0,0,0-.4-1.25,25.443,25.443,0,0,0-2.667-1.58C176.27,29.984,176.032,31.872,175.784,33.849Z"/><path class="cls-1" d="M171.053,51.245c1.938.142,3.732.206,5.509.421a3.445,3.445,0,0,1,3.123,3.124c.209,2.237-.646,3.907-2.581,4.446a51.964,51.964,0,0,1-5.284.951c-.547.092-1.1.153-1.835.254C170.34,57.381,170.687,54.4,171.053,51.245Zm-.292,7.767c2.386-.235,4.071-1.749,4.059-3.495a3.335,3.335,0,0,0-3.183-3.406Z"/><path class="cls-1" d="M171.382,47l1.081-8.648c1.741.569,3.379,1.053,4.978,1.643a3.576,3.576,0,0,1,2.264,4.03c-.305,2.11-1.438,3.364-3.475,3.42A39.724,39.724,0,0,1,171.382,47Zm.908-1.291c2.233-.487,3.477-2,3.4-3.927-.064-1.584-.61-2.087-2.627-2.338C172.81,41.488,172.558,43.533,172.29,45.708Z"/><g class="cls-2"><path class="cls-1" d="M211.942,197.976a4.92,4.92,0,0,0-1.423-.057,23.726,23.726,0,0,0-7.617,2.428l1.373,4.722-4.3,1.929-1.317-4.531c-1.52,1.317-2.957,2.485-4.3,3.759-.6.568-1.287,1.334-.809,2.247s1.478.787,2.3.656A29.649,29.649,0,0,0,212.1,200.91a3.755,3.755,0,0,0,.771-1.194A1.136,1.136,0,0,0,211.942,197.976Zm-12.422,9.938c-1.392.215-2.68.434-3.976.6a.827.827,0,0,1-.648-.324c-.072-.106.076-.481.229-.606,1.119-.907,2.263-1.781,3.5-2.744Zm7.08-3.44-.846-2.908c1.989-.874,3.919-1.9,6.238-1.881C210.8,201.9,208.719,203.069,206.6,204.474Z"/><path class="cls-1" d="M206.124,246.327a40.518,40.518,0,0,1-4.347-1.753l-.638-.2A21.609,21.609,0,0,0,206.124,246.327Z"/><path class="cls-1" d="M237.171,202.212a54.862,54.862,0,0,0-7.846-21.06A51.774,51.774,0,0,0,215.943,166.9a13.206,13.206,0,0,0-10.045-2.552c-3.306.486-6.635.837-9.963,1.151a16.853,16.853,0,0,0-11.7,6.216c-.31.367-.595.746-.879,1.126l.475.682.088.126a16.018,16.018,0,0,1,20.423-5.636c5.211,2.274,9.232,6.03,12.68,10.446a57.4,57.4,0,0,1,9.527,18.585c.161.522.351,1.035.527,1.552a60.8,60.8,0,0,1,2,25.744,32.893,32.893,0,0,1-4.771,13.415c-5.513,8.386-14.157,10.541-22.994,5.71a34.5,34.5,0,0,1-11.2-10.024l-.009.007-.355.939a37.314,37.314,0,0,0,9.859,9.1q.757.469,1.53.881l-.01,0,.011,0,.636.2h0l.008,0c2.475.91,4.969,3.008,12.641,1.878l.636-.278c2.219-.576,10.007-2.672,12.206-4.246a15.729,15.729,0,0,0,5.963-7.106l.015.007-.014-.008c.017-.039.035-.077.052-.117v0a45.388,45.388,0,0,0,2.533-6.63A58.348,58.348,0,0,0,237.171,202.212Zm-4.093,30.881v-.013s-.031.076-.08.193c-.119.269-.239.538-.364.8-.829,1.743-2.8,5.33-5.683,7.1a33.122,33.122,0,0,1-7.586,3.027c.618-.5,1.113-.88,1.582-1.282,3.9-3.344,6.151-7.706,7.621-12.519a50.761,50.761,0,0,0,1.448-21.7,64.8,64.8,0,0,0-10.221-27.843,39.155,39.155,0,0,0-12.616-12.521c-1.58-.927-3.293-1.625-4.927-2.418,5.009-1.363,9.751-1.141,14.12,2.36a52.041,52.041,0,0,1,16.274,21.209,58.475,58.475,0,0,1,2.664,37.15A41.767,41.767,0,0,1,233.078,233.093Z"/><path class="cls-1" d="M220.567,199.722c-1.268-2.979-2.393-6.031-3.837-8.923a31.12,31.12,0,0,0-10.487-12.48c-2.642-1.749-5.517-3.247-8.781-2.916a13.444,13.444,0,0,0-9.517,5.082l.47.952.016.014a12.359,12.359,0,0,1,9.328-5.152c2.65-.189,5.014.955,7.217,2.278,4.518,2.712,7.655,6.732,10.226,11.234a44.913,44.913,0,0,1,4.333,10.377,44.227,44.227,0,0,1,1.274,20.655,22.7,22.7,0,0,1-3.091,8.085c-3.622,5.641-9.475,7.194-15.378,4.018a26.54,26.54,0,0,1-9.48-9.052l0,0-.27,1.211A26.952,26.952,0,0,0,202,233.794c6.009,3.2,12.225,1.717,16.128-3.854a21.366,21.366,0,0,0,3.137-7.081C223.239,215.091,222.5,207.418,220.567,199.722Z"/><path class="cls-1" d="M194.26,202.27a3.827,3.827,0,0,0,1.016-.162,13.505,13.505,0,0,0,2.33-1.292c.523.809.281,1.186-.327,1.706-.976.834-1.914,1.717-2.828,2.623l.02.414,0,0c.213-.238.432-.468.66-.685,1.084-1.027,2.306-1.908,3.517-2.89-.328-1.126-.67-2.3-1.049-3.6l-3.545,2.255.172,1.582Z"/><path class="cls-1" d="M214.175,197.14a12.458,12.458,0,0,0-4.429-.112,37.412,37.412,0,0,0-4.864,1.36c-.7-1.473-.706-1.476.538-2.221,1.873-1.122,3.736-2.26,5.629-3.344a.789.789,0,0,0,.417-1.146c-.811-2.213-1.58-4.441-2.388-6.655-.08-.22-.308-.54-.482-.549-.958-.052-1.9-.319-2.823.4-4.227,3.318-8.493,6.585-12.738,9.881l.108.49h0q6.3-4.872,12.617-9.724a5.4,5.4,0,0,1,.488-.281c.622,2.137,1.225,4.212,1.858,6.386l-6.469,4.159c.381,1.311.76,2.615,1.124,3.865,2.131-.7,4.23-1.473,6.382-2.049a11.52,11.52,0,0,1,3.542-.326c1.831.1,2.424,1.327,1.513,2.917a13.343,13.343,0,0,1-4.275,4.2,38.619,38.619,0,0,1-4.114,2.474c-.778.4-.886.791-.651,1.593,1.253,4.3,2.444,8.613,3.654,12.923.072.256.114.521.189.875l-4.932.681c-1.19-4.575-2.371-9.118-3.56-13.693-1.376.271-2.662.579-3.966.76a7.345,7.345,0,0,1-2.019-.025l0,.013s-.022,1.054-.066,1.856a3.821,3.821,0,0,0,1.909.332c1.351-.088,2.7-.272,4.1-.418.061.17.144.353.194.546q1.386,5.3,2.762,10.611a2.848,2.848,0,0,0,2.4,1.82c2.11-.338,4.206-.762,6.369-1.162-1.433-4.928-2.844-9.779-4.265-14.667,1.224-.691,2.394-1.263,3.469-1.977a11.783,11.783,0,0,0,4.88-5.5C217.071,199.351,216.3,197.611,214.175,197.14Z"/></g><g class="cls-3"><path class="cls-1" d="M246.866,184.086a3.854,3.854,0,0,0-1.1.249,18.707,18.707,0,0,0-5.3,3.417l2.018,3.313-2.874,2.353-1.936-3.179c-.886,1.316-1.74,2.5-2.5,3.746-.338.556-.7,1.281-.153,1.878s1.288.295,1.886.026a23.389,23.389,0,0,0,10.676-9.6,2.986,2.986,0,0,0,.341-1.068A.9.9,0,0,0,246.866,184.086Zm-7.412,10.124c-1.016.45-1.952.882-2.905,1.272a.654.654,0,0,1-.56-.113c-.077-.066-.041-.382.05-.509.665-.921,1.356-1.822,2.1-2.81Zm4.683-4.077-1.243-2.04a11.865,11.865,0,0,1,4.362-2.717C246.8,187.305,245.46,188.626,244.137,190.133Z"/><path class="cls-1" d="M252.391,222.1a31.961,31.961,0,0,1-3.671-.439l-.528-.023A17.065,17.065,0,0,0,252.391,222.1Z"/><path class="cls-1" d="M266.948,182.116a43.264,43.264,0,0,0-10.31-14.42,40.844,40.844,0,0,0-13.123-8.093,10.413,10.413,0,0,0-8.174.125c-2.417,1.051-4.88,2-7.349,2.927a13.291,13.291,0,0,0-7.628,7.142c-.16.343-.3.691-.438,1.038l.5.422.093.077a12.634,12.634,0,0,1,14.39-8.5,25.989,25.989,0,0,1,11.806,5.344A45.265,45.265,0,0,1,257.8,180.371c.23.364.48.716.721,1.073a47.956,47.956,0,0,1,6.822,19.191,25.923,25.923,0,0,1-.871,11.2c-2.471,7.521-8.609,10.941-16.332,9.082a27.2,27.2,0,0,1-10.591-5.327l0,.008-.076.788a29.421,29.421,0,0,0,9.38,4.9q.672.2,1.346.356h0l.527.023h.007c2.072.183,4.4,1.267,10.012-1.173l.427-.343c1.571-.9,7.07-4.095,8.42-5.745a12.408,12.408,0,0,0,3.077-6.639l.013,0-.012,0,.015-.1v0a35.913,35.913,0,0,0,.564-5.57A46.026,46.026,0,0,0,266.948,182.116Zm3.242,24.356,0-.009s-.007.064-.021.163c-.035.23-.071.459-.111.687-.273,1.5-1.035,4.635-2.867,6.574a26.144,26.144,0,0,1-5.153,3.867c.369-.5.667-.9.941-1.3a20.312,20.312,0,0,0,3.225-11.1,40.015,40.015,0,0,0-3.366-16.824,51.092,51.092,0,0,0-13.515-19.1,30.884,30.884,0,0,0-12.184-6.937c-1.393-.38-2.842-.559-4.249-.826,3.533-2.07,7.189-2.877,11.237-1.11a41.052,41.052,0,0,1,16.758,12.8,46.127,46.127,0,0,1,9.677,27.739A33.011,33.011,0,0,1,270.19,206.472Z"/><path class="cls-1" d="M253.793,183.639c-1.579-2.008-3.064-4.1-4.759-6a24.54,24.54,0,0,0-10.555-7.343c-2.371-.788-4.869-1.337-7.286-.413a10.6,10.6,0,0,0-6.2,5.829l.554.628.015.008a9.142,9.142,0,0,1,12.006-5.6,23.34,23.34,0,0,1,10.1,6.449,35.45,35.45,0,0,1,5.435,7.009,34.878,34.878,0,0,1,5.223,15.465,17.921,17.921,0,0,1-.689,6.793c-1.6,5.041-5.733,7.428-10.883,6.225a20.918,20.918,0,0,1-9.081-4.941l0,0,.044.977a21.267,21.267,0,0,0,8.955,4.675,9.347,9.347,0,0,0,11.486-6.255,16.836,16.836,0,0,0,.931-6.038C258.992,194.791,256.852,189.1,253.793,183.639Z"/><path class="cls-1" d="M234.287,191a3.022,3.022,0,0,0,.74-.333,10.634,10.634,0,0,0,1.508-1.464c.565.508.458.846.1,1.366-.571.837-1.1,1.7-1.613,2.58l.1.311,0,0c.114-.225.233-.446.363-.658.613-1,1.362-1.927,2.082-2.924-.482-.79-.984-1.616-1.541-2.529-.748.82-1.469,1.609-2.235,2.447l.457,1.169Z"/><path class="cls-1" d="M248.394,182.989a9.815,9.815,0,0,0-3.4.826,29.636,29.636,0,0,0-3.424,2.037c-.839-.976-.841-.978-.047-1.8,1.194-1.239,2.379-2.489,3.6-3.705a.622.622,0,0,0,.082-.958c-1.073-1.518-2.118-3.056-3.188-4.575-.107-.152-.347-.348-.481-.319-.74.158-1.514.149-2.066.889-2.536,3.4-5.111,6.762-7.664,10.145l.182.351h0q3.793-5.007,7.6-10a3.985,3.985,0,0,1,.314-.315l2.729,4.48-4.069,4.5c.56.92,1.117,1.835,1.652,2.712,1.479-.969,2.917-1.993,4.438-2.874a9.065,9.065,0,0,1,2.629-.978c1.415-.3,2.119.512,1.753,1.91a10.529,10.529,0,0,1-2.392,4.075,30.6,30.6,0,0,1-2.622,2.731.877.877,0,0,0-.169,1.347c1.839,3.014,3.635,6.054,5.443,9.087.108.181.194.374.325.627l-3.615,1.535-5.531-9.693c-.991.489-1.907.989-2.863,1.394a5.778,5.778,0,0,1-1.542.4v.01s.2.807.331,1.427a3,3,0,0,0,1.523-.141c1.01-.344,2-.761,3.038-1.163.081.117.182.24.26.376q2.146,3.755,4.288,7.511a2.244,2.244,0,0,0,2.205.891c1.536-.692,3.045-1.446,4.61-2.2l-6.267-10.289c.789-.779,1.562-1.455,2.234-2.221a9.293,9.293,0,0,0,2.583-5.194C251.054,184.076,250.111,182.909,248.394,182.989Z"/></g><g class="cls-4"><path class="cls-1" d="M271.651,169.227a2.849,2.849,0,0,0-.752.335,13.724,13.724,0,0,0-3.325,3.212l1.923,2.095-1.732,2.1-1.845-2.01c-.449,1.072-.9,2.046-1.262,3.049-.164.447-.324,1.021.157,1.372s.968.028,1.36-.25a17.145,17.145,0,0,0,6.31-8.424,2.157,2.157,0,0,0,.094-.817A.657.657,0,0,0,271.651,169.227Zm-3.889,8.335c-.667.469-1.278.912-1.908,1.329a.481.481,0,0,1-.419,0c-.065-.037-.084-.269-.036-.373.346-.757.716-1.5,1.11-2.32Zm2.787-3.6-1.184-1.29a8.69,8.69,0,0,1,2.75-2.574A8.383,8.383,0,0,1,270.549,173.964Z"/><path class="cls-1" d="M281.033,195.776a23.562,23.562,0,0,1-2.7.206l-.383.059A12.485,12.485,0,0,0,281.033,195.776Z"/><path class="cls-1" d="M285.812,164.953a31.741,31.741,0,0,0-9.466-8.9,29.922,29.922,0,0,0-10.588-3.952,7.63,7.63,0,0,0-5.861,1.253c-1.588,1.1-3.224,2.134-4.867,3.151a9.742,9.742,0,0,0-4.47,6.22c-.066.27-.117.54-.167.809l.421.232.078.043a9.262,9.262,0,0,1,9.139-8.158,19.053,19.053,0,0,1,9.25,2.163,33.188,33.188,0,0,1,9.7,7.188c.217.23.447.447.671.669a35.18,35.18,0,0,1,7.637,12.829,19.019,19.019,0,0,1,.966,8.176c-.706,5.759-4.634,9.093-10.452,8.855a19.932,19.932,0,0,1-8.373-2.324l0,.006.057.578a21.562,21.562,0,0,0,7.442,2.187c.342.033.681.054,1.019.065h0l.382-.058h0a10.755,10.755,0,0,0,7.033-2.268l.258-.307c1-.868,4.5-3.951,5.238-5.33a9.11,9.11,0,0,0,1.268-5.212h0l0-.074,0,0a26.124,26.124,0,0,0-.387-4.086A33.735,33.735,0,0,0,285.812,164.953Zm5.8,17.053,0-.006s0,.047.008.121c.007.17.014.339.018.509a10.093,10.093,0,0,1-1.126,5.135,19.106,19.106,0,0,1-3.155,3.514c.193-.414.351-.741.491-1.07a14.887,14.887,0,0,0,.739-8.442,29.352,29.352,0,0,0-4.814-11.619A37.473,37.473,0,0,0,271.33,158.34a22.641,22.641,0,0,0-9.749-3.254c-1.056-.076-2.123,0-3.173.01,2.246-1.991,4.76-3.091,7.922-2.4a30.085,30.085,0,0,1,13.873,6.818,33.813,33.813,0,0,1,10.905,18.57A24.112,24.112,0,0,1,291.609,182.006Z"/><path class="cls-1" d="M276.569,167.92c-1.422-1.219-2.787-2.512-4.277-3.64a18,18,0,0,0-8.635-3.779,7.346,7.346,0,0,0-8.927,5.814l.488.374.012,0a6.7,6.7,0,0,1,7.837-5.732,17.115,17.115,0,0,1,8.18,3.2,25.973,25.973,0,0,1,4.906,4.266A25.575,25.575,0,0,1,282.11,178.8a13.143,13.143,0,0,1,.471,4.982,6.334,6.334,0,0,1-6.94,6.026,15.335,15.335,0,0,1-7.233-2.261v0l.171.7a15.582,15.582,0,0,0,7.1,2.088,6.853,6.853,0,0,0,7.37-6.133,12.33,12.33,0,0,0-.19-4.474A26.83,26.83,0,0,0,276.569,167.92Z"/><path class="cls-1" d="M263.589,175.986a2.175,2.175,0,0,0,.484-.345,7.7,7.7,0,0,0,.877-1.267c.478.285.45.543.268.968-.292.683-.552,1.381-.793,2.085l.116.209,0,0c.05-.178.1-.353.167-.524.3-.81.706-1.58,1.081-2.4l-1.468-1.6c-.421.7-.827,1.366-1.259,2.078l.5.776Z"/><path class="cls-1" d="M272.594,168.221a7.221,7.221,0,0,0-2.324,1.077,21.677,21.677,0,0,0-2.172,1.953c-.742-.583-.744-.584-.291-1.29.683-1.061,1.357-2.128,2.06-3.176a.455.455,0,0,0-.078-.7c-.987-.939-1.957-1.9-2.943-2.837-.1-.094-.3-.2-.391-.161-.51.219-1.068.323-1.36.934-1.34,2.8-2.713,5.59-4.067,8.386l.181.226h0q2.016-4.141,4.045-8.275c.034-.068.085-.128.181-.271l2.6,2.834c-.736,1.229-1.5,2.51-2.286,3.813l1.574,1.716c.926-.908,1.814-1.849,2.782-2.7a6.635,6.635,0,0,1,1.752-1.077c.974-.418,1.6.066,1.532,1.124a7.712,7.712,0,0,1-1.14,3.27,22.383,22.383,0,0,1-1.5,2.337.642.642,0,0,0,.071.993c1.751,1.906,3.475,3.836,5.207,5.76.1.114.192.241.322.405l-2.381,1.618L268.616,178c-.644.493-1.231.983-1.861,1.411a4.27,4.27,0,0,1-1.052.5v.007s.258.553.441.98a2.214,2.214,0,0,0,1.075-.318c.677-.392,1.327-.832,2.019-1.269.075.073.165.147.24.233q2.079,2.394,4.153,4.791a1.644,1.644,0,0,0,1.712.327c1.006-.716,1.984-1.473,3-2.235l-5.971-6.507c.457-.672.916-1.269,1.29-1.915a6.811,6.811,0,0,0,1.119-4.1A1.683,1.683,0,0,0,272.594,168.221Z"/></g><g class="cls-5"><path class="cls-1" d="M285.722,153.754a1.934,1.934,0,0,0-.436.349,9.276,9.276,0,0,0-1.628,2.674l1.619,1.043-.774,1.673-1.553-1c-.111.78-.236,1.494-.305,2.214-.03.322-.037.725.339.872s.639-.147.848-.4a11.62,11.62,0,0,0,2.69-6.6,1.465,1.465,0,0,0-.079-.551A.445.445,0,0,0,285.722,153.754Zm-1.12,6.128c-.356.421-.681.817-1.022,1.2a.324.324,0,0,1-.275.071c-.048-.013-.1-.162-.088-.238.1-.555.212-1.108.33-1.71Zm1.209-2.835-1-.643a5.9,5.9,0,0,1,1.36-2.158A5.663,5.663,0,0,1,285.811,157.047Z"/><path class="cls-1" d="M296.42,169.539a15.868,15.868,0,0,1-1.735.6l-.241.1A8.424,8.424,0,0,0,296.42,169.539Z"/><path class="cls-1" d="M294.266,148.526a21.481,21.481,0,0,0-7.727-4.209,20.263,20.263,0,0,0-7.615-.774,5.166,5.166,0,0,0-3.625,1.825c-.852.993-1.746,1.951-2.649,2.9a6.6,6.6,0,0,0-1.862,4.842c0,.188.016.373.03.559l.315.079.059.015a6.269,6.269,0,0,1,4.589-6.911,12.887,12.887,0,0,1,6.43-.169,22.463,22.463,0,0,1,7.59,3.046c.182.113.369.216.554.323a23.815,23.815,0,0,1,7.2,7.1,12.881,12.881,0,0,1,2.035,5.191,6.376,6.376,0,0,1-5.33,7.593,13.5,13.5,0,0,1-5.884-.087v0l.136.368a14.614,14.614,0,0,0,5.251.158q.345-.057.679-.133l0,0,0,0,.24-.1h0a7.283,7.283,0,0,0,4.218-2.692l.117-.245a22.983,22.983,0,0,0,2.517-4.39,6.163,6.163,0,0,0-.062-3.632h0l-.015-.048h0a17.887,17.887,0,0,0-.954-2.61A22.854,22.854,0,0,0,294.266,148.526Zm6.722,10.179,0,0s.011.03.026.078q.051.165.1.33a6.837,6.837,0,0,1,.143,3.558,13.017,13.017,0,0,1-1.465,2.843c.056-.305.1-.546.139-.785a10.088,10.088,0,0,0-.963-5.658,19.877,19.877,0,0,0-5.146-6.787,25.373,25.373,0,0,0-10.173-5.605,15.315,15.315,0,0,0-6.945-.46c-.7.131-1.39.365-2.077.55a5.815,5.815,0,0,1,4.78-2.928,20.37,20.37,0,0,1,10.257,2.088,22.9,22.9,0,0,1,10.329,10.3A16.466,16.466,0,0,1,300.988,158.705Z"/><path class="cls-1" d="M288.719,152.055c-1.14-.555-2.256-1.168-3.426-1.652a12.176,12.176,0,0,0-6.305-1,4.975,4.975,0,0,0-4.852,5.339l.384.161h.008a4.539,4.539,0,0,1,4.152-5.1,11.6,11.6,0,0,1,5.908.694,17.589,17.589,0,0,1,3.946,1.955,17.312,17.312,0,0,1,5.681,5.778,8.888,8.888,0,0,1,1.163,3.183,4.289,4.289,0,0,1-3.513,5.137,10.393,10.393,0,0,1-5.127-.24v0l.231.427a10.561,10.561,0,0,0,5.013.15,4.641,4.641,0,0,0,3.777-5.282,8.371,8.371,0,0,0-.891-2.9A18.164,18.164,0,0,0,288.719,152.055Z"/><path class="cls-1" d="M281.6,159.565a1.513,1.513,0,0,0,.259-.309,5.314,5.314,0,0,0,.357-.981c.362.1.387.279.341.589-.074.5-.125,1-.162,1.5l.112.117h0c0-.125.008-.249.02-.372.056-.582.191-1.156.3-1.757l-1.236-.8-.468,1.577.457.423Z"/><path class="cls-1" d="M286.167,152.934a4.865,4.865,0,0,0-1.338,1.1,14.621,14.621,0,0,0-1.089,1.651c-.586-.255-.587-.255-.411-.795.265-.812.524-1.627.805-2.434a.308.308,0,0,0-.171-.445c-.808-.446-1.608-.907-2.415-1.354-.08-.045-.23-.081-.284-.039-.3.231-.644.395-.73.845-.4,2.066-.819,4.128-1.227,6.192l.157.117h0q.611-3.059,1.232-6.115a1.972,1.972,0,0,1,.072-.208l2.189,1.411c-.272.931-.556,1.9-.844,2.89l1.325.854c.451-.753.872-1.522,1.36-2.245a4.5,4.5,0,0,1,.963-1.006c.567-.441,1.058-.23,1.2.473a5.231,5.231,0,0,1-.186,2.339,15.159,15.159,0,0,1-.581,1.788c-.126.319-.059.461.217.638,1.474.948,2.934,1.918,4.4,2.881.087.057.167.125.28.21l-1.282,1.468-4.569-3.133c-.337.434-.638.855-.978,1.243a2.845,2.845,0,0,1-.6.512v0s.265.318.457.566a1.5,1.5,0,0,0,.65-.392c.377-.373.727-.773,1.105-1.178.062.035.134.068.2.112q1.772,1.212,3.542,2.427a1.116,1.116,0,0,0,1.178-.079c.536-.642,1.047-1.306,1.584-1.98l-5.028-3.239c.184-.519.383-.989.518-1.476a4.615,4.615,0,0,0,.029-2.879A1.139,1.139,0,0,0,286.167,152.934Z"/></g><g class="cls-2"><path class="cls-1" d="M88.211,57.62c1.779,7.363,4.563,14.175,9.68,19.863a20.4,20.4,0,0,0,5.794,4.592c5.771,2.975,11.684,1.471,15.341-3.9a27.359,27.359,0,0,0,4.351-14.115,48.187,48.187,0,0,0-2.25-17.458,49.958,49.958,0,0,0-4.489-10.909,23.838,23.838,0,0,0-5.989-6.775c-4.163-3.181-8.793-4.081-13.706-2.1-2.905,1.169-4.67,3.712-6.126,6.362a29.7,29.7,0,0,0-3.324,15.2C87.556,51.461,87.96,54.539,88.211,57.62Zm1.079-.064a42.9,42.9,0,0,1-.945-10.693C88.52,41.917,89.387,37.127,92,32.83c1.275-2.1,2.765-4.112,5.088-5.128,4.307-1.884,8.455-1.152,12.252,1.373a22.07,22.07,0,0,1,6.672,7.308,46.257,46.257,0,0,1,4.052,9.724,49.159,49.159,0,0,1,2.457,17.531c-.26,4.992-1.319,9.758-4.161,13.969-3.58,5.305-9.214,6.59-14.779,3.431a21.674,21.674,0,0,1-6.2-5.461A42.2,42.2,0,0,1,89.29,57.556Z"/><path class="cls-1" d="M93.08,92.919l.452-.683.029.02Z"/><path class="cls-1" d="M124.116,87.056c.11-.116.222-.227.339-.333l-.461.467C124.035,87.145,124.075,87.1,124.116,87.056Z"/><path class="cls-1" d="M109.286,94.737l4.173-.545,4.895-2.222,3.51-2.622,2.13-2.158c-1.688,1.867-2.864,4.747-9.85,7.2Z"/><path class="cls-1" d="M114.056,94.3s-9.782,2.379-12.773,1.965a15.025,15.025,0,0,1-8.29-3.435l-.548-1.466s4.424,3.832,8.77,4.12c3.023.2,6.45-.561,10.6-1.36Z"/><path class="cls-1" d="M92.665,43.482c-.27-2.092-.524-4.057-.774-5.992A6.524,6.524,0,0,1,98.1,37.2c-.226-1.555-.42-2.884-.643-4.415,1.031-.3,2.052-.605,3.079-.89a1.346,1.346,0,0,1,.637.014c1.417.428,3.1.556,4.139,1.437,1.926,1.63,4.169.173,5.945,2.288a3.681,3.681,0,0,1,.778,1.952,3.314,3.314,0,0,0,2.53,3.138c3.753,1.351,4.726,3.842,4.019,8.629-.038.256-.12.505-.189.79,2.442,1.153,3.11,3.317,3.105,5.812a9.8,9.8,0,0,1-4.462,7.933,1.011,1.011,0,0,0-.462,1.267c.235.947.266,1.948.54,2.881a1.567,1.567,0,0,1-.7,1.981A8.92,8.92,0,0,0,114.95,71.3c-.578.626-1.2.981-1.878.668-.435.547-.8,1.026-1.185,1.483a3.883,3.883,0,0,1-.553.511c-.9.731-1.693,1.931-2.715,2.181-1.114.273-2.431-.209-3.642-.449a1.094,1.094,0,0,1-.664-.722C104.1,74,104,73,103.838,71.832A28.451,28.451,0,0,1,101.2,73.3a3.936,3.936,0,0,1-1.727.23c-.541-.03-1.065-.347-1.608-.389-1.611-.123-2.116-1.111-2.165-2.726a9.543,9.543,0,0,0-.473-2.5c-.215-.693-.156-1.007.4-1.284,1.223-.609,2.431-1.256,3.606-1.953a1.094,1.094,0,0,0,.478-.868c-1.276-6.829-2.592-13.651-3.905-20.473a3.738,3.738,0,0,0-.16-.451Zm16.371-3.757c-.585-.031-1.068-.095-1.547-.071-.745.037-1.1-.249-1.216-1.016-.2-1.353-.492-2.695-.783-4.034-.062-.287-.221-.7-.44-.782-1.113-.431-2.26-.775-3.53-1.194.345,2.065.661,3.962,1,5.962l-6.982-1.439.781,5.162a15.707,15.707,0,0,0,2.251.148c1.027-.077,1.306.434,1.452,1.33q1.7,10.478,3.475,20.943a.783.783,0,0,1-.514.988c-1.022.493-2.026,1.023-3.078,1.558l.869,5.583,6.887-3.877c.475,2.12.909,4.061,1.382,6.172.954-.826,1.711-1.533,2.524-2.169a1.193,1.193,0,0,0,.432-1.442c-.333-1.26-.6-2.539-.847-3.82-.056-.3-.007-.787.182-.921a18.715,18.715,0,0,1,2.045-1.118l1.117,5.276a18.717,18.717,0,0,1,1.523-1.3,1.394,1.394,0,0,0,.591-1.67c-.235-1.016-.382-2.052-.595-3.074a1.106,1.106,0,0,1,.607-1.4,8.386,8.386,0,0,0,4.373-7.678c-.027-2.413-.746-4.444-3.317-5.316a6.436,6.436,0,0,0,.259-.773c.484-2.473.928-5.051-1.178-6.956a15.247,15.247,0,0,0-4.088-2.171c-.525-.236-.847-.368-.889-1.028a23.655,23.655,0,0,0-.464-3.192,1.322,1.322,0,0,0-.6-.888,20.837,20.837,0,0,0-2.45-.63C108.535,36.584,108.779,38.119,109.036,39.725Z"/><path class="cls-1" d="M109.3,54.435c1.551-.331,2.972-.69,4.413-.927a2.814,2.814,0,0,1,3.161,1.736c.674,1.7.385,3.208-1.009,4.072a42.386,42.386,0,0,1-3.924,1.951c-.407.2-.826.37-1.379.617C110.138,59.406,109.729,56.988,109.3,54.435Zm1.544,6.153c1.816-.729,2.79-2.3,2.383-3.665a2.723,2.723,0,0,0-3.271-1.943Z"/><path class="cls-1" d="M108.586,51.032l-1.126-7.023c1.494.05,2.889.055,4.276.153a2.917,2.917,0,0,1,2.693,2.641c.243,1.723-.359,2.964-1.943,3.472A32.208,32.208,0,0,1,108.586,51.032ZM109,49.814a3.134,3.134,0,0,0,1.768-3.853c-.411-1.226-.954-1.5-2.592-1.233Z"/><path class="cls-1" d="M121.1,90.6a20.621,20.621,0,0,0,3.346-3.865l-.449.455A38.806,38.806,0,0,1,121.1,90.6Z"/><polygon class="cls-1" points="124.455 86.723 124.448 86.729 124.448 86.73 124.455 86.723"/><path class="cls-1" d="M129.727,72.748c-.049-.171-.563-1.943-.563-1.943l-.012-.011a33.74,33.74,0,0,1-5.25,15.25c-5.324,8.005-13.586,10.021-21.967,5.38a31.381,31.381,0,0,1-9.987-9.219A58.051,58.051,0,0,1,82.21,59.561c-.08-.515-.147-1.033-.242-1.545a54.779,54.779,0,0,1-.2-19.936,31.467,31.467,0,0,1,6.079-14.456,15.723,15.723,0,0,1,8.982-5.866,16.121,16.121,0,0,1,11.413,1.877,30.024,30.024,0,0,1,10.39,9.48,59.775,59.775,0,0,1,8.239,16.633l0-.006.2-2.012a52.261,52.261,0,0,0-9.58-17.495,28.612,28.612,0,0,0-11.012-8.407,16.094,16.094,0,0,0-12.646-.06c-2.952,1.212-5.92,2.393-8.93,3.449a12.606,12.606,0,0,0-7.357,6.616,49.426,49.426,0,0,0-4.985,17.981,52.376,52.376,0,0,0,2.716,21.28A55.717,55.717,0,0,0,87.908,88.348,43.462,43.462,0,0,0,93.09,92.9l.442-.668c.05.036.1.067.15.1A40.438,40.438,0,0,1,87.7,86.906,55.823,55.823,0,0,1,73.458,54.327,49.678,49.678,0,0,1,77.8,29.181c2.138-4.9,6.047-7.191,10.885-8.262-1.029,1.4-2.167,2.746-3.09,4.23a37.356,37.356,0,0,0-5.1,16.181A61.866,61.866,0,0,0,84.209,69.4,48.453,48.453,0,0,0,95.066,87.1c3.379,3.415,7.219,6.1,12,7.2.655.151,1.319.264,2.222.443l4.173-.545,4.895-2.222,3.51-2.622L124,87.185c.039-.043.077-.087.117-.129.108-.114.218-.223.332-.327q.469-.692.9-1.423A35.894,35.894,0,0,0,129.727,72.748Z"/><path class="cls-1" d="M129.794,72.357c.1-.645.187-1.294.263-1.945C129.938,71.291,129.848,71.958,129.794,72.357Z"/></g><g class="cls-3"><path class="cls-1" d="M63.483,99.435l.224-.614.027.01Z"/><path class="cls-1" d="M86.52,89.123q.094-.165.2-.321l-.272.448Z"/><path class="cls-1" d="M76.416,97.843l3.143-1.2,3.393-2.635,2.242-2.688,1.255-2.073c-.965,1.764-1.345,4.221-6.321,7.422Z"/><path class="cls-1" d="M80.043,96.619s-7.162,3.663-9.564,3.9a12,12,0,0,1-7.08-1.133l-.7-1.038s4.15,2.159,7.582,1.577c2.387-.405,4.909-1.633,7.989-3.024Z"/><path class="cls-1" d="M68.952,66.515c1.144-.545,2.182-1.087,3.259-1.538a2.247,2.247,0,0,1,2.778.763,2.448,2.448,0,0,1-.029,3.352,33.941,33.941,0,0,1-2.688,2.244c-.28.229-.574.441-.958.736Zm2.34,4.5c1.277-.9,1.743-2.305,1.174-3.291a2.175,2.175,0,0,0-2.9-.9Z"/><path class="cls-1" d="M67.769,64l-2.177-5.25c1.17-.239,2.255-.493,3.352-.675a2.333,2.333,0,0,1,2.583,1.554,2.256,2.256,0,0,1-.867,3.06A25.894,25.894,0,0,1,67.769,64Zm.1-1.024a2.506,2.506,0,0,0,.661-3.323c-.548-.877-1.019-.986-2.244-.478Z"/><path class="cls-1" d="M84.833,92.433a16.5,16.5,0,0,0,1.884-3.625l-.265.438A30.92,30.92,0,0,1,84.833,92.433Z"/><polygon class="cls-1" points="86.721 88.802 86.717 88.808 86.717 88.808 86.721 88.802"/><path class="cls-1" d="M88.207,76.645c-.041-.52-.094-1.04-.156-1.56C88.122,75.79,88.175,76.325,88.207,76.645Z"/><path class="cls-1" d="M86.627,86.974c-.14.469-.29.937-.462,1.4-2.654,7.21-8.7,10.309-16.077,8.255a25.08,25.08,0,0,1-9.472-5.314A46.388,46.388,0,0,1,48.849,75.522c-.158-.386-.306-.776-.475-1.156a43.788,43.788,0,0,1-3.85-15.459,25.143,25.143,0,0,1,2.045-12.364,12.56,12.56,0,0,1,5.894-6.225,12.874,12.874,0,0,1,9.219-.657A23.992,23.992,0,0,1,71.515,45.1c.352.311.69.629,1.03.946l0-.006.081-.912c-.81-.712-1.646-1.4-2.531-2.056A22.866,22.866,0,0,0,59.98,38.583a12.85,12.85,0,0,0-9.841,2.3c-2.07,1.488-4.158,2.957-6.3,4.336a10.074,10.074,0,0,0-4.491,6.506,39.5,39.5,0,0,0-.542,14.9,41.858,41.858,0,0,0,6.057,16.037,44.523,44.523,0,0,0,13.754,14.18,34.667,34.667,0,0,0,4.873,2.58l.219-.6c.046.018.091.033.136.051a32.3,32.3,0,0,1-5.659-3.113A44.6,44.6,0,0,1,41.076,73.076a39.69,39.69,0,0,1-1.289-20.351c.754-4.2,3.367-6.71,6.929-8.44-.541,1.276-1.175,2.536-1.618,3.861a29.86,29.86,0,0,0-.967,13.524,49.429,49.429,0,0,0,8.1,21.127,38.707,38.707,0,0,0,11.72,11.744,19.639,19.639,0,0,0,10.66,3.37c.537,0,1.074-.039,1.809-.068l3.143-1.2,3.393-2.635,2.242-2.688,1.258-2.077c.023-.041.045-.083.068-.123.062-.108.128-.213.2-.315q.237-.626.437-1.273l-.522-.561Z"/><path class="cls-1" d="M81.155,79.674l-.009-.008a17.45,17.45,0,0,1-.851,3.18c-1.8,4.787-5.941,6.831-10.852,5.407a17.321,17.321,0,0,1-5.833-3.095A33.733,33.733,0,0,1,53.98,72.65a34.271,34.271,0,0,1-2.717-8.136,22.576,22.576,0,0,1,.24-11.586,9.473,9.473,0,0,1,3-4.929,9.789,9.789,0,0,1,9.778-1.2,17.623,17.623,0,0,1,6.541,4.443c.593.614,1.138,1.265,1.662,1.929l0-.015L72.432,52c-.4-.48-.808-.958-1.249-1.41a19.029,19.029,0,0,0-5.911-4.156,10.607,10.607,0,0,0-11.043.905c-2.042,1.448-2.942,3.752-3.583,6.082a23.74,23.74,0,0,0,.235,12.432c.621,2.386,1.506,4.7,2.272,7.052C55.9,78.294,59.328,83.072,64.36,86.544a16.269,16.269,0,0,0,5.355,2.5,9.04,9.04,0,0,0,11.2-5.876,18.058,18.058,0,0,0,.773-2.649Z"/><path class="cls-1" d="M76.6,73.5a.807.807,0,0,1,.124-1.07c.143-.16.272-.331.4-.5l-.167-.393h0a9.118,9.118,0,0,1-.63.688.881.881,0,0,0-.211,1.2c.355.755.661,1.533,1.032,2.279A1.113,1.113,0,0,1,77,77.111a15.178,15.178,0,0,0-.944,1.289c-.627-1.324-1.21-2.553-1.846-3.894a14.741,14.741,0,0,0-1.382,1.248c-.122.139-.069.53.029.75.427.951.874,1.894,1.366,2.812a.952.952,0,0,1-.068,1.2c-.514.645-.971,1.335-1.559,2.154L70.375,78.13l-4.634,4.29c-.6-1.457-1.145-2.8-1.711-4.178.719-.611,1.4-1.21,2.1-1.782a.626.626,0,0,0,.216-.863q-3.315-7.807-6.584-15.635c-.28-.67-.591-1.015-1.375-.764a12.737,12.737,0,0,1-1.777.3l-1.565-3.868,5.694-.176c-.63-1.492-1.228-2.908-1.878-4.449,1.064.09,2.02.144,2.965.274.186.025.386.314.487.526.474.986.946,1.976,1.356,2.99a.808.808,0,0,0,1.133.564c.368-.107.756-.147,1.216-.232-.5-1.2-.971-2.348-1.5-3.615a16.631,16.631,0,0,1,2.022.035,1.056,1.056,0,0,1,.629.58,18.939,18.939,0,0,1,.953,2.394c.154.506.429.549.881.634a12.231,12.231,0,0,1,3.581.93c.068.038.117.085.181.125v-.019l-.078-.671a5.868,5.868,0,0,0-2.19-.643,2.645,2.645,0,0,1-2.548-1.97,2.94,2.94,0,0,0-.967-1.372c-1.773-1.315-3.246.233-5.046-.677-.972-.492-2.3-.279-3.483-.349a1.066,1.066,0,0,0-.5.107c-.746.412-1.483.838-2.229,1.263l1.319,3.312a5.215,5.215,0,0,0-4.772,1.378c.553,1.458,1.114,2.939,1.712,4.514L56.2,60.07a2.938,2.938,0,0,1,.208.321Q59.837,67.98,63.24,75.58a.872.872,0,0,1-.211.764c-.784.759-1.6,1.486-2.441,2.186-.381.319-.368.574-.073,1.072a7.594,7.594,0,0,1,.831,1.856c.337,1.245.913,1.92,2.188,1.717.43-.068.9.081,1.322,0a3.139,3.139,0,0,0,1.3-.5,22.864,22.864,0,0,0,1.779-1.63c.344.873.608,1.633.952,2.356a.88.88,0,0,0,.65.438,7.274,7.274,0,0,0,2.914-.327c.748-.384,1.139-1.463,1.707-2.2a3.133,3.133,0,0,0,.334-.5c.214-.427.409-.867.646-1.373.589.117,1-.273,1.336-.867a7.141,7.141,0,0,1,.9-1.273,1.255,1.255,0,0,0,.178-1.671C77.166,74.962,76.956,74.189,76.6,73.5Z"/></g><g class="cls-4"><path class="cls-1" d="M41.857,106.746l.055-.45.02,0Z"/><path class="cls-1" d="M55.767,96.173c.025-.085.053-.167.085-.249l-.113.345C55.748,96.237,55.757,96.205,55.767,96.173Z"/><path class="cls-1" d="M50.326,103.64l1.931-1.3,1.873-2.31,1.089-2.165.52-1.595a9.813,9.813,0,0,1-3.095,6Z"/><path class="cls-1" d="M52.579,102.244s-4.252,3.6-5.835,4.13a8.313,8.313,0,0,1-4.952.35l-.634-.591s3.137.8,5.359-.128a24.762,24.762,0,0,0,4.911-3.3Z"/><path class="cls-1" d="M40.37,83.693c.685-.547,1.3-1.076,1.954-1.549a1.555,1.555,0,0,1,1.993.078,1.694,1.694,0,0,1,.508,2.264,23.173,23.173,0,0,1-1.46,1.935c-.153.2-.317.388-.53.647Zm2.284,2.664a1.807,1.807,0,0,0,.274-2.4,1.506,1.506,0,0,0-2.1-.153Z"/><path class="cls-1" d="M39.177,82.185l-2.293-3.2c.751-.345,1.443-.687,2.154-.982a1.614,1.614,0,0,1,1.985.642,1.56,1.56,0,0,1-.1,2.2A17.729,17.729,0,0,1,39.177,82.185Zm-.095-.706a1.735,1.735,0,0,0-.077-2.344c-.507-.505-.842-.505-1.587.031Z"/><path class="cls-1" d="M55.15,98.67a11.39,11.39,0,0,0,.7-2.74l-.109.336A21.717,21.717,0,0,1,55.15,98.67Z"/><polygon class="cls-1" points="55.852 95.924 55.85 95.929 55.85 95.93 55.852 95.924"/><path class="cls-1" d="M54.943,87.5c-.109-.345-.227-.687-.351-1.028Z"/><path class="cls-1" d="M55.5,94.707c-.021.338-.048.677-.091,1.018-.656,5.277-4.246,8.317-9.54,8.093a17.378,17.378,0,0,1-7.221-2.094,32.119,32.119,0,0,1-10.416-8.8c-.167-.235-.328-.474-.5-.7A30.3,30.3,0,0,1,22.706,82.4a17.409,17.409,0,0,1-.566-8.657,8.7,8.7,0,0,1,3-5.122,8.916,8.916,0,0,1,6.112-1.893,16.62,16.62,0,0,1,7.485,2.123c.285.155.563.316.842.476l0,0-.09-.628c-.657-.352-1.329-.687-2.028-.988a15.832,15.832,0,0,0-7.528-1.438,8.9,8.9,0,0,0-6.273,3.1C22.5,70.7,21.319,72.017,20.09,73.283a6.978,6.978,0,0,0-2,5.093,27.346,27.346,0,0,0,1.978,10.13,28.957,28.957,0,0,0,6.6,9.859,30.826,30.826,0,0,0,11.5,7.4,24.055,24.055,0,0,0,3.691.973l.053-.44c.034.006.067.009.1.014a22.432,22.432,0,0,1-4.3-1.209,30.882,30.882,0,0,1-15.1-12.6A27.487,27.487,0,0,1,18.54,78.981,7.842,7.842,0,0,1,21.885,72.2c-.164.945-.394,1.895-.484,2.857a20.667,20.667,0,0,0,1.474,9.27A34.216,34.216,0,0,0,31.653,97.3a26.81,26.81,0,0,0,9.748,6.075,13.6,13.6,0,0,0,7.716.6c.362-.088.718-.195,1.209-.33l1.931-1.3,1.873-2.31,1.089-2.165.522-1.6c.008-.031.016-.062.026-.093.025-.083.053-.164.083-.244q.061-.458.095-.927l-.44-.3Z"/><path class="cls-1" d="M50.665,90.646l-.007,0a12.04,12.04,0,0,1-.075,2.278,5.785,5.785,0,0,1-6.466,5.351A12,12,0,0,1,39.7,97.1a23.352,23.352,0,0,1-8.458-6.918,23.719,23.719,0,0,1-3.111-5.058,15.629,15.629,0,0,1-1.66-7.848,6.552,6.552,0,0,1,1.251-3.8,6.779,6.779,0,0,1,6.4-2.349A12.2,12.2,0,0,1,39.231,73.1a17.466,17.466,0,0,1,1.424,1.039v-.011l-.221-.771c-.347-.26-.7-.518-1.063-.754a13.171,13.171,0,0,0-4.639-1.872,7.339,7.339,0,0,0-7.3,2.346A7.155,7.155,0,0,0,25.97,77.74a16.425,16.425,0,0,0,2.112,8.344c.794,1.511,1.755,2.935,2.64,4.4a24.5,24.5,0,0,0,9.7,7.437,11.277,11.277,0,0,0,4,.84,6.258,6.258,0,0,0,6.627-5.722,12.576,12.576,0,0,0,.1-1.908Z"/><path class="cls-1" d="M46.621,87.2a.559.559,0,0,1-.084-.741c.071-.131.131-.266.193-.4l-.174-.239h0a5.987,5.987,0,0,1-.317.563.612.612,0,0,0,.047.845c.358.453.687.929,1.054,1.374a.771.771,0,0,1,.12.973,10.5,10.5,0,0,0-.433,1.017l-1.857-2.335a10.1,10.1,0,0,0-.735,1.059c-.061.113.036.368.137.5.437.573.887,1.139,1.363,1.681a.658.658,0,0,1,.143.82c-.245.516-.445,1.053-.713,1.7L43.155,91.3l-2.45,3.621L38.9,92.373c.388-.526.754-1.036,1.138-1.532a.434.434,0,0,0,.01-.616q-3.462-4.743-6.9-9.5c-.293-.408-.557-.592-1.046-.3a9.067,9.067,0,0,1-1.151.483l-1.663-2.362L33.1,77.528l-1.966-2.7c.732-.107,1.385-.22,2.042-.282.13-.012.31.152.411.279.475.59.949,1.183,1.385,1.8a.558.558,0,0,0,.852.2c.232-.13.487-.217.783-.347l-1.576-2.2a11.369,11.369,0,0,1,1.368-.294.73.73,0,0,1,.515.292,12.9,12.9,0,0,1,1.019,1.464c.184.317.376.3.694.289a8.444,8.444,0,0,1,2.56.064c.052.015.093.039.142.055l0-.012-.158-.44a4.061,4.061,0,0,0-1.578-.089,1.832,1.832,0,0,1-2.027-.928,2.032,2.032,0,0,0-.868-.773c-1.4-.608-2.151.668-3.508.337a6.473,6.473,0,0,0-2.4.312.738.738,0,0,0-.318.151c-.438.394-.868.8-1.3,1.2l1.409,2.026a3.608,3.608,0,0,0-3,1.679l1.864,2.774,1.328-1.031a2.243,2.243,0,0,1,.191.183q3.5,4.578,6.993,9.166a.6.6,0,0,1-.022.548c-.409.636-.847,1.254-1.3,1.858-.207.275-.159.444.119.734a5.3,5.3,0,0,1,.852,1.121c.423.786.917,1.15,1.745.813.279-.113.617-.086.892-.2a2.182,2.182,0,0,0,.8-.541,15.728,15.728,0,0,0,.943-1.378c.369.534.667,1,1.012,1.438a.6.6,0,0,0,.507.193,5.018,5.018,0,0,0,1.913-.678c.444-.376.538-1.165.8-1.75a2.138,2.138,0,0,0,.147-.39c.077-.321.14-.648.22-1.027.415-.013.633-.342.764-.794a4.911,4.911,0,0,1,.406-1A.867.867,0,0,0,47.6,88.49C47.235,88.1,46.972,87.608,46.621,87.2Z"/></g><g class="cls-5"><path class="cls-1" d="M28.477,115.067l-.035-.313.014,0Z"/><path class="cls-1" d="M36.218,105.659q.006-.093.018-.183l-.021.252Z"/><path class="cls-1" d="M33.725,111.6l1.1-1.193.9-1.868.391-1.644.1-1.166a6.849,6.849,0,0,1-1.137,4.567Z"/><path class="cls-1" d="M35.03,110.291a24.223,24.223,0,0,1-3.3,3.739,5.805,5.805,0,0,1-3.3,1.033l-.525-.3a7,7,0,0,0,3.615-.948,17.3,17.3,0,0,0,2.8-3.024Z"/><path class="cls-1" d="M23.765,99.663c.378-.482.71-.939,1.078-1.365a1.085,1.085,0,0,1,1.365-.268,1.182,1.182,0,0,1,.708,1.455,16.441,16.441,0,0,1-.68,1.548c-.072.159-.153.314-.256.524Zm1.978,1.44a1.26,1.26,0,0,0-.2-1.674,1.05,1.05,0,0,0-1.449.234Z"/><path class="cls-1" d="M22.714,98.831l-2.07-1.8c.455-.355.869-.7,1.3-1.012a1.125,1.125,0,0,1,1.45.116,1.088,1.088,0,0,1,.283,1.509A12.426,12.426,0,0,1,22.714,98.831Zm-.178-.464a1.21,1.21,0,0,0-.429-1.578c-.425-.261-.652-.207-1.072.276Z"/><path class="cls-1" d="M36.2,107.452a8.013,8.013,0,0,0,.035-1.972l-.021.246A14.878,14.878,0,0,1,36.2,107.452Z"/><polygon class="cls-1" points="36.236 105.476 36.236 105.48 36.236 105.48 36.236 105.476"/><path class="cls-1" d="M34.265,99.9c-.129-.216-.264-.43-.4-.642Z"/><path class="cls-1" d="M35.8,104.706c.04.233.076.468.1.706a6,6,0,0,1-5.174,7.024,12.119,12.119,0,0,1-5.236-.261,22.38,22.38,0,0,1-8.482-4.3c-.151-.133-.3-.269-.454-.4a21.15,21.15,0,0,1-4.987-5.855A12.139,12.139,0,0,1,9.8,95.842a6.066,6.066,0,0,1,1.209-3.958,6.217,6.217,0,0,1,3.843-2.265,11.579,11.579,0,0,1,5.42.238c.219.059.434.124.649.188v0l-.161-.411c-.5-.134-1.013-.253-1.536-.345a11.046,11.046,0,0,0-5.339.233,6.205,6.205,0,0,0-3.759,3.109c-.575,1.088-1.162,2.172-1.792,3.229a4.861,4.861,0,0,0-.543,3.778,19.053,19.053,0,0,0,2.969,6.556,20.18,20.18,0,0,0,6.065,5.63,21.5,21.5,0,0,0,8.993,3.173,16.782,16.782,0,0,0,2.661.067l-.035-.306.07-.007a15.629,15.629,0,0,1-3.115-.129,21.532,21.532,0,0,1-12.27-6.127A19.164,19.164,0,0,1,8.2,99.972a5.469,5.469,0,0,1,1.181-5.138c.04.668.037,1.349.13,2.017A14.416,14.416,0,0,0,12,102.9a23.865,23.865,0,0,0,8.041,7.392,18.7,18.7,0,0,0,7.59,2.556,9.476,9.476,0,0,0,5.332-.834c.231-.118.456-.248.767-.419l1.1-1.193.9-1.868.391-1.644.1-1.168,0-.067c0-.061.009-.12.018-.179q-.033-.321-.085-.645l-.346-.129Z"/><path class="cls-1" d="M31.868,102.728l0,0a8.451,8.451,0,0,1,.315,1.558,4.033,4.033,0,0,1-3.528,4.669,8.352,8.352,0,0,1-3.186-.084,16.278,16.278,0,0,1-6.851-3.336A16.527,16.527,0,0,1,15.69,102.6,10.887,10.887,0,0,1,13.3,97.541a4.562,4.562,0,0,1,.239-2.776,4.723,4.723,0,0,1,3.967-2.622,8.508,8.508,0,0,1,3.782.514,12.041,12.041,0,0,1,1.133.477l0-.008-.274-.487c-.277-.121-.555-.24-.843-.341a9.19,9.19,0,0,0-3.448-.526,5.12,5.12,0,0,0-4.579,2.765,5,5,0,0,0-.241,3.4,11.449,11.449,0,0,0,2.774,5.323c.782.9,1.662,1.71,2.5,2.56a17.079,17.079,0,0,0,7.777,3.488,7.833,7.833,0,0,0,2.851-.073,4.363,4.363,0,0,0,3.578-4.947,8.74,8.74,0,0,0-.236-1.311Z"/><path class="cls-1" d="M28.57,101.037a.39.39,0,0,1-.176-.489c.028-.1.046-.2.067-.3l-.156-.133h0a4.37,4.37,0,0,1-.125.433.425.425,0,0,0,.168.565c.315.25.615.521.936.764a.536.536,0,0,1,.237.64,7.3,7.3,0,0,0-.13.76l-1.635-1.286a7.063,7.063,0,0,0-.33.837c-.022.086.085.244.174.317.389.32.785.631,1.2.922a.46.46,0,0,1,.229.534c-.083.389-.133.786-.211,1.266-.662-.508-1.271-.975-1.935-1.486L25.8,107.228l-1.638-1.438c.18-.419.346-.824.527-1.223a.3.3,0,0,0-.092-.419q-3.111-2.662-6.207-5.343c-.265-.229-.474-.311-.758-.035a6.058,6.058,0,0,1-.7.513l-1.507-1.335,2.423-1.3-1.768-1.52c.479-.19.9-.372,1.34-.519.086-.029.234.053.324.123.417.324.833.651,1.229,1a.39.39,0,0,0,.611,0c.136-.126.295-.226.475-.361L18.628,94.13a8.027,8.027,0,0,1,.881-.419.516.516,0,0,1,.4.115,9.133,9.133,0,0,1,.926.831c.175.185.3.144.517.084a5.886,5.886,0,0,1,1.748-.367c.037,0,.069.011.105.014l0-.008-.178-.273a2.84,2.84,0,0,0-1.085.193A1.278,1.278,0,0,1,20.41,94a1.412,1.412,0,0,0-.713-.385c-1.048-.188-1.352.8-2.326.792a4.489,4.489,0,0,0-1.58.6.5.5,0,0,0-.192.153c-.234.338-.461.681-.692,1.025l1.282,1.148a2.515,2.515,0,0,0-1.767,1.621l1.711,1.583.735-.913a1.392,1.392,0,0,1,.159.094q3.112,2.544,6.218,5.1a.422.422,0,0,1,.073.375c-.176.5-.373.987-.585,1.47-.1.22-.036.327.2.479a3.644,3.644,0,0,1,.758.624c.414.465.808.633,1.316.271.171-.121.4-.157.572-.282a1.52,1.52,0,0,0,.454-.495,11.17,11.17,0,0,0,.419-1.087c.336.3.614.575.918.814a.424.424,0,0,0,.375.049,3.506,3.506,0,0,0,1.189-.767c.241-.327.178-.878.265-1.317a1.485,1.485,0,0,0,.037-.289c0-.23-.009-.462-.015-.732.279-.075.374-.333.391-.662a3.392,3.392,0,0,1,.115-.743.607.607,0,0,0-.282-.761C29.131,101.548,28.874,101.259,28.57,101.037Z"/></g></g></svg>