<svg xmlns="http://www.w3.org/2000/svg" xmlns:xlink="http://www.w3.org/1999/xlink" width="353" height="353" viewBox="0 0 353 353">
  <defs>
    <clipPath id="clip-CompleteProfile3">
      <rect width="353" height="353"/>
    </clipPath>
  </defs>
  <g id="CompleteProfile3" clip-path="url(#clip-CompleteProfile3)">
    <g id="Grupo_2089" data-name="Grupo 2089" transform="translate(-8308.386 -7766.043)">
      <path id="Sustracci칩n_50" data-name="Sustracci칩n 50" d="M-6566.389-5836.99h-21.516l-4.383-.355-17.038-5.124-10.783-7.222c6.746-3.652,16.417-8.443,24.181-10.536l1.892-3.7c0-.03-.183-3.046.649-3.934a.728.728,0,0,1,.543-.25,5.764,5.764,0,0,0,2.057-.265l.691-8.863a5.152,5.152,0,0,1-.8-.667c-.833-.778-2.849-3.3-3.574-9.9-.086-.038-2.119-1-2.435-4.448-.062-.691-.159-1.4-.252-2.083v-.012c-.282-2.068-.548-4.022.208-4.888a1.539,1.539,0,0,1,1.236-.482l.108-17.79a32.435,32.435,0,0,1,6.623-7.248,32.535,32.535,0,0,1,8.29-4.983,30.5,30.5,0,0,1,11.621-2.265c1.031,0,2.084.05,3.128.147.071-.007.246-.021.427-.021.234,0,.519.024.547.142s-.208.31-.7.567c-.476.248-1.05.475-1.606.7l-.011,0c-1.1.435-2.14.846-2.219,1.332a.566.566,0,0,0,.266.51c.27.229.986.748,1.976,1.466l0,0c3.307,2.4,9.463,6.869,9.547,8.22.068,1.089.052,6.343.027,10.559l.053,8.66a1.54,1.54,0,0,1,1.236.482c.756.867.491,2.819.209,4.887-.094.689-.19,1.4-.254,2.1-.322,3.524-2.416,4.439-2.437,4.448-.723,6.6-2.739,9.122-3.572,9.9a5.023,5.023,0,0,1-.8.667l.693,8.863a5.7,5.7,0,0,0,2.057.265.725.725,0,0,1,.542.249c.834.89.65,3.9.648,3.935l1.9,3.7a38.233,38.233,0,0,1,8.089,3.2,37.633,37.633,0,0,1,5.766,3.807,28.569,28.569,0,0,1,4.6,4.518l-5.5,3.949-5.083,1.656.159.275-11.995,4.516a8.839,8.839,0,0,0-1.987.439,18.023,18.023,0,0,1-3.018.871Z" transform="translate(14976.73 13770.563)" fill="#aae5f2" stroke="rgba(0,0,0,0)" stroke-miterlimit="10" stroke-width="1"/>
      <g id="Grupo_2088" data-name="Grupo 2088" transform="translate(8332.373 7802)">
        <g id="Elipse_217" data-name="Elipse 217" transform="translate(0.013 0.043)" fill="none" stroke="#aae5f2" stroke-width="3">
          <circle cx="67" cy="67" r="67" stroke="none"/>
          <circle cx="67" cy="67" r="65.5" fill="none"/>
        </g>
        <ellipse id="Elipse_114" data-name="Elipse 114" cx="15.5" cy="15" rx="15.5" ry="15" transform="translate(86.013 104.043)" fill="#aae5f2"/>
        <path id="Icon_awesome-edit" data-name="Icon awesome-edit" d="M13.993,2.9,17.128,6.03a.34.34,0,0,1,0,.48L9.537,14.1l-3.225.358a.676.676,0,0,1-.747-.747l.358-3.225L13.513,2.9A.34.34,0,0,1,13.993,2.9Zm5.63-.8L17.927.4a1.359,1.359,0,0,0-1.919,0l-1.23,1.23a.34.34,0,0,0,0,.48l3.135,3.135a.34.34,0,0,0,.48,0l1.23-1.23a1.359,1.359,0,0,0,0-1.919Zm-6.277,9.937v3.538H2.224V4.452h7.987a.427.427,0,0,0,.3-.122L11.9,2.94a.417.417,0,0,0-.3-.712H1.668A1.669,1.669,0,0,0,0,3.9V16.13A1.669,1.669,0,0,0,1.668,17.8H13.9a1.669,1.669,0,0,0,1.668-1.668V10.646a.418.418,0,0,0-.712-.3l-1.39,1.39A.427.427,0,0,0,13.346,12.036Z" transform="translate(92.936 109.909)"/>
      </g>
      <text id="Edit_Profile_Picture" data-name="Edit Profile Picture" transform="translate(8328.386 7957.043)" fill="#aae5f2" font-size="16" font-family="Roboto-Regular, Roboto"><tspan x="0" y="0">Edit Profile Picture</tspan></text>
      <text id="Bio_Description" data-name="Bio Description" transform="translate(8481.386 8079.043)" fill="#aae5f2" font-size="16" font-family="Roboto-Regular, Roboto"><tspan x="-53.93" y="0">Bio Description</tspan></text>
      <path id="Trazado_1995" data-name="Trazado 1995" d="M9542.015-13902.752h-177.1" transform="translate(-900.472 21763.018)" fill="#aae5f2" stroke="#aae5f2" stroke-width="3"/>
      <text id="UserName" transform="translate(8476.386 7853.043)" fill="#aae5f2" font-size="27" font-family="Roboto-Regular, Roboto"><tspan x="0" y="0">UserName</tspan></text>
      <path id="Icon_awesome-edit-2" data-name="Icon awesome-edit" d="M13.993,2.9,17.128,6.03a.34.34,0,0,1,0,.48L9.537,14.1l-3.225.358a.676.676,0,0,1-.747-.747l.358-3.225L13.513,2.9A.34.34,0,0,1,13.993,2.9Zm5.63-.8L17.927.4a1.359,1.359,0,0,0-1.919,0l-1.23,1.23a.34.34,0,0,0,0,.48l3.135,3.135a.34.34,0,0,0,.48,0l1.23-1.23a1.359,1.359,0,0,0,0-1.919Zm-6.277,9.937v3.538H2.224V4.452h7.987a.427.427,0,0,0,.3-.122L11.9,2.94a.417.417,0,0,0-.3-.712H1.668A1.669,1.669,0,0,0,0,3.9V16.13A1.669,1.669,0,0,0,1.668,17.8H13.9a1.669,1.669,0,0,0,1.668-1.668V10.646a.418.418,0,0,0-.712-.3l-1.39,1.39A.427.427,0,0,0,13.346,12.036Z" transform="translate(8621.02 7835.833)" fill="#aae5f2"/>
      <text id="Edit_User_Name" data-name="Edit User Name" transform="translate(8498.386 7877.043)" fill="#aae5f2" font-size="15" font-family="Roboto-Regular, Roboto"><tspan x="0" y="0">Edit User Name</tspan></text>
      <text id="Edit_Real_name_Visibility" data-name="Edit Real name Visibility" transform="translate(8542.386 7933.043)" fill="#aae5f2" font-size="15" font-family="Roboto-Regular, Roboto"><tspan x="-79.534" y="0">Edit Real name Visibility</tspan></text>
      <g id="Rect치ngulo_913" data-name="Rect치ngulo 913" transform="translate(8328.386 7971.043)" fill="none" stroke="#aae5f2" stroke-width="3">
        <rect width="312" height="90" rx="5" stroke="none"/>
        <rect x="1.5" y="1.5" width="309" height="87" rx="3.5" fill="none"/>
      </g>
      <text id="_0000_1024" data-name="0000/1024" transform="translate(8618.386 8052.043)" fill="#aae5f2" font-size="16" font-family="Roboto-Regular, Roboto"><tspan x="-78.469" y="0">0000/1024</tspan></text>
      <g id="scroll_lead_feed" data-name="scroll lead feed" transform="translate(8626.906 7981.388)">
        <path id="Trazado_57" data-name="Trazado 57" d="M0,36.508v70.357" transform="translate(3.651 -36.508)" fill="#aae5f2" stroke="#aae5f2" stroke-width="3"/>
        <path id="scroll_lead_feed-2" data-name="scroll lead feed" d="M0,0H7.319V20.035H0Z" transform="translate(0 5.548)" fill="#aae5f2"/>
      </g>
      <text id="John_Doe_" data-name="John Doe " transform="translate(8505.386 7909.043)" fill="#aae5f2" font-size="16" font-family="Roboto-Regular, Roboto"><tspan x="0" y="0">John Doe </tspan></text>
      <path id="Icon_ionic-md-eye" data-name="Icon ionic-md-eye" d="M13.235,7.383A11.813,11.813,0,0,0,2.25,14.788a11.851,11.851,0,0,0,21.971,0A11.813,11.813,0,0,0,13.235,7.383Zm0,12.344a4.939,4.939,0,1,1,4.992-4.938A4.979,4.979,0,0,1,13.235,19.727Zm0-7.9a2.962,2.962,0,1,0,3,2.962A2.989,2.989,0,0,0,13.235,11.826Z" transform="translate(8616.583 7888.304)" fill="#aae5f2"/>
      <path id="Trazado_1996" data-name="Trazado 1996" d="M10540.482-15904h-195.726" transform="translate(-1898.94 23818.615)" fill="#aae5f2" stroke="#aae5f2" stroke-width="3"/>
    </g>
  </g>
</svg>
