<svg xmlns="http://www.w3.org/2000/svg" xmlns:xlink="http://www.w3.org/1999/xlink" width="391" height="133" viewBox="0 0 391 133">
  <defs>
    <clipPath id="clip-Copy">
      <rect width="391" height="133"/>
    </clipPath>
  </defs>
  <g id="Copy" clip-path="url(#clip-Copy)">
    <rect width="391" height="133" fill="rgba(255,255,255,0)"/>
    <g id="Grupo_1962" data-name="Grupo 1962" transform="translate(82.598 36.863)">
      <g id="Rectángulo_485" data-name="Rectángulo 485" transform="translate(-0.598 -0.863)" fill="none" stroke="#aae5f2" stroke-width="2">
        <rect width="218" height="62" stroke="none"/>
        <rect x="1" y="1" width="216" height="60" fill="none"/>
      </g>
      <text id="Copy-2" data-name="Copy" transform="translate(107.402 44.137)" fill="#aae5f2" font-size="36" font-family="Roboto-Regular, Roboto"><tspan x="-40.597" y="0">Copy</tspan></text>
    </g>
    <path id="Icon_awesome-mouse-pointer" data-name="Icon awesome-mouse-pointer" d="M21.248,23.142H13.789L17.714,32.7a1.306,1.306,0,0,1-.664,1.687L13.593,35.9a1.244,1.244,0,0,1-1.641-.683l-3.73-9.08L2.129,32.4A1.244,1.244,0,0,1,0,31.5V1.287a1.244,1.244,0,0,1,2.129-.9l20,20.569A1.289,1.289,0,0,1,21.248,23.142Z" transform="translate(251 80)" fill="#aae5f2"/>
  </g>
</svg>
