<svg xmlns="http://www.w3.org/2000/svg" xmlns:xlink="http://www.w3.org/1999/xlink" width="45.21" height="42.87" viewBox="0 0 45.21 42.87">
  <defs>
    <clipPath id="clip-CTX">
      <rect width="45.21" height="42.87"/>
    </clipPath>
  </defs>
  <g id="CTX" clip-path="url(#clip-CTX)">
    <g id="Grupo_3453" data-name="Grupo 3453" transform="translate(7470.527 6455.826)">
      <path id="Trazado_10704" data-name="Trazado 10704" d="M-7445.42-6426.581h1.643c-.026-.337-.1-.708-.338-.708a1.582,1.582,0,0,1-.6-.079l-.2-2.628a1.473,1.473,0,0,0,.232-.2,4.822,4.822,0,0,0,1.036-2.937,1.5,1.5,0,0,0,.707-1.319c.094-1.052.44-2.214-.346-2.214l-.015-2.568c.007-1.146.013-2.8-.008-3.132-.031-.518-3-2.575-3.344-2.874s.534-.486,1.036-.753-.078-.2-.078-.2a9.369,9.369,0,0,0-8.6,4.256l-.031,5.278c-.786,0-.44,1.162-.346,2.214a1.5,1.5,0,0,0,.706,1.319,4.836,4.836,0,0,0,1.037,2.936,1.426,1.426,0,0,0,.232.2l-.2,2.628a1.6,1.6,0,0,1-.6.079c-.424,0-.346,1.241-.346,1.241l-.549,1.1a43.072,43.072,0,0,0-8.506,3.979,19.2,19.2,0,0,1-5.461-13.42,19.289,19.289,0,0,1,19.267-19.267,19.288,19.288,0,0,1,19.267,19.267,19.123,19.123,0,0,1-1.662,7.809h2.352a21.321,21.321,0,0,0,1.479-7.809,21.46,21.46,0,0,0-21.436-21.436,21.46,21.46,0,0,0-21.436,21.436,21.46,21.46,0,0,0,21.436,21.436,21.3,21.3,0,0,0,10.554-2.789v-4.093h-6.883Z" fill="#fff"/>
      <path id="Trazado_10705" data-name="Trazado 10705" d="M-7432.774-6424.826v-7.455h-3.373v7.455h-7.455v3.372h7.455V-6414h3.373v-7.455h7.454v-3.372Z" fill="#fff"/>
    </g>
  </g>
</svg>
