<svg id="Capa_1" data-name="Capa 1" xmlns="http://www.w3.org/2000/svg" viewBox="0 0 22 22"><defs><style>.cls-1{fill:#f3f3f3;}</style></defs><g id="Grupo_245" data-name="Grupo 245"><g id="Grupo_201" data-name="Grupo 201"><g id="Grupo_200" data-name="Grupo 200"><path id="Icon_awesome-cube" data-name="Icon awesome-cube" class="cls-1" d="M3.648,2.942.557,4.079a.7.7,0,0,0-.46.657V8.024a.706.706,0,0,0,.4.629l3.081,1.512a.691.691,0,0,0,.638,0L7.292,8.644a.7.7,0,0,0,.4-.629V4.736a.71.71,0,0,0-.461-.657L4.146,2.942A.759.759,0,0,0,3.648,2.942Zm.244.912L6.738,4.906v.018L3.892,6.061,1.046,4.915V4.906Zm.479,5.194V6.878l2.367-.949V7.883Z"/><path id="Icon_awesome-cube-2" data-name="Icon awesome-cube-2" class="cls-1" d="M12.317,2.454l-2.123.789a.5.5,0,0,0-.319.451V5.958a.487.487,0,0,0,.272.432L12.27,7.432a.518.518,0,0,0,.442,0L14.834,6.39a.476.476,0,0,0,.273-.432V3.694a.474.474,0,0,0-.319-.451l-2.123-.789A.545.545,0,0,0,12.317,2.454Zm.169.629,1.963.724v.009l-1.963.789-1.963-.789V3.8Zm.329,3.579v-1.5L14.449,4.5V5.845Z"/><path id="Icon_awesome-cube-3" data-name="Icon awesome-cube-3" class="cls-1" d="M10.279,9.639,6,11.217a.974.974,0,0,0-.639.912v4.564a.993.993,0,0,0,.545.874l4.283,2.113a.974.974,0,0,0,.883,0l4.283-2.113a.967.967,0,0,0,.545-.874V12.129a.974.974,0,0,0-.639-.912L10.974,9.639A1.1,1.1,0,0,0,10.279,9.639Zm.348,1.268,3.954,1.466v.019L10.627,13.97,6.672,12.392v-.029Zm.657,7.224V15.106l3.3-1.315v2.715Z"/><path id="Trazado_226" data-name="Trazado 226" class="cls-1" d="M11.66,4.952H6.926L6.879,6.136,11.9,6.051Z"/><path id="Trazado_227" data-name="Trazado 227" class="cls-1" d="M9.208,11.217l-3-2.9-.855.845,2.658,2.63Z"/></g></g><path id="Unión_9" data-name="Unión 9" class="cls-1" d="M17.371,13.237V10.363H14.449V8.8h2.922V5.92h1.587V8.794h2.921v1.569H18.958v2.874Z"/></g></svg>