<svg xmlns="http://www.w3.org/2000/svg" viewBox="0 0 25.209 22"><defs><style>.cls-1{fill:#f3f3f3;}</style></defs><g id="Layer_2" data-name="Layer 2"><g id="Grupo_245" data-name="Grupo 245"><g id="Grupo_201" data-name="Grupo 201"><g id="Grupo_200" data-name="Grupo 200"><path id="Icon_awesome-cube" data-name="Icon awesome-cube" class="cls-1" d="M4.821,2.4,1.587,3.592a.73.73,0,0,0-.482.688V7.72a.738.738,0,0,0,.413.659L4.742,9.962a.729.729,0,0,0,.668,0L8.634,8.369a.726.726,0,0,0,.413-.658V4.28a.743.743,0,0,0-.481-.688L5.342,2.4A.789.789,0,0,0,4.821,2.4Zm.255.953,2.978,1.1v.02L5.076,5.666,2.1,4.467v-.01Zm.5,5.436V6.521l2.477-.993V7.573Z"/><path id="Icon_awesome-cube-2" data-name="Icon awesome-cube-2" class="cls-1" d="M13.893,1.891l-2.221.826a.519.519,0,0,0-.334.472V5.558a.508.508,0,0,0,.285.452L13.844,7.1a.541.541,0,0,0,.462,0L16.528,6.01a.5.5,0,0,0,.285-.452V3.189a.5.5,0,0,0-.335-.472l-2.221-.826A.58.58,0,0,0,13.893,1.891Zm.177.659,2.055.757v.01l-2.055.825-2.054-.825V3.3ZM14.414,6.3V4.722l1.711-.688V5.44Z"/><path id="Icon_awesome-cube-3" data-name="Icon awesome-cube-3" class="cls-1" d="M11.76,9.411,7.278,11.062a1.018,1.018,0,0,0-.668.954v4.777a1.04,1.04,0,0,0,.57.914l4.482,2.212a1.023,1.023,0,0,0,.924,0l4.482-2.212a1.01,1.01,0,0,0,.57-.914V12.016a1.018,1.018,0,0,0-.668-.954L12.488,9.411A1.148,1.148,0,0,0,11.76,9.411Zm.364,1.327,4.138,1.533v.02l-4.138,1.652L7.986,12.291v-.029Zm.688,7.559V15.132l3.45-1.376V16.6Z"/><path id="Trazado_226" data-name="Trazado 226" class="cls-1" d="M13.205,4.506H8.251L8.2,5.745l5.259-.089Z"/><path id="Trazado_227" data-name="Trazado 227" class="cls-1" d="M10.64,11.062,7.494,8.025,6.6,8.91l2.781,2.752Z"/></g></g><path id="Unión_9" data-name="Unión 9" class="cls-1" d="M19.182,13.176V10.168H16.125V8.536h3.057V5.519h1.661V8.526H23.9v1.642H20.843v3.008Z"/></g></g></svg>