<svg xmlns="http://www.w3.org/2000/svg" xmlns:xlink="http://www.w3.org/1999/xlink" width="107.24" height="108.27" viewBox="0 0 107.24 108.27">
  <defs>
    <clipPath id="clip-DischordSVG">
      <rect width="107.24" height="108.27"/>
    </clipPath>
  </defs>
  <g id="DischordSVG" clip-path="url(#clip-DischordSVG)">
    <g id="Grupo_3492" data-name="Grupo 3492" transform="translate(-3151.517 2070.665)">
      <circle id="Elipse_228" data-name="Elipse 228" cx="53.64" cy="53.64" r="53.64" transform="translate(3151.517 -2070.665)" fill="#fff"/>
      <g id="Grupo_3491" data-name="Grupo 3491">
        <path id="Trazado_991" data-name="Trazado 991" d="M3163.311-2000.407v-.186c.035-.26.084-.518.1-.779a119.458,119.458,0,0,1,1.686-13.566,95.368,95.368,0,0,1,4.908-17.578,57.177,57.177,0,0,1,4.516-9.322,2.416,2.416,0,0,1,.629-.665,42.547,42.547,0,0,1,9.373-5.1,32.025,32.025,0,0,1,8.818-2.183c.164-.015.431,0,.488.1.315.54.579,1.11.883,1.713a43.981,43.981,0,0,0-9.545,3.422,36.933,36.933,0,0,0-8.162,5.882q28.2-14.94,56.369.008a36.775,36.775,0,0,0-17.707-9.3l.465-.931c.487-.974.487-.981,1.542-.829a39.591,39.591,0,0,1,17.629,7.26,1.765,1.765,0,0,1,.5.535c.659,1.141,1.344,2.27,1.931,3.448a88.954,88.954,0,0,1,7.658,24.122,114.623,114.623,0,0,1,1.607,13.623.847.847,0,0,1-.179.575c-.929.955-1.835,1.942-2.839,2.815a33.238,33.238,0,0,1-11.575,6.47,40.033,40.033,0,0,1-9.367,1.9,1.1,1.1,0,0,1-1.156-.524c-.481-.722-1.031-1.4-1.552-2.092l-1.136-1.523a41.76,41.76,0,0,0,8.707-4.288c2.924-1.891,6.844-5.512,7.216-6.389-.124.085-.226.153-.325.225a44.69,44.69,0,0,1-9.792,5.4,49.71,49.71,0,0,1-13.582,3.191,61.922,61.922,0,0,1-17.235-.672,45.042,45.042,0,0,1-18.7-7.992,1.368,1.368,0,0,0-.24-.111,37.3,37.3,0,0,0,15.943,10.64c-.976,1.3-1.914,2.537-2.825,3.789a.735.735,0,0,1-.774.358c-1.779-.254-3.581-.394-5.335-.763A33.635,33.635,0,0,1,3163.311-2000.407Zm36.171-14.845a8.558,8.558,0,0,0-1.386-4.979,6.123,6.123,0,0,0-8.406-2.075,6.08,6.08,0,0,0-1.194.943,8.337,8.337,0,0,0-.021,11.522,5.967,5.967,0,0,0,7.737.775,7.568,7.568,0,0,0,3.27-6.183Zm24.726-.31a8.487,8.487,0,0,0-1.471-4.8,6.118,6.118,0,0,0-8.451-1.851,6.094,6.094,0,0,0-.9.7,8.343,8.343,0,0,0-.455,11.377,6.071,6.071,0,0,0,8.557.7,6.114,6.114,0,0,0,.73-.735,8.079,8.079,0,0,0,1.991-5.39Z"/>
      </g>
    </g>
  </g>
</svg>
