<svg xmlns="http://www.w3.org/2000/svg" xmlns:xlink="http://www.w3.org/1999/xlink" width="107.24" height="108.27" viewBox="0 0 107.24 108.27">
  <defs>
    <clipPath id="clip-EmailSVG">
      <rect width="107.24" height="108.27"/>
    </clipPath>
  </defs>
  <g id="EmailSVG" clip-path="url(#clip-EmailSVG)">
    <g id="Grupo_3494" data-name="Grupo 3494" transform="translate(-3283.295 2070.666)">
      <circle id="Elipse_229" data-name="Elipse 229" cx="53.64" cy="53.64" r="53.64" transform="translate(3283.295 -2070.666)" fill="#fff"/>
      <g id="Grupo_3493" data-name="Grupo 3493">
        <path id="Trazado_992" data-name="Trazado 992" d="M3370.957-1988.129h-68.943c.379-.306.67-.546.966-.779q12.285-9.683,24.567-19.373a.76.76,0,0,1,1.072-.093c.02.017.04.036.059.055,1.089.818,2.222,1.582,3.372,2.313a7.69,7.69,0,0,0,8.851,0c1.332-.844,2.621-1.755,3.981-2.67Z"/>
        <path id="Trazado_993" data-name="Trazado 993" d="M3347.325-2010.46c1.512-1.071,2.972-2.072,4.4-3.12,5.464-4.013,10.938-8.014,16.363-12.079a31.759,31.759,0,0,0,5.752-5.431,3.23,3.23,0,0,1,.245.753c.024.877.01,1.754.01,2.631v38.337Z"/>
        <path id="Trazado_994" data-name="Trazado 994" d="M3299.734-2030.259c4.743,4.783,10.206,8.545,15.557,12.442,3.243,2.363,6.538,4.657,9.809,6.982.156.111.306.231.511.385l-25.877,20.389Z"/>
        <path id="Trazado_995" data-name="Trazado 995" d="M3363.37-2025.623v-21.565h-52.945v22.2a66.736,66.736,0,0,1-8.61-7.376l3.124-2.44c.862-.67,1.714-1.353,2.593-2a.964.964,0,0,0,.43-.878c-.012-3.764-.007-7.528-.006-11.292v-.768h.8c4.934,0,9.868.008,14.8-.014a1.861,1.861,0,0,0,1.052-.355c2.6-1.988,5.183-4,7.767-6.017a7.03,7.03,0,0,1,9.046.009c2.585,2.01,5.165,4.028,7.766,6.018a1.765,1.765,0,0,0,1,.344c4.953.022,9.906.015,14.86.015h.778v.715c0,3.764.009,7.528-.011,11.292a1.076,1.076,0,0,0,.485.967c1.7,1.3,3.388,2.625,5.159,4C3369.138-2030.023,3366.271-2027.939,3363.37-2025.623Z"/>
        <path id="Trazado_996" data-name="Trazado 996" d="M3339.646-2033.265a1.3,1.3,0,0,1,1.687-.731,1.341,1.341,0,0,1,.167.08,1.193,1.193,0,0,1,.436.861c.036,1.461,0,2.924,0,4.386a10.792,10.792,0,0,0,.023,1.11,1.851,1.851,0,0,0,1.914,1.786l.029,0a1.82,1.82,0,0,0,2.016-1.6l0-.024a12.439,12.439,0,0,0-.171-4.877,5.2,5.2,0,0,0-3.427-3.848,15.169,15.169,0,0,0-3.408-.735,16.471,16.471,0,0,0-6.035.385,6.051,6.051,0,0,0-4.843,5.487,16.922,16.922,0,0,0,.061,4.417c.462,2.924,2.442,4.541,5.21,5.171a15.307,15.307,0,0,0,10.424-1.128,7.227,7.227,0,0,1,1.42-.51.824.824,0,0,1,1.015.488.8.8,0,0,1-.311,1.028,4.844,4.844,0,0,1-1.04.638,19.473,19.473,0,0,1-12.638,1.093c-4.117-1.024-6.356-3.826-6.56-8.1a16.163,16.163,0,0,1,.263-4.006,7.8,7.8,0,0,1,5.7-6.082,18.235,18.235,0,0,1,11.5.1,7.141,7.141,0,0,1,5.163,6.862,21.145,21.145,0,0,1-.1,3.791,3.479,3.479,0,0,1-3.367,3.162,5.15,5.15,0,0,1-4.22-1.264,6.066,6.066,0,0,1-6.7,1.022,3.989,3.989,0,0,1-2.279-2.312,6.1,6.1,0,0,1,.063-4.892,4.7,4.7,0,0,1,4.187-2.733A5.366,5.366,0,0,1,3339.646-2033.265Zm-3.355.883a2.71,2.71,0,0,0-2.429,1.129,4.113,4.113,0,0,0-.082,4.34c.73,1.325,2.03,1.514,3.409,1.341a2.5,2.5,0,0,0,2.377-2.2,6.907,6.907,0,0,0,.095-1.8c-.178-2.018-1.088-2.814-3.37-2.81Z"/>
      </g>
    </g>
  </g>
</svg>
