<svg xmlns="http://www.w3.org/2000/svg" xmlns:xlink="http://www.w3.org/1999/xlink" width="107.24" height="108.27" viewBox="0 0 107.24 108.27">
  <defs>
    <clipPath id="clip-FacebookSVG">
      <rect width="107.24" height="108.27"/>
    </clipPath>
  </defs>
  <g id="FacebookSVG" clip-path="url(#clip-FacebookSVG)">
    <g id="Grupo_3486" data-name="Grupo 3486" transform="translate(-2455.756 2070.673)">
      <circle id="Elipse_227" data-name="Elipse 227" cx="52.58" cy="52.58" r="52.58" transform="translate(2456.643 -2068.754)"/>
      <path id="Trazado_976" data-name="Trazado 976" d="M2487.049-2000.511h13.415v36.243c-23.711-3.3-46.924-26-44.539-57.115a53.623,53.623,0,0,1,55.689-49.239,53.655,53.655,0,0,1,51.424,54.537c-.663,30.477-24.815,49.954-46.434,52.009v-36.447c3.49,0,6.93-.1,10.359.043,1.753.075,2.251-.516,2.416-2.2.437-4.47,1.1-8.919,1.706-13.641h-14.5c0-4.45-.22-8.68.071-12.875.224-3.229,3.256-5.516,6.686-5.631,1.482-.049,2.967-.016,4.45-.018h4.368V-2048c-10.57-2.529-20.635-.455-26.843,6.837a19.547,19.547,0,0,0-4.679,12.86c-.042,3.875-.008,7.751-.008,11.882h-13.579Z" fill="#fff"/>
    </g>
  </g>
</svg>
