<svg id="Capa_1" data-name="Capa 1" xmlns="http://www.w3.org/2000/svg" viewBox="0 0 22 22"><defs><style>.cls-1{fill:#f3f3f3;}</style></defs><path class="cls-1" d="M20.993,5.508a1.84,1.84,0,0,0-.04-.41,3.674,3.674,0,0,0-3.71-3.04h-6.27c-1.95,0-3.9-.01-5.85,0a7.435,7.435,0,0,0-1.25.09,3.556,3.556,0,0,0-2.85,3.41c0,2.57.04,5.15-.02,7.72a3.746,3.746,0,0,0,2.22,3.28,7.173,7.173,0,0,0,2.94.32,2.771,2.771,0,0,1,2.36,1.09c.42.5.86.99,1.3,1.47a1.435,1.435,0,0,0,2.36-.03c.51-.57,1-1.15,1.53-1.71a2.53,2.53,0,0,1,1.92-.81c.73,0,1.46-.02,2.19-.07a3.643,3.643,0,0,0,3.17-3.48C20.993,10.718,21,8.108,20.993,5.508Zm-8.75,9.79H10v-2.24h2.24Zm-.05-4.29a3.255,3.255,0,0,0-.16,1.28H10c-.01-.29-.01-.47-.01-.53a3.482,3.482,0,0,1,.33-1.62,5.041,5.041,0,0,1,1.3-1.43,10.771,10.771,0,0,0,1.17-1.04,1.385,1.385,0,0,0,.3-.86,1.45,1.45,0,0,0-.52-1.12,2.042,2.042,0,0,0-1.4-.47,2.123,2.123,0,0,0-1.43.49,2.6,2.6,0,0,0-.79,1.47L6.9,6.928a3.407,3.407,0,0,1,1.21-2.42,4.328,4.328,0,0,1,2.96-1,4.472,4.472,0,0,1,3.07,1.01,3.039,3.039,0,0,1,1.14,2.34,2.573,2.573,0,0,1-.42,1.4,9.083,9.083,0,0,1-1.79,1.8A3.471,3.471,0,0,0,12.193,11.008Z"/></svg>