<svg xmlns="http://www.w3.org/2000/svg" xmlns:xlink="http://www.w3.org/1999/xlink" width="107.24" height="108.27" viewBox="0 0 107.24 108.27">
  <defs>
    <clipPath id="clip-InstagramSVG">
      <rect width="107.24" height="108.27"/>
    </clipPath>
  </defs>
  <g id="InstagramSVG" clip-path="url(#clip-InstagramSVG)">
    <g id="Grupo_3490" data-name="Grupo 3490" transform="translate(-2883.739 2070.673)">
      <path id="Trazado_985" data-name="Trazado 985" d="M2883.74-2017.32a53.563,53.563,0,0,1,53.773-53.352q.486,0,.972.013c29.56.463,52.9,24.749,52.522,54.645a53.565,53.565,0,0,1-54.5,52.611l-.1,0A53.681,53.681,0,0,1,2883.74-2017.32Zm18.512.249c0,2.684-.05,5.37.012,8.053.091,3.946-.135,7.954.484,11.821a18.431,18.431,0,0,0,15.322,14.931,60.485,60.485,0,0,0,8.627.364c8.964.039,17.928.1,26.892-.014a19.131,19.131,0,0,0,19-19.256v-.031q.041-15.684.014-31.366a19.285,19.285,0,0,0-18.883-19.679c-.286,0-.572,0-.859,0q-15.471-.021-30.94,0c-11.269.016-19.627,8.391-19.669,19.7C2902.236-2027.391,2902.252-2022.229,2902.252-2017.071Z" fill="#fff"/>
      <path id="Trazado_986" data-name="Trazado 986" d="M2902.252-2017.071c0-5.158-.016-10.315,0-15.472.042-11.31,8.4-19.685,19.669-19.7q15.471-.023,30.941,0a19.285,19.285,0,0,1,19.74,18.818q.01.431,0,.859.034,15.683-.013,31.366a19.133,19.133,0,0,1-18.974,19.287h-.031c-8.963.113-17.928.053-26.892.014a60.488,60.488,0,0,1-8.627-.364,18.433,18.433,0,0,1-15.322-14.931c-.619-3.867-.393-7.875-.484-11.821C2902.2-2011.7,2902.252-2014.391,2902.252-2017.071Zm5.969.007c0,5.083-.026,10.166.006,15.249.051,8.389,5.565,13.912,13.953,13.939q15.33.048,30.662,0c8.088-.024,13.73-5.637,13.77-13.718.016-3.237-.223-6.475-.209-9.712.031-7.047.23-14.1.213-21.143-.02-8.2-5.7-13.8-13.929-13.822q-15.354-.049-30.709.03c-8.232.042-13.72,5.635-13.749,13.93-.018,5.081,0,10.164,0,15.247Z"/>
      <path id="Trazado_987" data-name="Trazado 987" d="M2908.225-2017.064c0-5.083-.012-10.166.006-15.249.029-8.3,5.517-13.888,13.749-13.93q15.354-.078,30.709-.03c8.234.026,13.909,5.627,13.929,13.822.017,7.048-.182,14.1-.213,21.143-.014,3.237.225,6.475.209,9.712-.04,8.081-5.682,13.694-13.77,13.718q-15.333.045-30.662,0c-8.388-.027-13.9-5.55-13.953-13.939C2908.2-2006.9,2908.225-2011.981,2908.225-2017.064Zm29.183,17.843c9.987.494,17.979-8.422,17.9-17.654a17.952,17.952,0,0,0-17.777-18.06,17.842,17.842,0,0,0-17.994,17.689c0,.112,0,.224,0,.336a17.775,17.775,0,0,0,17.86,17.689h.01Zm23.464-37.066a4.123,4.123,0,0,0-4-4.245c-.1,0-.2,0-.3,0a4.242,4.242,0,0,0-4.243,4.241c0,.033,0,.067,0,.1a4.412,4.412,0,0,0,4.247,4.2,4.258,4.258,0,0,0,4.286-4.23v-.072Z" fill="#fff"/>
      <path id="Trazado_988" data-name="Trazado 988" d="M2937.406-1999.221a17.775,17.775,0,0,1-17.869-17.681v-.008a17.843,17.843,0,0,1,17.657-18.025h.336a17.952,17.952,0,0,1,17.777,18.06C2955.385-2007.643,2947.393-1998.727,2937.406-1999.221Zm.059-5.973a11.8,11.8,0,0,0,11.851-11.749c0-.088,0-.177,0-.266a11.956,11.956,0,0,0-11.956-11.75,11.822,11.822,0,0,0-11.815,11.828q0,.117,0,.234a11.774,11.774,0,0,0,11.839,11.707h.08Z"/>
      <path id="Trazado_989" data-name="Trazado 989" d="M2960.87-2036.291a4.258,4.258,0,0,1-4.216,4.3h-.072a4.413,4.413,0,0,1-4.248-4.2,4.243,4.243,0,0,1,4.142-4.34h.1a4.123,4.123,0,0,1,4.292,3.945C2960.872-2036.488,2960.873-2036.39,2960.87-2036.291Z"/>
      <path id="Trazado_990" data-name="Trazado 990" d="M2937.465-2005.191a11.773,11.773,0,0,1-11.919-11.626v-.074a11.82,11.82,0,0,1,11.577-12.059c.078,0,.157,0,.235,0a11.956,11.956,0,0,1,11.956,11.75,11.8,11.8,0,0,1-11.586,12.01C2937.64-2005.191,2937.552-2005.19,2937.465-2005.191Z" fill="#fff"/>
    </g>
  </g>
</svg>
