<svg xmlns="http://www.w3.org/2000/svg" xmlns:xlink="http://www.w3.org/1999/xlink" width="107.24" height="108.27" viewBox="0 0 107.24 108.27">
  <defs>
    <clipPath id="clip-LinkedinSVG">
      <rect width="107.24" height="108.27"/>
    </clipPath>
  </defs>
  <g id="LinkedinSVG" clip-path="url(#clip-LinkedinSVG)">
    <g id="Grupo_3488" data-name="Grupo 3488" transform="translate(-2741.067 2070.665)">
      <path id="Trazado_979" data-name="Trazado 979" d="M2794.973-2070.664a53.562,53.562,0,0,1,53.442,53.681c0,.265,0,.53-.007.8-.251,29.164-24.617,53.014-54.117,52.776a53.776,53.776,0,0,1-53.221-54.326c0-.136,0-.273.006-.409A53.707,53.707,0,0,1,2794.973-2070.664Zm18.738,82.017h12.367c.067-.655.171-1.2.172-1.748,0-6.92.108-13.843-.069-20.758a47.312,47.312,0,0,0-1.167-9.632c-1.335-5.631-5.734-8.932-11.5-9.135-5.4-.191-10.416.594-14,5.53v-4.5h-12.4v40.209h12.465v-2.654c.007-6.426-.057-12.853.074-19.276a11.5,11.5,0,0,1,1.141-4.641c1.309-2.7,4.708-4.1,7.77-3.514,2.53.48,4.251,2.408,4.76,5.543a30.292,30.292,0,0,1,.374,4.628c.036,6.559.013,13.117.013,19.948Zm-34.879-.019v-40.23h-12.286v40.23Zm-6.095-45.848a7.414,7.414,0,0,0,7.325-7.274,7.483,7.483,0,0,0-7.489-7.365,7.405,7.405,0,0,0-7.186,7.422,7.331,7.331,0,0,0,7.35,7.217Z" fill="#fff"/>
      <path id="Trazado_980" data-name="Trazado 980" d="M2813.711-1988.647c0-6.831.023-13.389-.016-19.946a30.292,30.292,0,0,0-.374-4.628c-.509-3.135-2.23-5.063-4.76-5.543-3.062-.581-6.461.814-7.77,3.514a11.5,11.5,0,0,0-1.142,4.641c-.131,6.423-.066,12.85-.074,19.276v2.654H2787.11v-40.209h12.4v4.5c3.587-4.936,8.6-5.721,14-5.53,5.766.2,10.165,3.5,11.5,9.135a47.244,47.244,0,0,1,1.167,9.632c.177,6.915.072,13.838.069,20.758a16.833,16.833,0,0,1-.172,1.748Z"/>
      <path id="Trazado_981" data-name="Trazado 981" d="M2778.832-1988.666h-12.286v-40.23h12.286Z"/>
      <path id="Trazado_982" data-name="Trazado 982" d="M2772.737-2034.514a7.331,7.331,0,0,1-7.35-7.217,7.405,7.405,0,0,1,7.186-7.422,7.483,7.483,0,0,1,7.489,7.365A7.413,7.413,0,0,1,2772.737-2034.514Z"/>
    </g>
  </g>
</svg>
