<svg xmlns="http://www.w3.org/2000/svg" xmlns:xlink="http://www.w3.org/1999/xlink" width="174" height="50" viewBox="0 0 174 50">
  <defs>
    <clipPath id="clip-logoSVG2">
      <rect width="174" height="50"/>
    </clipPath>
  </defs>
  <g id="logoSVG2" clip-path="url(#clip-logoSVG2)">
    <g id="Grupo_761" data-name="Grupo 761" transform="translate(-2110 462)">
      <g id="Grupo_22" data-name="Grupo 22" transform="translate(2020 -503)">
        <g id="Grupo_762" data-name="Grupo 762" transform="translate(90 41)">
          <g id="Grupo_2" data-name="Grupo 2">
            <g id="Grupo_1" data-name="Grupo 1">
              <path id="Trazado_1" data-name="Trazado 1" d="M39.394,57.714l14.6-14.665a4.85,4.85,0,0,0,1.245-4.687l-3.372-12.47s-.751-2.8-3.038-.5l-3.3,3.319a5.105,5.105,0,0,0-1.15,4.631l.473,1.75.076.279.369,1.364a2.9,2.9,0,0,1-.743,2.8l-8.717,8.756a2.9,2.9,0,0,1-2.8.756L21.094,45.872a2.9,2.9,0,0,1-2.053-2.044L15.818,31.9a2.9,2.9,0,0,1,.743-2.8l8.717-8.756a2.9,2.9,0,0,1,2.8-.756l3.267.869c2.955.785,5.34-1.556,5.342-1.559l3.01-3.023.031-.031c.254-.26,1.973-2.13-.5-2.787L26.4,9.654a4.849,4.849,0,0,0-4.681,1.265L7.121,25.583a4.846,4.846,0,0,0-1.245,4.687l5.4,19.976a4.85,4.85,0,0,0,3.437,3.422l20,5.312A4.85,4.85,0,0,0,39.394,57.714Z" transform="translate(-5.707 -9.492)" fill="#3e64ff"/>
            </g>
          </g>
          <g id="Grupo_4" data-name="Grupo 4" transform="translate(24.934 2.856)">
            <g id="Grupo_3" data-name="Grupo 3">
              <path id="Trazado_2" data-name="Trazado 2" d="M82.3,32.744a2.257,2.257,0,0,0,.007,3.192l3.4,3.381a2.256,2.256,0,0,0,3.192-.007l.933-.937,3.316-3.33.465-.467,9.12-9.159a2.262,2.262,0,0,0-.007-3.192l-1.445-1.439-1.951-1.943a2.263,2.263,0,0,0-3.192.007l-12.9,12.955Z" transform="translate(-81.638 -18.189)" fill="#3e64ff"/>
            </g>
          </g>
        </g>
        <g id="Grupo_21" data-name="Grupo 21" transform="translate(147.39 49.65)">
          <g id="Grupo_6" data-name="Grupo 6" transform="translate(97.303 8.715)">
            <g id="Grupo_5" data-name="Grupo 5">
              <path id="Trazado_3" data-name="Trazado 3" d="M149.136,176.956a1.682,1.682,0,0,0-.675-.151,1.2,1.2,0,0,0-1.124.822l-6.962,15.344-7.3-15.382a1.158,1.158,0,0,0-1.125-.787,1.461,1.461,0,0,0-.674.151,1.159,1.159,0,0,0-.822,1.124,1.472,1.472,0,0,0,.151.674l8.346,17.293v.039l-3.706,8.2a1.66,1.66,0,0,0-.148.674,1.165,1.165,0,0,0,.861,1.124,1.513,1.513,0,0,0,.674.151,1.146,1.146,0,0,0,1.086-.861l12.125-26.648a1.661,1.661,0,0,0,.148-.674A1.134,1.134,0,0,0,149.136,176.956Z" transform="translate(-130.455 -176.802)" fill="#3e64ff"/>
            </g>
          </g>
          <g id="Grupo_8" data-name="Grupo 8" transform="translate(88.665)">
            <g id="Grupo_7" data-name="Grupo 7">
              <path id="Trazado_4" data-name="Trazado 4" d="M125.635,192.174H124.7a1.933,1.933,0,0,1-1.665-1.012,4.746,4.746,0,0,1-.657-2.62V167.209a1.441,1.441,0,0,0-2.431-1.029,1.361,1.361,0,0,0-.411,1.029v21.333a7.282,7.282,0,0,0,1.44,4.661,4.534,4.534,0,0,0,3.724,1.816h.488a1.82,1.82,0,0,0,1.215-.394,1.277,1.277,0,0,0,.468-1.029,1.523,1.523,0,0,0-.338-1.029A1.124,1.124,0,0,0,125.635,192.174Z" transform="translate(-119.537 -165.786)" fill="#3e64ff"/>
            </g>
          </g>
          <g id="Grupo_10" data-name="Grupo 10" transform="translate(78.109)">
            <g id="Grupo_9" data-name="Grupo 9">
              <path id="Trazado_5" data-name="Trazado 5" d="M112.292,192.174h-.934a1.934,1.934,0,0,1-1.665-1.012,4.746,4.746,0,0,1-.657-2.62V167.209a1.44,1.44,0,0,0-2.43-1.029,1.359,1.359,0,0,0-.411,1.029v21.333a7.278,7.278,0,0,0,1.441,4.661,4.533,4.533,0,0,0,3.723,1.816h.488a1.818,1.818,0,0,0,1.215-.394,1.275,1.275,0,0,0,.468-1.029,1.527,1.527,0,0,0-.337-1.029A1.12,1.12,0,0,0,112.292,192.174Z" transform="translate(-106.194 -165.786)" fill="#3e64ff"/>
            </g>
          </g>
          <g id="Grupo_12" data-name="Grupo 12" transform="translate(54.788 8.571)">
            <g id="Grupo_11" data-name="Grupo 11">
              <path id="Trazado_6" data-name="Trazado 6" d="M91.427,177.913a9.289,9.289,0,0,0-4.9-1.293,9.718,9.718,0,0,0-5.073,1.328,9.231,9.231,0,0,0-3.481,3.706,11.418,11.418,0,0,0-1.254,5.41,10.825,10.825,0,0,0,1.328,5.371,9.487,9.487,0,0,0,3.684,3.706,10.859,10.859,0,0,0,9.021.636,10.141,10.141,0,0,0,3.144-1.739,1.135,1.135,0,0,0,.411-.861,1.353,1.353,0,0,0-.488-1.012,1.387,1.387,0,0,0-.822-.3,1.661,1.661,0,0,0-1.012.373,6.594,6.594,0,0,1-2.188,1.18,8.3,8.3,0,0,1-2.712.468A7.361,7.361,0,0,1,79.445,188H94.568a1.366,1.366,0,0,0,.973-.354,1.253,1.253,0,0,0,.372-.956,11.168,11.168,0,0,0-1.18-5.2A8.739,8.739,0,0,0,91.427,177.913Zm-11.9,7.69a7.626,7.626,0,0,1,2.283-4.641,6.614,6.614,0,0,1,4.718-1.759,6.3,6.3,0,0,1,4.605,1.759,7.32,7.32,0,0,1,2.1,4.641Z" transform="translate(-76.716 -176.62)" fill="#3e64ff"/>
            </g>
          </g>
          <g id="Grupo_14" data-name="Grupo 14" transform="translate(33.381 8.719)">
            <g id="Grupo_13" data-name="Grupo 13">
              <path id="Trazado_7" data-name="Trazado 7" d="M68.371,176.958a1.2,1.2,0,0,0-.6-.151,1.411,1.411,0,0,0-.748.207,1.156,1.156,0,0,0-.485.579l-7.11,15.569L52.24,177.593a1.109,1.109,0,0,0-.467-.562,1.368,1.368,0,0,0-.692-.186,1.175,1.175,0,0,0-.6.151,1.294,1.294,0,0,0-.822,1.2,1.161,1.161,0,0,0,.112.523l8.308,17.63a1.438,1.438,0,0,0,1.349.973,1.536,1.536,0,0,0,1.422-.973l8.2-17.665a1.563,1.563,0,0,0,.112-.524A1.254,1.254,0,0,0,68.371,176.958Z" transform="translate(-49.658 -176.807)" fill="#3e64ff"/>
            </g>
          </g>
          <g id="Grupo_16" data-name="Grupo 16" transform="translate(25.934 8.758)">
            <g id="Grupo_15" data-name="Grupo 15">
              <path id="Trazado_8" data-name="Trazado 8" d="M41.7,176.856a1.407,1.407,0,0,0-1.458,1.457v17.554a1.407,1.407,0,0,0,1.458,1.457,1.366,1.366,0,0,0,1.029-.411,1.446,1.446,0,0,0,.393-1.047V178.313a1.446,1.446,0,0,0-.393-1.047A1.373,1.373,0,0,0,41.7,176.856Z" transform="translate(-40.245 -176.856)" fill="#3e64ff"/>
            </g>
          </g>
          <g id="Grupo_18" data-name="Grupo 18" transform="translate(25.33 0.787)">
            <g id="Grupo_17" data-name="Grupo 17">
              <path id="Trazado_9" data-name="Trazado 9" d="M41.543,166.781a2.054,2.054,0,0,0-1.461.563,1.9,1.9,0,0,0-.6,1.461,2.03,2.03,0,0,0,.58,1.461,1.922,1.922,0,0,0,1.44.6,2.05,2.05,0,0,0,2.062-2.062,1.909,1.909,0,0,0-.6-1.461A1.992,1.992,0,0,0,41.543,166.781Z" transform="translate(-39.481 -166.781)" fill="#3e64ff"/>
            </g>
          </g>
          <g id="Grupo_20" data-name="Grupo 20" transform="translate(0 0.004)">
            <g id="Grupo_19" data-name="Grupo 19">
              <path id="Trazado_10" data-name="Trazado 10" d="M21.926,175.444a10.022,10.022,0,0,0-4.771-1.123,9.268,9.268,0,0,0-3.818.786,8.692,8.692,0,0,0-2.993,2.171V167.249a1.447,1.447,0,0,0-.394-1.047,1.36,1.36,0,0,0-1.029-.411,1.405,1.405,0,0,0-1.457,1.458V193.6a1.361,1.361,0,0,0,.411,1.029,1.453,1.453,0,0,0,1.047.393,1.351,1.351,0,0,0,1.423-1.422V182.519a4.836,4.836,0,0,1,.86-2.79,5.83,5.83,0,0,1,2.34-1.964,7.538,7.538,0,0,1,3.312-.71,6.8,6.8,0,0,1,4.847,1.739,6.623,6.623,0,0,1,1.854,5.073v9.73a1.375,1.375,0,0,0,.411,1.012,1.416,1.416,0,0,0,1.047.411,1.4,1.4,0,0,0,1.419-1.422v-9.73a10.437,10.437,0,0,0-1.2-5.146A8.073,8.073,0,0,0,21.926,175.444Z" transform="translate(-7.464 -165.791)" fill="#3e64ff"/>
            </g>
          </g>
        </g>
      </g>
    </g>
  </g>
</svg>
