<svg xmlns="http://www.w3.org/2000/svg" viewBox="0 0 175 175"><defs><style>.cls-1{fill:#f3f3f3;}</style></defs><g id="Layer_2" data-name="Layer 2"><path class="cls-1" d="M114.41,158.751l44.462-44.658a14.769,14.769,0,0,0,3.79-14.272L152.394,61.847c0-.009-2.287-8.528-9.251-1.532L133.079,70.422s-5.723,5.892-3.5,14.1l1.439,5.33.23.85,1.123,4.154a8.823,8.823,0,0,1-2.263,8.524l-26.546,26.663a8.824,8.824,0,0,1-8.514,2.3l-36.362-9.657a8.821,8.821,0,0,1-6.251-6.223L42.616,80.147a8.825,8.825,0,0,1,2.263-8.525L71.425,44.96a8.816,8.816,0,0,1,8.514-2.3L89.887,45.3c9,2.392,16.263-4.739,16.267-4.748l9.166-9.2.094-.095c.772-.793,6.008-6.487-1.522-8.489L74.839,12.4a14.769,14.769,0,0,0-14.256,3.853L16.13,60.9a14.757,14.757,0,0,0-3.79,14.272l16.443,60.833a14.77,14.77,0,0,0,10.466,10.421l60.9,16.174A14.766,14.766,0,0,0,114.41,158.751Z"/><path class="cls-1" d="M89.761,64.922a6.872,6.872,0,0,0,.021,9.721l10.341,10.3a6.871,6.871,0,0,0,9.721-.021l2.84-2.852,10.1-10.141L124.2,70.5l27.773-27.891a6.891,6.891,0,0,0-.021-9.721l-4.4-4.381L141.609,22.6a6.891,6.891,0,0,0-9.721.021L92.606,62.065Z"/></g></svg>