<svg xmlns="http://www.w3.org/2000/svg" viewBox="0 0 57.327 23.182"><defs><style>.cls-1{fill:none;}.cls-2{fill:#fff;}.cls-3{isolation:isolate;}</style></defs><g id="Capa_12" data-name="Capa 12"><g id="Grupo_1798" data-name="Grupo 1798"><g id="Coin_Search_Bar" data-name="Coin Search Bar"><g id="Rectángulo_48" data-name="Rectángulo 48"><rect class="cls-1" x="2.919" y="11.951" width="51.405" height="9.4" rx="1.085"/><path class="cls-2" d="M53.239,21.351H4a1.085,1.085,0,0,1-1.084-1.085V13.035A1.085,1.085,0,0,1,4,11.951H53.239a1.086,1.086,0,0,1,1.085,1.084v7.231A1.086,1.086,0,0,1,53.239,21.351ZM4,12.312a.724.724,0,0,0-.723.723v7.231A.724.724,0,0,0,4,20.99H53.239a.724.724,0,0,0,.723-.724V13.035a.724.724,0,0,0-.723-.723Z"/></g><g id="Icon_awesome-search" data-name="Icon awesome-search"><path class="cls-2" d="M52.09,17.918l-.726-.726a.178.178,0,0,0-.123-.051h-.119a1.514,1.514,0,1,0-.262.262v.119a.176.176,0,0,0,.051.124l.725.726a.175.175,0,0,0,.246,0h0l.207-.206a.176.176,0,0,0,0-.248Zm-2.162-.777a.932.932,0,1,1,.932-.932.932.932,0,0,1-.932.932Z"/></g></g><g id="Pares_Principales_Top_Menu" data-name="Pares Principales Top Menu"><g id="Línea_18" data-name="Línea 18"><rect class="cls-2" x="4.25" y="6.528" width="9.039" height="0.362"/></g><g id="Pares_principales_Top_Menu-2" data-name="Pares principales Top Menu-2"><g id="BTC" class="cls-3"><g class="cls-3"><path class="cls-2" d="M5.468,4.72V2.129h.826a1.6,1.6,0,0,1,.412.047.815.815,0,0,1,.284.134.533.533,0,0,1,.164.213.707.707,0,0,1,.053.283.6.6,0,0,1-.029.184.541.541,0,0,1-.091.164.628.628,0,0,1-.152.136.863.863,0,0,1-.214.1.8.8,0,0,1,.429.2.536.536,0,0,1,.144.39.731.731,0,0,1-.06.3.643.643,0,0,1-.178.233.817.817,0,0,1-.285.152,1.3,1.3,0,0,1-.386.053Zm.351-1.43h.463a.891.891,0,0,0,.257-.033.494.494,0,0,0,.179-.09.346.346,0,0,0,.106-.14.462.462,0,0,0,.034-.18.4.4,0,0,0-.137-.335.7.7,0,0,0-.427-.106H5.819Zm0,.25v.9h.56a.852.852,0,0,0,.258-.035.47.47,0,0,0,.177-.1.353.353,0,0,0,.1-.148.521.521,0,0,0,.033-.189.392.392,0,0,0-.142-.317.666.666,0,0,0-.429-.116Z"/><path class="cls-2" d="M9.572,2.129v.295H8.735v2.3H8.384v-2.3h-.84V2.129Z"/><path class="cls-2" d="M11.589,4.185a.077.077,0,0,1,.053.023l.137.15a1.115,1.115,0,0,1-.386.288,1.309,1.309,0,0,1-.547.1,1.278,1.278,0,0,1-.508-.1,1.117,1.117,0,0,1-.388-.271,1.216,1.216,0,0,1-.25-.418,1.567,1.567,0,0,1-.088-.537,1.479,1.479,0,0,1,.094-.538,1.252,1.252,0,0,1,.267-.419,1.224,1.224,0,0,1,.411-.272,1.411,1.411,0,0,1,.529-.1,1.185,1.185,0,0,1,.861.329l-.114.161a.138.138,0,0,1-.029.03.08.08,0,0,1-.047.012.1.1,0,0,1-.05-.017l-.062-.043c-.024-.016-.053-.035-.085-.054a.792.792,0,0,0-.116-.054,1.006,1.006,0,0,0-.155-.043,1.123,1.123,0,0,0-.205-.017.978.978,0,0,0-.38.072.854.854,0,0,0-.3.2A.933.933,0,0,0,10.039,3a1.234,1.234,0,0,0-.069.425,1.263,1.263,0,0,0,.069.432.979.979,0,0,0,.19.321.79.79,0,0,0,.285.2.9.9,0,0,0,.354.069,1.449,1.449,0,0,0,.208-.014.891.891,0,0,0,.171-.042.738.738,0,0,0,.146-.073,1.237,1.237,0,0,0,.137-.106A.09.09,0,0,1,11.589,4.185Z"/></g></g><g id="ETH" class="cls-3"><g class="cls-3"><path class="cls-2" d="M20.08,2.129v.286H18.837v.86h1.006V3.55H18.837v.884H20.08V4.72h-1.6V2.129Z"/><path class="cls-2" d="M22.349,2.129v.295h-.837v2.3h-.351v-2.3h-.84V2.129Z"/><path class="cls-2" d="M24.818,4.72h-.352V3.541h-1.4V4.72h-.352V2.129h.352V3.285h1.4V2.129h.352Z"/></g></g><g id="USDT" class="cls-3"><g class="cls-3"><path class="cls-2" d="M32.145,4.442a.732.732,0,0,0,.288-.055.61.61,0,0,0,.214-.152A.678.678,0,0,0,32.781,4a.941.941,0,0,0,.046-.3V2.129h.349V3.7a1.177,1.177,0,0,1-.072.416.979.979,0,0,1-.2.332.941.941,0,0,1-.325.219,1.2,1.2,0,0,1-.86,0,.955.955,0,0,1-.326-.219.981.981,0,0,1-.2-.332,1.2,1.2,0,0,1-.071-.416V2.129h.349V3.7a.909.909,0,0,0,.046.3.667.667,0,0,0,.134.234.608.608,0,0,0,.215.152A.715.715,0,0,0,32.145,4.442Z"/><path class="cls-2" d="M35.1,2.534a.145.145,0,0,1-.034.041.077.077,0,0,1-.047.014.127.127,0,0,1-.071-.031c-.028-.021-.062-.043-.1-.068a.859.859,0,0,0-.151-.068.654.654,0,0,0-.212-.031.635.635,0,0,0-.208.032.452.452,0,0,0-.151.086.354.354,0,0,0-.091.127.4.4,0,0,0-.031.159.292.292,0,0,0,.054.18A.443.443,0,0,0,34.2,3.1a1,1,0,0,0,.2.088l.228.077a2.249,2.249,0,0,1,.228.09.827.827,0,0,1,.2.125.6.6,0,0,1,.141.186.631.631,0,0,1,.053.272.859.859,0,0,1-.058.318.731.731,0,0,1-.169.26.809.809,0,0,1-.273.174,1.007,1.007,0,0,1-.368.063,1.122,1.122,0,0,1-.458-.092,1.062,1.062,0,0,1-.353-.246l.1-.167a.137.137,0,0,1,.035-.033A.083.083,0,0,1,33.75,4.2a.143.143,0,0,1,.087.041c.033.027.073.057.122.09a.972.972,0,0,0,.177.089.7.7,0,0,0,.254.041.669.669,0,0,0,.223-.035.463.463,0,0,0,.165-.1.431.431,0,0,0,.1-.149.5.5,0,0,0,.036-.194.327.327,0,0,0-.053-.192.449.449,0,0,0-.14-.126.945.945,0,0,0-.2-.086L34.3,3.508c-.078-.025-.154-.054-.228-.086a.753.753,0,0,1-.2-.127.573.573,0,0,1-.14-.194.7.7,0,0,1-.053-.288.694.694,0,0,1,.053-.266.679.679,0,0,1,.155-.228.755.755,0,0,1,.25-.159.917.917,0,0,1,.343-.06,1.1,1.1,0,0,1,.4.069.91.91,0,0,1,.312.2Z"/><path class="cls-2" d="M37.939,3.426a1.465,1.465,0,0,1-.092.529,1.147,1.147,0,0,1-.664.672,1.4,1.4,0,0,1-.52.093h-.969V2.129h.969a1.379,1.379,0,0,1,.52.094,1.159,1.159,0,0,1,.4.263,1.184,1.184,0,0,1,.261.41A1.47,1.47,0,0,1,37.939,3.426Zm-.36,0A1.285,1.285,0,0,0,37.514,3a.9.9,0,0,0-.184-.318.792.792,0,0,0-.289-.2,1,1,0,0,0-.378-.069h-.617V4.436h.617a1.021,1.021,0,0,0,.378-.068.792.792,0,0,0,.289-.2.892.892,0,0,0,.184-.317A1.279,1.279,0,0,0,37.579,3.426Z"/><path class="cls-2" d="M40,2.129v.295h-.837v2.3h-.35v-2.3h-.841V2.129Z"/></g></g><g id="EUR" class="cls-3"><g class="cls-3"><path class="cls-2" d="M47.92,2.129v.286H46.676v.86h1.007V3.55H46.676v.884H47.92V4.72h-1.6V2.129Z"/><path class="cls-2" d="M49.431,4.442a.724.724,0,0,0,.287-.055.6.6,0,0,0,.214-.152A.662.662,0,0,0,50.066,4a.913.913,0,0,0,.046-.3V2.129h.349V3.7a1.2,1.2,0,0,1-.071.416,1,1,0,0,1-.2.332.941.941,0,0,1-.325.219,1.2,1.2,0,0,1-.861,0,.951.951,0,0,1-.325-.219.966.966,0,0,1-.2-.332A1.177,1.177,0,0,1,48.4,3.7V2.129h.349V3.7a.909.909,0,0,0,.047.3.665.665,0,0,0,.133.234.617.617,0,0,0,.215.152A.72.72,0,0,0,49.431,4.442Z"/><path class="cls-2" d="M51.448,3.639V4.72H51.1V2.129h.732a1.6,1.6,0,0,1,.425.05.81.81,0,0,1,.3.144.561.561,0,0,1,.172.227.8.8,0,0,1,.013.554.679.679,0,0,1-.126.214.748.748,0,0,1-.2.162,1.022,1.022,0,0,1-.269.1.365.365,0,0,1,.116.11l.756,1.029H52.7a.154.154,0,0,1-.141-.074l-.673-.926a.194.194,0,0,0-.067-.062.235.235,0,0,0-.108-.019Zm0-.255h.367a.908.908,0,0,0,.27-.037.564.564,0,0,0,.2-.1A.44.44,0,0,0,52.4,3.08a.536.536,0,0,0,.04-.208.414.414,0,0,0-.153-.349.741.741,0,0,0-.455-.117h-.383Z"/></g></g></g></g></g></g></svg>