<svg xmlns="http://www.w3.org/2000/svg" viewBox="0 0 38.945 23.182"><defs><style>.cls-1{fill:#fff;}.cls-2{fill:#aae5f2;}</style></defs><g id="Capa_12" data-name="Capa 12"><path id="Shape" class="cls-1" d="M18.928,8.019c.125-.835-.511-1.283-1.379-1.583l.282-1.13-.689-.171-.274,1.1c-.181-.045-.366-.087-.551-.129L16.593,5l-.687-.172-.282,1.13c-.15-.034-.3-.068-.44-.1v0l-.949-.236-.183.734s.511.117.5.125a.366.366,0,0,1,.321.4l-.321,1.287a.568.568,0,0,1,.071.023l-.072-.018-.45,1.8a.251.251,0,0,1-.316.163c.007.01-.5-.124-.5-.124l-.341.787.895.223c.167.042.33.086.49.127l-.284,1.143.687.172.282-1.131c.188.051.37.1.548.142L15.282,12.6l.688.171.285-1.141c1.173.222,2.055.133,2.426-.928a1.207,1.207,0,0,0-.632-1.669,1.1,1.1,0,0,0,.879-1.01Zm-1.572,2.2c-.213.854-1.651.393-2.118.277l.378-1.515c.466.116,1.962.347,1.74,1.238Zm.213-2.217c-.194.777-1.392.383-1.78.286l.342-1.374C16.52,7.015,17.771,7.2,17.569,8.006Z"/><path class="cls-1" d="M12.39,1.424c.445.446.891.9,1.348,1.346a.618.618,0,0,0,1.093-.289,7.547,7.547,0,0,0,.3-1.219c.065-.608.394-.738.938-.707.367.02.568.111.628.5a5.194,5.194,0,0,0,.29,1.151c.109.271.294.634.52.7s.567-.152.8-.321A3.472,3.472,0,0,0,19,1.88a.722.722,0,0,1,1.1-.209c.522.294.434.617.293,1.036-.127.376-.228.76-.329,1.144-.156.595.223.981.817.825s1.187-.333,1.81-.509c.079.1.158.2.24.293.426.5.441.943-.148,1.358a6.143,6.143,0,0,0-.811.779.625.625,0,0,0,.285,1.1c.317.092.642.159.962.241,1.074.274,1.079.283.882,1.5-.574.143-1.172.285-1.765.442-.642.171-.787.691-.327,1.154a7.59,7.59,0,0,0,.861.823c.484.354.444.7.156,1.162-.213.342-.407.446-.794.293a11.05,11.05,0,0,0-1.332-.388c-.6-.153-.986.235-.833.825.071.278.149.553.228.829.31,1.085.311,1.084-.823,1.643-.4-.42-.815-.87-1.244-1.306-.5-.506-1.011-.377-1.2.294a7.963,7.963,0,0,0-.3,1.217c-.057.535-.35.61-.805.612s-.694-.1-.757-.588a9.671,9.671,0,0,0-.323-1.28.63.63,0,0,0-1.12-.317l-1.4,1.322c-.088-.042-.237-.126-.395-.185a.692.692,0,0,1-.449-1.073,7.836,7.836,0,0,0,.325-1.143c.161-.606-.2-1-.8-.848a11.721,11.721,0,0,0-1.459.422c-.433.171-.55-.1-.7-.378-.157-.3-.452-.57-.029-.913a14.268,14.268,0,0,0,1.05-1.009c.471-.47.337-.98-.3-1.157a10.221,10.221,0,0,0-1.22-.3.664.664,0,0,1-.663-.779c0-.479.15-.731.639-.805a11.825,11.825,0,0,0,1.221-.29c.676-.178.8-.693.3-1.2-.188-.187-.38-.369-.57-.554-.82-.8-.82-.8-.1-1.8.588.165,1.2.343,1.806.5s.994-.221.824-.856c-.074-.276-.152-.552-.231-.827C11.256,1.888,11.256,1.888,12.39,1.424Zm3.6,12.262a4.89,4.89,0,1,0-4.966-4.869A4.9,4.9,0,0,0,15.989,13.686Z"/><path class="cls-2" d="M21.354,21.816c.048-.319.078-.515.107-.711A1.8,1.8,0,0,0,19.906,18.8c-.316-.087-.779.026-.865-.535a.715.715,0,0,1,.409-.9c.519-.269,1.039-.478,1.281-1.2a2.145,2.145,0,0,0-.249-1.791c-.16-.331-.289-.587.048-.934s.588-.244.934-.114a2.043,2.043,0,0,0,1.607.254,2.106,2.106,0,0,0,1.311-1.333c.139-.335.28-.6.756-.555s.592.3.667.669A2.09,2.09,0,0,0,26.9,13.95c.568.309,1,.086,1.5.044a1.322,1.322,0,0,1,.83.1.655.655,0,0,1,.089,1.024,1.963,1.963,0,0,0-.649,1.559,2.153,2.153,0,0,0,1,1.58c.3.222.5.432.362.876s-.438.5-.81.5a2.019,2.019,0,0,0-1.737.68,1.985,1.985,0,0,0-.375,1.459c-.024.4.029.75-.491.943s-.737-.095-.909-.4a1.871,1.871,0,0,0-1.975-.862,2.251,2.251,0,0,0-1.138.709c-.432.406-.754.2-1.089-.074A.67.67,0,0,1,21.354,21.816Zm3.333-1.207a3.245,3.245,0,0,0,3.22-3.319,3.325,3.325,0,0,0-3.262-3.2,3.277,3.277,0,0,0-3.256,3.3A3.206,3.206,0,0,0,24.687,20.609Z"/><path class="cls-2" d="M26.382,18.268a1.045,1.045,0,0,1-.38.843,1.874,1.874,0,0,1-1.062.381v.677h-.452v-.663a3.671,3.671,0,0,1-1.412-.284v-.871a3.876,3.876,0,0,0,.691.251,3.719,3.719,0,0,0,.721.128V17.708l-.221-.086a2.467,2.467,0,0,1-.926-.56,1.076,1.076,0,0,1-.272-.747.975.975,0,0,1,.375-.787,1.9,1.9,0,0,1,1.044-.374v-.505h.452v.492a3.753,3.753,0,0,1,1.366.3l-.31.772a3.6,3.6,0,0,0-1.056-.257v.973a5.1,5.1,0,0,1,.916.429,1.261,1.261,0,0,1,.4.4A1,1,0,0,1,26.382,18.268Zm-2.32-1.953a.312.312,0,0,0,.1.239,1.179,1.179,0,0,0,.325.193v-.775Q24.062,16.035,24.062,16.315Zm1.327,2a.3.3,0,0,0-.113-.234,1.425,1.425,0,0,0-.336-.2v.821Q25.389,18.632,25.389,18.318Z"/><path class="cls-1" d="M29.378,11.293l-.361-.067-.66.195c.888-4.514-4.673-5.864-4.673-5.864h-.176l.176.3c4.369,1.743,4.08,4.592,3.9,5.389l-.512-.477-.354-.1.8,2.58,0-.017,0,.017Z"/><path class="cls-2" d="M10.735,18.9l.334-.153.427-.54c1.877,4.2,7.2,2.1,7.2,2.1l.145-.1-.318-.143c-4.574,1.1-5.981-1.4-6.295-2.153l.693.094.347-.122-2.138-1.649.006.016-.006-.015Z"/></g></svg>