<svg xmlns="http://www.w3.org/2000/svg" xmlns:xlink="http://www.w3.org/1999/xlink" width="107.24" height="108.27" viewBox="0 0 107.24 108.27">
  <defs>
    <clipPath id="clip-MediumSVG">
      <rect width="107.24" height="108.27"/>
    </clipPath>
  </defs>
  <g id="MediumSVG" clip-path="url(#clip-MediumSVG)">
    <g id="Grupo_3494" data-name="Grupo 3494" transform="translate(7819.202 6540.18)">
      <circle id="Elipse_264" data-name="Elipse 264" cx="53.64" cy="53.64" r="53.64" transform="translate(-7819.202 -6540.18)" fill="#fff"/>
      <path id="Trazado_10742" data-name="Trazado 10742" d="M-7749.931-6419.281h5v7.684h-20.553v-7.463c.113-.061.209-.155.31-.161,4.213-.241,4.478-.485,4.484-4.685q.023-15.13-.006-30.26c-.007-3.431-.265-3.651-3.72-3.694-.346,0-.693-.032-1.12-.053v-8.291h25.864q4.212,15.669,8.455,31.448l.451.015c.522-1.745,1.084-3.479,1.561-5.237,2.273-8.393,4.507-16.8,6.823-25.178a1.885,1.885,0,0,1,1.322-1.148c8.205-.07,16.411-.051,24.715-.051v8.5c-.641,0-1.271.008-1.9,0-2.224-.036-2.894.587-2.91,2.889q-.076,10.882-.1,21.766c-.006,3.421.036,6.843.08,10.263.037,2.922.747,3.616,3.669,3.676.348.007.7.045,1.14.075v7.559h-24.358v-7.549h4.7v-35.456l-.33-.086-12.043,43.239c-2.789,0-5.671.047-8.547-.058-.378-.014-.926-.753-1.062-1.248q-5.75-20.8-11.429-41.623c-.04-.146-.206-.258-.5-.606Z" transform="translate(-34.62 -47.625)"/>
    </g>
  </g>
</svg>
