<svg xmlns="http://www.w3.org/2000/svg" xmlns:xlink="http://www.w3.org/1999/xlink" viewBox="0 0 281.724 177.469">
  <defs>
    <style>
      .cls-1 {
        fill: none;
      }

      .cls-2 {
        fill: url(#Degradado_sin_nombre_36);
      }

      .cls-3 {
        fill: url(#Degradado_sin_nombre_36-2);
      }

      .cls-4 {
        fill: url(#Degradado_sin_nombre_36-3);
      }

      .cls-15, .cls-5 {
        stroke: #00006b;
        stroke-miterlimit: 10;
        stroke-width: 2px;
      }

      .cls-5 {
        fill: url(#Degradado_sin_nombre_27);
      }

      .cls-6 {
        fill: #aae5f2;
      }

      .cls-7 {
        fill: #00006b;
      }

      .cls-8 {
        fill: url(#Degradado_sin_nombre_27-2);
      }

      .cls-9 {
        fill: url(#Degradado_sin_nombre_27-3);
      }

      .cls-10, .cls-21 {
        opacity: 0.5;
        isolation: isolate;
      }

      .cls-10 {
        fill: url(#Degradado_sin_nombre_15);
      }

      .cls-11 {
        opacity: 0.31;
      }

      .cls-12 {
        clip-path: url(#clip-path);
      }

      .cls-13 {
        fill: url(#Degradado_sin_nombre_30);
      }

      .cls-14 {
        fill: url(#Degradado_sin_nombre_27-4);
      }

      .cls-15 {
        fill: url(#Degradado_sin_nombre_27-5);
      }

      .cls-16 {
        fill: #fff;
      }

      .cls-17 {
        fill: url(#Degradado_sin_nombre_27-6);
      }

      .cls-18 {
        fill: url(#Degradado_sin_nombre_23);
      }

      .cls-19 {
        fill: url(#Degradado_sin_nombre_23-2);
      }

      .cls-20 {
        fill: url(#Degradado_sin_nombre_23-3);
      }

      .cls-21 {
        fill: url(#Degradado_sin_nombre_15-2);
      }
    </style>
    <linearGradient id="Degradado_sin_nombre_36" data-name="Degradado sin nombre 36" x1="6348.072" y1="1925.285" x2="6349.072" y2="1925.285" gradientTransform="matrix(74.87, 0, 0, -55.55, -475074.06, 106976.996)" gradientUnits="userSpaceOnUse">
      <stop offset="0" stop-color="#5979b2"/>
      <stop offset="1" stop-color="#aae5f2"/>
    </linearGradient>
    <linearGradient id="Degradado_sin_nombre_36-2" x1="6206.439" y1="1943.816" x2="6207.439" y2="1943.816" gradientTransform="matrix(28.27, 0, 0, -28.243, -175226.013, 54933.057)" xlink:href="#Degradado_sin_nombre_36"/>
    <linearGradient id="Degradado_sin_nombre_36-3" x1="5913.85" y1="1992.061" x2="5914.85" y2="1992.061" gradientTransform="matrix(12.368, 0, 0, -12.388, -72896.25, 24705.267)" xlink:href="#Degradado_sin_nombre_36"/>
    <linearGradient id="Degradado_sin_nombre_27" data-name="Degradado sin nombre 27" x1="6360.977" y1="1979.5" x2="6361.977" y2="1979.5" gradientTransform="matrix(88.103, 0, 0, -14.509, -560292.708, 28756.697)" gradientUnits="userSpaceOnUse">
      <stop offset="0" stop-color="#00006b"/>
      <stop offset="0.138" stop-color="#010370"/>
      <stop offset="0.31" stop-color="#060b7f"/>
      <stop offset="0.5" stop-color="#0d1a98"/>
      <stop offset="0.702" stop-color="#172ebc"/>
      <stop offset="0.912" stop-color="#2448e9"/>
      <stop offset="1" stop-color="#2b54fe"/>
    </linearGradient>
    <linearGradient id="Degradado_sin_nombre_27-2" x1="6283.944" y1="1930.953" x2="6284.944" y2="1930.953" gradientTransform="matrix(42.872, 0, 0, -42.872, -269256.243, 82853.847)" xlink:href="#Degradado_sin_nombre_27"/>
    <linearGradient id="Degradado_sin_nombre_27-3" x1="6082.124" y1="1964.357" x2="6083.124" y2="1964.357" gradientTransform="matrix(18.282, 0, 0, -18.281, -111018.409, 35992.047)" xlink:href="#Degradado_sin_nombre_27"/>
    <linearGradient id="Degradado_sin_nombre_15" data-name="Degradado sin nombre 15" x1="6192.665" y1="1923.9" x2="6193.124" y2="1924.696" gradientTransform="matrix(26.637, 0, 0, -58.103, -164827.59, 111888)" gradientUnits="userSpaceOnUse">
      <stop offset="0" stop-color="#00006b"/>
      <stop offset="0.262" stop-color="#04087a" stop-opacity="0.957"/>
      <stop offset="0.587" stop-color="#1122a7" stop-opacity="0.835"/>
      <stop offset="0.944" stop-color="#274cf0" stop-opacity="0.635"/>
      <stop offset="1" stop-color="#2b54fe" stop-opacity="0.6"/>
    </linearGradient>
    <clipPath id="clip-path">
      <rect class="cls-1" x="119.128" y="39.774" width="67.27" height="73.621"/>
    </clipPath>
    <linearGradient id="Degradado_sin_nombre_30" data-name="Degradado sin nombre 30" x1="6388.756" y1="1916.417" x2="6389.756" y2="1916.417" gradientTransform="matrix(142.202, 0, 0, -103.386, -908485.715, 198242.792)" gradientUnits="userSpaceOnUse">
      <stop offset="0" stop-color="#00006b"/>
      <stop offset="0.284" stop-color="#000070"/>
      <stop offset="0.636" stop-color="#00007f"/>
      <stop offset="1" stop-color="#000097"/>
    </linearGradient>
    <linearGradient id="Degradado_sin_nombre_27-4" x1="6180.824" y1="1954.559" x2="6181.824" y2="1954.559" gradientTransform="matrix(25.41, 0, 0, -21.979, -156941.609, 43094.032)" xlink:href="#Degradado_sin_nombre_27"/>
    <linearGradient id="Degradado_sin_nombre_27-5" x1="6379.832" y1="1957.084" x2="6380.832" y2="1957.084" gradientTransform="matrix(118.773, 0, 0, -20.89, -757739.144, 40974.221)" xlink:href="#Degradado_sin_nombre_27"/>
    <linearGradient id="Degradado_sin_nombre_27-6" x1="6347.527" y1="1924.008" x2="6348.527" y2="1924.008" gradientTransform="matrix(74.398, 0, 0, -59.515, -472206.307, 114641.993)" xlink:href="#Degradado_sin_nombre_27"/>
    <linearGradient id="Degradado_sin_nombre_23" data-name="Degradado sin nombre 23" x1="6260.377" y1="1918.939" x2="6260.794" y2="1919.224" gradientTransform="matrix(37.059, 0, 0, -80.844, -231997.398, 155297.03)" gradientUnits="userSpaceOnUse">
      <stop offset="0" stop-color="#3b88b2"/>
      <stop offset="1" stop-color="#aae5f2"/>
    </linearGradient>
    <linearGradient id="Degradado_sin_nombre_23-2" x1="6378.075" y1="1997.664" x2="6379.075" y2="1997.664" gradientTransform="matrix(115.041, 0, 0, -11.63, -733715.651, 23315.789)" xlink:href="#Degradado_sin_nombre_23"/>
    <linearGradient id="Degradado_sin_nombre_23-3" x1="6318.28" y1="2038.41" x2="6319.28" y2="2038.41" gradientTransform="matrix(55.594, 0, 0, -8.048, -351170.045, 16574.817)" xlink:href="#Degradado_sin_nombre_23"/>
    <linearGradient id="Degradado_sin_nombre_15-2" x1="6307.448" y1="2144.599" x2="6308.448" y2="2144.599" gradientTransform="matrix(50.835, 0, 0, -4.464, -320506.124, 9610.03)" xlink:href="#Degradado_sin_nombre_15"/>
  </defs>
  <g id="Capa_13" data-name="Capa 13">
    <g id="Grupo_3530" data-name="Grupo 3530">
      <g id="Grupo_3442" data-name="Grupo 3442">
        <g id="Grupo_3436" data-name="Grupo 3436">
          <g id="Uni贸n_20" data-name="Uni贸n 20">
            <path id="Trazado_10700" data-name="Trazado 10700" class="cls-2" d="M269.18,2A6.162,6.162,0,0,1,275.3,7.54a2.05,2.05,0,0,1-2.041,1.848,1.349,1.349,0,0,1-.167-.007H219.925c-.057,0-.112-.005-.167-.005a2.051,2.051,0,0,0-2.041,1.848,2.053,2.053,0,0,0,2.041,1.845,1.572,1.572,0,0,0,.167-.006H272.7c3.883,0,7.024,2.478,7.024,5.517V48.03c0,3.044-3.152,5.519-7.032,5.519H217.71c-4.886,0-8.86-3.294-8.86-7.361V9.389c0-4.067,3.974-7.363,8.86-7.363h50.944c.177-.015.352-.023.526-.023m0-2q-.3,0-.6.023H217.714c-5.989,0-10.86,4.2-10.86,9.363v36.8c0,5.163,4.871,9.361,10.86,9.361h54.978c4.98,0,9.032-3.373,9.032-7.519V18.58c0-3.64-3.122-6.684-7.252-7.372A4.037,4.037,0,0,0,277.3,7.741l.021-.2-.021-.2A8.136,8.136,0,0,0,269.184,0Z"/>
          </g>
        </g>
        <g id="Grupo_3441" data-name="Grupo 3441">
          <g id="Grupo_3438" data-name="Grupo 3438">
            <g id="Grupo_3437" data-name="Grupo 3437">
              <path id="Trazado_10701" data-name="Trazado 10701" class="cls-3" d="M249.312,46.859l8.306-8.342a2.755,2.755,0,0,0,.708-2.666l-1.918-7.095s-.426-1.592-1.728-.287L252.8,30.358a2.9,2.9,0,0,0-.655,2.634l.269,1,.043.159.21.776a1.649,1.649,0,0,1-.423,1.592L247.286,41.5a1.649,1.649,0,0,1-1.591.43l-6.793-1.8a1.645,1.645,0,0,1-1.167-1.163L235.9,32.182a1.644,1.644,0,0,1,.423-1.592l4.959-4.981a1.647,1.647,0,0,1,1.59-.43l1.859.494a3.458,3.458,0,0,0,3.039-.887l1.712-1.72.018-.017c.144-.148,1.122-1.212-.285-1.586l-7.3-1.937a2.76,2.76,0,0,0-2.664.719l-8.3,8.342a2.751,2.751,0,0,0-.708,2.667l3.072,11.364a2.754,2.754,0,0,0,1.955,1.946l11.378,3.022A2.755,2.755,0,0,0,249.312,46.859Z"/>
            </g>
          </g>
          <g id="Grupo_3440" data-name="Grupo 3440">
            <g id="Grupo_3439" data-name="Grupo 3439">
              <path id="Trazado_10702" data-name="Trazado 10702" class="cls-4" d="M244.707,29.33a1.285,1.285,0,0,0,0,1.816h0l1.932,1.924a1.284,1.284,0,0,0,1.815,0h0l.531-.533,1.886-1.894.265-.267,5.188-5.21a1.287,1.287,0,0,0,0-1.816l-.822-.818-1.11-1.1a1.287,1.287,0,0,0-1.816,0l-7.338,7.369Z"/>
            </g>
          </g>
        </g>
      </g>
      <g id="Grupo_3444" data-name="Grupo 3444">
        <path id="Trazado_10703" data-name="Trazado 10703" class="cls-5" d="M213.631,37.809s-2.621,2.5,0,3.491l-78.873,2.509s-13.309-2.836-7.963-6.763l5.345-3.927L199.886,29.3Z"/>
        <g id="Uni贸n_20-2" data-name="Uni贸n 20-2">
          <path class="cls-6" d="M213.117,102.394H132.342A15.374,15.374,0,0,1,122.5,99a11.9,11.9,0,0,1-3.044-3.752,10.189,10.189,0,0,1-1.134-4.665V36.507a10.192,10.192,0,0,1,1.134-4.665,11.9,11.9,0,0,1,3.044-3.754,15.371,15.371,0,0,1,9.839-3.4H207.15c.27-.022.544-.033.813-.033a10.054,10.054,0,0,1,9.993,9.042l.01.1-.01.1a4.005,4.005,0,0,1-3.995,3.615c-.094,0-.188,0-.281-.01H135.555l-.04,0c-.055,0-.111-.006-.166-.006a2.008,2.008,0,0,0-1.99,1.714,2.009,2.009,0,0,0,1.991,1.712q.083,0,.165-.006l.04,0h77.572a12.822,12.822,0,0,1,7.919,2.592,8.278,8.278,0,0,1,3.4,6.514V93.285a8.277,8.277,0,0,1-3.411,6.519A12.838,12.838,0,0,1,213.117,102.394Z"/>
          <path class="cls-7" d="M213.117,101.394c5.7,0,10.331-3.636,10.331-8.109V50.017c0-4.465-4.615-8.106-10.321-8.106H135.6c-.082.007-.164.01-.245.01a3.019,3.019,0,0,1-3-2.712,3.017,3.017,0,0,1,3-2.714q.123,0,.246.009h78.122c.082.007.163.01.244.01a3.019,3.019,0,0,0,3-2.716,9.055,9.055,0,0,0-9-8.142c-.255,0-.513.011-.772.033H132.342c-7.179,0-13.017,4.843-13.017,10.818V90.58c0,5.975,5.838,10.814,13.017,10.814h80.775m0,2H132.342a16.38,16.38,0,0,1-10.478-3.627,12.9,12.9,0,0,1-3.3-4.068,11.173,11.173,0,0,1-1.243-5.119V36.507a11.176,11.176,0,0,1,1.243-5.119,12.891,12.891,0,0,1,3.3-4.069,16.371,16.371,0,0,1,10.478-3.63h74.769c.283-.022.569-.033.852-.033A11.057,11.057,0,0,1,218.951,33.6l.02.2-.02.2a5.02,5.02,0,0,1-4.99,4.515c-.1,0-.209,0-.314-.01H135.515l-.081-.006c-.028,0-.056,0-.085,0a1.01,1.01,0,0,0-.967.713,1.011,1.011,0,0,0,.968.713.819.819,0,0,0,.085,0l.08-.006h77.612a13.818,13.818,0,0,1,8.537,2.807,10.27,10.27,0,0,1,2.735,3.2,8.573,8.573,0,0,1,1.049,4.1V93.285a8.567,8.567,0,0,1-1.052,4.1,10.283,10.283,0,0,1-2.741,3.2A13.841,13.841,0,0,1,213.117,103.394Z"/>
        </g>
        <g id="Grupo_3443" data-name="Grupo 3443">
          <path id="Trazado_10704" data-name="Trazado 10704" class="cls-8" d="M174.538,77.7h1.643c-.026-.337-.1-.708-.338-.708a1.567,1.567,0,0,1-.6-.079l-.2-2.628a1.425,1.425,0,0,0,.232-.2,4.818,4.818,0,0,0,1.036-2.937,1.5,1.5,0,0,0,.707-1.319c.095-1.052.44-2.214-.346-2.214l-.015-2.568c.007-1.146.013-2.8-.008-3.132-.031-.518-3-2.575-3.344-2.874s.534-.485,1.036-.752-.078-.2-.078-.2a9.37,9.37,0,0,0-8.6,4.256l-.031,5.278c-.786,0-.44,1.162-.346,2.214a1.5,1.5,0,0,0,.706,1.319,4.84,4.84,0,0,0,1.037,2.936,1.431,1.431,0,0,0,.232.2l-.2,2.628a1.61,1.61,0,0,1-.6.079c-.424,0-.347,1.241-.347,1.241l-.548,1.1a43.1,43.1,0,0,0-8.506,3.979,19.267,19.267,0,1,1,31.411-5.611h2.352a21.467,21.467,0,1,0-9.4,10.838V84.456h-6.883Z"/>
          <path id="Trazado_10705" data-name="Trazado 10705" class="cls-9" d="M187.184,79.458V72h-3.373v7.455h-7.455V82.83h7.455v7.454h3.373V82.829h7.454V79.457Z"/>
        </g>
      </g>
      <path id="Trazado_10706" data-name="Trazado 10706" class="cls-10" d="M119.928,42.979a11.942,11.942,0,0,0,11,7.24c8.227,0,9.1,5.814,8.665,6.911s-6.289,29.749.091,33.8,9.4,10.152,4.324,10.152H133.249s-13.316,0-13.316-11.772Z"/>
      <g id="Grupo_3446" data-name="Grupo 3446" class="cls-11">
        <g class="cls-12">
          <g id="Grupo_3445" data-name="Grupo 3445">
            <path id="Trazado_10707" data-name="Trazado 10707" class="cls-13" d="M140.15,83.266h0c-2.78-2.25-1.422-6.59-1.084-7.532l-.511-.111a3.893,3.893,0,0,0,.4-.041c.056-.008.117-.011.17-.02-.007.019-.029.075-.064.172l1.084.236-.988-.417c.115-.021.212-.056.318-.084.038-.012.076-.018.113-.031a3.584,3.584,0,0,0,1.887-1.289c.011-.013.02-.028.031-.041.111-.152.209-.3.289-.43.06-.1.121-.194.172-.3l.071-.127a2.745,2.745,0,0,0,.321-1.126c.009-.065.032-.124.038-.189,0-.106-.016-.208-.019-.313a6.2,6.2,0,0,0-.043-.7c-.013-.119-.032-.236-.05-.354-.037-.245-.083-.5-.144-.786-.007-.03-.011-.061-.019-.091v-.007a7.37,7.37,0,0,0-.308-.994c-.013-.035-.026-.07-.04-.1-.12-.3-.247-.6-.381-.864-.051-.1-.108-.2-.162-.3-.138-.253-.272-.484-.389-.671-.037-.058-.075-.115-.113-.172-.173-.264-.3-.43-.3-.43.022.034.037.067.057.1a14.027,14.027,0,0,0-11.418-5.384H26.867c-9.827,0-17.784,6.611-17.784,14.769V149.48c0,8.157,7.957,14.771,17.784,14.771H137.176c7.782,0,14.109-4.968,14.109-11.076V94.1C151.293,88.784,146.512,84.339,140.15,83.266Z"/>
          </g>
        </g>
      </g>
      <g id="Grupo_3449" data-name="Grupo 3449">
        <path id="Trazado_10708" data-name="Trazado 10708" class="cls-14" d="M113.881,123.778l14.958,1.526,7.642,14.958-19.547,5.5-5.863-7.173Z"/>
        <g id="Grupo_3448" data-name="Grupo 3448">
          <path id="Trazado_10709" data-name="Trazado 10709" class="cls-15" d="M133.23,86.767s-2.117,5.19,1.012,7.722l-4.836,6.4s-113.937.054-113.937,0V83l85.713-2.976,33.06,7.174"/>
          <g id="Grupo_3447" data-name="Grupo 3447">
            <g id="Icon_awesome-wallet" data-name="Icon awesome-wallet">
              <path class="cls-16" d="M131.274,176.469H20.965A20.641,20.641,0,0,1,7.75,171.912,15.892,15.892,0,0,1,3.687,166.9a13.56,13.56,0,0,1-1.506-6.2V86.856a13.563,13.563,0,0,1,1.506-6.2A15.884,15.884,0,0,1,7.75,75.644a20.646,20.646,0,0,1,13.215-4.557h102.2a15.716,15.716,0,0,1,10.063,3.475,12.174,12.174,0,0,1,3.108,3.835,10.423,10.423,0,0,1,1.156,4.765v.05l0,.05a5.121,5.121,0,0,1-5.09,4.609c-.129,0-.259,0-.389-.015H25.36l-.041,0c-.086-.007-.173-.011-.258-.011a2.73,2.73,0,1,0,0,5.412c.086,0,.173,0,.259-.01l.04,0H131.274A17.158,17.158,0,0,1,141.865,96.7a12.337,12.337,0,0,1,3.288,3.833,9.976,9.976,0,0,1,1.23,4.781v59.079a9.976,9.976,0,0,1-1.23,4.781,12.327,12.327,0,0,1-3.289,3.833A17.158,17.158,0,0,1,131.274,176.469Zm-10.992-47.995a6.381,6.381,0,0,0,0,12.761h.158a6.382,6.382,0,0,0-.158-12.761Z"/>
              <path class="cls-7" d="M20.965,72.087c-9.826,0-17.784,6.612-17.784,14.769V160.7c0,8.157,7.958,14.771,17.784,14.771H131.274c7.782,0,14.109-4.969,14.109-11.075V105.315c0-6.106-6.325-11.075-14.109-11.075H25.4c-.114.01-.227.014-.34.014a3.725,3.725,0,1,1,0-7.412c.112,0,.225,0,.339.014H132.051c.117.01.234.015.349.015a4.119,4.119,0,0,0,4.095-3.709c0-6.117-5.967-11.075-13.327-11.075H20.965m99.317,70.15v0a7.381,7.381,0,1,1,7.326-7.377,7.357,7.357,0,0,1-7.326,7.377M20.965,70.087h102.2a16.716,16.716,0,0,1,10.7,3.706,13.155,13.155,0,0,1,3.36,4.151,11.4,11.4,0,0,1,1.265,5.218v.1l-.01.1a6.122,6.122,0,0,1-6.085,5.509c-.141,0-.283,0-.425-.015H25.319l-.081-.007c-.059,0-.119-.007-.176-.007h0a1.739,1.739,0,1,0,0,3.412c.058,0,.118,0,.177-.007l.082-.007H131.274a18.162,18.162,0,0,1,11.209,3.675,13.329,13.329,0,0,1,3.55,4.144,10.961,10.961,0,0,1,1.35,5.256v59.079a10.961,10.961,0,0,1-1.35,5.256,13.308,13.308,0,0,1-3.551,4.144,18.159,18.159,0,0,1-11.208,3.675H20.965a21.64,21.64,0,0,1-13.854-4.788A16.9,16.9,0,0,1,2.8,167.355,14.556,14.556,0,0,1,1.181,160.7V86.856A14.549,14.549,0,0,1,2.8,80.2a16.865,16.865,0,0,1,4.315-5.325A21.646,21.646,0,0,1,20.965,70.087Zm99.462,70.148a5.4,5.4,0,1,0-.145,0Z"/>
            </g>
            <path id="Icon_awesome-crown" data-name="Icon awesome-crown" class="cls-17" d="M98.042,157.623H49.691a1.865,1.865,0,0,0-1.86,1.859v3.72a1.865,1.865,0,0,0,1.86,1.86H98.042A1.864,1.864,0,0,0,99.9,163.2v-3.715A1.864,1.864,0,0,0,98.042,157.623Zm7.439-37.19A5.571,5.571,0,0,0,99.91,126h0a5.472,5.472,0,0,0,.513,2.3l-8.414,5.044a3.716,3.716,0,0,1-5.1-1.269l0,0L86.864,132l-9.48-16.564a5.57,5.57,0,1,0-7.838-.8,5.486,5.486,0,0,0,.8.8l-9.473,16.574a3.719,3.719,0,0,1-5.07,1.39l-.071-.043-8.4-5.043a5.571,5.571,0,0,0-2.783-7.369h0a5.57,5.57,0,0,0-7.369,2.782v0a5.57,5.57,0,0,0,2.783,7.369h0a5.561,5.561,0,0,0,2.283.494,5.662,5.662,0,0,0,.9-.092l8.41,22.408H96.185L104.6,131.5a5.662,5.662,0,0,0,.9.092,5.579,5.579,0,0,0,5.58-5.578h0a5.58,5.58,0,0,0-5.578-5.58h0Z"/>
          </g>
        </g>
        <path id="Trazado_10710" data-name="Trazado 10710" class="cls-18" d="M4.4,93.173s3.853,10.075,15.3,10.075,12.669,8.089,12.058,9.616-8.752,41.4.127,47.028,13.074,14.126,6.016,14.126H22.931s-18.53,0-18.53-16.38Z"/>
        <path id="Trazado_10711" data-name="Trazado 10711" class="cls-19" d="M21.44,89s.7-6.435,6.811-6.588,100.436-.383,100.436-.383,8.328-.7,5.843-4.659a10.524,10.524,0,0,1,1.689,3.54c.424,1.884.287,2.926-.082,3.567a3.965,3.965,0,0,1-3.883,2.39c-2.728-.012-106.242-.028-106.242-.028S22.922,86.533,21.44,89Z"/>
      </g>
      <path id="Trazado_10712" data-name="Trazado 10712" class="cls-16" d="M188.158,42.558h25.476s8.45.655,9.133,7.036-10.391-1.145-10.391-1.145S202.883,42.231,188.158,42.558Z"/>
      <path id="Trazado_10713" data-name="Trazado 10713" class="cls-16" d="M222.8,83.184v10.29s-1.012,5.782-5.376,6.109S222.142,94.384,222.8,83.184Z"/>
      <path id="Trazado_10714" data-name="Trazado 10714" class="cls-20" d="M86.838,174.017h44.181s9.6-.577,11.346-6.468S111.165,174.159,86.838,174.017Z"/>
      <path id="Trazado_10715" data-name="Trazado 10715" class="cls-16" d="M215.128,30.149a8.5,8.5,0,0,0-7.581-3.873h-30.6S217.747,31.076,215.128,30.149Z"/>
      <path id="Trazado_10716" data-name="Trazado 10716" class="cls-21" d="M132.739,38.01s.435-4.39,11.153-4.462,36.246,1.506,37.555,2.231a4.913,4.913,0,0,0,2.127.725H136.858S134.185,36.246,132.739,38.01Z"/>
      <g id="Grupo_3450" data-name="Grupo 3450">
        <g id="Trazado_10717" data-name="Trazado 10717">
          <path class="cls-16" d="M24.877,62.78H21.452l-.146-.243-2.722-4.543H17.433V62.78H14.474V49.8h3.885a5.97,5.97,0,0,1,3.74.974,3.94,3.94,0,0,1-.791,6.417l3.077,4.821Zm-7.444-7.408h.86a2.721,2.721,0,0,0,1.665-.393,1.364,1.364,0,0,0,.433-1.123,1.1,1.1,0,0,0-.441-1.043,3.206,3.206,0,0,0-1.722-.358h-.8Z"/>
          <path d="M23.964,62.28l-3.385-5.3a3.278,3.278,0,0,0,2.328-3.188,3.118,3.118,0,0,0-1.115-2.622,5.559,5.559,0,0,0-3.433-.869H14.974V62.28h1.959V57.494h1.934l2.868,4.786h2.229M16.933,51.955h1.3a3.638,3.638,0,0,1,2,.442,1.622,1.622,0,0,1,.664,1.459,1.843,1.843,0,0,1-.615,1.508,3.11,3.11,0,0,1-1.983.508h-1.36V51.955M25.789,63.28h-4.62l-.292-.486-2.576-4.3h-.368V63.28H13.974V49.3h4.385a6.426,6.426,0,0,1,4.047,1.08,4.446,4.446,0,0,1-.4,6.977l2.8,4.386Zm-7.856-8.408h.36a2.173,2.173,0,0,0,1.346-.278c.069-.058.252-.209.252-.738,0-.481-.153-.584-.218-.627a2.663,2.663,0,0,0-1.445-.274h-.3Z"/>
        </g>
        <g id="Trazado_10718" data-name="Trazado 10718">
          <path class="cls-16" d="M29.454,62.944a4.877,4.877,0,0,1-3.666-1.387,5.18,5.18,0,0,1-1.333-3.743A5.639,5.639,0,0,1,25.685,54,4.315,4.315,0,0,1,29.1,52.553,4.229,4.229,0,0,1,32.3,53.8a4.662,4.662,0,0,1,1.179,3.344v1.541H27.486a2.174,2.174,0,0,0,.528,1.183,1.991,1.991,0,0,0,1.53.553,6.55,6.55,0,0,0,1.389-.139,7.409,7.409,0,0,0,1.391-.473l.7-.311v2.649l-.285.135A6.386,6.386,0,0,1,31.2,62.8,9.267,9.267,0,0,1,29.454,62.944ZM27.561,56.29h2.983a1.656,1.656,0,0,0-.369-.864,1.366,1.366,0,0,0-1.073-.415,1.446,1.446,0,0,0-1.109.427A1.9,1.9,0,0,0,27.561,56.29Z"/>
          <path d="M29.454,62.444A8.724,8.724,0,0,0,31.1,62.3a5.917,5.917,0,0,0,1.426-.475V60.264a7.843,7.843,0,0,1-1.487.5,7,7,0,0,1-1.5.151,2.482,2.482,0,0,1-1.893-.709,2.977,2.977,0,0,1-.713-2.027h6.04V57.142a4.162,4.162,0,0,0-1.041-3,3.733,3.733,0,0,0-2.835-1.09,3.82,3.82,0,0,0-3.04,1.27,5.136,5.136,0,0,0-1.107,3.491,4.68,4.68,0,0,0,1.193,3.4,4.381,4.381,0,0,0,3.306,1.234M29.1,54.511a1.85,1.85,0,0,1,1.442.578,2.508,2.508,0,0,1,.541,1.7H26.971a2.771,2.771,0,0,1,.66-1.7,1.935,1.935,0,0,1,1.471-.582m.352,8.933a5.359,5.359,0,0,1-4.025-1.539,5.658,5.658,0,0,1-1.474-4.091,6.115,6.115,0,0,1,1.353-4.147A4.791,4.791,0,0,1,29.1,52.053a4.709,4.709,0,0,1,3.559,1.4,5.139,5.139,0,0,1,1.317,3.689v2.041h-.451V62.46l-.569.271a6.913,6.913,0,0,1-1.666.555A9.784,9.784,0,0,1,29.454,63.444Zm-1.3-4.261a1.3,1.3,0,0,0,.227.339,1.531,1.531,0,0,0,1.168.4,6.007,6.007,0,0,0,1.282-.128,6.9,6.9,0,0,0,1.3-.441l.376-.167Zm.2-3.393h1.48l-.024-.028a.846.846,0,0,0-.7-.251.927.927,0,0,0-.746.271Z"/>
        </g>
        <g id="Trazado_10719" data-name="Trazado 10719">
          <path class="cls-16" d="M37.78,66.812a5.474,5.474,0,0,1-3.105-.741,2.6,2.6,0,0,1-1.2-2.283,2.489,2.489,0,0,1,.661-1.746,2.953,2.953,0,0,1,.849-.626c-.017-.023-.034-.046-.05-.07A1.835,1.835,0,0,1,34.6,60.3a1.811,1.811,0,0,1,.4-1.176,2.75,2.75,0,0,1,.339-.347,3.158,3.158,0,0,1-.664-.753,3.4,3.4,0,0,1-.517-1.871,3.366,3.366,0,0,1,1.1-2.663,4.409,4.409,0,0,1,2.98-.934,6.865,6.865,0,0,1,.87.057,6.379,6.379,0,0,1,.635.107H43.32v1.971l-.409.077-.879.163c.023.058.045.117.065.178a3.284,3.284,0,0,1,.166,1.044,3.2,3.2,0,0,1-1.147,2.589,4.547,4.547,0,0,1-2.984.919,5,5,0,0,1-.667-.041c-.242.188-.242.327-.242.377V60a.15.15,0,0,0,.024.015h0l0,0a2.067,2.067,0,0,0,.83.095h1.582a4.006,4.006,0,0,1,2.595.753,2.737,2.737,0,0,1,.961,2.23,3.167,3.167,0,0,1-1.495,2.8A7.193,7.193,0,0,1,37.78,66.812ZM37.5,62.747a1.582,1.582,0,0,0-1,.28.778.778,0,0,0-.3.663.563.563,0,0,0,.318.529,2.63,2.63,0,0,0,1.32.265,4.353,4.353,0,0,0,2.092-.382.848.848,0,0,0,.522-.765c0-.305-.119-.376-.176-.41a2.874,2.874,0,0,0-1.315-.18Zm.721-7.957a1.146,1.146,0,0,0-.9.312,1.545,1.545,0,0,0-.3,1.048,1.357,1.357,0,0,0,.3.965,1.173,1.173,0,0,0,.9.3c.833,0,1.172-.372,1.172-1.286A1.561,1.561,0,0,0,39.1,55.1,1.1,1.1,0,0,0,38.222,54.79Z"/>
          <path d="M38.239,53.053a3.91,3.91,0,0,0-2.651.811,2.872,2.872,0,0,0-.93,2.286,2.906,2.906,0,0,0,.438,1.6,2.517,2.517,0,0,0,1.143.988,3.312,3.312,0,0,0-.852.7,1.321,1.321,0,0,0-.287.861,1.337,1.337,0,0,0,.25.766,1.451,1.451,0,0,0,.635.528,2.839,2.839,0,0,0-1.479.791,1.992,1.992,0,0,0-.528,1.406,2.119,2.119,0,0,0,.975,1.868,5.065,5.065,0,0,0,2.827.656,6.689,6.689,0,0,0,3.671-.836,2.68,2.68,0,0,0,1.27-2.377,2.25,2.25,0,0,0-.778-1.844,3.518,3.518,0,0,0-2.278-.639H38.083a2.493,2.493,0,0,1-1.069-.156.5.5,0,0,1-.291-.466,1.084,1.084,0,0,1,.623-.9,4.28,4.28,0,0,0,.786.066,4.051,4.051,0,0,0,2.664-.8,2.714,2.714,0,0,0,.967-2.2,2.781,2.781,0,0,0-.14-.885,2.5,2.5,0,0,0-.352-.7l1.549-.288V53.217H39.681a5.027,5.027,0,0,0-.635-.111,6.35,6.35,0,0,0-.807-.053m-.017,4.867a1.652,1.652,0,0,1-1.257-.459,1.821,1.821,0,0,1-.439-1.311,2,2,0,0,1,.43-1.385,1.624,1.624,0,0,1,1.266-.475,1.571,1.571,0,0,1,1.258.48,2.024,2.024,0,0,1,.414,1.364q0,1.787-1.672,1.786m-.385,7.064a3.084,3.084,0,0,1-1.577-.336,1.058,1.058,0,0,1-.561-.958,1.278,1.278,0,0,1,.487-1.054,2.051,2.051,0,0,1,1.315-.389H38.96a3.381,3.381,0,0,1,1.569.25.9.9,0,0,1,.422.84,1.351,1.351,0,0,1-.77,1.2,4.762,4.762,0,0,1-2.344.451m.4-12.931a7.49,7.49,0,0,1,.933.061c.261.033.465.067.629.1H43.82V55.1L43,55.256l-.329.061a3.914,3.914,0,0,1,.089.833,3.733,3.733,0,0,1-1.327,2.974,4.1,4.1,0,0,1-.871.55,3.953,3.953,0,0,1,2.013.808A3.233,3.233,0,0,1,43.721,63.1,3.685,3.685,0,0,1,42,66.312a7.565,7.565,0,0,1-4.221,1,5.952,5.952,0,0,1-3.385-.826,3.114,3.114,0,0,1-1.417-2.7,2.965,2.965,0,0,1,.8-2.085,3.246,3.246,0,0,1,.533-.463A2.254,2.254,0,0,1,34.1,60.3a2.3,2.3,0,0,1,.512-1.492l.016-.02a3.788,3.788,0,0,1-.374-.494,3.9,3.9,0,0,1-.6-2.141,3.84,3.84,0,0,1,1.273-3.039A4.879,4.879,0,0,1,38.239,52.053Zm-.017,4.867a.782.782,0,0,0,.524-.129,1.082,1.082,0,0,0,.148-.657,1.139,1.139,0,0,0-.171-.71.72.72,0,0,0-.5-.134.71.71,0,0,0-.526.148,1.134,1.134,0,0,0-.17.712.963.963,0,0,0,.161.619A.73.73,0,0,0,38.222,56.92Zm1.729,6.415a3.919,3.919,0,0,0-.991-.088H37.5a1.12,1.12,0,0,0-.691.171.285.285,0,0,0-.111.272.193.193,0,0,0,.005.048h0a.341.341,0,0,0,.07.052,2.107,2.107,0,0,0,1.063.194,3.774,3.774,0,0,0,1.839-.314c.275-.161.275-.268.275-.333Z"/>
        </g>
        <g id="Trazado_10720" data-name="Trazado 10720">
          <path class="cls-16" d="M47.687,62.944a3.805,3.805,0,0,1-2.813-.968,3.883,3.883,0,0,1-.956-2.835V52.717H46.86v6.088a1.97,1.97,0,0,0,.313,1.244,1.151,1.151,0,0,0,.948.338,1.651,1.651,0,0,0,1.39-.534,3.463,3.463,0,0,0,.462-2.121V52.717h2.934V62.78H50.492l-.088-.389-.075-.328a3.541,3.541,0,0,1-.732.47A4.33,4.33,0,0,1,47.687,62.944Z"/>
          <path d="M47.687,62.444a3.825,3.825,0,0,0,1.692-.361,2.734,2.734,0,0,0,1.144-.991h.1l.27,1.188h1.516V53.217H50.473v4.515a4,4,0,0,1-.569,2.43,2.129,2.129,0,0,1-1.783.725,1.626,1.626,0,0,1-1.335-.521,2.423,2.423,0,0,1-.426-1.561V53.217H44.418v5.924a3.394,3.394,0,0,0,.811,2.483,3.323,3.323,0,0,0,2.458.82m0,1a4.28,4.28,0,0,1-3.168-1.116,4.353,4.353,0,0,1-1.1-3.187V52.217H47.36v6.588a1.486,1.486,0,0,0,.2.927.79.79,0,0,0,.562.155c.727,0,.93-.258,1-.343a3.044,3.044,0,0,0,.355-1.812V52.217h3.934V63.28H50.093L50,62.886c-.062.033-.125.066-.189.1A4.826,4.826,0,0,1,47.687,63.444Z"/>
        </g>
        <g id="Trazado_10721" data-name="Trazado 10721">
          <path class="cls-16" d="M57.578,62.78H54.652V49.029h2.926V62.78Z"/>
          <path d="M57.078,62.28V49.529H55.152V62.28h1.926m1,1H54.152V48.529h3.926V63.28Z"/>
        </g>
        <g id="Trazado_10722" data-name="Trazado 10722">
          <path class="cls-16" d="M62.028,62.944a3.38,3.38,0,0,1-2.432-.86,3.189,3.189,0,0,1-.9-2.4,2.875,2.875,0,0,1,1.259-2.526,6.394,6.394,0,0,1,3.438-.866l1.081-.034a1.379,1.379,0,0,0-.27-.955,1.2,1.2,0,0,0-.894-.273,3.882,3.882,0,0,0-1.184.181,9.755,9.755,0,0,0-1.167.459l-.46.218-.209-.464-.623-1.377-.195-.43.419-.219a7.229,7.229,0,0,1,1.735-.63,7.993,7.993,0,0,1,1.766-.213,4.4,4.4,0,0,1,2.935.874,3.432,3.432,0,0,1,1.056,2.748V62.78H65.132l-.108-.354-.145-.475a3.443,3.443,0,0,1-.941.65A4.675,4.675,0,0,1,62.028,62.944Zm2.425-4.469-.642.026a3.45,3.45,0,0,0-1.726.375.883.883,0,0,0-.393.823.7.7,0,0,0,.2.571,1.1,1.1,0,0,0,.743.2,1.892,1.892,0,0,0,1.345-.453,1.638,1.638,0,0,0,.474-1.276Z"/>
          <path d="M62.028,62.444a4.178,4.178,0,0,0,1.7-.3,3.723,3.723,0,0,0,1.32-1.127h.065L65.5,62.28h1.377V56.175A2.952,2.952,0,0,0,66,53.807a3.917,3.917,0,0,0-2.61-.754,7.47,7.47,0,0,0-1.655.2,6.745,6.745,0,0,0-1.615.586l.623,1.377a10.157,10.157,0,0,1,1.229-.484,4.374,4.374,0,0,1,1.336-.2,1.655,1.655,0,0,1,1.258.43,1.835,1.835,0,0,1,.406,1.3v.483l-1.566.05a6,6,0,0,0-3.171.778,2.4,2.4,0,0,0-1.041,2.114,2.7,2.7,0,0,0,.75,2.041,2.888,2.888,0,0,0,2.086.721m2.925-4.491v.787a2.127,2.127,0,0,1-.635,1.643,2.388,2.388,0,0,1-1.684.586,1.552,1.552,0,0,1-1.082-.332,1.212,1.212,0,0,1-.36-.938,1.381,1.381,0,0,1,.619-1.242A3.987,3.987,0,0,1,63.79,58l1.163-.049m-2.925,5.491a3.858,3.858,0,0,1-2.778-1,3.666,3.666,0,0,1-1.058-2.762,3.394,3.394,0,0,1,1.477-2.939,4.031,4.031,0,0,1,.527-.3l-.366-.81-.623-1.377-.389-.861.838-.437a7.7,7.7,0,0,1,1.854-.674,8.46,8.46,0,0,1,1.878-.226,4.881,4.881,0,0,1,3.261,1,3.9,3.9,0,0,1,1.23,3.127V63.28H64.761l-.147-.483a3.524,3.524,0,0,1-.471.26A5.166,5.166,0,0,1,62.028,63.444ZM63.939,59l-.107,0h-.005a3.039,3.039,0,0,0-1.468.292c-.07.046-.167.11-.167.406a.354.354,0,0,0,.038.2.8.8,0,0,0,.4.068,1.421,1.421,0,0,0,1.006-.321A.975.975,0,0,0,63.939,59Zm-.633-3.469a3.353,3.353,0,0,0-1.031.157,9,9,0,0,0-.913.347,10.065,10.065,0,0,1,2.012-.241l.532-.018a.37.37,0,0,0-.07-.13A.829.829,0,0,0,63.306,55.528Z"/>
        </g>
        <g id="Trazado_10723" data-name="Trazado 10723">
          <path class="cls-16" d="M71.992,62.78H69.067V52.717H71.5l.067.422.085.53a3.972,3.972,0,0,1,.675-.559,3.3,3.3,0,0,1,1.835-.557,5.036,5.036,0,0,1,1.066.094l.437.1-.047.445-.189,1.793-.059.566-.553-.131a3.143,3.143,0,0,0-.737-.085,1.973,1.973,0,0,0-1.511.6,2.226,2.226,0,0,0-.579,1.614V62.78Z"/>
          <path d="M74.164,53.053a2.793,2.793,0,0,0-1.561.475,3.575,3.575,0,0,0-1.176,1.287h-.1l-.254-1.6H69.567V62.28h1.925V57.544a2.724,2.724,0,0,1,.717-1.959,2.468,2.468,0,0,1,1.873-.754,3.666,3.666,0,0,1,.852.1l.189-1.794a4.616,4.616,0,0,0-.959-.082m0-1a5.513,5.513,0,0,1,1.173.105l.875.192-.094.89-.189,1.794-.119,1.132L74.7,55.9a2.693,2.693,0,0,0-.621-.071,1.482,1.482,0,0,0-1.149.443,1.755,1.755,0,0,0-.441,1.27V63.28H68.567V52.217h3.362l.08.505.046-.03A3.786,3.786,0,0,1,74.164,52.053Z"/>
        </g>
        <g id="Trazado_10724" data-name="Trazado 10724">
          <path class="cls-16" d="M92.808,62.78H89.914l-.1-.363-2.032-7.146c-.026-.092-.053-.194-.082-.308-.035.131-.066.245-.095.343l-1.983,7.109-.1.365h-2.9l-.1-.375-1.549-6L79.4,50.426l-.165-.627h3.039l.093.381,1.714,6.982c.033.14.066.278.1.414.037-.15.073-.287.108-.413l1.95-7,.1-.366h2.7l.1.364,2,7.03c.037.127.075.266.113.417.037-.152.076-.308.117-.466l1.7-6.963.094-.382h3.022l-.163.626L92.906,62.406Z"/>
          <path d="M92.422,62.28,95.544,50.3H93.561l-1.705,6.966a21.423,21.423,0,0,0-.59,2.983,26.391,26.391,0,0,0-.606-2.918l-2-7.031H86.718l-1.95,7q-.149.534-.328,1.393t-.27,1.558a30.171,30.171,0,0,0-.574-2.967L81.883,50.3h-2l1.573,5.982,1.549,6h2.13l1.984-7.113q.123-.41.307-1.246t.266-1.36q.04.345.238,1.225t.328,1.348l2.032,7.146h2.131m.773,1H89.536l-.207-.726L87.7,56.818l-1.6,5.731-.2.731H82.232l-.194-.75-1.549-6-1.572-5.977-.33-1.255h4.08l.187.762,1.355,5.519,1.546-5.549.2-.732h3.457l.206.727,1.6,5.624,1.368-5.588.187-.763h4.061l-.326,1.252L93.39,62.532Z"/>
        </g>
        <g id="Trazado_10725" data-name="Trazado 10725">
          <path class="cls-16" d="M99.231,62.944a3.379,3.379,0,0,1-2.431-.86,3.189,3.189,0,0,1-.9-2.4,2.877,2.877,0,0,1,1.259-2.526,6.384,6.384,0,0,1,3.438-.866l1.08-.034a1.381,1.381,0,0,0-.269-.955,1.2,1.2,0,0,0-.894-.273,3.877,3.877,0,0,0-1.184.181,9.76,9.76,0,0,0-1.167.459l-.46.218-.21-.464-.623-1.377-.194-.43.419-.219a7.269,7.269,0,0,1,1.733-.63,8.03,8.03,0,0,1,1.767-.213,4.411,4.411,0,0,1,2.936.874,3.432,3.432,0,0,1,1.055,2.748V62.78h-2.246l-.108-.354-.146-.477a3.487,3.487,0,0,1-.94.652A4.687,4.687,0,0,1,99.231,62.944Zm2.426-4.469-.643.026a3.456,3.456,0,0,0-1.725.374.884.884,0,0,0-.394.824.693.693,0,0,0,.2.57,1.158,1.158,0,0,0,.744.2,1.9,1.9,0,0,0,1.346-.454,1.638,1.638,0,0,0,.473-1.275Z"/>
          <path d="M99.231,62.444a4.183,4.183,0,0,0,1.705-.3,3.721,3.721,0,0,0,1.319-1.127h.066l.385,1.262h1.376V56.175a2.948,2.948,0,0,0-.881-2.368,3.917,3.917,0,0,0-2.61-.754,7.477,7.477,0,0,0-1.655.2,6.737,6.737,0,0,0-1.614.586l.623,1.377a10.092,10.092,0,0,1,1.229-.484,4.365,4.365,0,0,1,1.336-.2,1.651,1.651,0,0,1,1.257.43,1.831,1.831,0,0,1,.406,1.3v.483l-1.565.05a5.992,5.992,0,0,0-3.171.778A2.4,2.4,0,0,0,96.4,59.682a2.7,2.7,0,0,0,.75,2.041,2.887,2.887,0,0,0,2.085.721m2.926-4.491v.787a2.127,2.127,0,0,1-.635,1.643,2.39,2.39,0,0,1-1.684.586,1.55,1.55,0,0,1-1.082-.332A1.209,1.209,0,0,1,98.4,59.7a1.381,1.381,0,0,1,.619-1.242A3.987,3.987,0,0,1,100.993,58l1.164-.049m-2.926,5.491a3.855,3.855,0,0,1-2.777-1A3.666,3.666,0,0,1,95.4,59.682a3.394,3.394,0,0,1,1.477-2.939,3.966,3.966,0,0,1,.527-.3l-.366-.81-.623-1.377-.39-.861.838-.437a7.756,7.756,0,0,1,1.854-.674,8.48,8.48,0,0,1,1.878-.226,4.89,4.89,0,0,1,3.261.994,3.9,3.9,0,0,1,1.23,3.128V63.28h-3.116l-.147-.483a3.466,3.466,0,0,1-.471.259A5.091,5.091,0,0,1,99.231,63.444ZM101.143,59l-.108,0h0a3.015,3.015,0,0,0-1.467.292c-.071.046-.168.11-.168.406a.356.356,0,0,0,.038.2.8.8,0,0,0,.4.068,1.421,1.421,0,0,0,1.007-.322A.979.979,0,0,0,101.143,59Zm-.633-3.469a3.355,3.355,0,0,0-1.032.157,9.282,9.282,0,0,0-.912.347,9.992,9.992,0,0,1,2.012-.241l.532-.018a.353.353,0,0,0-.07-.128A.82.82,0,0,0,100.51,55.528Z"/>
        </g>
        <g id="Trazado_10726" data-name="Trazado 10726">
          <path class="cls-16" d="M109.2,62.78H106.27V49.029H109.2V62.78Z"/>
          <path d="M108.7,62.28V49.529H106.77V62.28H108.7m1,1H105.77V48.529H109.7V63.28Z"/>
        </g>
        <g id="Trazado_10727" data-name="Trazado 10727">
          <path class="cls-16" d="M113.875,62.78h-2.926V49.029h2.926V62.78Z"/>
          <path d="M113.375,62.28V49.529h-1.926V62.28h1.926m1,1h-3.926V48.529h3.926V63.28Z"/>
        </g>
        <g id="Trazado_10728" data-name="Trazado 10728">
          <path class="cls-16" d="M120.086,62.944a4.879,4.879,0,0,1-3.665-1.386,5.177,5.177,0,0,1-1.333-3.744A5.64,5.64,0,0,1,116.317,54a4.314,4.314,0,0,1,3.417-1.442,4.226,4.226,0,0,1,3.2,1.245,4.659,4.659,0,0,1,1.179,3.344v1.541h-5.992a2.168,2.168,0,0,0,.529,1.183,1.989,1.989,0,0,0,1.53.553,6.548,6.548,0,0,0,1.388-.139,7.416,7.416,0,0,0,1.392-.473l.7-.311v2.649l-.284.135a6.415,6.415,0,0,1-1.546.515A9.293,9.293,0,0,1,120.086,62.944Zm-1.893-6.654h2.983a1.657,1.657,0,0,0-.37-.864,1.361,1.361,0,0,0-1.072-.415,1.442,1.442,0,0,0-1.108.427A1.866,1.866,0,0,0,118.193,56.29Z"/>
          <path d="M120.086,62.444a8.735,8.735,0,0,0,1.648-.14,5.924,5.924,0,0,0,1.425-.475V60.264a7.819,7.819,0,0,1-1.487.5,6.993,6.993,0,0,1-1.495.151,2.479,2.479,0,0,1-1.893-.709,2.972,2.972,0,0,1-.713-2.027h6.039V57.142a4.162,4.162,0,0,0-1.041-3,3.732,3.732,0,0,0-2.835-1.09,3.82,3.82,0,0,0-3.04,1.27,5.136,5.136,0,0,0-1.106,3.491,4.68,4.68,0,0,0,1.192,3.4,4.381,4.381,0,0,0,3.306,1.234m-.352-7.933a1.849,1.849,0,0,1,1.442.578,2.508,2.508,0,0,1,.541,1.7H117.6a2.771,2.771,0,0,1,.66-1.7,1.935,1.935,0,0,1,1.471-.582m.352,8.933a5.361,5.361,0,0,1-4.025-1.539,5.66,5.66,0,0,1-1.473-4.091,6.117,6.117,0,0,1,1.352-4.147,4.791,4.791,0,0,1,3.794-1.614,4.706,4.706,0,0,1,3.559,1.4,5.137,5.137,0,0,1,1.317,3.689v2.041h-.451V62.46l-.569.272a7.006,7.006,0,0,1-1.665.554A9.818,9.818,0,0,1,120.086,63.444Zm-1.3-4.261a1.291,1.291,0,0,0,.227.338,1.522,1.522,0,0,0,1.168.4,6,6,0,0,0,1.281-.128,6.911,6.911,0,0,0,1.3-.441l.376-.167Zm.2-3.393h1.479l-.024-.028a.846.846,0,0,0-.7-.251.927.927,0,0,0-.746.271Z"/>
        </g>
        <g id="Trazado_10729" data-name="Trazado 10729">
          <path class="cls-16" d="M128.715,62.944a3.186,3.186,0,0,1-2.415-.877,3.526,3.526,0,0,1-.822-2.508V55.175h-1.237V53.523l.266-.141,1.152-.612.592-1.731.116-.338h2.045v2.016h2.581v2.458h-2.581v4.351a.911.911,0,0,0,.193.667.778.778,0,0,0,.569.194,4.245,4.245,0,0,0,1.261-.2l.649-.2v2.458l-.3.131a4.38,4.38,0,0,1-.932.267A6.3,6.3,0,0,1,128.715,62.944Z"/>
          <path d="M128.715,62.444a5.745,5.745,0,0,0,1.045-.094,3.891,3.891,0,0,0,.824-.234v-1.45a4.7,4.7,0,0,1-1.41.221,1.273,1.273,0,0,1-.914-.332,1.362,1.362,0,0,1-.348-1.029V54.675h2.581V53.217h-2.581V51.2h-1.188l-.656,1.917-1.327.7v.852h1.237v4.884q0,2.885,2.737,2.885m0,1c-2.375,0-3.737-1.416-3.737-3.885V55.675h-1.237V53.222l.531-.282.978-.52.528-1.543.231-.676h2.9v2.016h2.581v3.458h-2.581v3.851a.76.76,0,0,0,.045.311.317.317,0,0,0,.217.05,3.716,3.716,0,0,0,1.112-.176l1.3-.405v3.466l-.6.261a4.888,4.888,0,0,1-1.04.3A6.777,6.777,0,0,1,128.715,63.444Z"/>
        </g>
      </g>
      <g id="Grupo_3451" data-name="Grupo 3451">
        <g id="Trazado_10730" data-name="Trazado 10730">
          <path class="cls-16" d="M122.789,16.232h-8.031V3.252h2.959v10.3h5.072v2.679Z"/>
          <path d="M122.289,15.732V14.053h-5.072V3.752h-1.959v11.98h7.031m1,1h-9.031V2.752h3.959v10.3h5.072v3.679Z"/>
        </g>
        <g id="Trazado_10731" data-name="Trazado 10731">
          <path class="cls-16" d="M128.107,16.4a4.876,4.876,0,0,1-3.665-1.386,5.176,5.176,0,0,1-1.334-3.743,5.643,5.643,0,0,1,1.23-3.82,4.316,4.316,0,0,1,3.417-1.442,4.23,4.23,0,0,1,3.2,1.245,4.658,4.658,0,0,1,1.18,3.344v1.541h-5.992a2.174,2.174,0,0,0,.528,1.184,1.992,1.992,0,0,0,1.53.553,6.557,6.557,0,0,0,1.389-.139,7.346,7.346,0,0,0,1.391-.474l.7-.312V15.6l-.284.135a6.437,6.437,0,0,1-1.547.515A9.3,9.3,0,0,1,128.107,16.4Zm-1.893-6.654H129.2a1.648,1.648,0,0,0-.37-.865,1.364,1.364,0,0,0-1.071-.413,1.444,1.444,0,0,0-1.108.427A1.872,1.872,0,0,0,126.214,9.742Z"/>
          <path d="M128.107,15.9a8.737,8.737,0,0,0,1.647-.139,5.917,5.917,0,0,0,1.426-.475V13.716a7.757,7.757,0,0,1-1.487.505,7,7,0,0,1-1.5.151,2.482,2.482,0,0,1-1.893-.709,2.972,2.972,0,0,1-.712-2.028h6.039V10.594a4.165,4.165,0,0,0-1.041-3,3.737,3.737,0,0,0-2.835-1.09,3.823,3.823,0,0,0-3.04,1.27,5.139,5.139,0,0,0-1.107,3.492,4.682,4.682,0,0,0,1.193,3.4,4.383,4.383,0,0,0,3.306,1.233m-.352-7.932a1.853,1.853,0,0,1,1.442.577,2.511,2.511,0,0,1,.541,1.7h-4.114a2.771,2.771,0,0,1,.66-1.7,1.935,1.935,0,0,1,1.471-.582m.352,8.932a5.361,5.361,0,0,1-4.025-1.538,5.658,5.658,0,0,1-1.474-4.091,6.12,6.12,0,0,1,1.353-4.148,4.8,4.8,0,0,1,3.794-1.614,4.713,4.713,0,0,1,3.558,1.4,5.142,5.142,0,0,1,1.318,3.69v2.041h-.451v3.279l-.569.271a6.969,6.969,0,0,1-1.666.554A9.827,9.827,0,0,1,128.107,16.9ZM126.8,12.635a1.285,1.285,0,0,0,.229.339,1.519,1.519,0,0,0,1.167.4,6.014,6.014,0,0,0,1.282-.128,6.871,6.871,0,0,0,1.295-.441l.376-.168Zm.2-3.393h1.478l-.025-.03a.85.85,0,0,0-.7-.248.927.927,0,0,0-.746.271Z"/>
        </g>
        <g id="Trazado_10732" data-name="Trazado 10732">
          <path class="cls-16" d="M136.015,16.4a3.379,3.379,0,0,1-2.432-.86,3.191,3.191,0,0,1-.9-2.4,2.883,2.883,0,0,1,1.257-2.527,6.419,6.419,0,0,1,3.44-.866l1.08-.033a1.377,1.377,0,0,0-.269-.954,1.2,1.2,0,0,0-.895-.275,3.874,3.874,0,0,0-1.183.182,9.77,9.77,0,0,0-1.168.459l-.459.215-.209-.462L133.651,7.5l-.2-.43.419-.219a7.236,7.236,0,0,1,1.734-.63,7.931,7.931,0,0,1,1.766-.214,4.409,4.409,0,0,1,2.935.874,3.433,3.433,0,0,1,1.056,2.748v6.6H139.12l-.108-.354-.146-.477a3.457,3.457,0,0,1-.94.652A4.683,4.683,0,0,1,136.015,16.4Zm2.425-4.468-.642.027a3.442,3.442,0,0,0-1.725.373.876.876,0,0,0-.394.823.7.7,0,0,0,.2.57,1.155,1.155,0,0,0,.743.2,1.89,1.89,0,0,0,1.345-.453,1.635,1.635,0,0,0,.474-1.276Z"/>
          <path d="M136.015,15.9a4.183,4.183,0,0,0,1.705-.3,3.71,3.71,0,0,0,1.319-1.127h.066l.385,1.262h1.376v-6.1a2.95,2.95,0,0,0-.881-2.368,3.923,3.923,0,0,0-2.61-.754,7.415,7.415,0,0,0-1.655.2,6.7,6.7,0,0,0-1.614.586l.623,1.376a10.253,10.253,0,0,1,1.229-.483,4.363,4.363,0,0,1,1.335-.205,1.652,1.652,0,0,1,1.258.431,1.826,1.826,0,0,1,.406,1.3v.484l-1.565.049a6.008,6.008,0,0,0-3.172.778,2.4,2.4,0,0,0-1.04,2.115,2.7,2.7,0,0,0,.749,2.04,2.886,2.886,0,0,0,2.086.721m2.925-4.49v.786a2.12,2.12,0,0,1-.635,1.643,2.382,2.382,0,0,1-1.684.586,1.544,1.544,0,0,1-1.081-.332,1.207,1.207,0,0,1-.361-.938,1.38,1.38,0,0,1,.619-1.241,3.976,3.976,0,0,1,1.979-.455l1.163-.049m-2.925,5.49a3.855,3.855,0,0,1-2.779-1,3.669,3.669,0,0,1-1.056-2.761,3.4,3.4,0,0,1,1.475-2.939,4.183,4.183,0,0,1,.529-.307l-.366-.808L133.2,7.705l-.39-.861.838-.438a7.753,7.753,0,0,1,1.853-.675,8.528,8.528,0,0,1,1.879-.226,4.884,4.884,0,0,1,3.26,1,3.9,3.9,0,0,1,1.231,3.127v7.1H138.75l-.147-.482a3.527,3.527,0,0,1-.471.259A5.1,5.1,0,0,1,136.015,16.9Zm1.911-4.446-.107,0h0a3.009,3.009,0,0,0-1.467.291c-.072.047-.168.109-.168.4a.36.36,0,0,0,.037.2.758.758,0,0,0,.405.068,1.424,1.424,0,0,0,1.006-.32A.973.973,0,0,0,137.926,12.45Zm-.633-3.47a3.382,3.382,0,0,0-1.031.158,9.355,9.355,0,0,0-.914.347,10.072,10.072,0,0,1,2.014-.242l.532-.017a.39.39,0,0,0-.069-.127A.817.817,0,0,0,137.293,8.98Z"/>
        </g>
        <g id="Trazado_10733" data-name="Trazado 10733">
          <path class="cls-16" d="M146.611,16.4a3.647,3.647,0,0,1-3.043-1.423,6.025,6.025,0,0,1-1.055-3.756,6.049,6.049,0,0,1,1.068-3.777,3.679,3.679,0,0,1,3.062-1.435,3.869,3.869,0,0,1,2.189.606c-.006-.117-.009-.227-.009-.327v-3.8h2.934V16.232h-2.386l-.1-.363-.107-.378A3.66,3.66,0,0,1,146.611,16.4Zm.5-7.817a1.272,1.272,0,0,0-1.149.6,3.776,3.776,0,0,0-.465,2.07,3.669,3.669,0,0,0,.448,2.019,1.3,1.3,0,0,0,1.183.57,1.618,1.618,0,0,0,1.34-.482,3.086,3.086,0,0,0,.446-1.856v-.268a3.521,3.521,0,0,0-.453-2.127A1.588,1.588,0,0,0,147.11,8.579Z"/>
          <path d="M146.611,15.9a3.076,3.076,0,0,0,2.712-1.352h.09l.336,1.188h1.508V2.981h-1.934v3.3a11.515,11.515,0,0,0,.139,1.541h-.1a3.125,3.125,0,0,0-2.721-1.32,3.186,3.186,0,0,0-2.667,1.242,5.54,5.54,0,0,0-.963,3.47,5.521,5.521,0,0,0,.951,3.45,3.154,3.154,0,0,0,2.647,1.229m.5-7.817a2.067,2.067,0,0,1,1.746.721,4.065,4.065,0,0,1,.557,2.433V11.5a3.511,3.511,0,0,1-.557,2.167,2.094,2.094,0,0,1-1.729.668,1.8,1.8,0,0,1-1.6-.791,4.114,4.114,0,0,1-.533-2.3,4.222,4.222,0,0,1,.549-2.348,1.771,1.771,0,0,1,1.565-.823m-.5,8.817a4.173,4.173,0,0,1-3.438-1.618,6.5,6.5,0,0,1-1.16-4.061,6.522,6.522,0,0,1,1.173-4.083,4.209,4.209,0,0,1,3.457-1.629,4.721,4.721,0,0,1,1.68.291V1.981h3.934V16.732h-3.264l-.118-.416A4.377,4.377,0,0,1,146.611,16.9Zm.5-7.817a.781.781,0,0,0-.733.378A3.365,3.365,0,0,0,146,11.25a3.121,3.121,0,0,0,.363,1.74.8.8,0,0,0,.768.349,1.2,1.2,0,0,0,.952-.3,2.546,2.546,0,0,0,.334-1.543v-.266a3.117,3.117,0,0,0-.348-1.822C148,9.33,147.807,9.079,147.11,9.079Z"/>
        </g>
        <g id="Trazado_10734" data-name="Trazado 10734">
          <path class="cls-16" d="M157.968,16.4a4.882,4.882,0,0,1-3.665-1.385,5.181,5.181,0,0,1-1.333-3.744,5.641,5.641,0,0,1,1.229-3.82,4.315,4.315,0,0,1,3.417-1.442,4.234,4.234,0,0,1,3.2,1.245,4.665,4.665,0,0,1,1.179,3.344v1.541H156a2.171,2.171,0,0,0,.529,1.184,1.989,1.989,0,0,0,1.529.553,6.557,6.557,0,0,0,1.389-.139,7.385,7.385,0,0,0,1.391-.473l.7-.314V15.6l-.284.135a6.437,6.437,0,0,1-1.545.515A9.333,9.333,0,0,1,157.968,16.4Zm-1.893-6.654h2.982a1.655,1.655,0,0,0-.369-.865,1.365,1.365,0,0,0-1.072-.413,1.442,1.442,0,0,0-1.108.427A1.882,1.882,0,0,0,156.075,9.742Z"/>
          <path d="M157.968,15.9a8.748,8.748,0,0,0,1.648-.139,5.924,5.924,0,0,0,1.425-.475V13.716a7.757,7.757,0,0,1-1.487.505,7,7,0,0,1-1.5.151,2.478,2.478,0,0,1-1.892-.709,2.973,2.973,0,0,1-.713-2.028h6.039V10.594a4.165,4.165,0,0,0-1.041-3,3.737,3.737,0,0,0-2.835-1.09,3.823,3.823,0,0,0-3.04,1.27,5.138,5.138,0,0,0-1.106,3.492,4.681,4.681,0,0,0,1.192,3.4,4.384,4.384,0,0,0,3.306,1.233m-.352-7.932a1.852,1.852,0,0,1,1.442.577,2.511,2.511,0,0,1,.541,1.7h-4.114a2.771,2.771,0,0,1,.66-1.7,1.935,1.935,0,0,1,1.471-.582m.352,8.932a5.36,5.36,0,0,1-4.024-1.538,5.657,5.657,0,0,1-1.474-4.091,6.123,6.123,0,0,1,1.352-4.148,4.8,4.8,0,0,1,3.794-1.614,4.715,4.715,0,0,1,3.558,1.4,5.144,5.144,0,0,1,1.318,3.69v2.041h-.451v3.279l-.57.271a6.969,6.969,0,0,1-1.664.554A9.83,9.83,0,0,1,157.968,16.9Zm-1.3-4.261a1.283,1.283,0,0,0,.228.339,1.521,1.521,0,0,0,1.167.4,6.03,6.03,0,0,0,1.283-.128,6.832,6.832,0,0,0,1.293-.441l.377-.168Zm.2-3.393h1.479c-.007-.01-.016-.02-.024-.03a.854.854,0,0,0-.7-.248.927.927,0,0,0-.746.271Z"/>
        </g>
        <g id="Trazado_10735" data-name="Trazado 10735">
          <path class="cls-16" d="M166.106,16.232H163.18V6.169h2.435l.067.421.084.532a3.938,3.938,0,0,1,.676-.56,3.31,3.31,0,0,1,1.835-.557,5.16,5.16,0,0,1,1.065.094l.438.094-.047.447-.189,1.8L169.485,9l-.555-.134a3.19,3.19,0,0,0-.735-.084,1.969,1.969,0,0,0-1.509.6,2.226,2.226,0,0,0-.58,1.614v5.236Z"/>
          <path d="M168.277,6.505a2.8,2.8,0,0,0-1.561.475,3.6,3.6,0,0,0-1.176,1.287h-.1l-.254-1.6H163.68v9.063h1.926V11a2.723,2.723,0,0,1,.717-1.958,2.464,2.464,0,0,1,1.872-.754,3.613,3.613,0,0,1,.852.1l.189-1.795a4.679,4.679,0,0,0-.959-.082m0-1a5.6,5.6,0,0,1,1.17.105l.877.189-.093.893-.189,1.8-.12,1.136-1.11-.268a2.609,2.609,0,0,0-.617-.071,1.471,1.471,0,0,0-1.146.443A1.749,1.749,0,0,0,166.606,11v5.736H162.68V5.669h3.362l.08.505.045-.029A3.8,3.8,0,0,1,168.277,5.505Z"/>
        </g>
        <g id="Trazado_10736" data-name="Trazado 10736">
          <path class="cls-16" d="M186.922,16.232h-2.9l-.1-.363-2.032-7.145c-.026-.092-.053-.2-.083-.309-.033.131-.065.245-.094.344l-1.982,7.108-.1.365h-2.9l-.1-.375-1.549-6-1.572-5.98-.165-.627h3.039l.094.381,1.713,6.982.1.414c.036-.148.072-.285.107-.412l1.951-7,.1-.366h2.7l.1.363,2,7.032c.037.126.075.265.113.416.037-.152.076-.308.118-.467l1.7-6.963.093-.381H190.3l-.163.626-3.122,11.98Z"/>
          <path d="M186.535,15.732l3.122-11.98h-1.983l-1.705,6.965a21.48,21.48,0,0,0-.59,2.983,26.312,26.312,0,0,0-.606-2.917l-2-7.031h-1.942l-1.95,7q-.147.533-.328,1.393t-.27,1.557a30.157,30.157,0,0,0-.574-2.966L176,3.752h-2l1.573,5.982,1.549,6h2.131l1.983-7.112q.123-.411.307-1.246t.266-1.36q.042.343.238,1.225t.328,1.348l2.032,7.145h2.131m.773,1h-3.659l-.207-.726-1.631-5.735-1.6,5.73-.205.731h-3.664l-.194-.75-1.549-6L173.03,4.006l-.33-1.254h4.08l.187.762,1.354,5.519,1.547-5.55.2-.731h3.457l.206.727,1.6,5.624L186.7,3.514l.186-.762h4.062L190.625,4,187.5,15.984Z"/>
        </g>
        <g id="Trazado_10737" data-name="Trazado 10737">
          <path class="cls-16" d="M193.345,16.4a3.382,3.382,0,0,1-2.433-.86,3.191,3.191,0,0,1-.9-2.4,2.882,2.882,0,0,1,1.258-2.527,6.417,6.417,0,0,1,3.439-.866l1.08-.033a1.376,1.376,0,0,0-.269-.955,1.2,1.2,0,0,0-.894-.274,3.876,3.876,0,0,0-1.184.182,9.669,9.669,0,0,0-1.168.459l-.459.215-.209-.462L190.98,7.5l-.195-.431.419-.218a7.221,7.221,0,0,1,1.733-.63,7.955,7.955,0,0,1,1.768-.214,4.415,4.415,0,0,1,2.935.874A3.436,3.436,0,0,1,198.7,9.627v6.6h-2.247l-.108-.354L196.2,15.4a3.465,3.465,0,0,1-.942.652A4.673,4.673,0,0,1,193.345,16.4Zm2.425-4.468-.643.027a3.445,3.445,0,0,0-1.725.373.877.877,0,0,0-.393.823.7.7,0,0,0,.2.571,1.158,1.158,0,0,0,.743.2,1.888,1.888,0,0,0,1.345-.454,1.631,1.631,0,0,0,.474-1.275Z"/>
          <path d="M193.345,15.9a4.181,4.181,0,0,0,1.7-.3,3.71,3.71,0,0,0,1.319-1.127h.066l.385,1.262H198.2v-6.1a2.953,2.953,0,0,0-.881-2.368,3.926,3.926,0,0,0-2.61-.754,7.43,7.43,0,0,0-1.656.2,6.71,6.71,0,0,0-1.614.586l.623,1.376a10.253,10.253,0,0,1,1.229-.483,4.365,4.365,0,0,1,1.336-.205,1.655,1.655,0,0,1,1.258.431,1.831,1.831,0,0,1,.405,1.3v.484l-1.565.049a6,6,0,0,0-3.171.778,2.4,2.4,0,0,0-1.041,2.115,2.7,2.7,0,0,0,.75,2.04,2.884,2.884,0,0,0,2.086.721m2.925-4.49v.786a2.124,2.124,0,0,1-.635,1.643,2.385,2.385,0,0,1-1.684.586,1.545,1.545,0,0,1-1.082-.332,1.21,1.21,0,0,1-.36-.938,1.381,1.381,0,0,1,.618-1.241,3.979,3.979,0,0,1,1.979-.455l1.164-.049m-2.925,5.49a3.855,3.855,0,0,1-2.779-1,3.664,3.664,0,0,1-1.057-2.761,3.4,3.4,0,0,1,1.475-2.94,4.3,4.3,0,0,1,.529-.306l-.366-.808-.623-1.376-.39-.862.839-.438a7.764,7.764,0,0,1,1.852-.674,8.536,8.536,0,0,1,1.88-.226,4.892,4.892,0,0,1,3.26.994A3.908,3.908,0,0,1,199.2,9.627v7.1h-3.118l-.147-.482a3.408,3.408,0,0,1-.471.259A5.091,5.091,0,0,1,193.345,16.9Zm1.911-4.446-.108,0h0a3.009,3.009,0,0,0-1.467.291c-.071.046-.167.109-.167.4a.358.358,0,0,0,.038.2.761.761,0,0,0,.4.067,1.421,1.421,0,0,0,1.006-.321A.97.97,0,0,0,195.256,12.45Zm-.633-3.47a3.388,3.388,0,0,0-1.032.158,9.554,9.554,0,0,0-.914.347,10.072,10.072,0,0,1,2.014-.242l.532-.017a.368.368,0,0,0-.069-.128A.818.818,0,0,0,194.623,8.98Z"/>
        </g>
        <g id="Trazado_10738" data-name="Trazado 10738">
          <path class="cls-16" d="M203.309,16.232h-2.926V2.481h2.926V16.232Z"/>
          <path d="M202.809,15.732V2.981h-1.926V15.732h1.926m1,1h-3.926V1.981h3.926V16.732Z"/>
        </g>
        <g id="Trazado_10739" data-name="Trazado 10739">
          <path class="cls-16" d="M207.988,16.232h-2.925V2.481h2.925V16.232Z"/>
          <path d="M207.488,15.732V2.981h-1.925V15.732h1.925m1,1h-3.925V1.981h3.925V16.732Z"/>
        </g>
        <g id="Trazado_10740" data-name="Trazado 10740">
          <path class="cls-16" d="M214.2,16.4a4.883,4.883,0,0,1-3.666-1.385,5.181,5.181,0,0,1-1.333-3.744,5.648,5.648,0,0,1,1.229-3.82,4.318,4.318,0,0,1,3.417-1.442,4.236,4.236,0,0,1,3.2,1.245,4.666,4.666,0,0,1,1.178,3.344v1.541h-5.992a2.171,2.171,0,0,0,.529,1.184,1.992,1.992,0,0,0,1.53.553,6.534,6.534,0,0,0,1.388-.139,7.345,7.345,0,0,0,1.392-.473l.7-.314V15.6l-.285.135a6.365,6.365,0,0,1-1.545.515A9.314,9.314,0,0,1,214.2,16.4Zm-1.893-6.654h2.981a1.663,1.663,0,0,0-.369-.866,1.368,1.368,0,0,0-1.072-.412,1.446,1.446,0,0,0-1.109.427A1.89,1.89,0,0,0,212.307,9.742Z"/>
          <path d="M214.2,15.9a8.737,8.737,0,0,0,1.647-.139,5.931,5.931,0,0,0,1.426-.475V13.716a7.765,7.765,0,0,1-1.488.505,6.987,6.987,0,0,1-1.5.151,2.482,2.482,0,0,1-1.893-.709,2.973,2.973,0,0,1-.713-2.028h6.039V10.594a4.169,4.169,0,0,0-1.04-3,3.738,3.738,0,0,0-2.836-1.09,3.824,3.824,0,0,0-3.04,1.27,5.143,5.143,0,0,0-1.106,3.492,4.681,4.681,0,0,0,1.192,3.4A4.385,4.385,0,0,0,214.2,15.9m-.353-7.932a1.855,1.855,0,0,1,1.443.577,2.516,2.516,0,0,1,.54,1.7h-4.113a2.776,2.776,0,0,1,.659-1.7,1.935,1.935,0,0,1,1.471-.582M214.2,16.9a5.361,5.361,0,0,1-4.025-1.538,5.657,5.657,0,0,1-1.474-4.091,6.123,6.123,0,0,1,1.352-4.148,4.8,4.8,0,0,1,3.794-1.614,4.717,4.717,0,0,1,3.559,1.4,5.151,5.151,0,0,1,1.317,3.69v2.041h-.45v3.278l-.569.272a6.984,6.984,0,0,1-1.666.554A9.819,9.819,0,0,1,214.2,16.9Zm-1.306-4.261a1.33,1.33,0,0,0,.228.34,1.531,1.531,0,0,0,1.168.4,6.058,6.058,0,0,0,1.281-.127,6.856,6.856,0,0,0,1.3-.442l.377-.168Zm.2-3.393h1.48c-.008-.011-.017-.02-.025-.031a.855.855,0,0,0-.7-.247.927.927,0,0,0-.746.271Z"/>
        </g>
        <g id="Trazado_10741" data-name="Trazado 10741">
          <path class="cls-16" d="M222.828,16.4a3.191,3.191,0,0,1-2.415-.876,3.524,3.524,0,0,1-.821-2.508V8.628h-1.238V6.975l.266-.141,1.153-.612.591-1.73.116-.339h2.045V6.169h2.582V8.628h-2.582v4.351a.91.91,0,0,0,.193.666.786.786,0,0,0,.569.194,4.2,4.2,0,0,0,1.26-.2l.65-.2V15.9l-.3.131a4.272,4.272,0,0,1-.933.267A6.105,6.105,0,0,1,222.828,16.4Z"/>
          <path d="M222.828,15.9a5.658,5.658,0,0,0,1.045-.094,3.833,3.833,0,0,0,.824-.234v-1.45a4.67,4.67,0,0,1-1.41.221,1.269,1.269,0,0,1-.913-.332,1.357,1.357,0,0,1-.349-1.028V8.128h2.582V6.669h-2.582V4.653h-1.188l-.655,1.918-1.328.7v.853h1.238v4.884q0,2.884,2.736,2.884m0,1c-2.374,0-3.736-1.416-3.736-3.884V9.128h-1.238V6.674l.532-.282.978-.518.527-1.544.231-.677h2.9V5.669h2.582V9.128h-2.582v3.851a.743.743,0,0,0,.045.31.317.317,0,0,0,.217.05,3.729,3.729,0,0,0,1.11-.174l1.3-.41v3.466l-.6.262a4.689,4.689,0,0,1-1.043.3A6.641,6.641,0,0,1,222.828,16.9Z"/>
        </g>
      </g>
    </g>
  </g>
</svg>
