<svg xmlns="http://www.w3.org/2000/svg" viewBox="0 0 57.327 23.182"><defs><style>.cls-1,.cls-3{fill:#fff;}.cls-1{stroke:#fff;stroke-miterlimit:10;stroke-width:0.5px;}.cls-2{isolation:isolate;}</style></defs><g id="Capa_12" data-name="Capa 12"><g id="input-3"><path class="cls-1" d="M53.544,8.817H3.818a.78.78,0,0,0-.781.781v7.29a.781.781,0,0,0,.781.781H53.544a.781.781,0,0,0,.781-.781V9.6A.781.781,0,0,0,53.544,8.817Zm.651,8.071a.651.651,0,0,1-.651.65H3.818a.65.65,0,0,1-.651-.65V9.6a.65.65,0,0,1,.651-.651H53.544A.651.651,0,0,1,54.2,9.6Z"/><g id="Shape-3" class="cls-2"><path class="cls-3" d="M50.636,14.35a.251.251,0,0,1-.345.086.256.256,0,0,1-.087-.086l-1.02-1.4c-.12-.164-.072-.3.106-.3h2.26c.178,0,.224.134.106.3Z"/></g><g id="Order_type" data-name="Order type" class="cls-2"><g class="cls-2"><path class="cls-3" d="M5.649,6.117a1.583,1.583,0,0,1-.1.57,1.3,1.3,0,0,1-.278.447,1.244,1.244,0,0,1-.431.291,1.555,1.555,0,0,1-1.113,0,1.249,1.249,0,0,1-.43-.291,1.3,1.3,0,0,1-.278-.447,1.707,1.707,0,0,1,0-1.14A1.324,1.324,0,0,1,3.3,5.1a1.252,1.252,0,0,1,.43-.292,1.541,1.541,0,0,1,1.113,0,1.246,1.246,0,0,1,.431.292,1.324,1.324,0,0,1,.278.448A1.587,1.587,0,0,1,5.649,6.117Zm-.384,0A1.411,1.411,0,0,0,5.2,5.66.971.971,0,0,0,5,5.317.856.856,0,0,0,4.69,5.1a1.126,1.126,0,0,0-.808,0,.869.869,0,0,0-.31.215.958.958,0,0,0-.2.343,1.548,1.548,0,0,0,0,.914.949.949,0,0,0,.2.341.854.854,0,0,0,.31.214,1.126,1.126,0,0,0,.808,0A.842.842,0,0,0,5,6.915a.962.962,0,0,0,.2-.341A1.411,1.411,0,0,0,5.265,6.117Z"/><path class="cls-3" d="M6.107,7.5V5.544h.2a.109.109,0,0,1,.077.021.143.143,0,0,1,.029.074l.023.3a.89.89,0,0,1,.248-.32.549.549,0,0,1,.346-.114.52.52,0,0,1,.147.018.484.484,0,0,1,.121.051l-.044.257a.058.058,0,0,1-.06.048.285.285,0,0,1-.083-.019.528.528,0,0,0-.156-.018.443.443,0,0,0-.3.1.784.784,0,0,0-.2.3V7.5Z"/><path class="cls-3" d="M9.038,7.5a.086.086,0,0,1-.092-.071L8.915,7.19a1.02,1.02,0,0,1-.287.244.723.723,0,0,1-.37.092.705.705,0,0,1-.3-.065.621.621,0,0,1-.234-.19.9.9,0,0,1-.148-.312,1.6,1.6,0,0,1-.053-.431,1.366,1.366,0,0,1,.058-.4A.979.979,0,0,1,7.744,5.8a.76.76,0,0,1,.621-.293.711.711,0,0,1,.306.06.751.751,0,0,1,.228.171V4.656h.344V7.5Zm-.666-.251a.562.562,0,0,0,.295-.077A.832.832,0,0,0,8.9,6.953V6.007a.541.541,0,0,0-.207-.178.6.6,0,0,0-.25-.051.494.494,0,0,0-.421.194.913.913,0,0,0-.146.556,1.4,1.4,0,0,0,.032.327.617.617,0,0,0,.1.224.372.372,0,0,0,.156.129A.527.527,0,0,0,8.372,7.248Z"/><path class="cls-3" d="M10.593,5.513a.878.878,0,0,1,.325.059.722.722,0,0,1,.256.17.765.765,0,0,1,.169.274,1.05,1.05,0,0,1,.061.371.23.23,0,0,1-.017.108.071.071,0,0,1-.066.027h-1.3a1.129,1.129,0,0,0,.05.323.661.661,0,0,0,.128.228.5.5,0,0,0,.193.137.645.645,0,0,0,.251.046.738.738,0,0,0,.223-.03,1,1,0,0,0,.161-.065c.045-.023.082-.044.113-.064a.148.148,0,0,1,.078-.03.076.076,0,0,1,.065.032l.1.126a.661.661,0,0,1-.153.134.96.96,0,0,1-.19.094,1.211,1.211,0,0,1-.209.055,1.3,1.3,0,0,1-.214.018,1.011,1.011,0,0,1-.374-.068.824.824,0,0,1-.295-.2A.928.928,0,0,1,9.75,6.93a1.339,1.339,0,0,1-.069-.448A1.134,1.134,0,0,1,9.743,6.1a.9.9,0,0,1,.181-.308.826.826,0,0,1,.288-.205A.948.948,0,0,1,10.593,5.513Zm.008.253a.527.527,0,0,0-.392.144.675.675,0,0,0-.177.4H11.1a.694.694,0,0,0-.033-.219.493.493,0,0,0-.1-.171.411.411,0,0,0-.156-.112A.506.506,0,0,0,10.6,5.766Z"/><path class="cls-3" d="M11.842,7.5V5.544h.2a.109.109,0,0,1,.077.021.135.135,0,0,1,.029.074l.023.3a.9.9,0,0,1,.248-.32.55.55,0,0,1,.347-.114.513.513,0,0,1,.268.069l-.044.257a.059.059,0,0,1-.06.048.278.278,0,0,1-.083-.019.54.54,0,0,0-.157-.018.447.447,0,0,0-.3.1.794.794,0,0,0-.2.3V7.5Z"/><path class="cls-3" d="M14.735,7.53a.471.471,0,0,1-.356-.129.519.519,0,0,1-.125-.373v-1.2h-.235a.077.077,0,0,1-.052-.019.072.072,0,0,1-.022-.057V5.619l.321-.04.079-.6a.078.078,0,0,1,.025-.048.08.08,0,0,1,.054-.018H14.6v.674h.56v.249H14.6V7.005a.249.249,0,0,0,.06.183.206.206,0,0,0,.154.06.3.3,0,0,0,.094-.014.484.484,0,0,0,.068-.032c.019-.012.036-.022.049-.032a.066.066,0,0,1,.036-.015.059.059,0,0,1,.048.033l.1.164a.646.646,0,0,1-.215.131A.732.732,0,0,1,14.735,7.53Z"/><path class="cls-3" d="M16.155,8.076a.169.169,0,0,1-.044.062.118.118,0,0,1-.08.023h-.254l.357-.776-.807-1.841h.3a.107.107,0,0,1,.07.022.138.138,0,0,1,.036.049l.523,1.232a.661.661,0,0,1,.03.085c.009.028.016.057.023.086.008-.029.018-.058.027-.086s.019-.058.03-.087l.508-1.23a.116.116,0,0,1,.04-.051.1.1,0,0,1,.06-.02h.274Z"/><path class="cls-3" d="M17.558,8.161V5.544h.205a.088.088,0,0,1,.092.071l.029.232a1.04,1.04,0,0,1,.287-.245.727.727,0,0,1,.371-.092.706.706,0,0,1,.3.064.64.64,0,0,1,.234.191.925.925,0,0,1,.148.314,1.593,1.593,0,0,1,.052.43,1.366,1.366,0,0,1-.057.4.979.979,0,0,1-.167.323.778.778,0,0,1-.265.214.787.787,0,0,1-.354.078.729.729,0,0,1-.31-.06A.687.687,0,0,1,17.9,7.3v.865Zm.87-2.374a.556.556,0,0,0-.294.077.862.862,0,0,0-.232.218v.946a.556.556,0,0,0,.207.18.6.6,0,0,0,.252.052.491.491,0,0,0,.418-.195.909.909,0,0,0,.147-.556,1.417,1.417,0,0,0-.033-.328.648.648,0,0,0-.1-.225.383.383,0,0,0-.156-.128A.522.522,0,0,0,18.428,5.787Z"/><path class="cls-3" d="M20.462,5.513a.878.878,0,0,1,.325.059.722.722,0,0,1,.256.17.765.765,0,0,1,.169.274,1.05,1.05,0,0,1,.061.371.214.214,0,0,1-.018.108.068.068,0,0,1-.065.027h-1.3a1.129,1.129,0,0,0,.05.323.661.661,0,0,0,.128.228.5.5,0,0,0,.193.137.645.645,0,0,0,.251.046.727.727,0,0,0,.222-.03.973.973,0,0,0,.162-.065c.045-.023.082-.044.113-.064a.148.148,0,0,1,.078-.03.076.076,0,0,1,.065.032l.1.126a.661.661,0,0,1-.153.134.96.96,0,0,1-.19.094,1.211,1.211,0,0,1-.209.055,1.3,1.3,0,0,1-.214.018,1.007,1.007,0,0,1-.374-.068.824.824,0,0,1-.3-.2.914.914,0,0,1-.194-.327,1.339,1.339,0,0,1-.069-.448,1.134,1.134,0,0,1,.062-.382.9.9,0,0,1,.181-.308.831.831,0,0,1,.287-.205A.953.953,0,0,1,20.462,5.513Zm.008.253a.527.527,0,0,0-.392.144.675.675,0,0,0-.177.4h1.063a.694.694,0,0,0-.033-.219.493.493,0,0,0-.1-.171.419.419,0,0,0-.156-.112A.513.513,0,0,0,20.47,5.766Z"/></g></g><g id="Market" class="cls-2"><g class="cls-2"><path class="cls-3" d="M5.844,14.511H7.331V14.9H5.379V11.465h.465Z"/><path class="cls-3" d="M8.347,11.71a.269.269,0,0,1-.025.116.32.32,0,0,1-.067.1.309.309,0,0,1-.1.066.292.292,0,0,1-.117.024.285.285,0,0,1-.117-.024.32.32,0,0,1-.162-.162.283.283,0,0,1-.024-.116.3.3,0,0,1,.024-.119.314.314,0,0,1,.162-.164.285.285,0,0,1,.117-.024.292.292,0,0,1,.117.024.309.309,0,0,1,.1.066.316.316,0,0,1,.067.1A.282.282,0,0,1,8.347,11.71Zm-.1.762V14.9H7.825v-2.43Z"/><path class="cls-3" d="M9,14.9v-2.43h.255a.11.11,0,0,1,.115.089l.031.249a1.252,1.252,0,0,1,.3-.27.7.7,0,0,1,.387-.106.578.578,0,0,1,.4.137.773.773,0,0,1,.219.369.754.754,0,0,1,.319-.386.806.806,0,0,1,.219-.091.942.942,0,0,1,.236-.029.9.9,0,0,1,.342.061.678.678,0,0,1,.254.179.793.793,0,0,1,.16.289,1.271,1.271,0,0,1,.055.392V14.9H11.87V13.355a.656.656,0,0,0-.124-.433.451.451,0,0,0-.363-.148.539.539,0,0,0-.2.038.5.5,0,0,0-.167.109.507.507,0,0,0-.113.181.7.7,0,0,0-.042.253V14.9h-.427V13.355a.675.675,0,0,0-.118-.436.415.415,0,0,0-.343-.145.539.539,0,0,0-.293.086.946.946,0,0,0-.249.231V14.9Z"/><path class="cls-3" d="M13.513,11.71a.269.269,0,0,1-.025.116.338.338,0,0,1-.067.1.321.321,0,0,1-.1.066.293.293,0,0,1-.118.024.28.28,0,0,1-.116-.024.32.32,0,0,1-.162-.162.283.283,0,0,1-.024-.116.3.3,0,0,1,.024-.119.314.314,0,0,1,.162-.164.28.28,0,0,1,.116-.024.293.293,0,0,1,.118.024.321.321,0,0,1,.1.066.334.334,0,0,1,.067.1A.282.282,0,0,1,13.513,11.71Zm-.1.762V14.9H12.99v-2.43Z"/><path class="cls-3" d="M14.906,14.94a.585.585,0,0,1-.442-.161.64.64,0,0,1-.155-.462V12.83h-.292a.1.1,0,0,1-.065-.023.091.091,0,0,1-.026-.071v-.17l.4-.05.1-.751a.092.092,0,0,1,.031-.059.1.1,0,0,1,.067-.022h.216v.836h.7v.31h-.7v1.458a.314.314,0,0,0,.074.228A.263.263,0,0,0,15,14.59a.343.343,0,0,0,.117-.018.449.449,0,0,0,.085-.04.589.589,0,0,0,.061-.04.085.085,0,0,1,.044-.017.071.071,0,0,1,.06.041l.125.2a.782.782,0,0,1-.266.162A.909.909,0,0,1,14.906,14.94Z"/></g></g></g></g></svg>