<svg xmlns="http://www.w3.org/2000/svg" xmlns:xlink="http://www.w3.org/1999/xlink" width="209" height="136" viewBox="0 0 209 136"><defs><clipPath id="b"><rect width="209" height="136"/></clipPath></defs><g id="a" clip-path="url(#b)"><g transform="translate(-7141 -6437)"><g transform="translate(7147 6443)" fill="none" stroke="#aae5f2" stroke-width="3"><rect width="197" height="124" stroke="none"/><rect x="1.5" y="1.5" width="194" height="121" fill="none"/></g><g transform="translate(0 -8)"><g transform="translate(-301 271)"><g transform="translate(7463 6208)"><path d="M7.036,42.254C6.543,41.76,0,37.314,0,37.314l1.9-4.059c1.021-2.437,4.267-3.66,5.45-4.076a42.674,42.674,0,0,1,4.724-.9,4.812,4.812,0,0,0,2.182-1.007c.363-.436.147-4.469.147-4.469a13.193,13.193,0,0,1-1.033-1.965,25.7,25.7,0,0,1-.763-3.437s-.749,0-1-1.3c-.281-1.424-.726-1.978-.673-3.035s.624-1.016.624-1.016a16.685,16.685,0,0,1-.605-4.65C10.872,3.669,13.728,0,19.083,0c5.284,0,8.2,3.669,8.119,7.393a15.981,15.981,0,0,1-.615,4.65s.57-.029.625,1.016-.389,1.612-.67,3.035c-.265,1.3-1.007,1.3-1.007,1.3a25.327,25.327,0,0,1-.761,3.437A13.377,13.377,0,0,1,23.739,22.8s-.216,4.032.147,4.469a4.833,4.833,0,0,0,2.182,1.007,42.674,42.674,0,0,1,4.724.9c1.155.406,4.277,1.581,5.373,3.906.815.589,1.727,3.893,1.613,4.229-.121.373-5.926,5.064-6.91,5.8s-11.98,2.468-12.842,2.468S7.53,42.748,7.036,42.254Z" transform="translate(7.479 6.576)" fill="#aae5f2"/><path d="M26.552,0A26.552,26.552,0,1,1,0,26.552,26.552,26.552,0,0,1,26.552,0Z" fill="none" stroke="#aae5f2" stroke-width="3"/></g><g transform="translate(7577 6208)"><path d="M7.036,42.254C6.543,41.76,0,37.314,0,37.314l1.9-4.059c1.021-2.437,4.267-3.66,5.45-4.076a42.674,42.674,0,0,1,4.724-.9,4.812,4.812,0,0,0,2.182-1.007c.363-.436.147-4.469.147-4.469a13.193,13.193,0,0,1-1.033-1.965,25.7,25.7,0,0,1-.763-3.437s-.749,0-1-1.3c-.281-1.424-.726-1.978-.673-3.035s.624-1.016.624-1.016a16.685,16.685,0,0,1-.605-4.65C10.872,3.669,13.728,0,19.083,0c5.284,0,8.2,3.669,8.119,7.393a15.981,15.981,0,0,1-.615,4.65s.57-.029.625,1.016-.389,1.612-.67,3.035c-.265,1.3-1.007,1.3-1.007,1.3a25.327,25.327,0,0,1-.761,3.437A13.377,13.377,0,0,1,23.739,22.8s-.216,4.032.147,4.469a4.833,4.833,0,0,0,2.182,1.007,42.674,42.674,0,0,1,4.724.9c1.155.406,4.277,1.581,5.373,3.906.815.589,1.727,3.893,1.613,4.229-.121.373-5.926,5.064-6.91,5.8s-11.98,2.468-12.842,2.468S7.53,42.748,7.036,42.254Z" transform="translate(7.478 6.576)" fill="#6ed346"/><path d="M26.552,0A26.552,26.552,0,1,1,0,26.552,26.552,26.552,0,0,1,26.552,0Z" fill="none" stroke="#6ed346" stroke-width="3"/></g><path d="M10.662,4.284,11.9,3.042a1.338,1.338,0,0,1,1.9,0l10.88,10.875a1.338,1.338,0,0,1,0,1.9L13.8,26.694a1.338,1.338,0,0,1-1.9,0l-1.243-1.243a1.345,1.345,0,0,1,.022-1.92l6.744-6.425H1.343A1.34,1.34,0,0,1,0,15.764V13.973a1.34,1.34,0,0,1,1.343-1.343H17.429L10.685,6.2A1.335,1.335,0,0,1,10.662,4.284Z" transform="translate(7534.117 6219.312)" fill="#aae5f2"/></g><text transform="translate(7188 6550)" fill="#aae5f2" font-size="12" font-family="Lato-Bold, Lato" font-weight="700"><tspan x="-21.555" y="0">Inactive</tspan></text><text transform="translate(7303.7 6550)" fill="#6ed346" font-size="12" font-family="Lato-Bold, Lato" font-weight="700"><tspan x="-17.379" y="0">Active</tspan></text></g></g></g></svg>