<svg xmlns="http://www.w3.org/2000/svg" xmlns:xlink="http://www.w3.org/1999/xlink" viewBox="0 0 300 300"><defs><style>.cls-1{fill:#00006b;}.cls-2{fill:none;}.cls-3{fill:#aae5f2;}.cls-4{fill:url(#Degradado_sin_nombre_65);}.cls-5{fill:url(#Degradado_sin_nombre_65-2);}.cls-6{fill:url(#Degradado_sin_nombre_7);}.cls-7{fill:url(#Degradado_sin_nombre_7-2);}.cls-8{fill:url(#Degradado_sin_nombre_106);}.cls-9{fill:url(#Degradado_sin_nombre_106-2);}.cls-10{fill:url(#Degradado_sin_nombre_106-3);}.cls-11{fill:url(#Degradado_sin_nombre_106-4);}.cls-12{fill:url(#Degradado_sin_nombre_106-5);}.cls-13{fill:url(#Degradado_sin_nombre_7-3);}.cls-14{fill:url(#Degradado_sin_nombre_106-6);}.cls-15{fill:url(#Degradado_sin_nombre_106-7);}.cls-16{fill:url(#Degradado_sin_nombre_106-8);}.cls-17{fill:url(#Degradado_sin_nombre_106-9);}.cls-18{fill:url(#Degradado_sin_nombre_106-10);}.cls-19{fill:url(#Degradado_sin_nombre_106-11);}.cls-20{fill:url(#Degradado_sin_nombre_106-12);}.cls-21{fill:url(#Degradado_sin_nombre_106-13);}.cls-22{fill:url(#Degradado_sin_nombre_106-14);}.cls-23{fill:url(#Degradado_sin_nombre_106-15);}.cls-24{fill:url(#Degradado_sin_nombre_106-16);}.cls-25{fill:url(#Degradado_sin_nombre_106-17);}.cls-26{fill:url(#Degradado_sin_nombre_106-18);}.cls-27{fill:url(#Degradado_sin_nombre_106-19);}.cls-28{fill:url(#Degradado_sin_nombre_106-20);}.cls-29{fill:url(#Degradado_sin_nombre_106-21);}.cls-30{fill:url(#Degradado_sin_nombre_106-22);}.cls-31{fill:url(#Degradado_sin_nombre_106-23);}.cls-32{fill:url(#Degradado_sin_nombre_106-24);}.cls-33{fill:url(#Degradado_sin_nombre_106-25);}.cls-34{fill:url(#Degradado_sin_nombre_106-26);}.cls-35{fill:url(#Degradado_sin_nombre_106-27);}.cls-36{fill:#fff;}</style><linearGradient id="Degradado_sin_nombre_65" x1="49.404" y1="80.488" x2="190.407" y2="319.704" gradientUnits="userSpaceOnUse"><stop offset="0" stop-color="#00006b"/><stop offset="0.167" stop-color="#02036d" stop-opacity="0.95"/><stop offset="0.375" stop-color="#080b72" stop-opacity="0.807"/><stop offset="0.604" stop-color="#12197a" stop-opacity="0.571"/><stop offset="0.846" stop-color="#212d85" stop-opacity="0.244"/><stop offset="1" stop-color="#2b3b8e" stop-opacity="0"/></linearGradient><linearGradient id="Degradado_sin_nombre_65-2" x1="209.351" y1="48.959" x2="274.283" y2="74.226" xlink:href="#Degradado_sin_nombre_65"/><linearGradient id="Degradado_sin_nombre_7" x1="69.71" y1="27.179" x2="84.737" y2="52.672" gradientUnits="userSpaceOnUse"><stop offset="0" stop-color="#5979b2"/><stop offset="1" stop-color="#aae5f2"/></linearGradient><linearGradient id="Degradado_sin_nombre_7-2" x1="38.741" y1="165.997" x2="153.124" y2="165.997" xlink:href="#Degradado_sin_nombre_7"/><linearGradient id="Degradado_sin_nombre_106" x1="171.859" y1="272.247" x2="264.231" y2="90.763" gradientUnits="userSpaceOnUse"><stop offset="0" stop-color="#00006b"/><stop offset="0.138" stop-color="#020370"/><stop offset="0.31" stop-color="#060c80"/><stop offset="0.5" stop-color="#0d1a99"/><stop offset="0.702" stop-color="#182ebc"/><stop offset="0.912" stop-color="#2548e9"/><stop offset="1" stop-color="#2b54fe"/></linearGradient><linearGradient id="Degradado_sin_nombre_106-2" x1="265.071" y1="47.823" x2="216.576" y2="30.571" xlink:href="#Degradado_sin_nombre_106"/><linearGradient id="Degradado_sin_nombre_106-3" x1="149.886" y1="222.856" x2="92.832" y2="133.2" xlink:href="#Degradado_sin_nombre_106"/><linearGradient id="Degradado_sin_nombre_106-4" x1="226.944" y1="109.827" x2="165.816" y2="62.962" xlink:href="#Degradado_sin_nombre_106"/><linearGradient id="Degradado_sin_nombre_106-5" x1="196.177" y1="26.928" x2="193.899" y2="25.182" xlink:href="#Degradado_sin_nombre_106"/><linearGradient id="Degradado_sin_nombre_7-3" x1="104.62" y1="127.642" x2="201.968" y2="127.642" xlink:href="#Degradado_sin_nombre_7"/><linearGradient id="Degradado_sin_nombre_106-6" x1="112.634" y1="26.827" x2="110.356" y2="25.08" xlink:href="#Degradado_sin_nombre_106"/><linearGradient id="Degradado_sin_nombre_106-7" x1="88.285" y1="49.349" x2="86.007" y2="47.602" xlink:href="#Degradado_sin_nombre_106"/><linearGradient id="Degradado_sin_nombre_106-8" x1="53.51" y1="59.18" x2="51.231" y2="57.434" xlink:href="#Degradado_sin_nombre_106"/><linearGradient id="Degradado_sin_nombre_106-9" x1="54.551" y1="93.871" x2="52.273" y2="92.124" xlink:href="#Degradado_sin_nombre_106"/><linearGradient id="Degradado_sin_nombre_106-10" x1="60.909" y1="126.065" x2="58.631" y2="124.319" xlink:href="#Degradado_sin_nombre_106"/><linearGradient id="Degradado_sin_nombre_106-11" x1="71.301" y1="157.037" x2="69.023" y2="155.291" xlink:href="#Degradado_sin_nombre_106"/><linearGradient id="Degradado_sin_nombre_106-12" x1="82.983" y1="183.934" x2="80.705" y2="182.187" xlink:href="#Degradado_sin_nombre_106"/><linearGradient id="Degradado_sin_nombre_106-13" x1="97.681" y1="209.608" x2="95.402" y2="207.861" xlink:href="#Degradado_sin_nombre_106"/><linearGradient id="Degradado_sin_nombre_106-14" x1="115.935" y1="234.746" x2="113.657" y2="232.999" xlink:href="#Degradado_sin_nombre_106"/><linearGradient id="Degradado_sin_nombre_106-15" x1="133.527" y1="255.224" x2="131.249" y2="253.477" xlink:href="#Degradado_sin_nombre_106"/><linearGradient id="Degradado_sin_nombre_106-16" x1="-413.403" y1="26.928" x2="-415.682" y2="25.182" gradientTransform="matrix(-1, 0, 0, 1, -219.562, 0)" xlink:href="#Degradado_sin_nombre_106"/><linearGradient id="Degradado_sin_nombre_106-17" x1="-371.393" y1="26.827" x2="-373.671" y2="25.08" gradientTransform="matrix(-1, 0, 0, 1, -219.562, 0)" xlink:href="#Degradado_sin_nombre_106"/><linearGradient id="Degradado_sin_nombre_106-18" x1="-437.753" y1="49.451" x2="-440.031" y2="47.704" gradientTransform="matrix(-1, 0, 0, 1, -219.562, 0)" xlink:href="#Degradado_sin_nombre_106"/><linearGradient id="Degradado_sin_nombre_106-19" x1="-472.528" y1="59.282" x2="-474.807" y2="57.535" gradientTransform="matrix(-1, 0, 0, 1, -219.562, 0)" xlink:href="#Degradado_sin_nombre_106"/><linearGradient id="Degradado_sin_nombre_106-20" x1="-471.082" y1="93.097" x2="-473.36" y2="91.35" gradientTransform="matrix(-1, 0, 0, 1, -219.562, 0)" xlink:href="#Degradado_sin_nombre_106"/><linearGradient id="Degradado_sin_nombre_106-21" x1="-464.222" y1="125.967" x2="-466.5" y2="124.22" gradientTransform="matrix(-1, 0, 0, 1, -219.562, 0)" xlink:href="#Degradado_sin_nombre_106"/><linearGradient id="Degradado_sin_nombre_106-22" x1="-454.737" y1="157.139" x2="-457.015" y2="155.392" gradientTransform="matrix(-1, 0, 0, 1, -219.562, 0)" xlink:href="#Degradado_sin_nombre_106"/><linearGradient id="Degradado_sin_nombre_106-23" x1="-443.054" y1="184.035" x2="-445.333" y2="182.289" gradientTransform="matrix(-1, 0, 0, 1, -219.562, 0)" xlink:href="#Degradado_sin_nombre_106"/><linearGradient id="Degradado_sin_nombre_106-24" x1="-428.357" y1="209.709" x2="-430.636" y2="207.963" gradientTransform="matrix(-1, 0, 0, 1, -219.562, 0)" xlink:href="#Degradado_sin_nombre_106"/><linearGradient id="Degradado_sin_nombre_106-25" x1="-410.102" y1="234.848" x2="-412.381" y2="233.101" gradientTransform="matrix(-1, 0, 0, 1, -219.562, 0)" xlink:href="#Degradado_sin_nombre_106"/><linearGradient id="Degradado_sin_nombre_106-26" x1="-392.511" y1="255.325" x2="-394.789" y2="253.579" gradientTransform="matrix(-1, 0, 0, 1, -219.562, 0)" xlink:href="#Degradado_sin_nombre_106"/><linearGradient id="Degradado_sin_nombre_106-27" x1="154.167" y1="274.971" x2="151.888" y2="273.224" xlink:href="#Degradado_sin_nombre_106"/></defs><g id="Capa_11" data-name="Capa 11"><rect class="cls-1" x="259.119" y="47.049" width="9.485" height="1.245" transform="translate(82.722 245.368) rotate(-57.744)"/><path class="cls-2" d="M224.517,118.6a16.112,16.112,0,0,1-7.794-12.837s.153-5.7,2.191-8.2"/><path class="cls-3" d="M44.918,51.683,65,49.437s15.469-3.986,16.186-4.246,10.391-4.776,10.391-4.776l6.88-5.131,4.718-6.06,2.646-4.943V19.8l93.954-.411,3.115,9.508,3.493,4.949,7.6,6.153,8.169,4.077,6.89,2.428,8.768,2.247,7.665,1.4,9.048,1.534h6.809l-.385,15.655S259.33,87,259.336,86.938s-1.931,13.918-1.931,13.918l-1.759,9.774-4.793,21.917-11.614,33.145-6.772,14.9s-14.545,28.714-15.438,29.312S205,227.232,205,227.232l-11.243,15.686-12.35,13.5L166.9,271.172l-9.7,8.633-4.08,3.254-11.774-10.033s-11.208-10.973-11.611-11.393-8.3-9-8.88-9.666-7.265-8.576-7.265-8.576l-8.652-11.1-7.613-10.7-7.907-12.22-7.182-12.318L73.215,179.4,67.05,165.376l-5.995-15.932-5.643-18.323-3.6-14.672L48.376,97.9,46.1,78.889l-.908-14.045Z"/><path class="cls-1" d="M114.3,33.246l-2.447,5.095-4.787,5.928-5.4,4.361-6.623,4.178-9.271,4.075-7.743,1.834-9.577,2.139L58.46,62.045l3.574,3.8,6.928-.715,15.115-3.088s5.261-1.9,5.669-2,8.659-4.279,8.659-4.279l6.647-4.079,6.9-5.6,1.833-3.769,3.033-3.973.431-1.529Z"/><polygon class="cls-1" points="114.74 32.296 191.762 32.431 188.095 36.778 116.065 36.812 114.74 32.296"/><path class="cls-4" d="M61.524,64.931l.306,4.585,1.63,19.742s1.63,9.8,1.63,10.619,2.445,15.078,2.445,15.078,4.144,14.627,4.212,15.464,5.289,15.3,5.289,15.3l5.985,16.169,3.261,7.132,9.441,19.154,3.667,5.977,8.149,13.256,7.745,11.4,7.588,9.848,7.49,9.781,9.781,9.916,6.452,7.064L153.37,261l-.254,3.521s-7.2-5.841-7.4-6.044l-11.546-11.515L121.4,231.711l-14.875-19.086-11.071-17.9-10.6-19.052L76.841,157.27l-6.86-18.2L65.5,122.019l-3.736-17.931S58.434,84.6,58.638,84.255s-.178-14.739-.178-14.739V62.045Z"/><path class="cls-5" d="M191.243,33.047l5.376,8.35,8.048,7.743s5.909,3.362,6.419,3.566,12.3,4.958,12.467,4.924,14.328,3.226,14.328,3.226l9.78,1.732s-2.858,3.26-3.263,3.057-13.445-1.325-13.445-1.325l-9.781-2.852-7.437-1.936-6.521-3.362s-7.437-5.4-7.844-5.706-6.725-6.8-6.725-6.8l-2.462-4.054-1.6-2.8Z"/><path class="cls-6" d="M40.3,43.638s7.607.224,8.013.222,14.244-.985,14.244-.985,14.764-3.565,14.9-3.618S86.341,35,86.341,35l6.822-5.254,4.574-5.463,3.426-6.883.91-2.626,3.842,5.977-1.678,5.875-3.678,6.423L96.41,36.812l-4.831,3.6L81.188,45.191l-5.667,1.518L67.069,48.9l-8.431,1.246L47.627,51.38l-2.709.3L39.936,44.4l-.52-.76"/><path class="cls-3" d="M102.65,13.685H204.175l-4.4,5.706-93.954.411Z"/><path class="cls-7" d="M44.516,51.1l.64,12.173.482,9.747.652,9.338,1.43,10.071s1.63,10.086,1.587,10.5,2.5,13.524,2.5,13.524l2.459,10.023,2.6,9.391s4.483,13.8,4.483,14.479,4.305,11.341,4.305,11.341l4.7,11.22s7.427,14.907,7.227,15.055,4.647,9.1,4.647,9.1l5.176,9.006,5.152,7.72,5.428,8.749,8.466,11.76,6.426,8.194,10.682,12.45,6.169,6.7,7.07,6.945,5.447,5.279,8.114,6.856,2.754,2.346.008,5.3-7.392-5.3s-8.019-6.165-9.8-7.635-11.421-9.9-11.421-9.9l-8.229-7.912-9.024-9.56L96.949,235.783,88.09,223.816l-6.633-10.033L75.38,203.588,68.826,191.71l-4.794-10.651-3.86-9.1-3.334-8.682L53.077,152.29,48.6,136.819l-3.68-13.781-1.7-11.174-1.8-11.788-1.1-9.37s-.881-10.271-.9-10.493-.472-8.931-.472-8.931l-.2-7.437V57.851l.675-14.213Z"/><path class="cls-8" d="M261.33,51.683l5.063-8.022.863,9.69-.031,7.338.031,11.544s-1.318,11.534-1.384,12.22-.992,8.958-.992,8.958l-1.019,7.433-2.531,15.809-3,12.467-3.2,12.083-3.775,12.206-4.72,13.152-2.224,6.342-3.964,8.451s-2.848,6.109-3.033,6.492-4.023,8.274-4.023,8.274l-4.1,7.269L217.029,223.1l-4.242,6.012s-5.74,7.606-6.029,7.972-7.388,9.877-7.388,9.877l-3.853,3.469-6.957,7.426-9.148,8.946-9.924,8.794-11.972,9.53-4.392,3.235-.008-5.3,3.871-2.581,3.417-3.411L170.635,266.8l6.292-5.593,6.39-6.877,6.39-7.371,6.438-7.911,4.69-6.113,4.6-6.316,6.324-9.26,7.17-11.456s4.075-7.2,4.347-7.607,5.331-9.875,5.331-9.875l3.363-6.845s7.839-17.513,8.112-18.293,4.49-12.056,4.49-12.056l4.446-13.445,4.958-18.274,3.29-17.817,2.068-14.751,1.273-15.511.721-11.963Z"/><path class="cls-9" d="M266.47,44.534l-9.1-.679s-10.892-.628-11.361-.684-12.651-2.433-12.651-2.433l-9.03-3.35-6.625-2.834-5.915-6.128L208.069,23.6l-3.894-8.962-3.77,4.755,1.715,7.888,2.752,4.425,4.006,4.395s5.492,4.1,5.926,4.313l7.346,3.666,8.987,2.966s9.012,2.135,9.952,2.306,12.21,1.828,12.21,1.828l8.031.505Z"/><path class="cls-10" d="M153,176.563,153.37,261l-6.775-5.58-6.452-7.064-2.993-2.92-8.18-9.747-7.234-9.067-8.15-10.8-7.234-10.188-4.881-8.093-8.363-13.913s-4.018-8.905-4.156-9.186-5.829-11.156-5.829-11.156l-6.087-16.509,31.049-1.456,3.183,6.912L117,160.8s6.672,5.574,6.929,5.69,4.638,3.683,5.046,3.784,6.316,2.446,6.316,2.446l7.132,2.852s7.743,1.061,8.049.989S153,176.563,153,176.563Z"/><path class="cls-11" d="M198.661,145.707l30.926.012,1.851-5.4,5.526-19.459,4.692-23.133L243.79,81.64l.608-16s-8.043-.846-8.346-.874-10.7-1.877-10.7-1.877l-11.614-3.362s-7.641-4.585-8.049-4.891-7.025-5.051-7.025-5.051l-6.016-5.929-4.058-6.849H153.251l-.135,42.077,12.531.917s9.679,4.381,10.086,4.585,11,7.233,11,7.233l5.026,5.969s5.087,8.01,5.278,8.356,3.247,7.478,3.247,7.478l1.731,9.78v6.113l-.352,4.992-1.074,4.381Z"/><circle class="cls-12" cx="195.009" cy="26.033" r="2.364"/><path class="cls-13" d="M107.286,145.316l2.989,4.973s3.546,5.968,3.8,6.249,5.434,6.045,5.434,6.045l7.811,6.181,5.809,3.107s7.843,2.734,8.318,2.938,5.091,1.69,5.706,1.58,9.169.006,9.169.006,6.113-.7,6.452-.771,11.139-3.736,11.139-3.736l8.355-4.89s2.988-2.377,3.192-2.513,6.792-7.2,6.792-7.2l4.958-7.539S200,142,200.066,141.8s1.9-10.256,1.9-10.256l-.3-10.33L200,113.205l-3.532-8.966-6.113-8.015-6.313-6.386-7.271-5.228-9.373-3.6-8.83-2.121-10.052.355-8.965,1.97-8.9,3.192-8.966,5.841-6.452,6.793-3.464,5.026-3.26,6.86-2.853,9.033-.789,7.607-.247,6.045s1.147,7.134,1.3,7.235,2.17,5.806,2.17,5.806Z"/><rect class="cls-1" x="41.545" y="42.788" width="1.245" height="9.746" transform="matrix(0.825, -0.565, 0.565, 0.825, -19.544, 32.125)"/><path class="cls-1" d="M153.338,283.681h-.411l-.182-.122c-.272-.2-27.459-20.583-54.266-59.181a305.27,305.27,0,0,1-37.272-72.6A299.886,299.886,0,0,1,44.3,51.682v-.608l.608-.014c.593-.013,59.329-1.661,60.317-31.69l.019-.6h95.768l.019.6c.988,30.029,59.724,31.677,60.317,31.69l.608.014v.608a299.886,299.886,0,0,1-16.912,100.094,305.27,305.27,0,0,1-37.272,72.6c-26.807,38.6-53.994,58.98-54.266,59.181Zm-107.8-231.4A300.269,300.269,0,0,0,99.474,223.628c25.011,36.025,50.339,56.105,53.65,58.655,3.311-2.55,28.639-22.63,53.65-58.655A300.269,300.269,0,0,0,260.707,52.284a140.774,140.774,0,0,1-29.624-4.533c-19.738-5.491-30.535-15.074-31.273-27.738H106.438C105.7,32.677,94.9,42.26,75.165,47.751A140.774,140.774,0,0,1,45.541,52.284Z"/><path class="cls-1" d="M153.128,265.855l0,0,0,0-.158-.143a.633.633,0,0,1-.386-.2.654.654,0,0,1-.147-.282l-2.08-1.894a299.1,299.1,0,0,1-56.973-70.576,272.424,272.424,0,0,1-27.014-64.844C56,89.614,58,62.268,58.017,62l.041-.524.524-.047c26.2-2.363,39.839-10.168,46.669-16.3,7.365-6.613,8.594-12.747,8.606-12.808l.1-.507H192.3l.1.508c.012.061,1.241,6.2,8.606,12.808,6.83,6.132,20.47,13.937,46.669,16.3l.524.047.041.524c.021.272,2.015,27.618-8.346,65.916a272.417,272.417,0,0,1-27.014,64.843A299.053,299.053,0,0,1,155.9,263.329l-2.082,1.9a.666.666,0,0,1-.147.283.638.638,0,0,1-.386.2ZM59.226,62.616c-.218,3.948-1.178,29.822,8.354,65.025C77.1,162.8,99.333,214.72,151.191,262.413l1.933,1.761,1.936-1.763c51.855-47.691,74.089-99.612,83.608-134.77,9.532-35.2,8.572-61.077,8.354-65.025-26.277-2.459-40.031-10.4-46.949-16.648-6.477-5.851-8.341-11.257-8.786-12.914H114.961c-.445,1.657-2.309,7.063-8.786,12.914C99.257,52.217,85.5,60.157,59.226,62.616Z"/><path class="cls-1" d="M153.132,289.119l-.362-.25a256.154,256.154,0,0,1-72.876-76.418,276.623,276.623,0,0,1-33.058-80.08C34.8,82.916,38.756,43.96,38.8,43.572l.063-.588.59.033c30.392,1.668,45.635-6.43,53.07-13.517,8.021-7.646,8.925-15.795,8.934-15.877l.056-.56H204.738l.056.56c.009.082.913,8.231,8.934,15.877,7.435,7.087,22.678,15.184,53.07,13.517l.6-.033.054.6c.034.383,3.275,38.893-9.117,88.124a288.289,288.289,0,0,1-33.19,79.989,264.975,264.975,0,0,1-71.657,77.166ZM39.981,44.292c-.443,5.048-3.116,41.88,8.075,87.829C59.1,177.47,86.289,241.213,153.117,287.594c65.353-47.3,92.629-111,104-156.147,11.508-45.693,9.5-82.095,9.141-87.155-30.5,1.555-45.9-6.716-53.458-13.958-7.18-6.881-8.828-13.993-9.165-16.026H102.614c-.337,2.033-1.985,9.145-9.165,16.026-6.93,6.64-20.461,14.147-46.18,14.148C44.939,44.483,42.515,44.421,39.981,44.292Z"/><rect class="cls-1" x="103.326" y="13.156" width="1.245" height="7.175" transform="translate(6.576 56.797) rotate(-31.51)"/><rect class="cls-1" x="152.497" y="283.059" width="1.245" height="5.298" transform="translate(-0.459 0.246) rotate(-0.092)"/><rect class="cls-1" x="198.871" y="15.915" width="6.838" height="1.245" transform="matrix(0.551, -0.834, 0.834, 0.551, 76.978, 176.199)"/><path class="cls-1" d="M153.124,262.019l-.4-.337c-.223-.187-22.488-19.076-44.772-52.524a288.548,288.548,0,0,1-31.325-61.684A256.676,256.676,0,0,1,61.208,65.658l-.014-.636h.636c.4,0,40.553-.339,55.279-28.5l.175-.334h71.68l.175.334c14.733,28.172,54.875,28.5,55.279,28.5h.636l-.014.636a256.676,256.676,0,0,1-15.419,81.816A288.548,288.548,0,0,1,198.3,209.158c-22.284,33.448-44.549,52.337-44.771,52.524ZM62.467,66.255c1.516,62.061,26.1,111.553,46.5,142.177,20.544,30.846,41.059,49.248,44.159,51.951,3.1-2.7,23.615-21.1,44.159-51.951,20.4-30.624,44.982-80.116,46.5-142.177a89.824,89.824,0,0,1-21.8-3.618c-11.048-3.3-25.833-10.344-33.767-25.2H118.036c-7.934,14.858-22.719,21.9-33.767,25.2A89.824,89.824,0,0,1,62.467,66.255Z"/><rect class="cls-1" x="243.608" y="63.222" width="4.811" height="1.245" transform="translate(35.008 205.533) rotate(-48.429)"/><rect class="cls-1" x="187.473" y="33.999" width="5.42" height="1.245" transform="translate(50.208 167.946) rotate(-53.923)"/><rect class="cls-1" x="115.442" y="31.912" width="1.245" height="5.421" transform="translate(1.874 74.997) rotate(-36.082)"/><rect class="cls-1" x="59.611" y="61.439" width="1.245" height="4.811" transform="translate(-27.193 56.043) rotate(-41.568)"/><path class="cls-1" d="M56.736,55.253c4.148-.64,8.272-1.093,12.367-1.727,2.05-.292,4.089-.642,6.108-1.066a37.149,37.149,0,0,0,5.977-1.69A19.422,19.422,0,0,1,75.453,53.4c-1.005.335-2.037.543-3.06.8-1.032.2-2.066.4-3.105.557a59.913,59.913,0,0,1-6.264.6A46.807,46.807,0,0,1,56.736,55.253Z"/><path class="cls-1" d="M91.579,46.083a95.808,95.808,0,0,0,8.407-6.13l.983-.834c.328-.277.625-.587.947-.871s.636-.578.932-.888.616-.6.909-.913a42.527,42.527,0,0,0,3.308-4.016,17.048,17.048,0,0,1-2.569,4.647,25.8,25.8,0,0,1-3.711,3.83,31.372,31.372,0,0,1-4.37,3.023A23.909,23.909,0,0,1,91.579,46.083Z"/><path class="cls-1" d="M117.661,21.938a17.242,17.242,0,0,1,6.52,0,15.19,15.19,0,0,1-3.26.311A15.4,15.4,0,0,1,117.661,21.938Z"/><polygon class="cls-1" points="121.198 21.933 120.956 26.624 120.575 21.943 121.198 21.933"/><path class="cls-1" d="M102.651,35.284a10.252,10.252,0,0,1,2.524-.095l.216.014.057.221a13.9,13.9,0,0,1,.285,1.435,7.989,7.989,0,0,1,.09,1.482,8.09,8.09,0,0,1-.584-1.365,13.626,13.626,0,0,1-.388-1.41l.272.234A10.245,10.245,0,0,1,102.651,35.284Z"/><path class="cls-1" d="M153.37,177.012a49.373,49.373,0,1,1,49.373-49.373A49.428,49.428,0,0,1,153.37,177.012Zm0-97.5A48.128,48.128,0,1,0,201.5,127.639,48.182,48.182,0,0,0,153.37,79.512Z"/><rect class="cls-1" x="198.656" y="145.097" width="30.643" height="1.245"/><rect class="cls-1" x="77.027" y="145.622" width="31.067" height="1.245" transform="translate(-4.89 3.212) rotate(-1.937)"/><polygon class="cls-1" points="153.747 265.016 152.502 265.016 152.502 261.205 152.748 176.388 153.993 176.391 153.747 261.207 153.747 265.016"/><path class="cls-1" d="M49.808,65.645c.262,1.4.42,2.79.548,4.183s.217,2.783.3,4.173c.062,1.391.135,2.778.172,4.168.053,1.393.082,2.771.2,4.184a15.071,15.071,0,0,1-1.169-4.086,39.413,39.413,0,0,1-.448-4.2c-.06-1.4-.087-2.809-.026-4.214A30.385,30.385,0,0,1,49.808,65.645Z"/><path class="cls-1" d="M52.185,75.833a5.307,5.307,0,0,1,.641,1.361,7.235,7.235,0,0,1,.287,1.354,6.874,6.874,0,0,1,.019,1.369,4.743,4.743,0,0,1-.335,1.417A4.718,4.718,0,0,1,52.156,80a7.224,7.224,0,0,1-.286-1.382,7.088,7.088,0,0,1-.019-1.4A4.35,4.35,0,0,1,52.185,75.833Z"/><path class="cls-1" d="M53.815,101.982a35.9,35.9,0,0,1,1.068,3.569q.453,1.792.819,3.595c.25,1.2.464,2.408.664,3.621s.389,2.427.506,3.682A19.463,19.463,0,0,1,55.422,113a33.943,33.943,0,0,1-.94-3.6,37.034,37.034,0,0,1-.553-3.676A23.481,23.481,0,0,1,53.815,101.982Z"/><path class="cls-1" d="M53.272,110.88a3.53,3.53,0,0,1,.893-.871,4.957,4.957,0,0,1,1.021-.541,4.815,4.815,0,0,1,1.118-.292,3.482,3.482,0,0,1,1.247.04,3.5,3.5,0,0,1-.892.872,4.887,4.887,0,0,1-1.022.54,5,5,0,0,1-1.118.291A3.549,3.549,0,0,1,53.272,110.88Z"/><path class="cls-1" d="M63.46,132.207a27.632,27.632,0,0,1,1.794,3.72c.529,1.263.988,2.55,1.436,3.839.427,1.3.84,2.6,1.193,3.918s.678,2.646.943,4.009A25.268,25.268,0,0,1,66.965,144c-.542-1.26-1.006-2.547-1.454-3.838-.425-1.3-.834-2.6-1.175-3.929S63.7,133.571,63.46,132.207Z"/><path class="cls-1" d="M61.83,139.067A3.674,3.674,0,0,1,62.7,140a5.143,5.143,0,0,1,.534,1.057,5.084,5.084,0,0,1,.283,1.149,3.645,3.645,0,0,1-.052,1.274,3.679,3.679,0,0,1-.867-.934,5.244,5.244,0,0,1-.813-2.208A3.685,3.685,0,0,1,61.83,139.067Z"/><path class="cls-1" d="M71.747,171.533a2.312,2.312,0,0,1,.108-.835,8.13,8.13,0,0,1,.25-.774,10.478,10.478,0,0,1,.692-1.435l.119-.207.288-.064a13.186,13.186,0,0,1,2.153-.3,8.485,8.485,0,0,1,2.231.149,8.447,8.447,0,0,1-2.049.9,13.271,13.271,0,0,1-2.126.45l.408-.272a14.273,14.273,0,0,1-.964,1.233c-.181.195-.351.394-.544.58S71.917,171.32,71.747,171.533Z"/><path class="cls-1" d="M74.327,172.484a2.532,2.532,0,0,1,1,.717,4.535,4.535,0,0,1,1.039,1.976,3.279,3.279,0,0,1,.068,1.212,3.371,3.371,0,0,1-.939-.765,4.685,4.685,0,0,1-.627-.921,4.83,4.83,0,0,1-.4-1.036A5.1,5.1,0,0,1,74.327,172.484Z"/><path class="cls-1" d="M77.588,171.193a3.366,3.366,0,0,1,.643.406,1.61,1.61,0,0,1,.376.5,1.577,1.577,0,0,1,.153.619,1.735,1.735,0,0,1-.153.783,1.623,1.623,0,0,1-.724-.348,1.537,1.537,0,0,1-.4-.521,1.578,1.578,0,0,1-.148-.649A1.156,1.156,0,0,1,77.588,171.193Z"/><path class="cls-1" d="M85.942,190.619a15.054,15.054,0,0,1,1.884,1.809,22.562,22.562,0,0,1,1.56,1.946A23.07,23.07,0,0,1,90.76,196.5a13.429,13.429,0,0,1,1.091,2.334,13.475,13.475,0,0,1-1.878-1.764,23.083,23.083,0,0,1-1.6-1.97A23.748,23.748,0,0,1,87,192.93,12.817,12.817,0,0,1,85.942,190.619Z"/><path class="cls-1" d="M88.874,194.728a2.273,2.273,0,0,1-.5.827,2.676,2.676,0,0,1-.668.518,2.634,2.634,0,0,1-.8.282,2.255,2.255,0,0,1-.967-.031,2.246,2.246,0,0,1,.5-.829,2.657,2.657,0,0,1,1.467-.8A2.263,2.263,0,0,1,88.874,194.728Z"/><path class="cls-1" d="M97.828,216.9a15.094,15.094,0,0,1,1.97,1.871,26.111,26.111,0,0,1,1.691,2.074,25.721,25.721,0,0,1,1.469,2.237,15.053,15.053,0,0,1,1.187,2.444,14.963,14.963,0,0,1-1.971-1.869,25.52,25.52,0,0,1-1.69-2.076,25.967,25.967,0,0,1-1.467-2.239A15.041,15.041,0,0,1,97.828,216.9Z"/><path class="cls-1" d="M109.782,224.579a4.845,4.845,0,0,1,1.308.686,7.346,7.346,0,0,1,1.9,2.036,4.8,4.8,0,0,1,.593,1.353,4.762,4.762,0,0,1-1.309-.684,7.1,7.1,0,0,1-1.048-.929,7.266,7.266,0,0,1-.853-1.11A4.869,4.869,0,0,1,109.782,224.579Z"/><path class="cls-1" d="M142.248,265.092a5.373,5.373,0,0,1,1.493.979,10.126,10.126,0,0,1,1.185,1.241,10.644,10.644,0,0,1,.974,1.411,6.715,6.715,0,0,1,.695,1.635,6.826,6.826,0,0,1-1.456-1.018,10.678,10.678,0,0,1-1.177-1.241A10.135,10.135,0,0,1,142.248,265.092Z"/><path class="cls-1" d="M142.248,268.116a1.409,1.409,0,0,1,.038-.691,1.017,1.017,0,0,1,.275-.43.99.99,0,0,1,.454-.231.49.49,0,1,1,.656.727.979.979,0,0,1-.276.428,1.007,1.007,0,0,1-.455.23A1.408,1.408,0,0,1,142.248,268.116Z"/><path class="cls-1" d="M162.624,270.358a3.4,3.4,0,0,1,.308-1.185,4.862,4.862,0,0,1,1.394-1.785,3.426,3.426,0,0,1,1.083-.59,3.436,3.436,0,0,1-.309,1.19,4.681,4.681,0,0,1-.59.969,4.77,4.77,0,0,1-.8.806A3.522,3.522,0,0,1,162.624,270.358Z"/><path class="cls-1" d="M174.579,254.328a11.879,11.879,0,0,1,1.162-2.054,19.986,19.986,0,0,1,3.055-3.465,11.685,11.685,0,0,1,1.9-1.409,11.628,11.628,0,0,1-1.161,2.056,19.29,19.29,0,0,1-1.428,1.82,19.882,19.882,0,0,1-1.629,1.643A11.869,11.869,0,0,1,174.579,254.328Z"/><path class="cls-1" d="M175.8,249.778a2.82,2.82,0,0,1,1.1.558,4.692,4.692,0,0,1,1.386,1.782,3.353,3.353,0,0,1,.3,1.192,3.454,3.454,0,0,1-1.072-.6,4.781,4.781,0,0,1-.79-.807A4.5,4.5,0,0,1,175.8,249.778Z"/><path class="cls-1" d="M197.468,232.933a44.029,44.029,0,0,1,2.513-4.361c.892-1.414,1.841-2.787,2.792-4.156.973-1.355,1.95-2.7,2.969-4.025,1-1.335,2.072-2.608,3.068-3.962a24.208,24.208,0,0,1-2.265,4.509c-.861,1.44-1.8,2.825-2.755,4.2-.975,1.359-1.968,2.7-3.023,4S198.624,231.707,197.468,232.933Z"/><path class="cls-1" d="M197.468,230.081a24.478,24.478,0,0,1,1.542-2.884c.56-.922,1.137-1.827,1.739-2.713s1.217-1.759,1.838-2.629,1.253-1.728,1.877-2.642a10.38,10.38,0,0,1-1.04,3.135,22.114,22.114,0,0,1-1.644,2.833,27.5,27.5,0,0,1-1.987,2.586A19.93,19.93,0,0,1,197.468,230.081Z"/><path class="cls-1" d="M213.293,203.252a8.448,8.448,0,0,1,.478-1.956,15.537,15.537,0,0,1,1.882-3.6,9.127,9.127,0,0,1,1.376-1.572,9.136,9.136,0,0,1-.492,1.994,14.183,14.183,0,0,1-.8,1.817,14.882,14.882,0,0,1-1.05,1.711A10.43,10.43,0,0,1,213.293,203.252Z"/><path class="cls-1" d="M213.293,199.313a3.445,3.445,0,0,1,1.388.235,5.948,5.948,0,0,1,1.184.59,6.043,6.043,0,0,1,1.026.828,4.174,4.174,0,0,1,.817,1.131,4.389,4.389,0,0,1-1.356-.314,6.5,6.5,0,0,1-1.162-.6,6.89,6.89,0,0,1-1.021-.806A5.879,5.879,0,0,1,213.293,199.313Z"/><path class="cls-1" d="M230.613,177.646a22.635,22.635,0,0,1,.954-3.193q.572-1.552,1.267-3.047c.461-1,.97-1.973,1.516-2.931a22.292,22.292,0,0,1,1.833-2.783,22.511,22.511,0,0,1-.952,3.194c-.383,1.034-.8,2.051-1.269,3.046s-.971,1.972-1.518,2.93A22.512,22.512,0,0,1,230.613,177.646Z"/><polygon class="cls-1" points="231.668 174.386 228.609 171.963 232.275 173.299 231.668 174.386"/><path class="cls-1" d="M239.239,146.334a28.721,28.721,0,0,1,.761-3.1c.3-1.012.618-2.01.957-3s.7-1.971,1.064-2.953.735-1.961,1.157-2.964a12.318,12.318,0,0,1-.22,3.222,21.856,21.856,0,0,1-.824,3.1,24.609,24.609,0,0,1-1.233,2.949A16.429,16.429,0,0,1,239.239,146.334Z"/><path class="cls-1" d="M249.02,111.491a11.643,11.643,0,0,1,2.648-.538l-.53.449a18.321,18.321,0,0,1,.473-3.029,14.14,14.14,0,0,1,.44-1.48,9.15,9.15,0,0,1,.636-1.447,9.134,9.134,0,0,1,.128,1.576,14.359,14.359,0,0,1-.07,1.542,18.536,18.536,0,0,1-.545,3.017l-.133.491-.4-.042A11.645,11.645,0,0,1,249.02,111.491Z"/><path class="cls-1" d="M226.809,53.351c1,.359,1.959.746,2.908,1.135l2.837,1.133c.942.374,1.891.716,2.849,1.056s1.936.615,2.953.955a9.776,9.776,0,0,1-3.184-.012,14.634,14.634,0,0,1-3.071-.839,16.942,16.942,0,0,1-2.828-1.432A12,12,0,0,1,226.809,53.351Z"/><polygon class="cls-1" points="45.426 43.279 49.095 49.547 44.409 43.998 45.426 43.279"/><polygon class="cls-1" points="46.799 43.371 50.467 49.639 45.782 44.09 46.799 43.371"/><polygon class="cls-1" points="49.753 43.303 53.422 49.571 48.737 44.022 49.753 43.303"/><polygon class="cls-1" points="48.228 43.279 51.897 49.547 47.211 43.998 48.228 43.279"/><polygon class="cls-1" points="51.405 43.545 54.303 48.724 50.388 44.264 51.405 43.545"/><polygon class="cls-1" points="53.068 43.303 56.137 48.724 52.051 44.022 53.068 43.303"/><polygon class="cls-1" points="55.586 43.039 58.355 48.034 54.57 43.758 55.586 43.039"/><polygon class="cls-1" points="58.162 42.77 60.75 47.511 57.145 43.488 58.162 42.77"/><polygon class="cls-1" points="61.815 42.604 63.965 46.724 60.798 43.323 61.815 42.604"/><polygon class="cls-1" points="64.836 41.837 66.902 45.838 63.819 42.556 64.836 41.837"/><polygon class="cls-1" points="42.936 43.634 46.605 49.902 41.92 44.352 42.936 43.634"/><polygon class="cls-1" points="44.058 43.41 47.726 49.679 43.041 44.129 44.058 43.41"/><polygon class="cls-1" points="41.493 43.634 45.557 50.463 40.476 44.352 41.493 43.634"/><rect class="cls-1" x="152.502" y="36.812" width="1.245" height="42.077"/><circle class="cls-14" cx="111.467" cy="25.931" r="2.364"/><circle class="cls-15" cx="87.117" cy="48.454" r="2.364"/><circle class="cls-16" cx="52.342" cy="58.285" r="2.364"/><circle class="cls-17" cx="53.383" cy="92.976" r="2.364"/><circle class="cls-18" cx="59.741" cy="125.17" r="2.364"/><circle class="cls-19" cx="70.133" cy="156.142" r="2.364"/><circle class="cls-20" cx="81.815" cy="183.038" r="2.364"/><circle class="cls-21" cx="96.513" cy="208.712" r="2.364"/><circle class="cls-22" cx="114.767" cy="233.851" r="2.364"/><circle class="cls-23" cx="132.359" cy="254.328" r="2.364"/><circle class="cls-24" cx="195.009" cy="26.033" r="2.364"/><circle class="cls-25" cx="152.999" cy="25.931" r="2.364"/><circle class="cls-26" cx="219.359" cy="48.555" r="2.364"/><circle class="cls-27" cx="254.134" cy="58.387" r="2.364"/><circle class="cls-28" cx="252.687" cy="92.202" r="2.364"/><circle class="cls-29" cx="245.827" cy="125.071" r="2.364"/><circle class="cls-30" cx="236.343" cy="156.243" r="2.364"/><circle class="cls-31" cx="224.66" cy="183.14" r="2.364"/><circle class="cls-32" cx="209.963" cy="208.814" r="2.364"/><circle class="cls-33" cx="191.708" cy="233.952" r="2.364"/><circle class="cls-34" cx="174.117" cy="254.43" r="2.364"/><circle class="cls-35" cx="152.999" cy="274.075" r="2.364"/><polygon class="cls-1" points="103.914 13.327 106.308 17.811 102.896 14.044 103.914 13.327"/><polygon class="cls-1" points="105.21 13.327 107.605 17.811 104.192 14.044 105.21 13.327"/><polygon class="cls-1" points="106.484 13.327 108.878 17.811 105.465 14.044 106.484 13.327"/><polygon class="cls-1" points="107.74 13.327 110.135 17.811 106.722 14.044 107.74 13.327"/><polygon class="cls-1" points="109.192 13.396 111.587 17.881 108.174 14.113 109.192 13.396"/><polygon class="cls-1" points="111.077 13.396 113.472 17.881 110.059 14.113 111.077 13.396"/><polygon class="cls-1" points="112.965 13.327 115.359 17.811 111.946 14.044 112.965 13.327"/><polygon class="cls-1" points="115.315 13.176 117.592 17.494 114.297 13.893 115.315 13.176"/><polygon class="cls-1" points="118.4 13.41 119.613 16.216 117.381 14.127 118.4 13.41"/><polygon class="cls-1" points="121.511 13.176 122.609 15.818 120.493 13.893 121.511 13.176"/><polygon class="cls-36" points="154.063 152.558 113.568 112.063 124.679 100.953 154.51 130.784 214.548 70.746 225.658 81.856 154.54 152.973 154.537 152.97 154.527 152.982 154.063 152.558"/><path class="cls-1" d="M214.547,71.627l10.23,10.229L154.529,152.1l-.006-.006-.02.02-40.054-40.055,10.229-10.23,29.831,29.831,60.038-60.037m0-1.762-.88.881L154.509,129.9l-28.95-28.95-.881-.881-.88.881-10.23,10.23-.881.88.881.881L153.623,153l.886.886.428-.433.473-.467,70.247-70.247.881-.881-.881-.88-10.229-10.23-.881-.881Z"/></g></svg>