<svg xmlns="http://www.w3.org/2000/svg" xmlns:xlink="http://www.w3.org/1999/xlink" width="357" height="149" viewBox="0 0 357 149"><defs><clipPath id="b"><rect width="357" height="149"/></clipPath></defs><g id="a" clip-path="url(#b)"><g transform="translate(-7144 -6419)"><g transform="translate(-345 351)"><g transform="translate(7191 5582)"><text transform="translate(428 589)" fill="#aae5f2" stroke="#aae5f2" stroke-width="1" font-size="45" font-family="Lato-Bold, Lato" font-weight="700"><tspan x="0" y="0">3</tspan></text><g transform="translate(410 541)" fill="none" stroke="#aae5f2" stroke-width="3"><rect width="61" height="61" rx="8" stroke="none"/><rect x="1.5" y="1.5" width="58" height="58" rx="6.5" fill="none"/></g></g><text transform="translate(7550 6144)" fill="#aae5f2" font-size="25" font-family="Lato-Regular, Lato"><tspan x="-27.65" y="0">AVG.</tspan><tspan x="-27.025" y="20">RISK</tspan><tspan x="-40.475" y="40">SCORE</tspan></text></g><g transform="translate(7147 6443)" fill="none" stroke="#aae5f2" stroke-width="3"><rect width="197" height="124" stroke="none"/><rect x="1.5" y="1.5" width="194" height="121" fill="none"/></g></g><g transform="translate(-7345 -6420.5)"><path d="M197.556,122.5H42.016V24H3.556V1.5h194v121Z" transform="translate(7501.444 6422)" fill="none" stroke="#aae5f2" stroke-width="3"/><g transform="translate(7559.645 6443.404)"><text transform="translate(85 47.595)" fill="#aae5f2" font-size="15" font-family="Lato-Regular, Lato"><tspan x="-85.41" y="0">Performance</tspan></text><text transform="translate(10 77.595)" fill="#aae5f2" font-size="20" font-family="Lato-Regular, Lato"><tspan x="0" y="0">64.56%</tspan></text><path d="M34.875,27H4.5V5.625A1.125,1.125,0,0,0,3.375,4.5H1.125A1.125,1.125,0,0,0,0,5.625V29.25A2.25,2.25,0,0,0,2.25,31.5H34.875A1.125,1.125,0,0,0,36,30.375v-2.25A1.125,1.125,0,0,0,34.875,27ZM32.625,6.75h-8.3a1.687,1.687,0,0,0-1.193,2.881l2.278,2.278-5.159,5.16L15.091,11.91a2.249,2.249,0,0,0-3.182,0l-4.83,4.83a1.125,1.125,0,0,0,0,1.591l1.59,1.59a1.125,1.125,0,0,0,1.591,0L13.5,16.682l5.159,5.159a2.249,2.249,0,0,0,3.182,0l6.75-6.75,2.278,2.278a1.687,1.687,0,0,0,2.881-1.193v-8.3A1.124,1.124,0,0,0,32.625,6.75Z" transform="translate(24.877 -4.5)" fill="#aae5f2"/></g></g></g></svg>