<svg id="Capa_1" data-name="Capa 1" xmlns="http://www.w3.org/2000/svg" viewBox="0 0 22 22"><defs><style>.cls-1{fill:#f3f3f3;}</style></defs><path class="cls-1" d="M19.552,11.561a2.343,2.343,0,0,0,0,.265,11.106,11.106,0,0,1-.865,5.278c-.8,2.437-2.8,3.636-5.346,3.94a9.588,9.588,0,0,0-1.533.433c-.079.019-.177.088-.246.068a11.8,11.8,0,0,1-1.572-.432,1.152,1.152,0,0,1,.039-.727c.541-.157,1.268-.482,1.651-.266a2.954,2.954,0,0,0,2.172.207c2.388-.374,4.471-2.536,4.491-4.717,0-.452-.383-.9-.393-1.356a35.081,35.081,0,0,1,.029-5.474,5.956,5.956,0,0,0-.55-3.331c-.138-.3-.541-.5-.826-.737a7.235,7.235,0,0,1-.746-.57,6.428,6.428,0,0,0-9.69.1c-.118.128-.226.324-.363.354A1.373,1.373,0,0,0,4.585,5.635a15.88,15.88,0,0,0-.54,2.772c-.059,1.906.039,3.822.049,5.729,0,.521-.334.894-.826.756a1.2,1.2,0,0,1-.756-.815,26.868,26.868,0,0,1,0-4.953c.471-3.243,1.493-6.26,4.726-7.9A8.182,8.182,0,0,1,19.129,7.11c.255,1.464.383,2.948.57,4.431A.653.653,0,0,1,19.552,11.561Z"/><path class="cls-1" d="M1.843,8.849v5.257a2.576,2.576,0,0,1-1.66-2.348A2.859,2.859,0,0,1,1.843,8.849Z"/><path class="cls-1" d="M20.151,14.214V8.937A2.322,2.322,0,0,1,21.8,10.962,3.005,3.005,0,0,1,20.151,14.214Z"/></svg>