<svg xmlns="http://www.w3.org/2000/svg" viewBox="0 0 142.125 136.527"><defs><style>.cls-1{fill:#6e7ce5;}.cls-2{fill:#6ea1e5;}.cls-3{fill:#6e6ee5;}.cls-4{fill:#5b5bdd;}.cls-5{fill:#2e2eab;}.cls-6{fill:#4646ce;}.cls-7{fill:#6e60e5;}.cls-8{fill:#6e51e5;}.cls-9{fill:#6e6ae5;}.cls-10{fill:#2e40bc;}.cls-11{fill:#2e2ebc;}.cls-12{fill:#4631ce;}.cls-13{fill:#00006b;}</style></defs><g id="Capa_3" data-name="Capa 3"><polygon class="cls-1" points="81.983 8.048 98.019 46.339 65.619 49.611 81.983 8.048"/><path class="cls-2" d="M88.856,72.52c-.655-.981-23.237-22.909-23.237-22.909l32.4-3.272Z"/><polygon class="cls-3" points="50.565 31.284 81.983 8.048 65.619 49.611 50.565 31.284"/><polygon class="cls-4" points="38.129 52.557 65.619 49.611 50.565 31.284 38.129 52.557"/><polygon class="cls-3" points="18.165 25.72 38.129 52.557 50.565 31.284 18.165 25.72"/><polygon class="cls-5" points="31.91 80.702 24.383 59.43 18.165 25.72 38.129 52.557 31.91 80.702"/><polygon class="cls-6" points="65.619 49.611 45.656 85.611 38.129 52.557 65.619 49.611"/><polygon class="cls-4" points="88.856 72.52 45.656 85.611 65.619 49.611 88.856 72.52"/><polygon class="cls-1" points="98.019 46.339 135.329 65.32 88.856 72.52 98.019 46.339"/><polygon class="cls-7" points="102.601 91.393 88.856 72.52 135.329 65.32 102.601 91.393"/><polygon class="cls-6" points="74.129 99.03 88.856 72.52 45.656 85.611 74.129 99.03"/><polygon class="cls-8" points="102.601 91.393 74.129 99.03 88.856 72.52 102.601 91.393"/><polygon class="cls-9" points="98.019 127.175 102.601 91.393 74.129 99.03 98.019 127.175"/><polygon class="cls-10" points="65.619 114.411 74.129 99.03 98.019 127.175 65.619 114.411"/><polygon class="cls-11" points="48.274 103.939 45.656 85.611 74.129 99.03 48.274 103.939"/><polygon class="cls-6" points="40.747 127.175 48.274 103.939 74.129 99.03 65.619 114.411 40.747 127.175"/><polygon class="cls-12" points="32.892 99.03 48.274 103.939 40.747 127.175 32.892 99.03"/><polygon class="cls-13" points="45.656 85.611 31.91 80.702 48.274 103.939 45.656 85.611"/><polygon class="cls-11" points="38.129 52.557 45.656 85.611 31.91 80.702 38.129 52.557"/><polygon class="cls-10" points="24.383 59.43 7.038 82.993 31.91 80.702 24.383 59.43"/><polygon class="cls-12" points="32.892 99.03 31.91 80.702 7.038 82.993 32.892 99.03"/><polygon class="cls-5" points="48.274 103.939 31.91 80.702 32.892 99.03 48.274 103.939"/><polygon class="cls-11" points="18.165 25.72 50.565 31.284 59.892 24.386 18.165 25.72"/><polygon class="cls-6" points="63.796 10.011 49.47 24.719 59.892 24.386 70.79 16.326 63.796 10.011"/><polygon class="cls-4" points="98.019 46.339 109.038 43.83 90.687 28.83 98.019 46.339"/><polygon class="cls-6" points="109.91 23.32 109.038 43.83 90.687 28.83 109.91 23.32"/><polygon class="cls-11" points="88.826 24.386 109.91 23.32 90.687 28.83 88.826 24.386"/><polygon class="cls-4" points="109.038 43.83 135.329 65.32 98.019 46.339 109.038 43.83"/><path class="cls-13" d="M101.365,101.044c.011-.082,33.964-35.724,33.964-35.724L102.6,91.393Z"/><polygon class="cls-11" points="100.995 103.939 116.674 101.044 114.472 87.228 101.365 101.044 100.995 103.939"/><polygon class="cls-11" points="23.473 54.496 19.883 58.473 21.678 63.104 24.383 59.43 23.473 54.496"/><polygon class="cls-13" points="116.674 101.044 101.365 101.044 100.995 103.939 116.674 101.044"/></g></svg>