<svg xmlns="http://www.w3.org/2000/svg" viewBox="0 0 135.052 135.957"><defs><style>.cls-1{fill:#fe99b8;}.cls-2{fill:#fab4cb;}.cls-3{fill:#fa7996;}.cls-4{fill:#fb6076;}.cls-5{fill:#ff838e;}.cls-6{fill:#f74539;}.cls-7{fill:#fc6e72;}.cls-8{fill:#ff8995;}.cls-9{fill:#f394ba;}.cls-10{fill:#ff6697;}.cls-11{fill:#f15761;}.cls-12{fill:#ff6679;}.cls-13{fill:#e0948f;}.cls-14{fill:#f9544c;}.cls-15{fill:#f92a1e;}.cls-16{fill:#fd6b59;}.cls-17{fill:#ff4916;}.cls-18{fill:#b61708;}.cls-19{fill:#e72010;}.cls-20{fill:#fb6a5b;}.cls-21{fill:#fc5534;}.cls-22{fill:#e23411;}.cls-23{fill:#f72920;}.cls-24{fill:#d3153b;}.cls-25{fill:#ff3d7d;}.cls-26{fill:#ff2b81;}.cls-27{fill:#ff4e97;}.cls-28{fill:#ec196e;}.cls-29{fill:#f62475;}.cls-30{fill:#c80737;}.cls-31{fill:#fd3a61;}</style></defs><g id="Capa_3" data-name="Capa 3"><polygon class="cls-1" points="79.051 6.818 95.088 45.109 62.688 48.382 79.051 6.818"/><path class="cls-2" d="M85.924,71.291c-.654-.982-23.236-22.909-23.236-22.909l32.4-3.273Z"/><polygon class="cls-3" points="47.633 30.054 79.051 6.818 62.688 48.382 47.633 30.054"/><polygon class="cls-4" points="35.197 51.327 62.688 48.382 47.633 30.054 35.197 51.327"/><polygon class="cls-5" points="15.233 24.491 35.197 51.327 47.633 30.054 15.233 24.491"/><polygon class="cls-6" points="28.979 79.473 21.451 58.2 15.233 24.491 35.197 51.327 28.979 79.473"/><polygon class="cls-7" points="62.688 48.382 42.724 84.382 35.197 51.327 62.688 48.382"/><polygon class="cls-8" points="85.924 71.291 42.724 84.382 62.688 48.382 85.924 71.291"/><polygon class="cls-9" points="95.088 45.109 132.397 64.091 85.924 71.291 95.088 45.109"/><polygon class="cls-10" points="99.67 90.164 85.924 71.291 132.397 64.091 99.67 90.164"/><polygon class="cls-11" points="71.197 97.8 85.924 71.291 42.724 84.382 71.197 97.8"/><polygon class="cls-12" points="99.67 90.164 71.197 97.8 85.924 71.291 99.67 90.164"/><polygon class="cls-13" points="95.088 125.945 99.67 90.164 71.197 97.8 95.088 125.945"/><polygon class="cls-14" points="62.688 113.182 71.197 97.8 95.088 125.945 62.688 113.182"/><polygon class="cls-15" points="45.342 102.709 42.724 84.382 71.197 97.8 45.342 102.709"/><polygon class="cls-16" points="37.815 125.945 45.342 102.709 71.197 97.8 62.688 113.182 37.815 125.945"/><polygon class="cls-17" points="29.96 97.8 45.342 102.709 37.815 125.945 29.96 97.8"/><polygon class="cls-18" points="42.724 84.382 28.979 79.473 45.342 102.709 42.724 84.382"/><polygon class="cls-19" points="35.197 51.327 42.724 84.382 28.979 79.473 35.197 51.327"/><polygon class="cls-20" points="21.451 58.2 4.106 81.764 28.979 79.473 21.451 58.2"/><polygon class="cls-21" points="29.96 97.8 28.979 79.473 4.106 81.764 29.96 97.8"/><polygon class="cls-22" points="45.342 102.709 28.979 79.473 29.96 97.8 45.342 102.709"/><polygon class="cls-23" points="21.451 58.2 20.304 51.982 15.233 58.2 17.764 63.209 21.451 58.2"/><polygon class="cls-24" points="15.233 24.491 47.633 30.054 56.96 23.156 15.233 24.491"/><polygon class="cls-25" points="60.865 8.782 46.538 23.49 56.96 23.156 67.858 15.096 60.865 8.782"/><polygon class="cls-26" points="95.088 45.109 106.106 42.6 87.755 27.6 95.088 45.109"/><polygon class="cls-27" points="106.979 22.091 106.106 42.6 87.755 27.6 106.979 22.091"/><polygon class="cls-28" points="85.894 23.156 106.979 22.091 87.755 27.6 85.894 23.156"/><polygon class="cls-29" points="106.106 42.6 132.397 64.091 95.088 45.109 106.106 42.6"/><path class="cls-30" d="M98.434,99.815c.01-.083,33.963-35.724,33.963-35.724L99.67,90.164Z"/><polygon class="cls-31" points="98.063 102.709 113.742 99.815 111.54 85.999 98.434 99.815 98.063 102.709"/><polygon class="cls-18" points="113.742 99.815 98.434 99.815 98.063 102.709 113.742 99.815"/></g></svg>