<svg xmlns="http://www.w3.org/2000/svg" viewBox="0 0 113.487 118.473"><defs><style>.cls-1{fill:#85386c;}.cls-2{fill:#d96188;}.cls-3{fill:#6d326b;}.cls-4{fill:#dc7e9f;}.cls-5{fill:#e990b2;}.cls-6{fill:#b85084;}.cls-7{fill:#8d4378;}</style></defs><g id="Capa_12" data-name="Capa 12"><polygon class="cls-1" points="53.345 43.145 76.909 86.782 65.127 104.672 35.455 94.636 17.127 47.945 53.345 43.145"/><path class="cls-2" d="M2.291,51c1.309,0,14.836-3.055,14.836-3.055L35.455,94.636v3.927Z"/><polygon class="cls-3" points="67.2 111.327 65.127 104.672 35.455 94.636 35.455 98.563 67.2 111.327"/><path class="cls-4" d="M17.127,47.945s-2.618-19.091-3.6-18.109S2.291,51,2.291,51Z"/><polygon class="cls-5" points="53.345 43.145 83.564 4.963 47.018 12.491 13.527 29.836 17.127 47.945 53.345 43.145"/><polygon class="cls-6" points="76.909 86.782 99.927 82.854 102.873 46.527 83.564 4.963 53.345 43.145 76.909 86.782"/><polygon class="cls-7" points="67.2 111.327 99.927 82.854 76.909 86.782 65.127 104.672 67.2 111.327"/></g></svg>