<svg xmlns="http://www.w3.org/2000/svg" viewBox="0 0 138.311 129.218"><defs><style>.cls-1{fill:#d681ea;}.cls-2{fill:#f6a1ff;}.cls-3{fill:#d16fe2;}.cls-4{fill:#b65ddb;}.cls-5{fill:#8330aa;}.cls-6{fill:#b248cc;}.cls-7{fill:#a43ece;}.cls-8{fill:#9725af;}.cls-9{fill:#9f30c4;}.cls-10{fill:#8f21aa;}.cls-11{fill:#540068;}.cls-12{fill:#912fba;}.cls-13{fill:#a22fba;}.cls-14{fill:#9821b5;}.cls-15{fill:#761f93;}.cls-16{fill:#7615af;}</style></defs><g id="Capa_3" data-name="Capa 3"><polygon class="cls-1" points="80.869 6.178 96.905 44.469 64.505 47.742 80.869 6.178"/><path class="cls-2" d="M87.742,70.651c-.655-.982-23.237-22.909-23.237-22.909l32.4-3.273Z"/><polygon class="cls-3" points="49.451 29.415 80.869 6.178 64.505 47.742 49.451 29.415"/><polygon class="cls-4" points="37.015 50.687 64.505 47.742 49.451 29.415 37.015 50.687"/><polygon class="cls-3" points="17.051 23.851 37.015 50.687 49.451 29.415 17.051 23.851"/><polygon class="cls-5" points="30.796 78.833 23.269 57.56 17.051 23.851 37.015 50.687 30.796 78.833"/><polygon class="cls-6" points="64.505 47.742 44.542 83.742 37.015 50.687 64.505 47.742"/><polygon class="cls-4" points="87.742 70.651 44.542 83.742 64.505 47.742 87.742 70.651"/><polygon class="cls-1" points="96.905 44.469 134.215 63.451 87.742 70.651 96.905 44.469"/><polygon class="cls-3" points="101.487 89.524 87.742 70.651 134.215 63.451 101.487 89.524"/><polygon class="cls-7" points="73.015 97.16 87.742 70.651 44.542 83.742 73.015 97.16"/><polygon class="cls-3" points="101.487 89.524 73.015 97.16 87.742 70.651 101.487 89.524"/><polygon class="cls-4" points="96.905 125.305 101.487 89.524 73.015 97.16 96.905 125.305"/><polygon class="cls-5" points="64.505 112.542 73.015 97.16 96.905 125.305 64.505 112.542"/><polygon class="cls-8" points="47.16 102.069 44.542 83.742 73.015 97.16 47.16 102.069"/><polygon class="cls-9" points="39.633 125.305 47.16 102.069 73.015 97.16 64.505 112.542 39.633 125.305"/><polygon class="cls-10" points="31.778 97.16 47.16 102.069 39.633 125.305 31.778 97.16"/><polygon class="cls-11" points="44.542 83.742 30.796 78.833 47.16 102.069 44.542 83.742"/><polygon class="cls-12" points="37.015 50.687 44.542 83.742 30.796 78.833 37.015 50.687"/><polygon class="cls-13" points="23.269 57.56 5.924 81.124 30.796 78.833 23.269 57.56"/><polygon class="cls-14" points="31.778 97.16 30.796 78.833 5.924 81.124 31.778 97.16"/><polygon class="cls-15" points="47.16 102.069 30.796 78.833 31.778 97.16 47.16 102.069"/><polygon class="cls-15" points="17.051 23.851 49.451 29.415 58.778 22.516 17.051 23.851"/><polygon class="cls-4" points="62.682 8.142 48.356 22.85 58.778 22.516 69.676 14.457 62.682 8.142"/><polygon class="cls-4" points="96.905 44.469 107.924 41.96 89.573 26.96 96.905 44.469"/><polygon class="cls-4" points="108.796 21.451 107.924 41.96 89.573 26.96 108.796 21.451"/><polygon class="cls-15" points="87.712 22.516 108.796 21.451 89.573 26.96 87.712 22.516"/><polygon class="cls-4" points="107.924 41.96 134.215 63.451 96.905 44.469 107.924 41.96"/><path class="cls-11" d="M100.251,99.175c.011-.083,33.964-35.724,33.964-35.724L101.487,89.524Z"/><polygon class="cls-4" points="99.881 102.069 115.56 99.175 113.358 85.359 100.251 99.175 99.881 102.069"/><polygon class="cls-16" points="22.359 52.626 18.769 56.603 20.564 61.235 23.269 57.56 22.359 52.626"/><polygon class="cls-11" points="115.56 99.175 100.251 99.175 99.881 102.069 115.56 99.175"/></g></svg>