<svg xmlns="http://www.w3.org/2000/svg" viewBox="0 0 106.582 108.957"><defs><style>.cls-1{fill:#eda4c1;}.cls-2{fill:#f9c5db;}.cls-3{fill:#f7bad3;}.cls-4{fill:#db7093;}.cls-5{fill:#9e3c74;}.cls-6{fill:#8b3463;}</style></defs><g id="Capa_12" data-name="Capa 12"><polygon class="cls-1" points="82.582 88.582 49.058 69.818 60.84 20.073 82.582 15.273 95.64 41.891 98.585 40.145 95.64 95.564 82.582 88.582"/><polygon class="cls-2" points="85.636 8.727 82.582 15.273 95.64 41.891 98.585 40.145 85.636 8.727"/><polygon class="cls-3" points="60.84 20.073 82.582 15.273 85.636 8.727 42.731 6.545 60.84 20.073"/><polygon class="cls-4" points="49.058 69.818 2.291 78.109 14.585 33.6 42.731 6.545 60.84 20.073 49.058 69.818"/><polygon class="cls-5" points="95.64 95.564 73.822 105.164 82.582 88.582 95.64 95.564"/><polygon class="cls-6" points="49.058 69.818 82.582 88.582 73.822 105.164 34.582 96.873 2.291 78.109 49.058 69.818"/></g></svg>