<?xml version="1.0" encoding="utf-8"?>
<!-- Generator: Adobe Illustrator 24.2.0, SVG Export Plug-In . SVG Version: 6.00 Build 0)  -->
<svg version="1.1" id="Capa_1" xmlns="http://www.w3.org/2000/svg" xmlns:xlink="http://www.w3.org/1999/xlink" x="0px" y="0px"
	 viewBox="0 0 352.8 201.3" style="enable-background:new 0 0 352.8 201.3;" xml:space="preserve">
<style type="text/css">
	.st0{fill:url(#SVGID_1_);}
	.st1{fill:url(#SVGID_2_);}
	.st2{fill:url(#SVGID_3_);}
	.st3{fill:url(#SVGID_4_);}
	.st4{fill:url(#SVGID_5_);}
	.st5{fill:url(#SVGID_6_);}
	.st6{fill:#FFFFFF;}
	.st7{fill:#AAE5F2;}
	.st8{fill:url(#SVGID_7_);}
	.st9{fill:#3636B2;}
	.st10{fill:url(#SVGID_8_);}
</style>
<rect x="0.9" y="1" width="351.3" height="199.6"/>
<linearGradient id="SVGID_1_" gradientUnits="userSpaceOnUse" x1="17.675" y1="95.4553" x2="202.631" y2="95.4553" gradientTransform="matrix(1 0 0 -1 0 201.8898)">
	<stop  offset="0" style="stop-color:#132968"/>
	<stop  offset="0.164" style="stop-color:#162D6B"/>
	<stop  offset="0.311" style="stop-color:#1F3773"/>
	<stop  offset="0.451" style="stop-color:#2D4A80"/>
	<stop  offset="0.588" style="stop-color:#426493"/>
	<stop  offset="0.721" style="stop-color:#5D85AB"/>
	<stop  offset="0.853" style="stop-color:#7DAEC9"/>
	<stop  offset="0.98" style="stop-color:#A3DDEC"/>
	<stop  offset="1" style="stop-color:#AAE5F2"/>
</linearGradient>
<path class="st0" d="M17.7,40.6v131.7h185V40.6H17.7z M19,170.9V42h182.2v128.9H19z"/>
<linearGradient id="SVGID_2_" gradientUnits="userSpaceOnUse" x1="237.47" y1="149.0288" x2="327.939" y2="149.0288" gradientTransform="matrix(1 0 0 -1 0 201.8898)">
	<stop  offset="0" style="stop-color:#132968"/>
	<stop  offset="0.164" style="stop-color:#162D6B"/>
	<stop  offset="0.311" style="stop-color:#1F3773"/>
	<stop  offset="0.451" style="stop-color:#2D4A80"/>
	<stop  offset="0.588" style="stop-color:#426493"/>
	<stop  offset="0.721" style="stop-color:#5D85AB"/>
	<stop  offset="0.853" style="stop-color:#7DAEC9"/>
	<stop  offset="0.98" style="stop-color:#A3DDEC"/>
	<stop  offset="1" style="stop-color:#AAE5F2"/>
</linearGradient>
<path class="st1" d="M237.5,40.6v24.5h90.5V40.6H237.5z M238.8,63.7V42h87.7v21.8L238.8,63.7z"/>
<linearGradient id="SVGID_3_" gradientUnits="userSpaceOnUse" x1="237.47" y1="91.6488" x2="327.939" y2="91.6488" gradientTransform="matrix(1 0 0 -1 0 201.8898)">
	<stop  offset="0" style="stop-color:#132968"/>
	<stop  offset="0.164" style="stop-color:#162D6B"/>
	<stop  offset="0.311" style="stop-color:#1F3773"/>
	<stop  offset="0.451" style="stop-color:#2D4A80"/>
	<stop  offset="0.588" style="stop-color:#426493"/>
	<stop  offset="0.721" style="stop-color:#5D85AB"/>
	<stop  offset="0.853" style="stop-color:#7DAEC9"/>
	<stop  offset="0.98" style="stop-color:#A3DDEC"/>
	<stop  offset="1" style="stop-color:#AAE5F2"/>
</linearGradient>
<path class="st2" d="M237.5,72.8v74.9h90.5V72.8H237.5z M238.8,146.3V74.2h87.7v72.1L238.8,146.3z"/>
<linearGradient id="SVGID_4_" gradientUnits="userSpaceOnUse" x1="23.8" y1="89.0278" x2="209.626" y2="89.0278" gradientTransform="matrix(1 0 0 -1 0 201.8898)">
	<stop  offset="0" style="stop-color:#5979B2"/>
	<stop  offset="1" style="stop-color:#AAE5F2"/>
</linearGradient>
<path class="st3" d="M23.8,46.6v132.5h185.8V46.6H23.8z M26,176.9V48.8h181.4v128.1L26,176.9z"/>
<linearGradient id="SVGID_5_" gradientUnits="userSpaceOnUse" x1="242.89" y1="142.5968" x2="334.226" y2="142.5968" gradientTransform="matrix(1 0 0 -1 0 201.8898)">
	<stop  offset="0" style="stop-color:#5979B2"/>
	<stop  offset="1" style="stop-color:#AAE5F2"/>
</linearGradient>
<path class="st4" d="M242.9,46.6V72h91.3V46.6H242.9z M245.1,69.7V48.8H332v20.9L245.1,69.7z"/>
<linearGradient id="SVGID_6_" gradientUnits="userSpaceOnUse" x1="242.892" y1="86.2993" x2="334.228" y2="86.2993" gradientTransform="matrix(1 0 0 -1 0 201.8898)">
	<stop  offset="0" style="stop-color:#5979B2"/>
	<stop  offset="1" style="stop-color:#AAE5F2"/>
</linearGradient>
<path class="st5" d="M242.9,77.7v75.7h91.3V77.7H242.9z M245.1,151.2V80H332v71.3H245.1z"/>
<path class="st6" d="M251.1,58.9l-0.5,0.5l-0.3-0.3v-2.5l0.4-0.4l0.4,0.4V58.9z M250.6,63.5l-0.4-0.4l0.4-0.4h3.3l0.4,0.4l-0.4,0.4
	H250.6z M254.1,59.1l0.4,0.4l-0.4,0.4h-3l-0.4-0.4l0.4-0.4H254.1z M255,56l-0.4,0.4h-3.3l-0.4-0.4l0.4-0.4h3.3L255,56z M255,62.5
	l-0.4,0.4l-0.4-0.4v-2.3l0.5-0.5l0.3,0.3L255,62.5z"/>
<path class="st6" d="M256.3,59.1v-3.3l0.9,0.8v2.3l-0.5,0.5L256.3,59.1z M257.2,60.3v2.3l-0.9,0.8v-3.3l0.3-0.3L257.2,60.3z
	 M261.1,55.6l-0.8,0.8h-2.9l-0.8-0.8H261.1z M261.1,63.5h-4.6l0.8-0.8h2.9L261.1,63.5z M260.2,59.1l0.4,0.4l-0.4,0.4h-3l-0.4-0.4
	l0.4-0.4H260.2z"/>
<path class="st6" d="M262.4,59.1v-3.5l0.9,0.8v2.4l-0.5,0.5L262.4,59.1z M263.3,60.3v2.3l-0.9,0.8v-3.3l0.3-0.3L263.3,60.3z
	 M267.2,63.5h-4.6l0.8-0.8h2.9L267.2,63.5z"/>
<path class="st6" d="M268.5,59.1v-3.3l0.9,0.8v2.3l-0.5,0.5L268.5,59.1z M269.4,60.3v2.3l-0.9,0.8v-3.3l0.3-0.3L269.4,60.3z
	 M273.3,55.6l-0.8,0.8h-2.9l-0.8-0.8H273.3z M273.3,63.5h-4.6l0.8-0.8h2.9L273.3,63.5z M272.4,59.1l0.4,0.4l-0.4,0.4h-3l-0.4-0.4
	l0.4-0.4L272.4,59.1z"/>
<path class="st6" d="M275.5,58.9l-0.5,0.5l-0.3-0.3v-2.5l0.4-0.4l0.4,0.4L275.5,58.9z M275.5,62.5l-0.4,0.4l-0.4-0.4v-2.5l0.3-0.3
	l0.5,0.5L275.5,62.5z M279.4,55.6l-0.8,0.8h-2.9l-0.4-0.4l0.4-0.4H279.4z M279.4,63.5h-3.8l-0.4-0.4l0.4-0.4h2.9L279.4,63.5z"/>
<path class="st6" d="M285.5,55.6l-0.8,0.8h-3.1l-0.9-0.8H285.5z M283.5,59.5l-0.3,0.3l-0.5-0.5V57l0.4-0.4l0.4,0.4V59.5z
	 M283.5,63.1l-0.4,0.4l-0.4-0.4v-2.4l0.5-0.5l0.3,0.3V63.1z"/>
<path class="st7" d="M51.2,64.4c-0.1,0.8-0.4,1.6-1,2.1c-0.6,0.5-1.5,0.8-2.3,0.8c-1,0-1.9-0.4-2.5-1.1c-0.7-0.8-1-1.9-0.9-3v-0.8
	c0-0.7,0.1-1.5,0.4-2.1c0.3-0.6,0.7-1.1,1.2-1.4c0.6-0.3,1.2-0.5,1.8-0.5c0.8,0,1.6,0.2,2.2,0.8c0.6,0.6,0.9,1.3,1,2.2H50
	c0-0.6-0.3-1.1-0.7-1.5c-0.4-0.3-0.9-0.5-1.4-0.5c-0.7,0-1.3,0.3-1.7,0.8c-0.5,0.7-0.7,1.5-0.6,2.3v0.9c0,0.8,0.2,1.6,0.6,2.3
	c0.4,0.5,1,0.9,1.7,0.8c0.5,0,1-0.1,1.5-0.4c0.4-0.4,0.6-0.9,0.7-1.5L51.2,64.4z"/>
<path class="st7" d="M52.3,63.8c0-0.6,0.1-1.2,0.4-1.7c0.2-0.5,0.6-0.9,1-1.2c0.5-0.3,1-0.4,1.5-0.4c0.8,0,1.6,0.3,2.1,0.9
	c0.6,0.7,0.9,1.6,0.8,2.4V64c0,0.6-0.1,1.2-0.4,1.7c-0.2,0.5-0.6,0.9-1,1.2c-0.5,0.3-1,0.4-1.5,0.4c-0.8,0-1.6-0.3-2.1-0.9
	C52.5,65.6,52.3,64.8,52.3,63.8L52.3,63.8z M53.4,64c0,0.6,0.1,1.2,0.5,1.7c0.6,0.7,1.6,0.9,2.4,0.3c0.1-0.1,0.2-0.2,0.3-0.3
	c0.4-0.5,0.5-1.2,0.5-1.9c0-0.6-0.1-1.2-0.5-1.7c-0.3-0.4-0.8-0.7-1.3-0.7c-0.5,0-1,0.2-1.3,0.7C53.5,62.6,53.4,63.3,53.4,64
	L53.4,64z"/>
<path class="st7" d="M59.6,58.9c0-0.2,0.1-0.3,0.2-0.5c0.1-0.1,0.3-0.2,0.5-0.2c0.2,0,0.4,0.1,0.5,0.2c0.1,0.1,0.2,0.3,0.2,0.5
	c0,0.4-0.4,0.7-0.7,0.6c-0.2,0-0.3-0.1-0.4-0.2C59.7,59.2,59.6,59.1,59.6,58.9z M60.8,67.1h-1.1v-6.5h1.1V67.1z"/>
<path class="st7" d="M63.6,60.6l0,0.8c0.5-0.6,1.2-1,1.9-0.9c1.4,0,2.1,0.8,2.1,2.3v4.3h-1.1v-4.3c0-0.4-0.1-0.7-0.3-1
	c-0.3-0.2-0.6-0.4-1-0.3c-0.3,0-0.7,0.1-0.9,0.3c-0.3,0.2-0.5,0.5-0.6,0.8v4.6h-1.1v-6.5H63.6z"/>
<path class="st7" d="M144.7,67.1v-8.7h2.9c0.8-0.1,1.5,0.2,2.1,0.6c0.5,0.4,0.8,1.1,0.7,1.7c0,0.4-0.1,0.8-0.3,1.1
	c-0.2,0.3-0.6,0.6-0.9,0.7c0.4,0.1,0.8,0.4,1.1,0.8c0.3,0.4,0.4,0.8,0.4,1.3c0,0.7-0.2,1.4-0.8,1.8c-0.6,0.5-1.4,0.7-2.2,0.7H144.7z
	 M145.9,62.1h1.7c0.4,0,0.9-0.1,1.2-0.4c0.3-0.3,0.5-0.6,0.5-1c0-0.4-0.1-0.8-0.4-1c-0.4-0.2-0.8-0.4-1.3-0.3h-1.7L145.9,62.1z
	 M145.9,63v3.1h1.9c0.5,0,0.9-0.1,1.3-0.4c0.3-0.3,0.5-0.7,0.5-1.1c0-1.1-0.6-1.6-1.7-1.6L145.9,63z"/>
<path class="st7" d="M156.2,67.1c-0.1-0.2-0.1-0.4-0.2-0.7c-0.5,0.5-1.1,0.8-1.8,0.8c-0.6,0-1.1-0.2-1.6-0.5
	c-0.4-0.3-0.6-0.8-0.6-1.4c0-0.6,0.3-1.2,0.8-1.6c0.6-0.4,1.4-0.6,2.2-0.6h1.1v-0.5c0-0.3-0.1-0.7-0.3-0.9c-0.3-0.2-0.7-0.4-1-0.3
	c-0.4,0-0.7,0.1-1,0.3c-0.2,0.2-0.4,0.4-0.4,0.7h-1.1c0-0.3,0.1-0.7,0.3-0.9c0.2-0.3,0.6-0.6,0.9-0.7c0.4-0.2,0.9-0.3,1.3-0.3
	c0.6,0,1.3,0.2,1.8,0.6c0.4,0.4,0.7,1,0.7,1.5v3c0,0.5,0.1,1,0.2,1.4v0.1H156.2z M154.3,66.3c0.3,0,0.7-0.1,1-0.3
	c0.3-0.2,0.5-0.4,0.7-0.7V64h-0.9c-1.4,0-2,0.4-2,1.2c0,0.3,0.1,0.6,0.3,0.8C153.7,66.2,154,66.3,154.3,66.3z"/>
<path class="st7" d="M160.1,67.1H159v-9.2h1.1V67.1z"/>
<path class="st7" d="M165.8,67.1c-0.1-0.2-0.1-0.4-0.2-0.7c-0.5,0.5-1.1,0.8-1.8,0.8c-0.6,0-1.1-0.2-1.6-0.5
	c-0.4-0.3-0.6-0.8-0.6-1.4c0-0.6,0.3-1.2,0.8-1.6c0.6-0.4,1.4-0.6,2.2-0.6h1.1v-0.5c0-0.3-0.1-0.7-0.3-0.9c-0.3-0.2-0.7-0.4-1-0.3
	c-0.4,0-0.7,0.1-1,0.3c-0.2,0.2-0.4,0.4-0.4,0.7h-1.1c0-0.3,0.1-0.7,0.3-0.9c0.2-0.3,0.6-0.6,0.9-0.7c0.4-0.2,0.9-0.3,1.3-0.3
	c0.6,0,1.3,0.2,1.8,0.6c0.4,0.4,0.7,1,0.7,1.5v3c0,0.5,0.1,1,0.2,1.4v0.1H165.8z M164,66.3c0.3,0,0.7-0.1,1-0.3
	c0.3-0.2,0.5-0.4,0.7-0.7V64h-0.9c-1.4,0-2,0.4-2,1.2c0,0.3,0.1,0.6,0.3,0.8C163.4,66.2,163.7,66.3,164,66.3L164,66.3z"/>
<path class="st7" d="M169.6,60.6l0,0.8c0.5-0.6,1.2-1,1.9-0.9c1.4,0,2.1,0.8,2.1,2.3v4.3h-1.1v-4.3c0-0.4-0.1-0.7-0.3-1
	c-0.3-0.2-0.6-0.4-1-0.3c-0.3,0-0.7,0.1-0.9,0.3c-0.3,0.2-0.5,0.5-0.6,0.8v4.6h-1.1v-6.5H169.6z"/>
<path class="st7" d="M177.9,66.3c0.4,0,0.7-0.1,1-0.4c0.3-0.2,0.5-0.5,0.5-0.9h1.1c0,0.4-0.2,0.8-0.4,1.1c-0.2,0.3-0.6,0.6-0.9,0.8
	c-0.4,0.2-0.8,0.3-1.3,0.3c-0.8,0-1.6-0.3-2.1-0.9c-0.6-0.7-0.8-1.5-0.8-2.4v-0.2c0-0.6,0.1-1.2,0.3-1.7c0.2-0.5,0.6-0.9,1-1.1
	c0.5-0.3,1-0.4,1.5-0.4c0.7,0,1.3,0.2,1.8,0.7c0.5,0.4,0.8,1.1,0.8,1.7h-1.1c0-0.4-0.2-0.8-0.5-1c-0.3-0.3-0.7-0.4-1.1-0.4
	c-0.5,0-1,0.2-1.3,0.6c-0.3,0.5-0.5,1.1-0.5,1.8V64c0,0.6,0.1,1.2,0.5,1.7C176.9,66.1,177.4,66.4,177.9,66.3z"/>
<path class="st7" d="M184.4,67.2c-0.8,0-1.6-0.3-2.1-0.9c-0.6-0.6-0.9-1.5-0.8-2.3v-0.2c0-0.6,0.1-1.2,0.4-1.7
	c0.2-0.5,0.6-0.9,1-1.2c0.4-0.3,0.9-0.4,1.4-0.4c0.7,0,1.5,0.3,2,0.8c0.5,0.7,0.8,1.5,0.7,2.4v0.5h-4.4c0,0.6,0.2,1.1,0.6,1.6
	c0.3,0.4,0.8,0.6,1.4,0.6c0.3,0,0.7-0.1,1-0.2c0.3-0.2,0.5-0.4,0.7-0.6l0.7,0.5C186.3,66.8,185.4,67.3,184.4,67.2z M184.3,61.4
	c-0.4,0-0.8,0.2-1.1,0.5c-0.3,0.4-0.5,0.9-0.6,1.4h3.3v-0.1c0-0.5-0.2-0.9-0.5-1.3C185.1,61.6,184.7,61.4,184.3,61.4z"/>
<path class="st7" d="M49.7,84.1h-3.8v3.1h4.4v0.9h-5.6v-8.7h5.5v0.9h-4.3v2.8h3.8V84.1z"/>
<path class="st7" d="M57.9,80.3h-2.8v7.8H54v-7.8h-2.8v-0.9h6.7V80.3z"/>
<path class="st7" d="M65.9,88.1h-1.2v-4h-4.4v4h-1.2v-8.7h1.1v3.8h4.4v-3.8h1.2L65.9,88.1z"/>
<path class="st7" d="M127,88.1h-5.7v-0.8l3-3.4c0.4-0.4,0.7-0.8,0.9-1.2c0.2-0.3,0.3-0.6,0.3-1c0-0.4-0.1-0.8-0.4-1.1
	c-0.3-0.3-0.7-0.5-1.1-0.4c-0.5,0-0.9,0.1-1.3,0.5c-0.3,0.4-0.5,0.8-0.5,1.3h-1.1c0-0.7,0.3-1.4,0.8-1.9c0.6-0.5,1.3-0.8,2.1-0.7
	c0.7,0,1.4,0.2,1.9,0.6c0.5,0.4,0.7,1.1,0.7,1.7c-0.2,1.2-0.7,2.3-1.6,3.1l-2.3,2.5h4.4L127,88.1z"/>
<path class="st7" d="M128.3,87.5c0-0.2,0.1-0.3,0.2-0.5c0.1-0.1,0.3-0.2,0.5-0.2c0.2,0,0.4,0.1,0.5,0.2c0.1,0.1,0.2,0.3,0.2,0.5
	c0,0.2-0.1,0.3-0.2,0.5c-0.1,0.1-0.3,0.2-0.5,0.2c-0.2,0-0.4-0.1-0.5-0.2C128.3,87.8,128.3,87.7,128.3,87.5z"/>
<path class="st7" d="M136.8,84.4c0.1,1-0.2,2-0.7,2.9c-1,1.2-2.8,1.3-3.9,0.3c-0.1-0.1-0.2-0.2-0.2-0.2c-0.5-0.8-0.8-1.8-0.7-2.8V83
	c-0.1-1,0.2-2,0.7-2.9c1-1.2,2.8-1.3,4-0.2c0.1,0.1,0.1,0.1,0.2,0.2c0.5,0.8,0.7,1.8,0.7,2.8L136.8,84.4z M135.7,82.8
	c0-0.7-0.1-1.4-0.4-2.1c-0.3-0.4-0.7-0.7-1.3-0.6c-0.5,0-1,0.2-1.2,0.6c-0.3,0.6-0.4,1.3-0.4,2v1.8c0,0.7,0.1,1.4,0.4,2.1
	c0.3,0.4,0.7,0.7,1.2,0.7c0.5,0,1-0.2,1.2-0.6c0.3-0.6,0.5-1.3,0.4-2L135.7,82.8z"/>
<path class="st7" d="M143.7,84.4c0.1,1-0.2,2-0.7,2.9c-1,1.2-2.8,1.3-3.9,0.3c-0.1-0.1-0.2-0.2-0.2-0.2c-0.5-0.8-0.7-1.8-0.7-2.8V83
	c-0.1-1,0.2-2,0.7-2.9c1-1.2,2.8-1.3,4-0.2c0.1,0.1,0.1,0.1,0.2,0.2c0.5,0.8,0.7,1.8,0.7,2.8V84.4z M142.6,82.8
	c0-0.7-0.1-1.4-0.4-2.1c-0.3-0.4-0.7-0.7-1.3-0.6c-0.5,0-1,0.2-1.2,0.6c-0.3,0.6-0.4,1.3-0.4,2v1.8c0,0.7,0.1,1.4,0.4,2.1
	c0.3,0.4,0.7,0.7,1.2,0.7c0.5,0,1-0.2,1.2-0.6c0.3-0.6,0.5-1.3,0.4-2L142.6,82.8z"/>
<path class="st7" d="M149.8,85.2h1.2v0.9h-1.2v2h-1.1v-2h-4v-0.7l3.9-6.1h1.2V85.2z M146,85.2h2.7v-4.3l-0.1,0.2L146,85.2z"/>
<path class="st7" d="M155.7,88.1h-1.1v-7.4l-2.2,0.8v-1l3.2-1.2h0.2V88.1z"/>
<path class="st7" d="M163.3,79.3v0.9h-0.2c-0.8,0-1.5,0.3-2.1,0.8c-0.5,0.6-0.9,1.3-0.9,2.1c0.5-0.5,1.2-0.8,1.9-0.8
	c0.7,0,1.4,0.3,1.8,0.8c0.9,1.3,0.9,3-0.1,4.2c-0.5,0.5-1.2,0.8-2,0.8c-0.8,0-1.5-0.3-2-1c-0.5-0.7-0.8-1.6-0.8-2.5v-0.4
	c-0.1-1.3,0.3-2.6,1-3.7c0.8-0.9,1.9-1.4,3.1-1.3L163.3,79.3z M161.9,83.3c-0.8,0-1.4,0.5-1.7,1.2v0.4c0,0.6,0.1,1.2,0.5,1.7
	c0.3,0.4,0.7,0.7,1.2,0.7c0.5,0,0.9-0.2,1.2-0.6c0.6-0.9,0.6-2,0-2.9C162.7,83.5,162.3,83.3,161.9,83.3z"/>
<path class="st7" d="M169.5,88.1h-1.1v-7.4l-2.2,0.8v-1l3.2-1.2h0.2V88.1z"/>
<path class="st7" d="M176.4,88.1h-1.1v-7.4l-2.2,0.8v-1l3.2-1.2h0.2L176.4,88.1z"/>
<path class="st7" d="M185.1,84.4c0.1,1-0.2,2-0.7,2.9c-1,1.2-2.8,1.3-3.9,0.3c-0.1-0.1-0.2-0.2-0.2-0.2c-0.5-0.8-0.7-1.8-0.7-2.8V83
	c-0.1-1,0.2-2,0.7-2.9c1-1.2,2.8-1.3,4-0.2c0.1,0.1,0.1,0.1,0.2,0.2c0.5,0.8,0.7,1.8,0.7,2.8V84.4z M184,82.8c0-0.7-0.1-1.4-0.4-2.1
	c-0.3-0.4-0.7-0.7-1.3-0.6c-0.5,0-1,0.2-1.2,0.6c-0.3,0.6-0.4,1.3-0.4,2v1.8c0,0.7,0.1,1.4,0.4,2.1c0.3,0.4,0.7,0.7,1.2,0.7
	c0.5,0,1-0.2,1.2-0.6c0.3-0.6,0.5-1.3,0.4-2L184,82.8z"/>
<path class="st7" d="M47.6,107.2l2.1-3.3h1.4l-2.8,4.3l2.8,4.4h-1.4l-2.1-3.4l-2.2,3.4h-1.4l2.8-4.4l-2.8-4.3h1.3L47.6,107.2z"/>
<path class="st7" d="M55.7,109h-2.1v3.5h-1.2v-8.7h2.9c0.8-0.1,1.6,0.2,2.3,0.7c0.5,0.5,0.8,1.2,0.8,2c0,0.5-0.1,1-0.4,1.4
	c-0.3,0.4-0.7,0.7-1.2,0.9l2,3.7v0.1h-1.2L55.7,109z M53.6,108.1h1.8c0.5,0,1-0.1,1.4-0.4c0.3-0.3,0.5-0.7,0.5-1.2
	c0-0.5-0.1-0.9-0.5-1.2c-0.4-0.3-0.9-0.5-1.4-0.4h-1.8L53.6,108.1z"/>
<path class="st7" d="M61.5,103.8l2.9,7.1l2.9-7.1h1.5v8.7h-1.2v-3.4l0.1-3.7l-2.9,7.1h-0.9l-2.9-7.1l0.1,3.7v3.4H60v-8.7H61.5z"/>
<path class="st7" d="M126.7,108.9c0.1,1-0.2,2-0.7,2.9c-1,1.2-2.8,1.3-3.9,0.3c-0.1-0.1-0.2-0.2-0.2-0.2c-0.5-0.8-0.8-1.8-0.7-2.8
	v-1.5c-0.1-1,0.2-2,0.7-2.9c1-1.2,2.8-1.3,4-0.2c0.1,0.1,0.1,0.1,0.2,0.2c0.5,0.8,0.7,1.8,0.7,2.8L126.7,108.9z M125.6,107.4
	c0-0.7-0.1-1.4-0.4-2.1c-0.3-0.4-0.7-0.7-1.3-0.6c-0.5,0-1,0.2-1.2,0.6c-0.3,0.6-0.4,1.3-0.4,2v1.8c0,0.7,0.1,1.4,0.4,2.1
	c0.3,0.4,0.7,0.7,1.2,0.7c0.5,0,1-0.2,1.2-0.6c0.3-0.6,0.5-1.3,0.4-2L125.6,107.4z"/>
<path class="st7" d="M128.3,112c0-0.2,0.1-0.3,0.2-0.5c0.1-0.1,0.3-0.2,0.5-0.2c0.2,0,0.4,0.1,0.5,0.2c0.1,0.1,0.2,0.3,0.2,0.5
	c0,0.2-0.1,0.3-0.2,0.5c-0.1,0.1-0.3,0.2-0.5,0.2c-0.3,0-0.6-0.2-0.7-0.5C128.3,112.1,128.3,112.1,128.3,112z"/>
<path class="st7" d="M135.6,108.8c-0.2,0.3-0.5,0.5-0.8,0.7c-0.3,0.2-0.7,0.3-1.1,0.3c-0.5,0-0.9-0.1-1.3-0.4
	c-0.4-0.3-0.7-0.6-0.9-1c-0.2-0.5-0.3-1-0.3-1.5c0-0.5,0.1-1.1,0.3-1.6c0.2-0.4,0.5-0.8,0.9-1.1c0.4-0.3,0.9-0.4,1.4-0.4
	c0.8,0,1.6,0.3,2,1c0.5,0.8,0.8,1.7,0.7,2.6v0.3c0.1,1.3-0.2,2.6-1,3.7c-0.8,0.8-1.9,1.3-3,1.2h-0.2v-0.9h0.2
	c1.4,0.2,2.8-0.9,2.9-2.3C135.6,109.1,135.6,108.9,135.6,108.8z M133.9,108.8c0.4,0,0.7-0.1,1-0.3c0.3-0.2,0.5-0.5,0.7-0.8v-0.4
	c0-0.6-0.1-1.2-0.5-1.8c-0.4-0.7-1.3-0.9-2-0.5c-0.1,0.1-0.3,0.2-0.4,0.3c-0.3,0.4-0.5,0.9-0.4,1.5c0,0.5,0.1,1,0.4,1.5
	C133,108.6,133.5,108.8,133.9,108.8z"/>
<path class="st7" d="M138.8,108.2l0.4-4.4h4.5v1h-3.5l-0.3,2.4c0.4-0.3,0.9-0.4,1.5-0.4c0.7,0,1.4,0.3,1.9,0.8
	c0.5,0.6,0.7,1.4,0.7,2.1c0,0.8-0.2,1.5-0.7,2.1c-0.5,0.5-1.3,0.8-2,0.8c-0.7,0-1.4-0.2-1.9-0.6c-0.5-0.5-0.8-1.1-0.8-1.8h1
	c0,0.4,0.2,0.8,0.5,1.1c0.3,0.3,0.7,0.4,1.1,0.4c0.5,0,0.9-0.2,1.2-0.5c0.3-0.4,0.5-0.9,0.4-1.5c0-0.5-0.1-1-0.5-1.4
	c-0.3-0.4-0.8-0.6-1.3-0.5c-0.4,0-0.8,0.1-1.1,0.3l-0.3,0.2L138.8,108.2z"/>
<path class="st7" d="M148.8,112.6h-1.1v-7.4l-2.2,0.8v-1l3.2-1.2h0.2V112.6z"/>
<path class="st7" d="M155.7,112.6h-1.1v-7.4l-2.2,0.8v-1l3.2-1.2h0.2V112.6z"/>
<path class="st7" d="M164.3,106.1c0,0.4-0.1,0.8-0.3,1.2c-0.2,0.3-0.6,0.6-0.9,0.8c0.4,0.2,0.8,0.5,1.1,0.9c0.3,0.4,0.4,0.8,0.4,1.3
	c0,0.7-0.3,1.3-0.8,1.8c-1.2,0.9-2.8,0.9-4,0c-0.5-0.5-0.8-1.1-0.8-1.8c0-0.5,0.1-0.9,0.4-1.3c0.3-0.4,0.6-0.7,1.1-0.9
	c-0.4-0.2-0.7-0.5-0.9-0.8c-0.2-0.3-0.3-0.7-0.3-1.2c0-0.7,0.2-1.3,0.7-1.8c1.1-0.9,2.6-0.9,3.7,0
	C164,104.8,164.3,105.5,164.3,106.1z M163.3,110.2c0-0.4-0.2-0.9-0.5-1.2c-0.3-0.3-0.8-0.5-1.2-0.5c-0.9-0.1-1.6,0.6-1.7,1.5
	c0,0.1,0,0.1,0,0.2c0,0.4,0.1,0.9,0.4,1.2c0.7,0.6,1.7,0.6,2.4,0C163.2,111.1,163.4,110.7,163.3,110.2L163.3,110.2z M161.7,104.7
	c-0.4,0-0.8,0.1-1.1,0.4c-0.5,0.6-0.5,1.5,0,2.2c0.6,0.5,1.5,0.5,2.1,0c0.5-0.6,0.5-1.5,0-2.2C162.5,104.8,162.1,104.6,161.7,104.7z
	"/>
<path class="st7" d="M169.5,112.6h-1.1v-7.4l-2.2,0.8v-1l3.2-1.2h0.2V112.6z"/>
<path class="st7" d="M178.2,108.9c0.1,1-0.2,2-0.7,2.9c-1,1.2-2.8,1.3-3.9,0.3c-0.1-0.1-0.2-0.2-0.2-0.2c-0.5-0.8-0.7-1.8-0.7-2.8
	v-1.5c-0.1-1,0.2-2,0.7-2.9c1-1.2,2.8-1.3,4-0.2c0.1,0.1,0.1,0.1,0.2,0.2c0.5,0.8,0.7,1.8,0.7,2.8V108.9z M177.1,107.4
	c0-0.7-0.1-1.4-0.4-2.1c-0.3-0.4-0.7-0.7-1.3-0.6c-0.5,0-1,0.2-1.2,0.6c-0.3,0.6-0.4,1.3-0.4,2v1.8c0,0.7,0.1,1.4,0.4,2.1
	c0.3,0.4,0.7,0.7,1.2,0.7c0.5,0,1-0.2,1.2-0.6c0.3-0.6,0.5-1.3,0.4-2L177.1,107.4z"/>
<path class="st7" d="M184.3,109.7h1.2v0.9h-1.2v2h-1.1v-2h-4v-0.7l3.9-6.1h1.2L184.3,109.7z M180.5,109.7h2.7v-4.3l-0.1,0.2
	L180.5,109.7z"/>
<path class="st7" d="M50.9,129.3v5.9c0,0.8-0.3,1.5-0.8,2c-0.6,0.5-1.3,0.9-2.1,0.9l-0.3,0c-0.8,0-1.6-0.2-2.3-0.8
	c-0.6-0.6-0.9-1.3-0.9-2.1v-5.9h1.1v5.9c-0.1,1.1,0.8,2.1,1.9,2.1c1.1,0.1,2.1-0.8,2.1-1.9c0-0.1,0-0.1,0-0.2v-5.9L50.9,129.3z"/>
<path class="st7" d="M55.3,134.2c-0.8-0.2-1.5-0.5-2.2-1c-0.4-0.4-0.7-0.9-0.7-1.5c0-0.7,0.3-1.3,0.8-1.7c0.6-0.5,1.4-0.7,2.1-0.7
	c0.6,0,1.1,0.1,1.6,0.3c0.4,0.2,0.8,0.5,1.1,1c0.3,0.4,0.4,0.9,0.4,1.3h-1.2c0-0.5-0.2-0.9-0.5-1.2c-0.4-0.3-0.9-0.5-1.4-0.5
	c-0.5,0-0.9,0.1-1.3,0.4c-0.3,0.3-0.5,0.6-0.5,1c0,0.4,0.2,0.7,0.5,0.9c0.5,0.3,1,0.6,1.5,0.7c0.6,0.2,1.2,0.4,1.7,0.7
	c0.4,0.2,0.7,0.5,0.9,0.9c0.2,0.4,0.3,0.8,0.3,1.2c0,0.7-0.3,1.3-0.8,1.7c-0.6,0.5-1.4,0.7-2.2,0.6c-0.6,0-1.1-0.1-1.7-0.3
	c-0.5-0.2-0.9-0.5-1.2-0.9c-0.3-0.4-0.4-0.9-0.4-1.4h1.2c0,0.5,0.2,1,0.6,1.3c0.5,0.3,1,0.5,1.6,0.5c0.5,0,1-0.1,1.4-0.4
	c0.3-0.2,0.5-0.6,0.5-1c0-0.4-0.1-0.8-0.5-1C56.4,134.6,55.9,134.3,55.3,134.2z"/>
<path class="st7" d="M60,138.1v-8.7h2.5c0.7,0,1.4,0.2,2,0.5c0.6,0.3,1.1,0.8,1.4,1.4c0.3,0.7,0.5,1.4,0.5,2.1v0.6
	c0,0.7-0.1,1.5-0.5,2.2c-0.3,0.6-0.8,1.1-1.4,1.4c-0.6,0.3-1.3,0.5-2.1,0.5L60,138.1z M61.2,130.3v6.8h1.2c0.8,0,1.5-0.3,2.1-0.8
	c0.5-0.7,0.8-1.5,0.7-2.4v-0.5c0.1-0.8-0.2-1.7-0.7-2.3c-0.5-0.6-1.2-0.9-2-0.8H61.2z"/>
<path class="st7" d="M74.1,130.3h-2.8v7.8h-1.1v-7.8h-2.8v-0.9h6.8L74.1,130.3z"/>
<path class="st7" d="M113.2,138.1h-5.7v-0.8l3-3.4c0.4-0.4,0.7-0.8,0.9-1.2c0.2-0.3,0.3-0.6,0.3-1c0-0.4-0.1-0.8-0.4-1.1
	c-0.3-0.3-0.7-0.5-1.1-0.4c-0.5,0-0.9,0.1-1.3,0.5c-0.3,0.4-0.5,0.8-0.5,1.3h-1.1c0-0.7,0.3-1.4,0.8-1.9c0.6-0.5,1.3-0.8,2.1-0.7
	c0.7,0,1.4,0.2,1.9,0.6c0.5,0.4,0.7,1.1,0.7,1.7c-0.2,1.2-0.7,2.3-1.6,3.1l-2.3,2.5h4.4L113.2,138.1z"/>
<path class="st7" d="M116,133.2h0.8c0.4,0,0.9-0.1,1.2-0.4c0.3-0.3,0.5-0.7,0.4-1.1c0.1-0.7-0.4-1.4-1.1-1.5c-0.1,0-0.3,0-0.4,0
	c-0.4,0-0.8,0.1-1.1,0.4c-0.3,0.3-0.4,0.7-0.4,1.1h-1.1c0-0.7,0.3-1.3,0.8-1.7c1.1-0.9,2.7-0.9,3.9,0c0.5,0.5,0.7,1.1,0.7,1.8
	c0,0.4-0.1,0.8-0.4,1.1c-0.2,0.4-0.6,0.6-1,0.8c0.4,0.1,0.8,0.4,1.1,0.8c0.3,0.4,0.4,0.8,0.4,1.3c0,0.7-0.2,1.4-0.8,1.9
	c-0.6,0.5-1.3,0.7-2,0.7c-0.7,0-1.4-0.2-2-0.7c-0.5-0.4-0.8-1.1-0.8-1.8h1.1c0,0.4,0.1,0.8,0.4,1.1c0.3,0.3,0.8,0.4,1.2,0.4
	c0.4,0,0.9-0.1,1.2-0.4c0.3-0.3,0.5-0.8,0.4-1.2c0-0.4-0.1-0.9-0.5-1.2c-0.4-0.3-0.9-0.4-1.3-0.4H116L116,133.2z"/>
<path class="st7" d="M122.9,133.2h0.8c0.4,0,0.9-0.1,1.2-0.4c0.3-0.3,0.5-0.7,0.4-1.1c0.1-0.7-0.4-1.4-1.1-1.5c-0.1,0-0.3,0-0.4,0
	c-0.4,0-0.8,0.1-1.1,0.4c-0.3,0.3-0.4,0.7-0.4,1.1h-1.1c0-0.7,0.3-1.3,0.8-1.7c0.5-0.5,1.2-0.7,1.9-0.7c0.7,0,1.4,0.2,1.9,0.7
	c0.5,0.5,0.7,1.1,0.7,1.8c0,0.4-0.1,0.8-0.4,1.1c-0.2,0.4-0.6,0.6-1,0.8c0.4,0.1,0.8,0.4,1.1,0.8c0.3,0.4,0.4,0.8,0.4,1.3
	c0,0.7-0.2,1.4-0.8,1.9c-0.6,0.5-1.3,0.7-2,0.7c-0.7,0-1.4-0.2-2-0.7c-0.5-0.4-0.8-1.1-0.8-1.8h1.1c0,0.4,0.1,0.8,0.4,1.1
	c0.3,0.3,0.8,0.4,1.2,0.4c0.4,0,0.9-0.1,1.2-0.4c0.3-0.3,0.5-0.8,0.4-1.2c0-0.4-0.1-0.9-0.5-1.2c-0.4-0.3-0.9-0.4-1.3-0.4h-0.8
	L122.9,133.2z"/>
<path class="st7" d="M128.3,137.5c0-0.2,0.1-0.3,0.2-0.5c0.1-0.1,0.3-0.2,0.5-0.2c0.2,0,0.4,0.1,0.5,0.2c0.1,0.1,0.2,0.3,0.2,0.5
	c0,0.2-0.1,0.3-0.2,0.5c-0.1,0.1-0.3,0.2-0.5,0.2c-0.2,0-0.4-0.1-0.5-0.2C128.3,137.9,128.3,137.7,128.3,137.5z"/>
<path class="st7" d="M136.8,134.4c0.1,1-0.2,2-0.7,2.9c-1,1.2-2.8,1.3-3.9,0.3c-0.1-0.1-0.2-0.2-0.2-0.2c-0.5-0.8-0.7-1.8-0.7-2.8
	v-1.5c-0.1-1,0.2-2,0.7-2.9c1-1.2,2.8-1.3,4-0.2c0.1,0.1,0.1,0.1,0.2,0.2c0.5,0.8,0.7,1.8,0.7,2.8V134.4z M135.7,132.9
	c0-0.7-0.1-1.4-0.4-2.1c-0.3-0.4-0.7-0.7-1.3-0.6c-0.5,0-1,0.2-1.2,0.6c-0.3,0.6-0.4,1.3-0.4,2v1.8c0,0.7,0.1,1.4,0.4,2.1
	c0.3,0.4,0.7,0.7,1.2,0.7c0.5,0,1-0.2,1.2-0.6c0.3-0.6,0.5-1.3,0.4-2L135.7,132.9z"/>
<path class="st7" d="M138.8,133.7l0.4-4.4h4.5v1h-3.5l-0.3,2.4c0.4-0.3,0.9-0.4,1.5-0.4c0.7,0,1.4,0.3,1.9,0.8
	c0.5,0.6,0.7,1.4,0.7,2.1c0,0.8-0.2,1.5-0.7,2.1c-0.5,0.5-1.3,0.8-2,0.8c-0.7,0-1.4-0.2-1.9-0.6c-0.5-0.5-0.8-1.1-0.8-1.8h1
	c0,0.4,0.2,0.8,0.5,1.1c0.3,0.3,0.7,0.4,1.1,0.4c0.5,0,0.9-0.2,1.2-0.5c0.3-0.4,0.5-0.9,0.4-1.5c0-0.5-0.1-1-0.5-1.4
	c-0.3-0.4-0.8-0.6-1.3-0.5c-0.4,0-0.8,0.1-1.1,0.3l-0.3,0.2L138.8,133.7z"/>
<path class="st7" d="M150.5,131.6c0,0.4-0.1,0.8-0.3,1.2c-0.2,0.3-0.6,0.6-0.9,0.8c0.4,0.2,0.8,0.5,1.1,0.9c0.3,0.4,0.4,0.8,0.4,1.3
	c0,0.7-0.3,1.3-0.8,1.8c-1.2,0.9-2.8,0.9-4,0c-0.5-0.5-0.8-1.1-0.8-1.8c0-0.5,0.1-0.9,0.4-1.3c0.3-0.4,0.6-0.7,1.1-0.9
	c-0.4-0.2-0.7-0.5-0.9-0.8c-0.2-0.3-0.3-0.7-0.3-1.2c0-0.7,0.2-1.3,0.7-1.8c1.1-0.9,2.6-0.9,3.7,0
	C150.2,130.4,150.5,131,150.5,131.6z M149.6,135.7c0-0.4-0.2-0.9-0.5-1.2c-0.3-0.3-0.8-0.5-1.2-0.5c-0.9-0.1-1.6,0.6-1.7,1.5
	c0,0.1,0,0.1,0,0.2c0,0.4,0.1,0.9,0.4,1.2c0.7,0.6,1.7,0.6,2.4,0C149.4,136.6,149.6,136.2,149.6,135.7z M147.9,130.2
	c-0.4,0-0.8,0.1-1.1,0.4c-0.5,0.6-0.5,1.5,0,2.2c0.6,0.5,1.5,0.5,2.1,0c0.5-0.6,0.5-1.5,0-2.2C148.7,130.3,148.3,130.1,147.9,130.2
	L147.9,130.2z"/>
<path class="st7" d="M155.7,138.1h-1.1v-7.4l-2.2,0.8v-1l3.2-1.2h0.2V138.1z"/>
<path class="st7" d="M164.4,134.4c0.1,1-0.2,2-0.7,2.9c-1,1.2-2.8,1.3-3.9,0.3c-0.1-0.1-0.2-0.2-0.2-0.2c-0.5-0.8-0.8-1.8-0.7-2.8
	v-1.5c-0.1-1,0.2-2,0.7-2.9c1-1.2,2.8-1.3,4-0.2c0.1,0.1,0.1,0.1,0.2,0.2c0.5,0.8,0.7,1.8,0.7,2.8L164.4,134.4z M163.3,132.9
	c0-0.7-0.1-1.4-0.4-2.1c-0.3-0.4-0.7-0.7-1.3-0.6c-0.5,0-1,0.2-1.2,0.6c-0.3,0.6-0.4,1.3-0.4,2v1.8c0,0.7,0.1,1.4,0.4,2.1
	c0.3,0.4,0.7,0.7,1.2,0.7c0.5,0,1-0.2,1.2-0.6c0.3-0.6,0.5-1.3,0.4-2L163.3,132.9z"/>
<path class="st7" d="M169.5,138.1h-1.1v-7.4l-2.2,0.8v-1l3.2-1.2h0.2L169.5,138.1z"/>
<path class="st7" d="M178.2,134.4c0.1,1-0.2,2-0.7,2.9c-1,1.2-2.8,1.3-3.9,0.3c-0.1-0.1-0.2-0.2-0.2-0.2c-0.5-0.8-0.8-1.8-0.7-2.8
	v-1.5c-0.1-1,0.2-2,0.7-2.9c1-1.2,2.8-1.3,4-0.2c0.1,0.1,0.1,0.1,0.2,0.2c0.5,0.8,0.7,1.8,0.7,2.8L178.2,134.4z M177.1,132.9
	c0-0.7-0.1-1.4-0.4-2.1c-0.3-0.4-0.7-0.7-1.3-0.6c-0.5,0-1,0.2-1.2,0.6c-0.3,0.6-0.4,1.3-0.4,2v1.8c0,0.7,0.1,1.4,0.4,2.1
	c0.3,0.4,0.7,0.7,1.2,0.7c0.5,0,1-0.2,1.2-0.6c0.3-0.6,0.5-1.3,0.4-2L177.1,132.9z"/>
<path class="st7" d="M185.4,138.1h-5.7v-0.8l3-3.4c0.4-0.4,0.7-0.8,0.9-1.2c0.2-0.3,0.3-0.6,0.3-1c0-0.4-0.1-0.8-0.4-1.1
	c-0.3-0.3-0.7-0.5-1.1-0.4c-0.5,0-0.9,0.1-1.3,0.5c-0.3,0.4-0.5,0.8-0.5,1.3h-1.1c0-0.7,0.3-1.4,0.8-1.9c0.6-0.5,1.3-0.8,2.1-0.7
	c0.7,0,1.4,0.2,1.9,0.6c0.5,0.4,0.7,1.1,0.7,1.7c-0.2,1.2-0.7,2.3-1.6,3.1l-2.3,2.5h4.4L185.4,138.1z"/>
<linearGradient id="SVGID_7_" gradientUnits="userSpaceOnUse" x1="319.278" y1="142.0633" x2="326.041" y2="142.0633" gradientTransform="matrix(1 0 0 -1 0 201.8898)">
	<stop  offset="0" style="stop-color:#59A5B2"/>
	<stop  offset="1" style="stop-color:#AAE5F2"/>
</linearGradient>
<polygon class="st8" points="319.3,57.8 326,57.8 322.7,61.9 "/>
<rect x="251.3" y="102" class="st9" width="73.6" height="1.4"/>
<rect x="251.3" y="127.4" class="st9" width="73.6" height="1.4"/>
<path class="st7" d="M257.6,91.8h-3.8v3.1h4.4v0.9h-5.5v-8.7h5.5V88h-4.3v2.8h3.8L257.6,91.8z"/>
<path class="st7" d="M265.8,88H263v7.8h-1.1V88h-2.8v-0.9h6.8L265.8,88z"/>
<path class="st7" d="M273.8,95.8h-1.2v-4h-4.4v4h-1.2v-8.7h1.2v3.8h4.4v-3.8h1.2V95.8z"/>
<path class="st7" d="M255.5,114.8l2.1-3.3h1.4l-2.8,4.3l2.8,4.4h-1.4l-2.1-3.4l-2.2,3.4H252l2.8-4.4l-2.8-4.3h1.3L255.5,114.8z"/>
<path class="st7" d="M261.9,111.5l2.9,7.1l2.9-7.1h1.5v8.7h-1.2v-3.4l0.1-3.7l-2.9,7.1h-0.9l-2.9-7.1l0.1,3.7v3.4h-1.2v-8.7
	L261.9,111.5z"/>
<path class="st7" d="M274.3,116.7h-2.1v3.5h-1.2v-8.7h2.9c0.8-0.1,1.6,0.2,2.3,0.7c0.5,0.5,0.8,1.2,0.8,2c0,0.5-0.1,1-0.4,1.4
	c-0.3,0.4-0.7,0.7-1.2,0.9l2.1,3.7v0.1h-1.2L274.3,116.7z M272.3,115.7h1.8c0.5,0,1-0.1,1.4-0.4c0.3-0.3,0.5-0.7,0.5-1.2
	c0-0.5-0.1-0.9-0.5-1.2c-0.4-0.3-0.9-0.5-1.4-0.4h-1.8V115.7z"/>
<path class="st7" d="M258.9,134.8v5.9c0,0.8-0.3,1.5-0.8,2c-0.6,0.5-1.3,0.9-2.1,0.9l-0.3,0c-0.8,0-1.6-0.2-2.3-0.8
	c-0.6-0.6-0.9-1.3-0.9-2.1v-5.9h1.1v5.9c-0.1,1.1,0.8,2.1,1.9,2.1c1.1,0.1,2.1-0.8,2.1-1.9c0-0.1,0-0.2,0-0.3v-5.9H258.9z"/>
<path class="st7" d="M263.3,139.7c-0.8-0.2-1.5-0.5-2.2-1c-0.4-0.4-0.7-0.9-0.7-1.5c0-0.7,0.3-1.3,0.8-1.7c0.6-0.5,1.4-0.7,2.1-0.7
	c0.6,0,1.1,0.1,1.6,0.3c0.4,0.2,0.8,0.5,1.1,1c0.3,0.4,0.4,0.9,0.4,1.3h-1.2c0-0.5-0.2-0.9-0.5-1.2c-0.4-0.3-0.9-0.5-1.4-0.5
	c-0.5,0-0.9,0.1-1.3,0.4c-0.3,0.2-0.5,0.6-0.5,1c0,0.4,0.2,0.7,0.5,0.9c0.5,0.3,1,0.6,1.5,0.7c0.6,0.2,1.2,0.4,1.7,0.7
	c0.4,0.2,0.7,0.5,0.9,0.9c0.2,0.4,0.3,0.8,0.3,1.2c0,0.7-0.3,1.3-0.8,1.7c-0.6,0.5-1.4,0.7-2.2,0.6c-0.6,0-1.1-0.1-1.7-0.3
	c-0.5-0.2-0.9-0.5-1.2-0.9c-0.3-0.4-0.4-0.9-0.4-1.4h1.2c0,0.5,0.2,1,0.6,1.3c0.5,0.3,1,0.5,1.6,0.5c0.5,0,1-0.1,1.4-0.4
	c0.3-0.2,0.5-0.6,0.5-1c0-0.4-0.1-0.8-0.5-1C264.4,140,263.9,139.8,263.3,139.7z"/>
<path class="st7" d="M268,143.6v-8.7h2.5c0.7,0,1.4,0.2,2,0.5c0.6,0.3,1.1,0.8,1.4,1.4c0.3,0.7,0.5,1.4,0.5,2.1v0.6
	c0,0.7-0.1,1.5-0.5,2.2c-0.3,0.6-0.8,1.1-1.4,1.4c-0.6,0.3-1.3,0.5-2.1,0.5L268,143.6z M269.2,135.8v6.8h1.2c0.8,0,1.5-0.3,2.1-0.8
	c0.5-0.7,0.8-1.5,0.7-2.4v-0.5c0.1-0.8-0.2-1.7-0.7-2.3c-0.5-0.6-1.2-0.9-2-0.8L269.2,135.8z"/>
<path class="st7" d="M282.1,135.8h-2.8v7.8h-1.1v-7.8h-2.8v-0.9h6.8V135.8z"/>
<linearGradient id="SVGID_8_" gradientUnits="userSpaceOnUse" x1="215.777" y1="58.4728" x2="215.777" y2="145.3638" gradientTransform="matrix(1 0 0 -1 0 201.8898)">
	<stop  offset="0" style="stop-color:#5979B2"/>
	<stop  offset="1" style="stop-color:#AAE5F2"/>
</linearGradient>
<path class="st10" d="M218,52.2h-1.9v-5h-0.6v5h-1.9v32.2h1.9v87.4h0.6V84.5h1.9V52.2z M217.4,83.9h-3.2v-31h3.2L217.4,83.9z"/>
<rect x="34.9" y="71.5" class="st9" width="157.4" height="1.4"/>
<rect x="33.7" y="95.3" class="st9" width="157.4" height="1.4"/>
<rect x="33.7" y="120.3" class="st9" width="157.4" height="1.4"/>
<path class="st6" d="M24.2,35.1v-3.3l0.9,0.9v2.3l-0.5,0.5L24.2,35.1z M25,36.2v2.4l-0.9,0.9V36l0.3-0.3L25,36.2z M28.8,31.6
	l-0.8,0.9h-2.8l-0.8-0.9H28.8z M28,35.1l0.4,0.4L28,36h-3l-0.4-0.4l0.4-0.4H28z M28.1,34.8v-2.3l0.9-0.9v3.3l-0.3,0.3L28.1,34.8z
	 M28.9,36v3.5l-0.9-0.9v-2.4l0.5-0.5L28.9,36z"/>
<path class="st6" d="M31.1,34.8l-0.5,0.5l-0.3-0.3v-3.5l0.9,0.9L31.1,34.8z M30.3,39.1l0.4,0.4l0.4-0.4v-2.9l-0.5-0.5L30.3,36
	L30.3,39.1z M34.7,36.3l-2.8,2.8h-0.6v-0.6l2.8-2.8h0.7L34.7,36.3z M35.1,35.1l-0.3,0.3l-0.5-0.5v-2.4l0.9-0.9V35.1z"/>
<path class="st6" d="M36.4,35.1v-3.3l0.9,0.9v2.3l-0.5,0.5L36.4,35.1z M37.3,36.2v2.4l-0.9,0.9V36l0.3-0.3L37.3,36.2z M41,31.6
	l-0.8,0.9h-2.8l-0.8-0.9H41z M40.3,35.1l0.4,0.4L40.3,36h-3l-0.4-0.4l0.4-0.4H40.3z M40.3,34.8v-2.3l0.9-0.9v3.3l-0.3,0.3L40.3,34.8
	z M41.2,36v3.5l-0.9-0.9v-2.4l0.5-0.5L41.2,36z"/>
<path class="st6" d="M43.9,35.1l-0.3,0.3l-0.5-0.5V32l0.4-0.4l0.4,0.4L43.9,35.1z M43.9,39.1l-0.4,0.4l-0.4-0.4v-2.9l0.5-0.5
	l0.3,0.3L43.9,39.1z"/>
<path class="st6" d="M45.8,35.1v-3.5l0.9,0.8v2.4l-0.5,0.5L45.8,35.1z M46.6,36.2v2.3l-0.9,0.9V36l0.3-0.3L46.6,36.2z M50.5,39.5
	h-4.6l0.8-0.9h2.9L50.5,39.5z"/>
<path class="st6" d="M51.9,35.1v-3.3l0.9,0.9v2.3l-0.5,0.5L51.9,35.1z M52.8,36.2v2.4l-0.9,0.9V36l0.3-0.3L52.8,36.2z M56.5,31.6
	l-0.8,0.9h-2.8l-0.8-0.9H56.5z M55.8,35.1l0.4,0.4L55.8,36h-3l-0.4-0.4l0.4-0.4H55.8z M55.8,34.8v-2.3l0.9-0.9v3.3l-0.3,0.3
	L55.8,34.8z M56.7,36v3.5l-0.9-0.9v-2.4l0.5-0.5L56.7,36z"/>
<path class="st6" d="M58.9,34.8l-0.5,0.5L58,35.1v-3.3l0.9,0.9V34.8z M58.9,38.5L58,39.3V36l0.3-0.3l0.5,0.5V38.5z M62.2,32
	l-0.4,0.4H59l-0.8-0.9h3.6L62.2,32z M62.2,39.1l-0.4,0.4h-3.6l0.8-0.9h2.8L62.2,39.1z M61.9,35.1l0.4,0.4L61.9,36h-3l-0.4-0.4
	l0.4-0.4H61.9z M62.8,35.1l-0.3,0.3l-0.5-0.5v-2.3l0.4-0.4l0.4,0.4L62.8,35.1z M62.8,38.5l-0.4,0.4l-0.4-0.4v-2.3l0.5-0.5l0.3,0.3
	L62.8,38.5z"/>
<path class="st6" d="M64.2,35.1v-3.5l0.9,0.8v2.4l-0.5,0.5L64.2,35.1z M65,36.2v2.3l-0.9,0.9V36l0.3-0.3L65,36.2z M68.9,39.5h-4.6
	l0.8-0.9h2.9L68.9,39.5z"/>
<path class="st6" d="M70.3,35.1v-3.3l0.9,0.9v2.3l-0.5,0.5L70.3,35.1z M71.1,36.2v2.3l-0.9,0.9V36l0.3-0.3L71.1,36.2z M75,31.6
	l-0.8,0.9h-2.9l-0.8-0.9H75z M75,39.5h-4.6l0.8-0.9h2.9L75,39.5z M74.1,35.1l0.4,0.4L74.1,36h-3l-0.4-0.4l0.4-0.4H74.1z"/>
<path class="st6" d="M80.7,35.1l-0.3,0.3l-0.5-0.5V32l0.4-0.4l0.4,0.4V35.1z M80.7,39.1l-0.4,0.4l-0.4-0.4v-2.9l0.5-0.5l0.3,0.3
	V39.1z"/>
<path class="st6" d="M82.6,35.1v-3.5l0.9,0.8v2.4l-0.5,0.5L82.6,35.1z M83.5,36.2v2.4l-0.9,0.9V36l0.3-0.3L83.5,36.2z M83.7,33
	l0-0.6h0.6l2.1,2.1v0.6h-0.6L83.7,33z M86.5,34.8v-2.4l0.9-0.9v3.5L87,35.4L86.5,34.8z M87.4,36v3.5l-0.9-0.9v-2.4l0.5-0.5L87.4,36z
	"/>
<path class="st6" d="M92.5,34.8L92,35.4l-0.3-0.3v-3.5l0.9,0.9V34.8z M92.5,38.5l-0.9,0.9V36l0.3-0.3l0.5,0.5V38.5z M96.3,39.5h-4.4
	l0.8-0.9h2.8L96.3,39.5z M94.5,38L94,38.5L93.6,38v-1.9l0.4-0.4l0.4,0.4V38z M96.4,35.1l-0.3,0.3l-0.5-0.5v-2.4l0.9-0.9V35.1z
	 M96.4,39.3l-0.9-0.9v-2.3l0.5-0.5l0.3,0.3V39.3z"/>
<path class="st6" d="M97.8,35.1v-3.3l0.9,0.9v2.3l-0.5,0.5L97.8,35.1z M98.6,36.2v2.4l-0.9,0.9V36l0.3-0.3L98.6,36.2z M102.4,31.6
	l-0.8,0.9h-2.8L98,31.6H102.4z M101.7,35.1l0.4,0.4l-0.4,0.4h-3l-0.4-0.4l0.4-0.4H101.7z M101.7,34.8v-2.3l0.9-0.9v3.3l-0.3,0.3
	L101.7,34.8z M102.5,36v3.5l-0.9-0.9v-2.4l0.5-0.5L102.5,36z"/>
<path class="st6" d="M103.9,35.1v-3.5l0.9,0.8v2.4l-0.5,0.5L103.9,35.1z M104.8,36.2v2.3l-0.9,0.9V36l0.3-0.3L104.8,36.2z
	 M108.7,39.5h-4.6l0.8-0.9h2.9L108.7,39.5z"/>
<path class="st6" d="M110,35.1v-3.5l0.9,0.8v2.4l-0.5,0.5L110,35.1z M110.9,36.2v2.3l-0.9,0.9V36l0.3-0.3L110.9,36.2z M114.8,39.5
	h-4.6l0.8-0.9h2.9L114.8,39.5z"/>
<path class="st6" d="M116.2,35.1v-3.3l0.9,0.9v2.3l-0.5,0.5L116.2,35.1z M117,36.2v2.3l-0.9,0.9V36l0.3-0.3L117,36.2z M120.9,31.6
	l-0.8,0.9h-2.9l-0.8-0.9H120.9z M120.9,39.5h-4.6l0.8-0.9h2.9L120.9,39.5z M120,35.1l0.4,0.4L120,36h-3l-0.4-0.4l0.4-0.4H120z"/>
<path class="st6" d="M127,31.6l-0.8,0.9h-3.1l-0.9-0.9L127,31.6z M125.1,35.5l-0.3,0.3l-0.5-0.5V33l0.4-0.4l0.4,0.4V35.5z
	 M125.1,39.1l-0.4,0.4l-0.4-0.4v-2.4l0.5-0.5l0.3,0.3V39.1z"/>
</svg>
