<svg xmlns="http://www.w3.org/2000/svg" viewBox="0 0 76.594 19.145"><defs><style>.cls-1,.cls-4{fill:none;stroke-miterlimit:10;}.cls-1{stroke:#aae5f2;}.cls-2{fill:#aae5f2;}.cls-3{isolation:isolate;}.cls-4{stroke:#fff;}.cls-5{fill:#fff;}</style></defs><g id="Capa_12" data-name="Capa 12"><g id="USDT_BTC" data-name="USDT BTC"><g id="yyyyy"><rect class="cls-1" x="39.6" y="1.241" width="35.67" height="16.247"/></g><g id="USDT_BTC-2" data-name="USDT BTC-2"><path class="cls-2" d="M42.739,8.27a.77.77,0,0,0,.311-.059.653.653,0,0,0,.231-.164.7.7,0,0,0,.145-.252,1,1,0,0,0,.05-.323V5.77h.377v1.7a1.288,1.288,0,0,1-.077.45,1.062,1.062,0,0,1-.221.359,1.008,1.008,0,0,1-.351.237,1.3,1.3,0,0,1-.93,0,1.012,1.012,0,0,1-.352-.237,1.064,1.064,0,0,1-.222-.359,1.288,1.288,0,0,1-.077-.45V5.77H42v1.7a1,1,0,0,0,.05.323.712.712,0,0,0,.145.252.65.65,0,0,0,.232.165A.775.775,0,0,0,42.739,8.27Z"/><path class="cls-2" d="M45.938,6.208a.151.151,0,0,1-.037.044.081.081,0,0,1-.051.014.138.138,0,0,1-.077-.033,1.265,1.265,0,0,0-.111-.073.879.879,0,0,0-.162-.073.8.8,0,0,0-.455,0,.472.472,0,0,0-.163.094.371.371,0,0,0-.1.137.442.442,0,0,0-.033.171.314.314,0,0,0,.058.2.505.505,0,0,0,.152.132,1.22,1.22,0,0,0,.215.095l.246.083a2.3,2.3,0,0,1,.247.1.859.859,0,0,1,.215.135.621.621,0,0,1,.152.2.663.663,0,0,1,.058.293.936.936,0,0,1-.063.345.779.779,0,0,1-.182.281.862.862,0,0,1-.3.188,1.094,1.094,0,0,1-.4.068,1.217,1.217,0,0,1-.5-.1,1.156,1.156,0,0,1-.382-.266l.11-.18a.145.145,0,0,1,.038-.036.086.086,0,0,1,.049-.015.156.156,0,0,1,.094.044c.036.029.079.062.132.1a1.009,1.009,0,0,0,.192.1.851.851,0,0,0,.515.008.52.52,0,0,0,.179-.1.449.449,0,0,0,.112-.162.537.537,0,0,0,.039-.209.355.355,0,0,0-.057-.208.489.489,0,0,0-.152-.136,1.052,1.052,0,0,0-.214-.092l-.246-.079a2.231,2.231,0,0,1-.247-.093.779.779,0,0,1-.214-.136.633.633,0,0,1-.151-.211.738.738,0,0,1-.058-.311.753.753,0,0,1,.225-.534.817.817,0,0,1,.271-.172.989.989,0,0,1,.37-.064,1.176,1.176,0,0,1,.428.074.986.986,0,0,1,.338.215Z"/><path class="cls-2" d="M49,7.172a1.586,1.586,0,0,1-.1.572,1.278,1.278,0,0,1-.282.442,1.253,1.253,0,0,1-.436.284,1.517,1.517,0,0,1-.563.1H46.576V5.77h1.047a1.517,1.517,0,0,1,.563.1,1.241,1.241,0,0,1,.436.285A1.292,1.292,0,0,1,48.9,6.6,1.588,1.588,0,0,1,49,7.172Zm-.389,0a1.406,1.406,0,0,0-.07-.462.979.979,0,0,0-.2-.344.859.859,0,0,0-.313-.215,1.1,1.1,0,0,0-.409-.074h-.666V8.264h.666a1.1,1.1,0,0,0,.409-.074.869.869,0,0,0,.313-.214.966.966,0,0,0,.2-.343A1.408,1.408,0,0,0,48.614,7.172Z"/><path class="cls-2" d="M51.235,5.77v.318H50.33V8.571h-.379V6.088h-.909V5.77Z"/><path class="cls-2" d="M51.351,8.612a.208.208,0,0,1-.081.1.2.2,0,0,1-.111.034h-.147l1.175-2.926a.211.211,0,0,1,.072-.1.192.192,0,0,1,.112-.033h.146Z"/><path class="cls-2" d="M52.834,8.571V5.77h.893a1.708,1.708,0,0,1,.445.051.875.875,0,0,1,.307.144.585.585,0,0,1,.178.23.787.787,0,0,1,.057.306.6.6,0,0,1-.032.2.567.567,0,0,1-.1.178.67.67,0,0,1-.164.147.9.9,0,0,1-.232.1.867.867,0,0,1,.464.221.58.58,0,0,1,.156.422.8.8,0,0,1-.065.325.7.7,0,0,1-.192.252.891.891,0,0,1-.309.163,1.369,1.369,0,0,1-.417.058Zm.379-1.546h.5a.988.988,0,0,0,.277-.035.576.576,0,0,0,.2-.1A.387.387,0,0,0,54.3,6.74a.493.493,0,0,0,.037-.194.428.428,0,0,0-.149-.362.755.755,0,0,0-.461-.115h-.514Zm0,.27V8.27h.606a.92.92,0,0,0,.279-.037.523.523,0,0,0,.191-.105.413.413,0,0,0,.111-.16.582.582,0,0,0,.035-.2.418.418,0,0,0-.154-.343.72.72,0,0,0-.464-.126Z"/><path class="cls-2" d="M57.271,5.77v.318h-.905V8.571h-.379V6.088h-.909V5.77Z"/><path class="cls-2" d="M59.452,7.992a.079.079,0,0,1,.057.026l.148.162a1.183,1.183,0,0,1-.417.311,1.427,1.427,0,0,1-.591.111,1.411,1.411,0,0,1-.55-.1,1.207,1.207,0,0,1-.42-.294,1.318,1.318,0,0,1-.27-.452,1.709,1.709,0,0,1-.095-.58,1.6,1.6,0,0,1,.1-.581,1.327,1.327,0,0,1,.289-.453,1.284,1.284,0,0,1,.444-.295,1.528,1.528,0,0,1,.572-.1,1.278,1.278,0,0,1,.931.356l-.124.173A.14.14,0,0,1,59.5,6.3a.092.092,0,0,1-.051.012.1.1,0,0,1-.054-.018l-.067-.046c-.026-.018-.057-.038-.092-.059a.984.984,0,0,0-.125-.059,1.013,1.013,0,0,0-.168-.045,1.117,1.117,0,0,0-.221-.019,1.071,1.071,0,0,0-.411.077.928.928,0,0,0-.322.22.994.994,0,0,0-.21.348,1.333,1.333,0,0,0-.075.46,1.348,1.348,0,0,0,.075.466,1.033,1.033,0,0,0,.2.347.861.861,0,0,0,.308.216.976.976,0,0,0,.383.075,1.514,1.514,0,0,0,.225-.015.879.879,0,0,0,.185-.046.8.8,0,0,0,.158-.079,1.308,1.308,0,0,0,.148-.114A.1.1,0,0,1,59.452,7.992Z"/></g><g id="Shape"><path class="cls-2" d="M72.761,3.583a.225.225,0,0,0,0-.318l0,0a.225.225,0,0,0-.318,0h0l-.56.56a.043.043,0,0,1-.06,0l-.56-.56a.225.225,0,0,0-.318,0l0,0a.226.226,0,0,0,0,.318h0l.561.56a.043.043,0,0,1,0,.06l-.56.56a.225.225,0,0,0,0,.318l0,0a.226.226,0,0,0,.318,0h0l.56-.561a.043.043,0,0,1,.06,0l.56.56a.225.225,0,0,0,.318,0l0,0a.225.225,0,0,0,0-.318h0L72.2,4.2a.043.043,0,0,1,0-.06Z"/></g><g id="_16010.87099999" data-name=" 16010.87099999"><g class="cls-3"><path class="cls-2" d="M53.842,12.107a.65.65,0,0,1-.225-.04.54.54,0,0,1-.187-.116.583.583,0,0,1-.128-.19.644.644,0,0,1-.048-.257.653.653,0,0,1,.2-.468.684.684,0,0,1,.22-.14.75.75,0,0,1,.28-.051.727.727,0,0,1,.274.049.631.631,0,0,1,.211.139.621.621,0,0,1,.136.215.756.756,0,0,1,.048.275.857.857,0,0,1-.017.172.9.9,0,0,1-.049.16,1.382,1.382,0,0,1-.077.154q-.045.076-.1.159l-.512.739a.128.128,0,0,1-.054.045.186.186,0,0,1-.081.016h-.24l.639-.837c.022-.028.042-.055.06-.08s.036-.051.053-.076a.592.592,0,0,1-.182.1A.685.685,0,0,1,53.842,12.107Zm.525-.614a.487.487,0,0,0-.032-.179.393.393,0,0,0-.087-.135.382.382,0,0,0-.132-.086.467.467,0,0,0-.17-.03.475.475,0,0,0-.176.032.373.373,0,0,0-.224.22.467.467,0,0,0-.031.17.515.515,0,0,0,.029.178.36.36,0,0,0,.082.133.343.343,0,0,0,.13.082.5.5,0,0,0,.173.028.48.48,0,0,0,.187-.035.411.411,0,0,0,.137-.091.4.4,0,0,0,.085-.132A.435.435,0,0,0,54.367,11.493Z"/><path class="cls-2" d="M54.876,12.788a.168.168,0,0,1,.012-.063.158.158,0,0,1,.035-.053.146.146,0,0,1,.055-.036.183.183,0,0,1,.071-.013.178.178,0,0,1,.078.016.159.159,0,0,1,.057.045.214.214,0,0,1,.035.065.267.267,0,0,1,.011.082.519.519,0,0,1-.019.137.68.68,0,0,1-.054.141.771.771,0,0,1-.087.135.849.849,0,0,1-.118.122l-.044-.042a.055.055,0,0,1-.019-.042.057.057,0,0,1,.021-.039c.009-.011.022-.025.037-.044a.715.715,0,0,0,.046-.062.513.513,0,0,0,.043-.077.4.4,0,0,0,.029-.092h-.019a.185.185,0,0,1-.069-.012.16.16,0,0,1-.054-.038.165.165,0,0,1-.035-.057A.211.211,0,0,1,54.876,12.788Z"/><path class="cls-2" d="M56.24,10.845a.784.784,0,0,1,.25.039.573.573,0,0,1,.2.115.544.544,0,0,1,.132.184.586.586,0,0,1,.049.247.652.652,0,0,1-.035.216.931.931,0,0,1-.1.192,1.41,1.41,0,0,1-.138.177c-.052.057-.108.116-.167.175l-.552.566A1.142,1.142,0,0,1,56,12.73a.772.772,0,0,1,.115-.009h.7a.088.088,0,0,1,.067.025.084.084,0,0,1,.025.064v.158h-1.4v-.089a.174.174,0,0,1,.011-.057.135.135,0,0,1,.036-.054l.673-.676c.055-.057.106-.111.152-.163a1.245,1.245,0,0,0,.118-.158.735.735,0,0,0,.076-.161.575.575,0,0,0,.026-.173.422.422,0,0,0-.029-.162.327.327,0,0,0-.081-.116.336.336,0,0,0-.12-.067.446.446,0,0,0-.148-.023.436.436,0,0,0-.147.023.4.4,0,0,0-.207.164.407.407,0,0,0-.051.126.115.115,0,0,1-.035.062.093.093,0,0,1-.061.019h-.016l-.018,0-.137-.023a.787.787,0,0,1,.08-.255A.6.6,0,0,1,55.782,11a.632.632,0,0,1,.207-.114A.786.786,0,0,1,56.24,10.845Z"/><path class="cls-2" d="M57.481,12.769h.451V11.337c0-.043,0-.086,0-.13l-.375.32a.115.115,0,0,1-.029.018.1.1,0,0,1-.028.005.088.088,0,0,1-.04-.01.073.073,0,0,1-.026-.023l-.082-.113.624-.54h.213v1.9h.413v.2H57.481Z"/><path class="cls-2" d="M59.669,10.845a.747.747,0,0,1,.246.038.568.568,0,0,1,.2.108.494.494,0,0,1,.126.17.518.518,0,0,1,.046.221.581.581,0,0,1-.026.179.419.419,0,0,1-.073.137.447.447,0,0,1-.115.1.69.69,0,0,1-.151.066.567.567,0,0,1,.308.182.487.487,0,0,1,.1.319.6.6,0,0,1-.055.261.586.586,0,0,1-.151.2.67.67,0,0,1-.222.125.828.828,0,0,1-.271.043.859.859,0,0,1-.286-.042.588.588,0,0,1-.2-.115.617.617,0,0,1-.135-.173,1.326,1.326,0,0,1-.089-.218l.111-.047a.153.153,0,0,1,.062-.013.114.114,0,0,1,.052.012.077.077,0,0,1,.034.039l.006.012.006.014c.013.029.03.061.049.1a.456.456,0,0,0,.08.1.413.413,0,0,0,.124.079.448.448,0,0,0,.183.032.478.478,0,0,0,.193-.036.419.419,0,0,0,.138-.093.388.388,0,0,0,.083-.127.372.372,0,0,0,.028-.14.509.509,0,0,0-.023-.155.276.276,0,0,0-.082-.122.412.412,0,0,0-.164-.08,1,1,0,0,0-.269-.03V11.8a.835.835,0,0,0,.228-.028.452.452,0,0,0,.154-.076A.292.292,0,0,0,60,11.576a.4.4,0,0,0,.027-.149A.407.407,0,0,0,60,11.268a.3.3,0,0,0-.078-.111.34.34,0,0,0-.118-.066.473.473,0,0,0-.148-.022.434.434,0,0,0-.146.023.389.389,0,0,0-.12.066.378.378,0,0,0-.087.1.48.48,0,0,0-.053.125.119.119,0,0,1-.035.062.1.1,0,0,1-.06.018h-.015l-.019,0-.136-.023a.786.786,0,0,1,.079-.255A.6.6,0,0,1,59.211,11a.632.632,0,0,1,.207-.114A.781.781,0,0,1,59.669,10.845Z"/><path class="cls-2" d="M60.59,12.807a.17.17,0,0,1,.014-.071.166.166,0,0,1,.038-.059.172.172,0,0,1,.058-.04.183.183,0,0,1,.2.04.2.2,0,0,1,.039.059.187.187,0,0,1,.014.071.19.19,0,0,1-.014.073.211.211,0,0,1-.039.058.169.169,0,0,1-.059.039.2.2,0,0,1-.143,0,.156.156,0,0,1-.058-.039.185.185,0,0,1-.052-.131Z"/><path class="cls-2" d="M62.035,11.682a.657.657,0,0,1,.239.042.574.574,0,0,1,.2.121.586.586,0,0,1,.135.2.68.68,0,0,1,.05.267.687.687,0,0,1-.053.269.654.654,0,0,1-.148.217.665.665,0,0,1-.227.145.777.777,0,0,1-.294.053.767.767,0,0,1-.286-.051.6.6,0,0,1-.219-.143.613.613,0,0,1-.14-.226.841.841,0,0,1-.049-.3.8.8,0,0,1,.061-.293,1.492,1.492,0,0,1,.2-.334l.532-.717a.163.163,0,0,1,.057-.045.192.192,0,0,1,.084-.018H62.4l-.729.922a.622.622,0,0,1,.166-.08A.649.649,0,0,1,62.035,11.682Zm-.542.638a.54.54,0,0,0,.029.185.387.387,0,0,0,.086.144.378.378,0,0,0,.137.093.544.544,0,0,0,.376,0,.417.417,0,0,0,.146-.094.4.4,0,0,0,.094-.142.47.47,0,0,0,.033-.178.518.518,0,0,0-.032-.186A.413.413,0,0,0,62.271,12a.392.392,0,0,0-.141-.088.5.5,0,0,0-.18-.031.489.489,0,0,0-.191.036.43.43,0,0,0-.144.1.423.423,0,0,0-.091.14A.449.449,0,0,0,61.493,12.32Z"/><path class="cls-2" d="M64.106,12.211h.318v.149a.056.056,0,0,1-.014.04.052.052,0,0,1-.043.016h-.261v.552h-.23v-.552h-.931a.08.08,0,0,1-.05-.017.07.07,0,0,1-.028-.042l-.026-.133,1.022-1.356h.243Zm-.23-.867c0-.025,0-.052,0-.082s.005-.059.01-.091l-.764,1.04h.752Z"/><path class="cls-2" d="M65.332,12.992a.936.936,0,0,1-.288-.042.666.666,0,0,1-.224-.119.543.543,0,0,1-.145-.188.59.59,0,0,1-.051-.249.519.519,0,0,1,.105-.334.586.586,0,0,1,.3-.187.514.514,0,0,1-.25-.183A.505.505,0,0,1,64.7,11.4a.53.53,0,0,1,.045-.217A.545.545,0,0,1,64.871,11a.6.6,0,0,1,.2-.117.823.823,0,0,1,.519,0,.6.6,0,0,1,.2.117.517.517,0,0,1,.129.176.53.53,0,0,1,.045.217.5.5,0,0,1-.085.293.507.507,0,0,1-.249.183.582.582,0,0,1,.3.187.52.52,0,0,1,.106.334.59.59,0,0,1-.052.249.546.546,0,0,1-.146.188.652.652,0,0,1-.223.119A.934.934,0,0,1,65.332,12.992Zm0-.208a.559.559,0,0,0,.184-.029.407.407,0,0,0,.138-.08.354.354,0,0,0,.086-.125.415.415,0,0,0,.03-.16.438.438,0,0,0-.036-.186.337.337,0,0,0-.1-.125.394.394,0,0,0-.14-.071.6.6,0,0,0-.165-.023.605.605,0,0,0-.166.023.4.4,0,0,0-.14.071.337.337,0,0,0-.1.125.438.438,0,0,0-.036.186.415.415,0,0,0,.03.16.344.344,0,0,0,.087.125.407.407,0,0,0,.138.08A.551.551,0,0,0,65.332,12.784Zm0-1.008a.438.438,0,0,0,.175-.032.318.318,0,0,0,.184-.2.465.465,0,0,0,.02-.14.391.391,0,0,0-.024-.137.321.321,0,0,0-.19-.189.446.446,0,0,0-.165-.028.439.439,0,0,0-.165.028.316.316,0,0,0-.119.076.312.312,0,0,0-.072.113.391.391,0,0,0-.024.137.465.465,0,0,0,.021.14.307.307,0,0,0,.065.119.328.328,0,0,0,.119.084A.434.434,0,0,0,65.332,11.776Z"/><path class="cls-2" d="M67.617,10.982a.127.127,0,0,1-.035.092.163.163,0,0,1-.119.036H66.8l-.1.551a1.477,1.477,0,0,1,.3-.035.809.809,0,0,1,.29.048.608.608,0,0,1,.21.133.544.544,0,0,1,.128.2.718.718,0,0,1,.044.252.746.746,0,0,1-.059.3.681.681,0,0,1-.161.231.7.7,0,0,1-.239.148.89.89,0,0,1-.475.033.976.976,0,0,1-.158-.049.93.93,0,0,1-.137-.071.764.764,0,0,1-.111-.083l.079-.112a.082.082,0,0,1,.07-.038.128.128,0,0,1,.065.023c.025.015.055.032.091.051a.8.8,0,0,0,.123.05.568.568,0,0,0,.17.023.541.541,0,0,0,.2-.035.446.446,0,0,0,.15-.1.456.456,0,0,0,.1-.156.594.594,0,0,0,.034-.2.521.521,0,0,0-.029-.177.351.351,0,0,0-.086-.135.41.41,0,0,0-.145-.087.614.614,0,0,0-.2-.03,1.034,1.034,0,0,0-.164.013,1.1,1.1,0,0,0-.176.043l-.164-.049.17-.982h1Z"/><path class="cls-2" d="M68.765,10.845a.773.773,0,0,1,.249.039.573.573,0,0,1,.2.115.561.561,0,0,1,.133.184.6.6,0,0,1,.048.247.652.652,0,0,1-.035.216.927.927,0,0,1-.095.192,1.42,1.42,0,0,1-.139.177c-.052.057-.108.116-.166.175l-.553.566a1.2,1.2,0,0,1,.119-.026.775.775,0,0,1,.116-.009h.7a.091.091,0,0,1,.068.025.088.088,0,0,1,.025.064v.158h-1.4v-.089a.174.174,0,0,1,.011-.057.16.16,0,0,1,.036-.054l.673-.676c.056-.057.107-.111.152-.163a1.157,1.157,0,0,0,.118-.158.735.735,0,0,0,.076-.161.545.545,0,0,0,.026-.173.4.4,0,0,0-.029-.162.315.315,0,0,0-.081-.116.336.336,0,0,0-.12-.067.446.446,0,0,0-.148-.023.44.44,0,0,0-.147.023.4.4,0,0,0-.119.066.375.375,0,0,0-.088.1.382.382,0,0,0-.05.126.116.116,0,0,1-.036.062.091.091,0,0,1-.061.019h-.016l-.018,0-.136-.023a.763.763,0,0,1,.079-.255A.6.6,0,0,1,68.307,11a.632.632,0,0,1,.207-.114A.781.781,0,0,1,68.765,10.845Z"/><path class="cls-2" d="M70.537,11.682a.657.657,0,0,1,.239.042.565.565,0,0,1,.333.317.68.68,0,0,1,.05.267.687.687,0,0,1-.053.269.651.651,0,0,1-.147.217.669.669,0,0,1-.228.145.835.835,0,0,1-.58,0,.6.6,0,0,1-.219-.143.613.613,0,0,1-.14-.226.841.841,0,0,1-.049-.3.8.8,0,0,1,.061-.293A1.492,1.492,0,0,1,70,11.648l.532-.717a.163.163,0,0,1,.057-.045.192.192,0,0,1,.084-.018H70.9l-.728.922a.622.622,0,0,1,.166-.08A.649.649,0,0,1,70.537,11.682ZM70,12.32a.54.54,0,0,0,.029.185.4.4,0,0,0,.086.144.374.374,0,0,0,.138.093.488.488,0,0,0,.185.033.507.507,0,0,0,.191-.034.422.422,0,0,0,.145-.094.4.4,0,0,0,.094-.142.47.47,0,0,0,.033-.178.5.5,0,0,0-.032-.186A.413.413,0,0,0,70.773,12a.392.392,0,0,0-.141-.088.5.5,0,0,0-.18-.031.489.489,0,0,0-.191.036.44.44,0,0,0-.144.1.408.408,0,0,0-.091.14A.449.449,0,0,0,70,12.32Z"/><path class="cls-2" d="M72.237,11.682a.657.657,0,0,1,.239.042.556.556,0,0,1,.2.121.572.572,0,0,1,.135.2.68.68,0,0,1,.05.267.687.687,0,0,1-.053.269.651.651,0,0,1-.147.217.669.669,0,0,1-.228.145.835.835,0,0,1-.58,0,.617.617,0,0,1-.219-.143.626.626,0,0,1-.14-.226.841.841,0,0,1-.049-.3.784.784,0,0,1,.062-.293,1.484,1.484,0,0,1,.194-.334l.532-.717a.158.158,0,0,1,.058-.045.184.184,0,0,1,.083-.018H72.6l-.729.922a.622.622,0,0,1,.166-.08A.649.649,0,0,1,72.237,11.682Zm-.542.638a.565.565,0,0,0,.029.185.4.4,0,0,0,.086.144.391.391,0,0,0,.138.093.488.488,0,0,0,.185.033.5.5,0,0,0,.191-.034.427.427,0,0,0,.146-.094.41.41,0,0,0,.094-.142.47.47,0,0,0,.033-.178.5.5,0,0,0-.033-.186.385.385,0,0,0-.231-.229.5.5,0,0,0-.181-.031.48.48,0,0,0-.19.036.42.42,0,0,0-.144.1.408.408,0,0,0-.091.14A.45.45,0,0,0,71.695,12.32Z"/></g></g><path class="cls-2" d="M50.946,11.953a.219.219,0,0,0-.084-.062.285.285,0,0,0-.1-.019.289.289,0,0,0-.1.019.213.213,0,0,0-.082.062.3.3,0,0,0-.055.111.569.569,0,0,0-.02.165.54.54,0,0,0,.02.161.289.289,0,0,0,.055.108.2.2,0,0,0,.082.06.288.288,0,0,0,.1.018.284.284,0,0,0,.1-.018.2.2,0,0,0,.084-.06A.29.29,0,0,0,51,12.39a.538.538,0,0,0,.021-.161A.566.566,0,0,0,51,12.064.3.3,0,0,0,50.946,11.953Z"/><path class="cls-2" d="M49.6,11.48a.312.312,0,0,0,.1-.018.221.221,0,0,0,.083-.061.307.307,0,0,0,.057-.108.674.674,0,0,0,0-.326.322.322,0,0,0-.057-.111.216.216,0,0,0-.083-.063.283.283,0,0,0-.2,0,.2.2,0,0,0-.083.063.32.32,0,0,0-.055.111.674.674,0,0,0,0,.326.3.3,0,0,0,.055.108.206.206,0,0,0,.083.061A.312.312,0,0,0,49.6,11.48Z"/><path class="cls-2" d="M46.819,11.008a.407.407,0,0,0-.157-.143.426.426,0,0,0-.373,0,.407.407,0,0,0-.157.143.817.817,0,0,0-.107.263,2.006,2.006,0,0,0,0,.807.821.821,0,0,0,.107.262.4.4,0,0,0,.157.143.417.417,0,0,0,.373,0,.4.4,0,0,0,.157-.143.8.8,0,0,0,.109-.262,2.055,2.055,0,0,0,0-.807A.8.8,0,0,0,46.819,11.008Z"/><path class="cls-2" d="M50.472,9.792H42.9a1.833,1.833,0,0,0,0,3.665h7.574a1.833,1.833,0,1,0,0-3.665Zm-7.314,2.164h-.724v-.221h.724Zm1.693.768H43.726v-.2h.451V11.093c0-.043,0-.087.005-.131l-.376.321a.079.079,0,0,1-.029.017.072.072,0,0,1-.028,0,.087.087,0,0,1-.04-.009.084.084,0,0,1-.026-.023L43.6,11.16l.624-.541h.213v1.906h.413Zm.634-.089a.166.166,0,0,1-.1.1.178.178,0,0,1-.072.014.175.175,0,0,1-.072-.014.188.188,0,0,1-.058-.038.193.193,0,0,1-.038-.059.185.185,0,0,1-.014-.072.2.2,0,0,1,.014-.072.177.177,0,0,1,.038-.058.194.194,0,0,1,.058-.04.175.175,0,0,1,.072-.015.179.179,0,0,1,.072.015.2.2,0,0,1,.059.04.185.185,0,0,1,.052.13A.168.168,0,0,1,45.485,12.635Zm1.7-.483a1.03,1.03,0,0,1-.162.334.66.66,0,0,1-.243.2.733.733,0,0,1-.6,0,.665.665,0,0,1-.242-.2,1.009,1.009,0,0,1-.161-.334,1.995,1.995,0,0,1,0-.955,1,1,0,0,1,.161-.335.648.648,0,0,1,.242-.2.723.723,0,0,1,.6,0,.643.643,0,0,1,.243.2,1.016,1.016,0,0,1,.162.335,1.962,1.962,0,0,1,0,.955Zm1.7.572h-1.4v-.089a.144.144,0,0,1,.011-.057.156.156,0,0,1,.035-.055l.673-.675c.056-.057.107-.112.153-.164a1.178,1.178,0,0,0,.118-.158.681.681,0,0,0,.075-.16.547.547,0,0,0,.027-.174.4.4,0,0,0-.03-.161.313.313,0,0,0-.08-.116.356.356,0,0,0-.12-.068.479.479,0,0,0-.149-.023.434.434,0,0,0-.146.024.408.408,0,0,0-.12.065.392.392,0,0,0-.087.1.388.388,0,0,0-.051.126.122.122,0,0,1-.035.062.1.1,0,0,1-.062.019h-.015l-.018,0-.137-.024a.788.788,0,0,1,.079-.254.621.621,0,0,1,.149-.186.649.649,0,0,1,.207-.113.786.786,0,0,1,.251-.039.774.774,0,0,1,.249.04.564.564,0,0,1,.2.115.528.528,0,0,1,.133.184.6.6,0,0,1,.048.246.633.633,0,0,1-.035.217.851.851,0,0,1-.095.191,1.34,1.34,0,0,1-.139.178c-.052.057-.107.115-.166.175l-.552.566a.956.956,0,0,1,.118-.026.785.785,0,0,1,.116-.009h.7a.093.093,0,0,1,.067.024.087.087,0,0,1,.025.065Zm.287-1.373a.655.655,0,0,1-.035-.22.671.671,0,0,1,.035-.224.479.479,0,0,1,.1-.166.43.43,0,0,1,.147-.1A.479.479,0,0,1,49.6,10.6a.49.49,0,0,1,.184.035.425.425,0,0,1,.148.1.493.493,0,0,1,.1.166.646.646,0,0,1,.036.224.608.608,0,0,1-.038.22.5.5,0,0,1-.1.164.438.438,0,0,1-.149.1.466.466,0,0,1-.177.035.479.479,0,0,1-.184-.035.43.43,0,0,1-.147-.1A.461.461,0,0,1,49.168,11.351Zm.345,1.362a.107.107,0,0,1-.049.011h-.193L50.8,10.677a.192.192,0,0,1,.041-.04.1.1,0,0,1,.056-.013h.188l-1.535,2.058A.128.128,0,0,1,49.513,12.713Zm1.674-.264a.5.5,0,0,1-.1.163.441.441,0,0,1-.148.1.462.462,0,0,1-.177.035.486.486,0,0,1-.184-.035.428.428,0,0,1-.147-.1.458.458,0,0,1-.1-.163.631.631,0,0,1-.035-.22A.656.656,0,0,1,50.331,12a.454.454,0,0,1,.1-.166.417.417,0,0,1,.147-.1.468.468,0,0,1,.184-.035.459.459,0,0,1,.183.035.416.416,0,0,1,.149.1.469.469,0,0,1,.1.166.681.681,0,0,1,.035.225A.608.608,0,0,1,51.187,12.449Z"/></g><g id="USDT_ETH" data-name="USDT ETH"><g id="el_co_o_e_tu_madre" data-name="el co o e tu madre"><rect class="cls-4" x="1.486" y="1.241" width="35.67" height="16.247"/></g><g id="Shape-6"><path class="cls-5" d="M34.648,3.583a.226.226,0,0,0,0-.318l0,0a.223.223,0,0,0-.317,0h0l-.56.56a.045.045,0,0,1-.061,0l-.56-.56a.225.225,0,0,0-.318,0l0,0a.225.225,0,0,0,0,.318h0l.56.56a.042.042,0,0,1,0,.06l-.56.56a.225.225,0,0,0,0,.318l0,0a.225.225,0,0,0,.317,0h0l.56-.561a.045.045,0,0,1,.061,0l.56.56a.223.223,0,0,0,.317,0l0,0a.225.225,0,0,0,0-.318h0l-.56-.56a.042.042,0,0,1,0-.06Z"/></g><g id="USDT_ETH-2" data-name="USDT ETH-2"><g class="cls-3"><path class="cls-5" d="M4.893,7.969a.916.916,0,0,0,.369-.07.767.767,0,0,0,.275-.194.854.854,0,0,0,.172-.3,1.166,1.166,0,0,0,.059-.383V5h.448V7.022a1.52,1.52,0,0,1-.091.534,1.253,1.253,0,0,1-.263.426,1.188,1.188,0,0,1-.416.282,1.547,1.547,0,0,1-1.1,0,1.215,1.215,0,0,1-.418-.282,1.237,1.237,0,0,1-.263-.426,1.52,1.52,0,0,1-.092-.534V5h.448V7.02a1.2,1.2,0,0,0,.059.383.856.856,0,0,0,.172.3.775.775,0,0,0,.276.2A.911.911,0,0,0,4.893,7.969Z"/><path class="cls-5" d="M8.693,5.521a.2.2,0,0,1-.044.052.1.1,0,0,1-.061.017A.161.161,0,0,1,8.5,5.551a1.186,1.186,0,0,0-.133-.087,1.083,1.083,0,0,0-.192-.088A.839.839,0,0,0,7.9,5.337a.805.805,0,0,0-.267.041.562.562,0,0,0-.194.11.446.446,0,0,0-.117.163.529.529,0,0,0-.039.2.379.379,0,0,0,.068.231.59.59,0,0,0,.181.156,1.343,1.343,0,0,0,.256.113l.292.1c.1.034.2.073.292.115a1.05,1.05,0,0,1,.256.162.734.734,0,0,1,.181.239.8.8,0,0,1,.068.348,1.139,1.139,0,0,1-.074.41.965.965,0,0,1-.217.333,1.03,1.03,0,0,1-.351.223,1.312,1.312,0,0,1-.472.081,1.426,1.426,0,0,1-.588-.118A1.376,1.376,0,0,1,6.72,7.93l.13-.214A.168.168,0,0,1,6.9,7.673a.113.113,0,0,1,.06-.017.184.184,0,0,1,.111.052c.042.035.094.073.156.115a1.21,1.21,0,0,0,.228.115.917.917,0,0,0,.326.052.872.872,0,0,0,.286-.044.609.609,0,0,0,.212-.124.539.539,0,0,0,.133-.192.637.637,0,0,0,.047-.248.412.412,0,0,0-.069-.247.541.541,0,0,0-.18-.161,1.186,1.186,0,0,0-.254-.111L7.659,6.77a2.792,2.792,0,0,1-.293-.11A.944.944,0,0,1,7.112,6.5a.746.746,0,0,1-.18-.249.962.962,0,0,1,0-.711.881.881,0,0,1,.2-.293.96.96,0,0,1,.321-.2,1.183,1.183,0,0,1,.44-.077,1.4,1.4,0,0,1,.508.089,1.163,1.163,0,0,1,.4.255Z"/><path class="cls-5" d="M12.332,6.665a1.87,1.87,0,0,1-.118.68,1.518,1.518,0,0,1-.334.524,1.491,1.491,0,0,1-.518.338,1.793,1.793,0,0,1-.668.119H9.449V5h1.245a1.813,1.813,0,0,1,.668.12,1.494,1.494,0,0,1,.518.339,1.532,1.532,0,0,1,.334.525A1.88,1.88,0,0,1,12.332,6.665Zm-.462,0a1.691,1.691,0,0,0-.083-.548,1.155,1.155,0,0,0-.237-.408,1.008,1.008,0,0,0-.371-.256,1.284,1.284,0,0,0-.485-.088H9.9v2.6h.792a1.284,1.284,0,0,0,.485-.088,1.028,1.028,0,0,0,.371-.254,1.15,1.15,0,0,0,.237-.407A1.7,1.7,0,0,0,11.87,6.665Z"/><path class="cls-5" d="M14.983,5v.379H13.908V8.326h-.45V5.379H12.379V5Z"/><path class="cls-5" d="M15.12,8.375a.238.238,0,0,1-.1.121.246.246,0,0,1-.131.039h-.174l1.395-3.474a.247.247,0,0,1,.086-.114.224.224,0,0,1,.132-.039h.174Z"/><path class="cls-5" d="M18.931,5v.367h-1.6V6.472h1.293v.353H17.334V7.96h1.6v.366h-2.05V5Z"/><path class="cls-5" d="M21.844,5v.379H20.769V8.326h-.45V5.379h-1.08V5Z"/><path class="cls-5" d="M25.014,8.326h-.453V6.813H22.77V8.326h-.453V5h.453V6.484h1.791V5h.453Z"/></g></g><path class="cls-5" d="M11.7,11.48a.312.312,0,0,0,.1-.018.216.216,0,0,0,.084-.061.306.306,0,0,0,.056-.108.643.643,0,0,0,0-.326.321.321,0,0,0-.056-.111.212.212,0,0,0-.084-.063.283.283,0,0,0-.2,0,.216.216,0,0,0-.083.063.319.319,0,0,0-.054.111.674.674,0,0,0,0,.326.3.3,0,0,0,.054.108.221.221,0,0,0,.083.061A.312.312,0,0,0,11.7,11.48Z"/><path class="cls-5" d="M8.3,11.008a.407.407,0,0,0-.157-.143.426.426,0,0,0-.373,0,.407.407,0,0,0-.157.143.817.817,0,0,0-.107.263,2.006,2.006,0,0,0,0,.807.821.821,0,0,0,.107.262.4.4,0,0,0,.157.143.417.417,0,0,0,.373,0A.4.4,0,0,0,8.3,12.34a.8.8,0,0,0,.109-.262,2.055,2.055,0,0,0,0-.807A.8.8,0,0,0,8.3,11.008Z"/><path class="cls-5" d="M10.524,11.966V11.1c0-.025,0-.053,0-.082s.005-.059.01-.091l-.764,1.039Z"/><path class="cls-5" d="M12.389,9.792H4.755a1.833,1.833,0,0,0,0,3.665h7.634a1.833,1.833,0,0,0,0-3.665Zm-7.13,2.047h-.6v.63H4.448v-.63H3.854v-.2h.594v-.626h.214v.626h.6Zm1.7.885H5.829v-.2H6.28V11.093c0-.043,0-.087,0-.131l-.375.321a.092.092,0,0,1-.03.017.072.072,0,0,1-.028,0,.086.086,0,0,1-.039-.009.078.078,0,0,1-.027-.023L5.7,11.16l.625-.541h.212v1.906h.414Zm1.707-.572a1.03,1.03,0,0,1-.162.334.66.66,0,0,1-.243.2.706.706,0,0,1-.3.064.7.7,0,0,1-.3-.064.665.665,0,0,1-.242-.2,1.009,1.009,0,0,1-.161-.334,1.995,1.995,0,0,1,0-.955,1,1,0,0,1,.161-.335.648.648,0,0,1,.242-.2.7.7,0,0,1,.3-.065.706.706,0,0,1,.3.065.643.643,0,0,1,.243.2,1.016,1.016,0,0,1,.162.335,1.962,1.962,0,0,1,0,.955Zm.627.483a.181.181,0,0,1-.169.111.171.171,0,0,1-.072-.014.167.167,0,0,1-.058-.038.193.193,0,0,1-.038-.059.185.185,0,0,1-.014-.072.2.2,0,0,1,.014-.072.177.177,0,0,1,.038-.058.182.182,0,0,1,.13-.055.179.179,0,0,1,.072.015.182.182,0,0,1,.058.04.165.165,0,0,1,.039.058.2.2,0,0,1,.014.072A.185.185,0,0,1,9.289,12.635Zm1.783-.519a.054.054,0,0,1-.014.039.052.052,0,0,1-.043.017h-.261v.552h-.23v-.552H9.593a.08.08,0,0,1-.05-.017.067.067,0,0,1-.027-.042l-.027-.133,1.022-1.356h.243v1.342h.318Zm.2-.765a.631.631,0,0,1-.035-.22.646.646,0,0,1,.035-.224.463.463,0,0,1,.1-.166.43.43,0,0,1,.147-.1.5.5,0,0,1,.368,0,.416.416,0,0,1,.148.1.463.463,0,0,1,.1.166.646.646,0,0,1,.036.224.587.587,0,0,1-.038.22.467.467,0,0,1-.1.164.434.434,0,0,1-.148.1.471.471,0,0,1-.178.035.482.482,0,0,1-.184-.035.43.43,0,0,1-.147-.1A.446.446,0,0,1,11.272,11.351Zm.379,1.331a.115.115,0,0,1-.035.031.1.1,0,0,1-.048.011h-.194L12.9,10.677a.168.168,0,0,1,.04-.04A.1.1,0,0,1,13,10.624h.187Zm1.639-.233a.481.481,0,0,1-.1.163.422.422,0,0,1-.148.1.461.461,0,0,1-.176.035.479.479,0,0,1-.184-.035.422.422,0,0,1-.148-.1.473.473,0,0,1-.1-.163.655.655,0,0,1-.035-.22A.681.681,0,0,1,12.434,12a.469.469,0,0,1,.1-.166.412.412,0,0,1,.148-.1.461.461,0,0,1,.184-.035.466.466,0,0,1,.183.035.412.412,0,0,1,.148.1.454.454,0,0,1,.1.166.656.656,0,0,1,.035.225A.587.587,0,0,1,13.29,12.449Z"/><path class="cls-5" d="M13.049,11.953a.219.219,0,0,0-.084-.062.279.279,0,0,0-.1-.019.289.289,0,0,0-.1.019.216.216,0,0,0-.083.062.312.312,0,0,0-.055.111.605.605,0,0,0-.02.165.575.575,0,0,0,.02.161.3.3,0,0,0,.055.108.2.2,0,0,0,.083.06.288.288,0,0,0,.1.018.279.279,0,0,0,.1-.018.2.2,0,0,0,.084-.06.307.307,0,0,0,.057-.108.575.575,0,0,0,.02-.161.605.605,0,0,0-.02-.165A.313.313,0,0,0,13.049,11.953Z"/><g id="_698.98988000" data-name=" 698.98988000"><g class="cls-3"><path class="cls-5" d="M16.513,11.682a.657.657,0,0,1,.239.042.565.565,0,0,1,.333.317.68.68,0,0,1,.05.267.687.687,0,0,1-.053.269.651.651,0,0,1-.147.217.669.669,0,0,1-.228.145.777.777,0,0,1-.294.053.767.767,0,0,1-.286-.051.6.6,0,0,1-.219-.143.626.626,0,0,1-.14-.226.841.841,0,0,1-.049-.3.8.8,0,0,1,.061-.293,1.492,1.492,0,0,1,.2-.334l.532-.717a.158.158,0,0,1,.058-.045.184.184,0,0,1,.083-.018h.232l-.729.922a.622.622,0,0,1,.166-.08A.649.649,0,0,1,16.513,11.682Zm-.542.638a.54.54,0,0,0,.029.185.4.4,0,0,0,.086.144.382.382,0,0,0,.138.093.488.488,0,0,0,.185.033.5.5,0,0,0,.191-.034.436.436,0,0,0,.146-.094.408.408,0,0,0,.093-.142.47.47,0,0,0,.033-.178.5.5,0,0,0-.032-.186A.4.4,0,0,0,16.749,12a.392.392,0,0,0-.141-.088.493.493,0,0,0-.18-.031.48.48,0,0,0-.19.036.434.434,0,0,0-.145.1.423.423,0,0,0-.091.14A.449.449,0,0,0,15.971,12.32Z"/><path class="cls-5" d="M18.066,12.107a.646.646,0,0,1-.225-.04.531.531,0,0,1-.187-.116.57.57,0,0,1-.129-.19.662.662,0,0,1-.047-.257.653.653,0,0,1,.051-.258.635.635,0,0,1,.144-.21.673.673,0,0,1,.22-.14.746.746,0,0,1,.28-.051.73.73,0,0,1,.274.049.641.641,0,0,1,.211.139.619.619,0,0,1,.135.215.756.756,0,0,1,.048.275.857.857,0,0,1-.017.172.821.821,0,0,1-.049.16,1.229,1.229,0,0,1-.077.154q-.045.076-.1.159l-.511.739a.138.138,0,0,1-.055.045.184.184,0,0,1-.08.016h-.241l.639-.837.061-.08c.018-.025.036-.051.052-.076a.587.587,0,0,1-.181.1A.69.69,0,0,1,18.066,12.107Zm.524-.614a.487.487,0,0,0-.031-.179.379.379,0,0,0-.22-.221.462.462,0,0,0-.169-.03.477.477,0,0,0-.177.032.41.41,0,0,0-.136.086.405.405,0,0,0-.088.134.467.467,0,0,0-.03.17.516.516,0,0,0,.028.178.374.374,0,0,0,.082.133.347.347,0,0,0,.131.082.489.489,0,0,0,.172.028.476.476,0,0,0,.187-.035.393.393,0,0,0,.222-.223A.414.414,0,0,0,18.59,11.493Z"/><path class="cls-5" d="M19.81,12.992a.93.93,0,0,1-.287-.042.671.671,0,0,1-.225-.119.543.543,0,0,1-.145-.188.59.59,0,0,1-.051-.249.519.519,0,0,1,.105-.334.586.586,0,0,1,.3-.187.507.507,0,0,1-.249-.183.5.5,0,0,1-.085-.293A.523.523,0,0,1,19.35,11a.59.59,0,0,1,.2-.117.823.823,0,0,1,.519,0,.6.6,0,0,1,.2.117.517.517,0,0,1,.129.176.531.531,0,0,1,.046.217.506.506,0,0,1-.085.293.514.514,0,0,1-.25.183.589.589,0,0,1,.3.187.519.519,0,0,1,.105.334.575.575,0,0,1-.052.249.556.556,0,0,1-.145.188.657.657,0,0,1-.224.119A.93.93,0,0,1,19.81,12.992Zm0-.208a.555.555,0,0,0,.184-.029.407.407,0,0,0,.138-.08.354.354,0,0,0,.086-.125.415.415,0,0,0,.03-.16.438.438,0,0,0-.036-.186.346.346,0,0,0-.1-.125.412.412,0,0,0-.14-.071.611.611,0,0,0-.332,0,.412.412,0,0,0-.14.071.335.335,0,0,0-.1.125.438.438,0,0,0-.036.186.415.415,0,0,0,.03.16.354.354,0,0,0,.086.125.407.407,0,0,0,.138.08A.555.555,0,0,0,19.81,12.784Zm0-1.008a.438.438,0,0,0,.175-.032.316.316,0,0,0,.118-.084.323.323,0,0,0,.066-.119.465.465,0,0,0,.021-.14.391.391,0,0,0-.024-.137.319.319,0,0,0-.191-.189.5.5,0,0,0-.33,0,.314.314,0,0,0-.19.189.37.37,0,0,0-.025.137.465.465,0,0,0,.021.14.318.318,0,0,0,.184.2A.438.438,0,0,0,19.81,11.776Z"/><path class="cls-5" d="M20.79,12.807a.171.171,0,0,1,.015-.071.166.166,0,0,1,.038-.059.178.178,0,0,1,.057-.04.2.2,0,0,1,.072-.014.189.189,0,0,1,.072.014.187.187,0,0,1,.059.04.2.2,0,0,1,.039.059.187.187,0,0,1,.014.071.19.19,0,0,1-.014.073.211.211,0,0,1-.039.058.169.169,0,0,1-.059.039.188.188,0,0,1-.072.013.2.2,0,0,1-.072-.013.161.161,0,0,1-.057-.039.192.192,0,0,1-.053-.131Z"/><path class="cls-5" d="M22.088,12.107a.65.65,0,0,1-.225-.04.54.54,0,0,1-.187-.116.554.554,0,0,1-.128-.19A.644.644,0,0,1,21.5,11.5a.653.653,0,0,1,.051-.258.635.635,0,0,1,.144-.21.684.684,0,0,1,.22-.14.746.746,0,0,1,.28-.051.73.73,0,0,1,.274.049.641.641,0,0,1,.211.139.621.621,0,0,1,.136.215.778.778,0,0,1,.047.275.79.79,0,0,1-.017.172.821.821,0,0,1-.049.16,1.229,1.229,0,0,1-.077.154c-.029.051-.063.1-.1.159l-.512.739a.142.142,0,0,1-.054.045.192.192,0,0,1-.081.016h-.24l.639-.837.06-.08.053-.076a.6.6,0,0,1-.182.1A.69.69,0,0,1,22.088,12.107Zm.525-.614a.487.487,0,0,0-.032-.179.393.393,0,0,0-.087-.135.377.377,0,0,0-.133-.086.462.462,0,0,0-.169-.03.484.484,0,0,0-.177.032.421.421,0,0,0-.136.086.388.388,0,0,0-.087.134.447.447,0,0,0-.031.17.515.515,0,0,0,.029.178.36.36,0,0,0,.082.133.336.336,0,0,0,.13.082.493.493,0,0,0,.172.028.473.473,0,0,0,.187-.035.391.391,0,0,0,.137-.091.37.37,0,0,0,.085-.132A.415.415,0,0,0,22.613,11.493Z"/><path class="cls-5" d="M23.832,12.992a.934.934,0,0,1-.287-.042.657.657,0,0,1-.224-.119.532.532,0,0,1-.145-.188.575.575,0,0,1-.052-.249.514.514,0,0,1,.106-.334.582.582,0,0,1,.3-.187A.474.474,0,0,1,23.2,11.4a.53.53,0,0,1,.045-.217A.517.517,0,0,1,23.372,11a.6.6,0,0,1,.2-.117.826.826,0,0,1,.52,0,.6.6,0,0,1,.2.117.545.545,0,0,1,.129.176.53.53,0,0,1,.045.217.5.5,0,0,1-.085.293.516.516,0,0,1-.249.183.586.586,0,0,1,.3.187.519.519,0,0,1,.105.334.575.575,0,0,1-.052.249.543.543,0,0,1-.145.188.652.652,0,0,1-.223.119A.936.936,0,0,1,23.832,12.992Zm0-.208a.551.551,0,0,0,.184-.029.4.4,0,0,0,.138-.08.341.341,0,0,0,.086-.125.4.4,0,0,0,.031-.16.438.438,0,0,0-.036-.186.348.348,0,0,0-.1-.125.4.4,0,0,0-.14-.071.605.605,0,0,0-.166-.023.6.6,0,0,0-.165.023.394.394,0,0,0-.14.071.337.337,0,0,0-.1.125.438.438,0,0,0-.036.186.415.415,0,0,0,.03.16.344.344,0,0,0,.087.125.393.393,0,0,0,.137.08A.555.555,0,0,0,23.832,12.784Zm0-1.008a.434.434,0,0,0,.175-.032.316.316,0,0,0,.118-.084.3.3,0,0,0,.066-.119.465.465,0,0,0,.021-.14.391.391,0,0,0-.024-.137.312.312,0,0,0-.072-.113A.316.316,0,0,0,24,11.075a.439.439,0,0,0-.165-.028.446.446,0,0,0-.165.028.321.321,0,0,0-.19.189.391.391,0,0,0-.024.137.465.465,0,0,0,.02.14.318.318,0,0,0,.184.2A.441.441,0,0,0,23.832,11.776Z"/></g></g></g></g></svg>