<svg xmlns="http://www.w3.org/2000/svg" xmlns:xlink="http://www.w3.org/1999/xlink" width="107.24" height="108.27" viewBox="0 0 107.24 108.27">
  <defs>
    <clipPath id="clip-TelegramSVG">
      <rect width="107.24" height="108.27"/>
    </clipPath>
  </defs>
  <g id="TelegramSVG" clip-path="url(#clip-TelegramSVG)">
    <g id="Grupo_3487" data-name="Grupo 3487" transform="translate(-3019.729 2070.666)">
      <path id="Trazado_977" data-name="Trazado 977" d="M3073.158-1963.386a53.445,53.445,0,0,1-53.429-53.46c0-.08,0-.16,0-.24a53.577,53.577,0,0,1,53.573-53.58l.5,0c28.86.042,53.2,24.3,53.213,53.045C3127.033-1987.312,3103.225-1963.342,3073.158-1963.386Zm-11.443-41.786c.616.524,1.022.911,1.468,1.243q11.212,8.337,22.434,16.66c3.119,2.313,5.5,1.476,6.312-2.294,3.4-15.787,6.808-31.572,10.054-47.39a6.257,6.257,0,0,0-1.031-4.43c-1.092-1.5-2.831-.5-4.275.054q-20.619,7.961-41.24,15.919c-5.922,2.285-11.873,4.5-17.743,6.913a3.919,3.919,0,0,0-2.045,2.521c-.1.51,1.309,1.638,2.22,1.949,4.4,1.5,8.879,2.782,13.3,4.229a3.942,3.942,0,0,0,3.716-.485q15.855-10.169,31.807-20.188a33.02,33.02,0,0,1,3.377-1.649l.537.8Z" fill="#fff"/>
      <path id="Trazado_978" data-name="Trazado 978" d="M3061.715-2005.172l28.891-26.144-.537-.8a33.044,33.044,0,0,0-3.377,1.649q-15.936,10.047-31.807,20.188a3.942,3.942,0,0,1-3.716.485c-4.421-1.447-8.9-2.727-13.3-4.229-.911-.311-2.317-1.439-2.22-1.949a3.917,3.917,0,0,1,2.045-2.521c5.87-2.412,11.821-4.628,17.743-6.913q20.622-7.959,41.239-15.919c1.445-.557,3.184-1.554,4.275-.054a6.248,6.248,0,0,1,1.031,4.43c-3.246,15.818-6.655,31.6-10.054,47.39-.812,3.77-3.193,4.607-6.312,2.294q-11.221-8.322-22.434-16.66C3062.737-2004.261,3062.331-2004.648,3061.715-2005.172Z"/>
    </g>
  </g>
</svg>
