<svg xmlns="http://www.w3.org/2000/svg" viewBox="0 0 38.945 23.182"><defs><style>.cls-1{fill:#fff;}</style></defs><g id="Capa_12" data-name="Capa 12"><path class="cls-1" d="M33.621,9.167c.3,1,.6,1.9.8,2.7a.993.993,0,0,0,.6.8,4.691,4.691,0,0,1,2.8,4.6,4.621,4.621,0,0,1-3.3,4.5,5.663,5.663,0,0,1-1.8.3H7.821a6.574,6.574,0,0,1-4.7-1.9c.9-.7,1.7-1.4,2.6-2.1,2.5-2,5-4,7.6-6a1.2,1.2,0,0,1,.8-.2,4.3,4.3,0,0,0,1.6,0c.3,0,.5-.1.8.2,1.4,1.3,2.9,2.5,4.3,3.8.1.1.3.4.2.6a2.828,2.828,0,0,0,1.4,2.9,2.711,2.711,0,0,0,3.1-.1,2.852,2.852,0,0,0,1.2-3c0-.2,0-.5.1-.6A81.616,81.616,0,0,0,33.621,9.167Z"/><path class="cls-1" d="M1.821,18.267a6.546,6.546,0,0,1,3.5-8.9,14.62,14.62,0,0,1,2-.5c.5,0,.6-.2.7-.6a8.6,8.6,0,0,1,2.5-4.8,8.874,8.874,0,0,1,14.5,3.4,4.169,4.169,0,0,1,.2.6,6.1,6.1,0,0,1,6.5.1.781.781,0,0,1-.4.4l-6,6a.806.806,0,0,1-.9.3,5.652,5.652,0,0,0-1.3,0,.952.952,0,0,1-.7-.2c-1.5-1.3-3-2.6-4.4-3.9a1.056,1.056,0,0,1-.2-.5,2.945,2.945,0,0,0-1.2-2.9,2.555,2.555,0,0,0-3-.1,2.759,2.759,0,0,0-1.5,2.8c0,.3,0,.5-.3.7C8.521,12.867,5.221,15.567,1.821,18.267Z"/></g></svg>