<svg id="Capa_1" data-name="Capa 1" xmlns="http://www.w3.org/2000/svg" viewBox="0 0 22 22"><defs><style>.cls-1{fill:#f3f3f3;}</style></defs><path class="cls-1" d="M8.535,17.5c0-.01.01-.02.01-.04-.11-.01-.21-.01-.32-.01a10.4,10.4,0,0,0-1.95-.07h0c-1.66-.02-3.31.03-4.99-.02V7.675h0V4.445H.845a.4.4,0,0,0-.19.02c-.02.01-.04.03-.06.04s-.01.01-.02.01a.609.609,0,0,0-.22.2c-.01.01,0,.03,0,.05a1.133,1.133,0,0,0-.08.37c-.01.77,0,2.27,0,2.27h0v10.4c0,.49.15.65.61.65h5.43a6.153,6.153,0,0,1,3.24.72,5.385,5.385,0,0,1,.94,1.07c.2.28.36.41.53.39-.01-.47-.03-.99-.05-1.49A2.838,2.838,0,0,0,8.535,17.5Z"/><path class="cls-1" d="M21.8,5.135a.753.753,0,0,0-.08-.37c0-.02.01-.03,0-.05a.609.609,0,0,0-.22-.2c-.01,0-.01-.01-.02-.01a.218.218,0,0,1-.05-.04.413.413,0,0,0-.19-.02H20.8v3.24h0v9.68c-1.68.04-3.33,0-4.99.02h0a9.488,9.488,0,0,0-1.95.07c-.11.01-.21.01-.32.01,0,.01.01.02.01.04a2.836,2.836,0,0,0-2.45,1.65c-.02.5-.04,1.02-.05,1.49.17.01.34-.11.53-.39a5.385,5.385,0,0,1,.94-1.07,6.153,6.153,0,0,1,3.24-.72h5.43c.46,0,.61-.16.61-.65V7.415h0C21.8,7.405,21.805,5.915,21.8,5.135Z"/><path class="cls-1" d="M8.265,15.515s1.93.18,2.07.96V3.975s.55-2.16-2.51-2.14-5.38.02-5.38.02l.01,13.64ZM3.4,4.535h5.82v1.3H3.4Zm0,2.93h5.82v1.3H3.4Zm0,3.22h3.64v1.3H3.4Z"/><path class="cls-1" d="M11.665,16.415c.14-.78,2.07-.96,2.07-.96l5.81-.01.01-13.65s-2.33,0-5.39-.02-2.51,2.14-2.51,2.14v12.5Zm3.49-12.56H16.7v1.43h-1.54Zm0,3.03H16.7v6.57h-1.54Z"/></svg>