<svg xmlns="http://www.w3.org/2000/svg" xmlns:xlink="http://www.w3.org/1999/xlink" width="107.24" height="108.27" viewBox="0 0 107.24 108.27">
  <defs>
    <clipPath id="clip-TwitterSVG">
      <rect width="107.24" height="108.27"/>
    </clipPath>
  </defs>
  <g id="TwitterSVG" clip-path="url(#clip-TwitterSVG)">
    <g id="Grupo_3489" data-name="Grupo 3489" transform="translate(-2598.427 2070.666)">
      <path id="Trazado_983" data-name="Trazado 983" d="M2651.942-2070.665c29.211-.2,53.542,23.619,53.725,52.591.191,30.261-23.446,54.587-53.187,54.678a53.52,53.52,0,0,1-54.045-52.963,53.364,53.364,0,0,1,52.413-54.3C2651.213-2070.663,2651.577-2070.666,2651.942-2070.665Zm-31.4,78.512c1.225.656,1.865,1.045,2.542,1.353a45.342,45.342,0,0,0,18.835,4.33c14.629.013,26.211-6.029,34.442-18.1a41.1,41.1,0,0,0,6.829-21.107c.128-2.188.443-4.009,2.412-5.461,1.54-1.136,2.663-2.837,4.362-4.72l-6.719,1.488,5.168-6.932a38,38,0,0,0-7.166,1.96,3.122,3.122,0,0,1-3.418-.742,14.347,14.347,0,0,0-20.215,1.728,14.372,14.372,0,0,0-2.476,4.247c-.905,2.5-1.047,5.283-1.591,8.213-11.657-.385-20.879-6.345-28.906-14.992-3.263,7.315-2.212,13.549,3.4,19.008l-.371.352-4.8-1.377c.025,7.129,3.8,11.38,10.125,14.192l-5.151.283c1.813,6.442,7.09,8.368,12.981,9.793-5.78,5.207-12.675,6.008-20.292,6.484Z" fill="#fff"/>
      <path id="Trazado_984" data-name="Trazado 984" d="M2620.538-1992.153c7.617-.476,14.512-1.277,20.289-6.488-5.891-1.425-11.168-3.351-12.981-9.793l5.151-.283c-6.321-2.812-10.1-7.063-10.125-14.192l4.8,1.377.371-.352c-5.617-5.459-6.668-11.693-3.405-19.008,8.027,8.647,17.249,14.607,28.906,14.992.544-2.93.686-5.709,1.591-8.213a14.345,14.345,0,0,1,18.444-8.451,14.368,14.368,0,0,1,4.246,2.476,3.124,3.124,0,0,0,3.418.742,37.928,37.928,0,0,1,7.166-1.96l-5.168,6.932,6.719-1.488c-1.7,1.883-2.822,3.584-4.362,4.72-1.969,1.452-2.284,3.273-2.412,5.461a41.1,41.1,0,0,1-6.83,21.106c-8.231,12.075-19.813,18.117-34.441,18.1a45.342,45.342,0,0,1-18.835-4.329C2622.4-1991.108,2621.763-1991.5,2620.538-1992.153Z"/>
    </g>
  </g>
</svg>
